<?xml version="1.0" encoding="UTF-8"?><svg id="Laag_1" xmlns="http://www.w3.org/2000/svg" viewBox="0 0 324.24 325.34"><defs><style>.cls-1{fill:#f2b21f;}.cls-2{fill:#ec696a;}.cls-2,.cls-3,.cls-4{stroke:#a56e18;stroke-miterlimit:10;stroke-width:.75px;}.cls-3{fill:#190604;}.cls-4{fill:#19191e;}.cls-5{fill:#a56e18;}</style></defs><path class="cls-4" d="m53.17,149.45c.11.44.22.89.33,1.33-.11-.44-.22-.89-.33-1.33Z"/><path class="cls-4" d="m53.5,168.06c-.1.3-.21.6-.31.89.1-.3.21-.6.31-.89Z"/><path class="cls-4" d="m53.9,151.2c.3.15.6.3.9.45-.3-.15-.6-.3-.9-.45Z"/><path class="cls-3" d="m55.24,166.89c-.14,0-.28,0-.42,0,.14-.07.28-.07.42,0Z"/><path class="cls-2" d="m71.73,145.98c.72,1.45,1.44,2.89,2.16,4.34-.72-1.45-1.44-2.89-2.16-4.34Z"/><path class="cls-2" d="m81.7,164.63c.29.43.58.87.87,1.3-.29-.43-.58-.87-.87-1.3Z"/><path class="cls-2" d="m68.69,139.04c.14.29.29.58.43.87-.14-.29-.29-.58-.43-.87Z"/><path class="cls-2" d="m74.33,151.18c.14.29.29.58.43.87-.14-.29-.29-.58-.43-.87Z"/><path class="cls-2" d="m75.2,152.92c.14.29.29.58.43.87-.14-.29-.29-.58-.43-.87Z"/><path class="cls-2" d="m69.99,142.08c.14.29.29.58.43.87-.14-.29-.29-.58-.43-.87Z"/><path class="cls-1" d="m302.1,68.17c0-.64-.13-1.22-.78-1.53-1.51-.46-1.52-2.02-2.26-3.05,0-.64-.15-1.21-.8-1.51-10.11-14.26-22.55-26.25-36.77-36.25C240.58,11.11,217.03,2.81,191.68.69c-14.31-1.2-28.88-1.02-43.08,2.15-14.64,3.27-28.58,8.37-41.78,15.77-20.18,11.3-36.59,26.42-49.59,45.45-11.19,16.37-18.59,34.38-22.61,53.68-2.45,11.78-2.79,23.85-2.45,35.92.17,5.99,1.55,11.79,2.19,17.7.65,6.06,2.99,11.67,3.96,17.62.01,1.21.53,2.21,1.3,3.1,3.14,8.5,6.14,17,10.77,24.91,7.2,12.28,15.46,23.69,25.6,33.69,4.35,4.29,9.16,8.06,14.01,11.79,10.38,8,21.59,14.5,33.79,19.25,13.69,5.34,27.71,9,42.5,10.17,9.91.79,19.62.34,29.39-.8.23.36.48.38.74.03,8.22-.78,16.26-2.56,24.11-5.02,25.95-8.14,48.22-22.14,66.54-42.32l.58-.8c6.47-7.23,12.31-14.93,16.88-23.52.2-.27.4-.54.6-.81,6.26-11.61,11.59-23.53,14.63-36.48,1.42-6.05,2.11-12.24,3.83-18.22.64-.51.63-1-.02-1.49-.86-2.64.75-5.05.67-7.69-.27-8.59.17-17.21-.69-25.79.08-.07.25-.16.24-.21-.04-.18-.14-.35-.21-.53-1.34-7.07-2.67-14.14-4.01-21.21-.18-.53-.36-1.06-.54-1.59-1.23-1.55-1.02-3.58-1.72-5.3-.19-.26-.38-.52-.57-.78-.07-.5-.13-1-.2-1.49l-.57-.79c-.07-.49-.13-.98-.2-1.47-.2-.27-.4-.54-.6-.81-3.12-9.47-8.18-18-13.07-26.6Z"/><path class="cls-5" d="m8.01,223.23c-.07-.43-.13-.86-.2-1.29-.02-.71.13-1.47-.68-1.9-1.18-.6-.3-1.71-.61-2.52-.01-.72.15-1.5-.68-1.94-2.2-6.65-3.63-13.46-4.27-20.43.07-.06.21-.13.2-.17-.03-.15-.11-.29-.17-.44-.19-1.71-1.3-3.31-.68-5.13.07-.06.21-.13.2-.17-.03-.15-.11-.3-.18-.44-1.27-9.15-1.27-18.29,0-27.44.07-.06.2-.14.19-.18-.05-.15-.14-.29-.21-.43-.61-1.82.48-3.41.67-5.13.07-.06.2-.14.19-.18-.05-.15-.14-.29-.21-.43.2-5.9,1.68-11.61,3.19-17.22,2.31-8.56,4.77-17.13,8.89-25.07,2.73-5.26,5.53-10.49,8.3-15.73.17-.22.34-.45.5-.67.21-.2.42-.4.63-.6.54-.26.65-.75.65-1.28,6.86-10.7,15.01-20.32,24.3-29,10.32-9.65,21.8-17.47,34.35-24.02,12.5-6.52,25.71-10.6,39.3-13.73,2.76-.64,5.7-.71,8.53-1.29.4.55.82.54,1.24.02,1.57.24,2.89-1.14,4.49-.67.19.3.39.32.61.03,8.39-.06,16.82-.71,25.15-.05,21.12,1.68,41.19,7.34,59.83,17.61,10.78,5.95,20.66,13.11,29.8,21.41,14.31,13,25.56,28.23,33.89,45.58,4.85,10.11,8.59,20.64,10.81,31.73,1.41,7.03,3.08,13.96,3.09,21.18.16.23.32.46.48.69,0,7.44,0,14.89,0,22.33-.16.23-.32.45-.48.68-.06,2.11-.13,4.22-.19,6.33-.15.22-.3.44-.45.66-.07,4.28-1.07,8.42-1.95,12.56-2.25,10.62-5.5,20.91-10.16,30.75-5.86,12.38-12.95,23.94-21.91,34.36-11.62,13.52-24.92,24.99-40.44,33.75-11.67,6.58-23.91,11.73-37.03,14.88-7.01,1.68-14.07,2.98-21.14,4.29-.81.15-1.68-.05-2.53-.09-.19-.3-.39-.31-.61-.03-8.3,1.17-16.59,1.31-24.89,0-.22-.3-.42-.27-.61.03-2.01.57-3.86-.34-5.76-.67-.22-.29-.42-.26-.61.03-5.16-.23-10.13-1.57-15.14-2.66-9.08-1.97-17.7-5.36-26.3-8.8-.05-1.23-.76-.7-1.34-.5-4.86-2.6-9.73-5.2-14.59-7.79-.03-1.18-.7-.75-1.29-.51,0,0,0,0,0,0-.01-.9-.51-1.28-1.37-1.29-1.92-1.71-4.66-2.27-6.28-4.41-.27-.6-.8-.68-1.36-.69-5-3.25-9.5-7.16-13.82-11.18-6.47-6.02-12.83-12.2-17.85-19.57-.58-.86-1.34-1.59-2.02-2.38,0-.54-.12-1.02-.67-1.27-6.12-8.11-11.33-16.75-15.27-26.13-.17-.22-.35-.43-.52-.65-1.52-4.04-3.05-8.08-4.57-12.13-.15-.2-.29-.41-.44-.61Zm245.85-113.46c0-.54-.11-1.02-.65-1.28-1.26-.38-1.28-1.69-1.9-2.55,0-.54-.12-1.01-.67-1.27-8.48-11.95-18.91-22.01-30.83-30.39-17.53-12.34-37.28-19.3-58.54-21.08-12-1.01-24.21-.86-36.12,1.8-12.28,2.75-23.96,7.02-35.03,13.22-16.92,9.47-30.68,22.15-41.58,38.11-9.38,13.73-15.59,28.82-18.96,45-2.06,9.88-2.34,20-2.05,30.11.14,5.02,1.3,9.89,1.84,14.84.55,5.08,2.51,9.78,3.32,14.77.01,1.02.45,1.85,1.09,2.6,2.63,7.12,5.14,14.25,9.03,20.88,6.04,10.3,12.96,19.86,21.46,28.24,3.65,3.6,7.68,6.76,11.75,9.89,8.7,6.7,18.1,12.15,28.33,16.14,11.48,4.47,23.23,7.54,35.63,8.53,8.31.66,16.45.28,24.64-.67.19.3.4.32.62.03,6.89-.66,13.63-2.14,20.21-4.21,21.76-6.82,40.43-18.56,55.79-35.48l.49-.67c5.43-6.06,10.32-12.52,14.15-19.72.17-.23.34-.45.5-.68,5.24-9.73,9.71-19.72,12.27-30.58,1.19-5.08,1.77-10.27,3.21-15.28.53-.42.53-.84-.02-1.25-.73-2.22.63-4.23.56-6.44-.22-7.21.14-14.43-.58-21.62.07-.06.21-.13.2-.17-.03-.15-.11-.3-.18-.44-1.12-5.93-2.24-11.86-3.36-17.78-.15-.44-.3-.89-.45-1.33-1.03-1.3-.86-3-1.45-4.45-.16-.22-.32-.44-.47-.66-.05-.42-.11-.83-.16-1.25l-.48-.66c-.06-.41-.11-.82-.17-1.24-.17-.23-.34-.45-.5-.68-2.62-7.94-6.86-15.09-10.96-22.3Z"/><path class="cls-5" d="m88.06,311.84c.58-.2,1.29-.73,1.34.5-.56.13-1.11.24-1.34-.5Z"/><path class="cls-5" d="m5.84,215.58c.83.44.67,1.22.68,1.94-.99-.38-.38-1.32-.68-1.94Z"/><path class="cls-5" d="m72.18,303.54c.59-.24,1.26-.67,1.29.51-.54.1-1.11.29-1.29-.51Z"/><path class="cls-5" d="m7.13,220.04c.81.42.66,1.19.68,1.9-1-.35-.35-1.3-.68-1.9Z"/><path class="cls-5" d="m70.81,302.25c.86,0,1.36.39,1.37,1.29-.46-.43-.91-.86-1.37-1.29Z"/><path class="cls-5" d="m63.17,297.16c.56.01,1.09.09,1.36.69-.49-.15-1.18.09-1.36-.69Z"/><path class="cls-5" d="m28.81,262.75c.55.25.66.73.67,1.27-.69-.18-.48-.83-.67-1.27Z"/><path class="cls-5" d="m23.74,94.44c0,.54-.11,1.02-.65,1.28.17-.45-.02-1.09.65-1.28Z"/><path class="cls-5" d="m131.46,26.41c-.42.52-.83.53-1.24-.02.41,0,.83.01,1.24.02Z"/><path class="cls-5" d="m299.14,186.94c.16-.23.32-.45.48-.68.14.44-.15.57-.48.68Z"/><path class="cls-5" d="m162.72,324.41c.22-.29.42-.27.61.03l-.31.08-.3-.1Z"/><path class="cls-5" d="m299.62,163.92c-.16-.23-.32-.46-.48-.69.33.11.63.25.48.69Z"/><path class="cls-5" d="m.95,188.8c.06.15.14.29.18.44,0,.04-.13.11-.2.17,0-.2.02-.41.02-.61Z"/><path class="cls-5" d="m298.5,193.94c.15-.22.3-.44.45-.66.14.42-.15.55-.45.66Z"/><path class="cls-5" d="m1.6,194.54c.06.15.14.29.17.44,0,.04-.13.11-.2.17-.11-.21-.1-.41.03-.61Z"/><path class="cls-5" d="m.93,160.75c.07.14.17.28.21.43.01.04-.12.12-.19.18,0-.2-.01-.41-.02-.61Z"/><path class="cls-5" d="m8.01,223.23c.15.2.29.41.44.61-.33-.07-.62-.18-.44-.61Z"/><path class="cls-5" d="m1.57,155.02c.07.14.17.28.21.43.01.04-.12.12-.19.18-.13-.2-.14-.4-.03-.61Z"/><path class="cls-5" d="m13.02,235.97c.17.22.35.43.52.65-.38-.05-.65-.19-.52-.65Z"/><path class="cls-5" d="m22.46,96.32c-.17.22-.34.45-.5.67-.13-.45.15-.59.5-.67Z"/><path class="cls-5" d="m136.56,25.77c-.22.29-.42.27-.61-.03.21-.11.41-.1.61.03Z"/><path class="cls-5" d="m130.85,323.79c.19-.29.39-.32.61-.03,0,0-.3.1-.3.1l-.31-.07Z"/><path class="cls-5" d="m137.22,324.44c.19-.29.39-.32.61-.03l-.3.1-.31-.08Z"/><path class="cls-5" d="m32.7,211.04c1.95.2,1.01,1.61,1.09,2.6-.65-.75-1.08-1.58-1.09-2.6Z"/><path class="cls-5" d="m268.49,142.33c-.64-.28-.55-.81-.45-1.33.15.44.3.89.45,1.33Z"/><path class="cls-5" d="m253.85,109.77c-.67-.2-.48-.83-.65-1.28.54.27.65.75.65,1.28Z"/><path class="cls-5" d="m251.31,105.93c-.68-.18-.47-.83-.67-1.27.54.25.66.73.67,1.27Z"/><path class="cls-5" d="m271.87,190.05c0-.42-.01-.83-.02-1.25.54.41.55.82.02,1.25Z"/><path class="cls-5" d="m271.84,160.74c0-.21.02-.41.02-.62.06.15.15.29.18.44,0,.04-.13.11-.2.17Z"/><path class="cls-5" d="m255.89,236.59c-.13-.45.15-.59.5-.68-.17.23-.34.45-.5.68Z"/><path class="cls-5" d="m266.6,136.55c-.34-.09-.63-.21-.47-.66.16.22.32.44.47.66Z"/><path class="cls-5" d="m241.25,256.99c-.14-.44.15-.58.49-.67-.16.22-.32.45-.49.67Z"/><path class="cls-5" d="m265.96,134.64c-.34-.09-.63-.22-.48-.66.16.22.32.44.48.66Z"/><path class="cls-5" d="m164.63,296.65c.21,0,.41.02.62.03-.22.29-.42.27-.62-.03Z"/><path class="cls-5" d="m265.32,132.75c-.36-.09-.64-.23-.5-.68.17.23.34.45.5.68Z"/><path class="cls-5" d="m93.22,161.53c13.45-.05,26.9-.17,40.35-.08,2.51.02,3.08-.66,3.07-3.11-.07-13.45.06-26.89.13-40.34.52-.42.49-.83-.03-1.23.21-.44.42-.87.63-1.31.15-.44.31-.88.46-1.32,2.58-4.18,5.72-7.1,11.2-7.13,6.9-.04,11.62,2.64,14,9.16.28.76.23,1.64.33,2.46.15.22.3.44.44.66.05,13.03.17,26.05.08,39.08-.02,2.51.65,3.09,3.11,3.08,13.03-.09,26.05.03,39.08.07l.68.48c7.23-.2,13.37,9.24,11,16.11-2.28,6.62-6.02,10.15-11.72,10.55-.19-.3-.4-.31-.61-.02-12.92.04-25.85.14-38.77.07-2.23-.01-2.78.54-2.77,2.77.07,12.92-.03,25.84-.08,38.77-.15.22-.3.44-.45.66-.13,5.06-2.81,8.54-7.11,10.73-4.46,2.28-9.01,2.86-13.31-.55-.27-.56-.77-.66-1.32-.65-1.65-1.17-3.03-2.58-3.76-4.52-.1-1.03.36-2.36-1.35-2.54.02-14.19,0-28.38.12-42.56.02-2.09-.91-2.09-2.45-2.08-12.28.04-24.57.03-36.85.02-1.16,0-2.32-.08-3.48-.13-.42-.54-.84-.52-1.24.02-9.83-2.03-13.85-10.92-9.46-20.91.17-.22.34-.45.5-.67,2.21-3.1,5.11-5.08,8.96-5.56.2.3.4.31.61.01Z"/><path class="cls-5" d="m136.5,233.39c1.71.17,1.25,1.5,1.35,2.54-.36-.89-1.84-1.19-1.35-2.54Z"/><path class="cls-5" d="m136.73,116.78c.52.4.55.81.03,1.23,0-.41-.02-.82-.03-1.23Z"/><path class="cls-5" d="m137.82,114.14c-.15.44-.31.88-.46,1.32-.16-.55-.29-1.09.46-1.32Z"/><path class="cls-5" d="m141.62,240.44c.55,0,1.05.1,1.32.65-.45-.19-1.16.13-1.32-.65Z"/><path class="cls-5" d="m92.6,188.65c.4-.54.82-.56,1.24-.02-.41,0-.83.01-1.24.02Z"/><path class="cls-5" d="m205.43,188.64c.21-.29.42-.28.61.02l-.31.08-.3-.1Z"/><path class="cls-5" d="m206.75,162l-.68-.48c.44-.14.57.16.68.48Z"/><path class="cls-5" d="m93.22,161.53c-.21.29-.41.29-.61-.01.21-.11.41-.1.61.01Z"/><path class="cls-5" d="m163.36,230.91c.15-.22.3-.44.45-.66.15.43-.15.55-.45.66Z"/><path class="cls-5" d="m163.8,119.3c-.15-.22-.3-.44-.44-.66.3.12.6.24.44.66Z"/><path class="cls-5" d="m83.65,167.07c-.17.22-.34.45-.5.67-.13-.45.15-.59.5-.67Z"/></svg>