<?xml version="1.0" encoding="UTF-8"?><svg id="Laag_1" xmlns="http://www.w3.org/2000/svg" viewBox="0 0 214.87 170.97"><defs><style>.cls-1{fill:#070501;}.cls-2{fill:#f9c177;}</style></defs><path class="cls-1" d="m.29,44.59c.52-4.92,2.2-9.44,5.03-13.47,3.73-5.29,8.08-10.12,13.44-13.75,7.55-5.11,15.74-8.99,24.5-11.72,6.93-2.15,13.94-3.6,21.14-4.51C70.95.32,77.49,0,84.06,0c15.14,0,30.27.02,45.41,0,6.2-.01,12.39.36,18.55.92,4.18.38,8.32,1.4,12.47,2.19,6.31,1.21,12.33,3.15,18.26,5.45,7.96,3.09,15.44,7.15,21.89,12.78,4.68,4.08,9.06,8.58,11.54,14.38,1.27,2.98,2.16,6.18,2.52,9.52.78,7.15-1.02,13.73-4.2,19.95-1.8,3.53-4,6.87-7.38,9.27-1.63,1.16-2.71,2.98-4.46,4.06-.67.42-.3,1.26-.3,1.9-.02,23.26,0,46.53-.03,69.79,0,3.36-.89,6.48-2.33,9.54-2.43,5.17-6.8,7.88-11.76,9.98-2.43,1.03-4.98,1.24-7.61,1.24-46.76-.04-93.53.01-140.29-.09-6.62-.01-11.6-3.45-15.68-8.62-3.21-4.06-4.02-8.51-4-13.47.08-22.65.02-45.3.07-67.96,0-1.28-.33-2.19-1.32-2.93-3.4-2.56-5.85-5.98-8.61-9.15-3.45-3.97-4.87-8.64-6.33-13.43-.25-.81.86-1.87-.48-2.41v-7.33c.36-.26.41-.61.29-1Zm81.92,118.22v-.02c14.25,0,28.5,0,42.75,0,.65,0,1.28-.12,1.94-.28,6.92-1.72,9.93-6.76,9.93-13.51.02-23.67.03-47.33-.03-71,0-1.76.34-3.21,1.8-4.23,5.06-3.57,8.89-8.19,12.11-13.45,3.05-4.98,3.45-10.35,2.63-15.88-.41-2.77-1.83-5.19-3.27-7.66-3.12-5.33-7.23-9.67-12.27-13.04-5.89-3.94-12.24-7.07-18.98-9.34-5.52-1.86-11.14-3.27-16.89-4.23-3.43-.57-6.86-.97-10.32-1.29-4.02-.37-8.08-.71-12.05-.53-3.39.16-6.82.13-10.24.53-5.69.66-11.34,1.45-16.9,2.8-6.84,1.66-13.45,3.94-19.72,7.18-7.2,3.72-13.89,8.1-18.78,14.75-2.9,3.95-4.92,8.31-5.34,13.24-.54,6.4,1.5,12.1,5.15,17.29,1.46,2.08,2.89,4.3,4.89,5.8,1.58,1.19,3.09,2.48,4.69,3.65,1.54,1.13,1.98,2.68,1.98,4.6-.05,23.19-.03,46.38-.04,69.58,0,1.07.45,2.18.32,3.14-.43,3.36,1.13,5.79,3.12,8.17,2.97,3.56,7.22,3.61,11.18,3.67,14.11.21,28.23.08,42.35.08Zm59.13-.05c12.45,0,24.53.03,36.61-.02,2.66-.01,5.05-1.11,7.11-2.72,3.43-2.68,4.7-6.41,4.7-10.62.01-23.8.03-47.61-.03-71.41,0-2.03.64-3.38,2.31-4.55,5.09-3.55,8.86-8.36,12.06-13.56,2.04-3.33,2.6-7.27,2.68-11.15.03-1.25.07-2.68-.22-3.86-.85-3.45-2.43-6.6-4.48-9.58-5.83-8.48-14.23-13.57-23.28-17.73-5.53-2.54-11.31-4.47-17.29-5.81-5.59-1.25-11.24-2.02-16.9-2.84-3.42-.49-6.85-.03-10.26-.62-2.37-.41-4.87-.08-7.8-.08,4.49,2.47,8.76,4.16,12.68,6.54,4.22,2.55,7.7,5.97,11.38,9.2,4.23,3.71,7.14,8.14,9.05,13.26,1.82,4.87,3.01,9.91,2.04,15.18-.48,2.6-.81,5.27-1.7,7.73-2.6,7.22-7.39,12.93-13.31,17.68-.98.79-1.3,1.45-1.29,2.62.03,22.52.02,45.03.02,67.55,0,5.21-.72,10.24-4.08,14.8Z"/><path class="cls-2" d="m.29,44.59c.12.4.08.75-.29,1v-1.22c.14,0,.24.08.29.22Z"/><path class="cls-2" d="m82.21,162.81c-14.12,0-28.23.13-42.35-.08-3.95-.06-8.2-.11-11.18-3.67-1.99-2.38-3.55-4.81-3.12-8.17.12-.95-.33-2.06-.32-3.14.01-23.19,0-46.39.04-69.58,0-1.92-.44-3.47-1.98-4.6-1.6-1.17-3.11-2.47-4.69-3.65-2-1.5-3.43-3.72-4.89-5.8-3.65-5.19-5.69-10.89-5.15-17.29.42-4.93,2.43-9.29,5.34-13.24,4.89-6.65,11.58-11.03,18.78-14.75,6.27-3.24,12.88-5.52,19.72-7.18,5.57-1.35,11.21-2.14,16.9-2.8,3.42-.4,6.85-.37,10.24-.53,3.97-.18,8.03.15,12.05.53,3.46.32,6.89.72,10.32,1.29,5.75.96,11.37,2.37,16.89,4.23,6.75,2.28,13.1,5.4,18.98,9.34,5.04,3.38,9.15,7.71,12.27,13.04,1.44,2.46,2.85,4.88,3.27,7.66.83,5.53.43,10.9-2.63,15.88-3.22,5.25-7.05,9.88-12.11,13.45-1.45,1.02-1.8,2.46-1.8,4.23.05,23.67.05,47.33.03,71,0,6.75-3.01,11.79-9.93,13.51-.66.16-1.29.28-1.94.28-14.25,0-28.5,0-42.75,0v.02Zm26.57-92.37c.07-.97-.3-1.55-.69-2.08-1.9-2.54-4.24-2.13-6.59-.18-6.34,5.26-11.72,11.55-17.85,17.06-4.16,3.75-7.97,7.88-12.05,11.72-5.85,5.51-11.56,11.2-17.31,16.82-2.25,2.2-1.3,5.68,1.68,6.69,2.15.73,3.84-.31,5.32-1.7,4.1-3.84,7.96-7.92,12.08-11.75,7.1-6.59,13.9-13.5,20.8-20.29,1.1-1.08,1.96-2.45,3.15-3.4,3.5-2.8,6.37-6.24,9.64-9.26,1.15-1.06,1.58-2.41,1.82-3.62Zm-35.52,0c.33-.98.02-2.09-.85-2.61-2.27-1.39-4.58-1.86-6.87.38-5.41,5.29-10.83,10.57-16.25,15.84-.88.86-1.54,1.85-1.87,3.03-.54,1.92.51,3.25,1.9,4.26,1.11.81,2.4,1.16,3.66.04,2.95-2.6,6.03-5.08,8.89-7.78,3.35-3.16,6.48-6.55,9.83-9.71,1.03-.98,1.89-1.82,1.56-3.46Zm37.46,25.23c-1.63-.34-2.79.64-3.9,1.74-2.64,2.63-5.12,5.44-7.95,7.84-3.26,2.76-6.14,5.87-9.12,8.89-1.64,1.66-1.27,3.85.44,5.47,1.55,1.46,3.79,1.4,5.49-.07,3.76-3.29,7.21-6.9,10.78-10.39,2.36-2.3,4.81-4.51,7.17-6.8,1.37-1.33,1.67-2.93.96-4.73-.7-1.75-2.11-2.07-3.87-1.95Zm-29.91,36.58c1.91,0,4.67-2.35,4.69-3.98.01-1.74-2.66-4.12-4.64-4.13-2.15,0-3.86,1.86-3.86,4.2,0,2.28,1.6,3.91,3.82,3.91Zm.1-69.15c1.89-.02,4.57-2.36,4.59-4.01.02-1.71-2.87-4.31-4.76-4.07-2.48.31-3.82,1.58-3.75,3.98.07,2.32,1.75,4.12,3.93,4.1Z"/><path class="cls-2" d="m141.34,162.76c3.36-4.56,4.08-9.58,4.08-14.8,0-22.52,0-45.03-.02-67.55,0-1.16.32-1.83,1.29-2.62,5.92-4.75,10.71-10.45,13.31-17.68.89-2.46,1.22-5.14,1.7-7.73.97-5.27-.22-10.31-2.04-15.18-1.91-5.12-4.82-9.55-9.05-13.26-3.68-3.23-7.17-6.64-11.38-9.2-3.92-2.37-8.19-4.07-12.68-6.54,2.93,0,5.43-.33,7.8.08,3.42.59,6.84.12,10.26.62,5.66.82,11.31,1.58,16.9,2.84,5.98,1.34,11.76,3.27,17.29,5.81,9.05,4.16,17.45,9.24,23.28,17.73,2.05,2.98,3.63,6.13,4.48,9.58.29,1.18.25,2.61.22,3.86-.08,3.87-.64,7.82-2.68,11.15-3.19,5.2-6.97,10.01-12.06,13.56-1.67,1.17-2.31,2.51-2.31,4.55.06,23.8.04,47.61.03,71.41,0,4.22-1.27,7.95-4.7,10.62-2.06,1.61-4.45,2.71-7.11,2.72-12.08.05-24.16.02-36.61.02Zm23.58-43.61c0,10.44.03,20.89-.03,31.33-.01,2.06,1.06,3.4,2.68,4.04,1.54.61,3.12.11,4.37-1.27,1.07-1.17,1.18-2.49,1.18-3.91,0-19.4,0-38.79-.02-58.19,0-1.14.22-2.05,1-2.94,1.26-1.44,2.67-2.8,3.79-4.32,5.32-7.19,9.11-15.13,10.69-23.99.62-3.5.92-7.07,1.21-10.62.18-2.17-1.36-3.94-3.52-4.45-1.58-.38-3.82.67-4.38,2.4-.48,1.49-.58,3.14-.65,4.73-.1,2.18-.15,4.32-.79,6.46-1.23,4.06-2.17,8.11-4.37,11.93-2.61,4.54-5.14,9.04-8.74,12.86-1.74,1.85-2.52,3.81-2.48,6.43.15,9.83.06,19.67.06,29.5Z"/><path class="cls-1" d="m108.77,70.43c-.24,1.21-.67,2.56-1.82,3.62-3.27,3.03-6.15,6.46-9.64,9.26-1.19.96-2.05,2.32-3.15,3.4-6.9,6.8-13.7,13.7-20.8,20.29-4.12,3.83-7.99,7.9-12.08,11.75-1.48,1.39-3.16,2.43-5.32,1.7-2.98-1.01-3.93-4.49-1.68-6.69,5.76-5.62,11.46-11.3,17.31-16.82,4.08-3.85,7.89-7.98,12.05-11.72,6.12-5.51,11.5-11.8,17.85-17.06,2.35-1.95,4.69-2.36,6.59.18.39.52.76,1.11.69,2.08Z"/><path class="cls-1" d="m73.25,70.44c.33,1.64-.53,2.49-1.56,3.46-3.35,3.16-6.48,6.56-9.83,9.71-2.87,2.7-5.94,5.17-8.89,7.78-1.26,1.11-2.55.76-3.66-.04-1.39-1.01-2.44-2.35-1.9-4.26.33-1.17.99-2.17,1.87-3.03,5.42-5.27,10.84-10.55,16.25-15.84,2.3-2.24,4.6-1.78,6.87-.38.86.53,1.17,1.64.85,2.61Z"/><path class="cls-1" d="m110.71,95.67c1.76-.12,3.17.2,3.87,1.95.72,1.8.41,3.4-.96,4.73-2.36,2.3-4.82,4.5-7.17,6.8-3.57,3.49-7.01,7.1-10.78,10.39-1.69,1.48-3.94,1.53-5.49.07-1.72-1.62-2.08-3.81-.44-5.47,2.98-3.02,5.86-6.13,9.12-8.89,2.83-2.4,5.31-5.22,7.95-7.84,1.1-1.1,2.27-2.08,3.9-1.74Z"/><path class="cls-1" d="m80.8,132.25c-2.22,0-3.82-1.63-3.82-3.91,0-2.33,1.72-4.2,3.86-4.2,1.98,0,4.66,2.38,4.64,4.13-.01,1.63-2.78,3.98-4.69,3.98Z"/><path class="cls-1" d="m80.9,63.1c-2.17.02-3.86-1.78-3.93-4.1-.07-2.4,1.28-3.67,3.75-3.98,1.89-.24,4.78,2.36,4.76,4.07-.02,1.65-2.7,3.99-4.59,4.01Z"/><path class="cls-1" d="m164.92,119.15c0-9.83.09-19.67-.06-29.5-.04-2.62.74-4.58,2.48-6.43,3.59-3.81,6.13-8.32,8.74-12.86,2.2-3.82,3.14-7.87,4.37-11.93.65-2.14.69-4.28.79-6.46.08-1.59.17-3.23.65-4.73.55-1.73,2.8-2.78,4.38-2.4,2.15.51,3.69,2.29,3.52,4.45-.29,3.55-.59,7.12-1.21,10.62-1.57,8.86-5.36,16.8-10.69,23.99-1.12,1.51-2.52,2.87-3.79,4.32-.78.88-1,1.79-1,2.94.03,19.4.02,38.79.02,58.19,0,1.42-.11,2.74-1.18,3.91-1.25,1.38-2.83,1.88-4.37,1.27-1.62-.64-2.69-1.98-2.68-4.04.06-10.44.03-20.89.02-31.33Z"/></svg>