<?xml version="1.0" encoding="UTF-8"?><svg id="Laag_1" xmlns="http://www.w3.org/2000/svg" viewBox="0 0 311.55 239.62"><defs><style>.cls-1{fill:#f2b21f;}.cls-2{fill:#ec696a;}.cls-2,.cls-3,.cls-4,.cls-5,.cls-6{stroke-miterlimit:10;}.cls-2,.cls-4,.cls-5,.cls-6{stroke:#a56e18;}.cls-2,.cls-4,.cls-6{stroke-width:.75px;}.cls-3{fill:#f2b220;stroke:#fff;stroke-width:6px;}.cls-4{fill:#190604;}.cls-5{fill:#a56e18;stroke-width:.5px;}.cls-6{fill:#19191e;}</style></defs><path class="cls-6" d="m46.87,106.63c.11.44.22.89.33,1.33-.11-.44-.22-.89-.33-1.33Z"/><path class="cls-6" d="m47.19,125.24c-.1.3-.21.6-.31.89.1-.3.21-.6.31-.89Z"/><path class="cls-6" d="m47.6,108.38c.3.15.6.3.9.45-.3-.15-.6-.3-.9-.45Z"/><path class="cls-4" d="m48.94,124.07c-.14,0-.28,0-.42,0,.14-.07.28-.07.42,0Z"/><path class="cls-2" d="m65.42,103.15c.72,1.45,1.44,2.89,2.16,4.34-.72-1.45-1.44-2.89-2.16-4.34Z"/><path class="cls-2" d="m75.4,121.8c.29.43.58.87.87,1.3-.29-.43-.58-.87-.87-1.3Z"/><path class="cls-2" d="m62.39,96.22c.14.29.29.58.43.87-.14-.29-.29-.58-.43-.87Z"/><path class="cls-2" d="m68.02,108.36c.14.29.29.58.43.87-.14-.29-.29-.58-.43-.87Z"/><path class="cls-2" d="m68.89,110.09c.14.29.29.58.43.87-.14-.29-.29-.58-.43-.87Z"/><path class="cls-2" d="m63.69,99.25c.14.29.29.58.43.87-.14-.29-.29-.58-.43-.87Z"/><path class="cls-1" d="m31.73,143.13h227.58s9.45-66.12-111.54-66.12S31.73,143.13,31.73,143.13Z"/><path class="cls-5" d="m53.67,113.69c-.16-.16-.31-.32-.47-.49-.11-.16-.22-.32-.33-.48-.21-.34-.42-.68-.63-1.02-.13-.15-.25-.3-.38-.45-.39-1.63-.02-3.08,1-4.39.11-.16.23-.32.34-.48,0,0,0,0,0,0,.16-.13.33-.25.49-.38,5.27-2.12,10.65-3.9,16.13-5.41,7.01-1.94,14.23-2.86,21.34-4.28,1.96-.39,4.05-.93,6.15-.61.17-.12.35-.24.52-.35,1.44-.32,2.99.21,4.38-.5.15.23.3.24.47.02,1.76-.05,3.53-.09,5.29-.14l.53-.37c7.28-.33,14.55-.92,21.85-.48.17.12.35.24.52.36,7.45-.24,14.87.43,22.18,1.54,10.84,1.64,21.73,3.28,32.19,6.74,6.41,2.12,12.95,3.97,19.05,6.93,11.19,5.43,21.93,11.56,30.35,20.99,3.26,3.65,6.06,7.62,8.24,12.06,1.73,3.53,3.49,7.03,4.09,10.93,1.08,6.98.05,11.77-6.79,16.05-.82.51-1.23.94-1.22,2,.07,6.3.04,12.6.02,18.9,0,.77.09,1.27.93,1.66,4.42,2.03,7.26,5.42,8.4,10.18.02.1.25.15.38.22v.49c-.5.32-.5.65,0,.97v3.4c-.5.32-.5.65,0,.97v2.43c-1.61,2.04-1.42,4.68-2.35,6.98-3.09,7.59-8.14,13.29-15.25,17.31-5.5,3.11-11.3,4.39-17.63,4.38-60.79-.09-121.59,0-182.38-.12-6.51-.01-12.26-2.91-17.46-6.77-2.06-1.53-3.96-3.22-5.54-5.25-.12-.17-.24-.34-.36-.51-1.01-1.44-2.02-2.89-3.04-4.33-.13-.17-.26-.35-.39-.52-.21-.46-.74-.79-.59-1.41-.13-.18-.25-.36-.38-.53-.07-.14-.1-.29-.1-.45-.12-.17-.24-.34-.36-.51-.04-.31-.08-.62-.12-.94-.13-.17-.26-.35-.39-.52-1.71-4.55-2.49-9.22-1.91-14.08.05-.05.15-.11.14-.14-.04-.12-.1-.22-.16-.33.13-2.63,1.49-4.73,2.91-6.81.13-.16.26-.32.38-.48,1-1.58,2.59-2.61,4.18-3.23,1.9-.73,2.19-1.82,2.16-3.59-.1-5.31-.18-10.62.04-15.92.08-2.03-.81-3-2.26-3.93-2.59-1.66-4.79-3.65-5.57-6.8-.12-.16-.23-.32-.35-.47-.04-.17-.09-.35-.13-.52-.13-.15-.25-.3-.38-.45-.57-3.65.67-7.12.98-10.69.13-.14.25-.28.38-.42.04-.35.07-.69.11-1.04.13-.13.25-.26.38-.39,1.58-4.36,3.92-8.32,6.39-12.22.13-.17.26-.33.38-.5.19-.45.46-.81.95-.96.42-.19.51-.55.51-.96,2.49-2.83,4.72-5.91,7.72-8.26.17-.12.34-.24.51-.37,2.04-1.61,5.41-1.48,6.91.27,1.97,2.29,1.77,5.42-.52,7.37-7.31,6.19-12.4,13.78-14.79,23.11-.92,3.58.95,6.01,4.76,6.01,25.37,0,50.75,0,76.12,0,46.38,0,92.76,0,139.15,0,5.32,0,6.76-1.78,5.72-7-.08-.39-.02-.81-.02-1.21-.12-.17-.24-.34-.37-.51-.04-.31-.08-.62-.12-.94-.13-.17-.26-.35-.38-.52-2.17-5.33-5.01-10.24-8.96-14.47-3.37-3.6-7.06-6.83-11.02-9.76-.2-.45-.59-.51-1.01-.5-.15-.16-.3-.32-.45-.47-.2-.45-.59-.5-1.01-.5-7.53-4.76-15.55-8.51-24.17-11.64.27,2.62,1.64,4.74,2.31,7.07,2.59,8.98-2.44,17.6-11.71,19.1-7.65,1.24-13.88-3.01-16.36-11.11-.13-.17-.25-.35-.38-.52-.36-1.13-.71-2.25-1.07-3.38-.12-.17-.25-.34-.37-.5-.04-.31-.08-.62-.12-.94-.13-.17-.25-.35-.38-.52-.36-1.12-.71-2.25-1.07-3.37-.12-.17-.25-.34-.37-.5-.52-1.61-1.05-3.22-1.57-4.83-.12-.17-.25-.34-.37-.51-.52-1.61-1.05-3.22-1.57-4.83-.12-.17-.25-.34-.37-.51-.07-2.99-2.52-2.95-4.49-3.53-.32-.41-.64-.39-.94.02-4.45-.41-8.9-.83-13.65-1.27,1.67,4.61,3.27,9.12,4.93,13.6,1.95,5.24,3.15,10.35.05,15.71-2.93,5.07-11.56,9.73-18.04,6.07-.08-.63-.15-1.29-.97-.5-3.19-1.38-5.27-3.77-6.65-6.95-3.3-7.65-5.67-15.66-8.85-23.36-.09-.21-.02-.48-.03-.72-.13-.18-.25-.36-.38-.54-.25-3.58-2.61-3.05-4.95-2.54-.31-.42-.62-.42-.94-.01-2.27.32-4.55.65-6.82.97-.32-.42-.64-.4-.95.02-.16.03-.32.08-.47.09-3.55.19-3.59.2-2.46,3.44,1.56,4.49,3.73,8.85,4.64,13.46.95,4.86.03,9.56-3.96,13.44-8.15,7.91-19.62,4.58-23.64-4.62-.18-.42-.22-.91-.33-1.36-.12-.19-.23-.38-.35-.57-.07-.15-.11-.3-.12-.46-.13-.17-.26-.34-.38-.51-.36-1.13-.71-2.25-1.07-3.38-.12-.17-.25-.34-.37-.5-.04-.32-.08-.63-.12-.95-.13-.17-.26-.34-.38-.51-.36-1.12-.71-2.25-1.07-3.37-.12-.17-.25-.34-.37-.5-.04-.31-.08-.63-.11-.94-.13-.17-.26-.34-.38-.51-.18-.59-.42-1.17-.53-1.78-.36-1.98-1.3-2.97-3.4-2.09l-1.01.37c-.49,0-.98,0-1.47-.01-.16-.23-.31-.22-.47,0-.66.37-.99-.27-1.47-.48-.17-.13-.33-.26-.5-.38Zm28.75,1.94c-.42-1.63-1.52-3.03-1.59-4.78-.12-.19-.23-.37-.35-.56-.31-.76-.25-2.03-1.53-1.71-2.77.69-5.65.99-8.28,2.19-.07.03-.19.07-.19.1,0,.12.05.25.08.37.93,2.58,1.86,5.16,2.8,7.74,1.05,2.87,2.06,5.74,3.17,8.59.96,2.47,3.42,3.75,5.85,3.01,2.79-.84,3.52-2.5,3.28-5.45-.1-1.22-.63-2.41-.96-3.61-.12-.19-.23-.37-.35-.56-.42-1.63-1.52-3.03-1.59-4.78-.12-.19-.23-.37-.35-.56Zm98.84,4.88c-.13-.17-.25-.34-.38-.52-.52-1.61-1.04-3.21-1.56-4.82l-.38-.52c-.68-2.09-.82-4.48-3.84-4.91-2.9-.41-5.76-1.18-8.74-1.81,2.42,6.68,4.76,13.29,7.21,19.86.88,2.35,3.72,3.51,6.05,2.73,2.34-.79,3.69-3.45,2.98-6.03-.37-1.35-.9-2.66-1.35-3.99Zm-53.84-14.57c0-.52.1-1.07-.38-1.47-.33-.32-.66-.9-1-.91-3.12-.11-6.26-.29-9.26.86,0,.52-.12,1.08.35,1.49.76,1.23.27,2.96,1.57,3.98.01.48-.08.99.37,1.36.76,1.23.27,2.96,1.57,3.98.01.48-.08,1,.37,1.36,1.33,3.62,2.63,7.26,3.99,10.87.97,2.55,3.22,3.8,5.69,3.2.88-.21,1.42-1.33,2.52-.97.62-.33.5-.92.51-1.46.99-1.47.05-2.95.02-4.43-.13-.13-.25-.27-.38-.4-.04-.48-.08-.96-.13-1.44-.12-.17-.25-.33-.37-.5-.04-.32-.08-.64-.12-.95-.13-.17-.25-.34-.38-.5-.19-.19-.39-.39-.58-.58,0-.13,0-.27,0-.4,0-.18.01-.37.02-.55-.13-.13-.25-.27-.38-.4-.04-.48-.08-.96-.13-1.44l-.37-.5-.12-.95c-.13-.17-.26-.34-.38-.51-.19-.19-.38-.39-.58-.58,0-.13,0-.27,0-.4,0-.18.01-.36.02-.55-.13-.13-.25-.27-.38-.4-.04-.48-.08-.96-.13-1.44-.12-.17-.25-.33-.37-.5l-.12-.95c-.13-.17-.26-.34-.38-.51l-.58-.58c0-.13,0-.27,0-.4,0-.18.01-.36.02-.54-.13-.14-.25-.27-.38-.41-.04-.48-.08-.96-.13-1.44Zm91.19,123.33c7.46-1.63,13.31-5.5,17.08-12.27.13-.17.26-.35.38-.52.87-2.41,2.12-4.69,2.57-7.25.4-.32.39-.64-.02-.95,0-1.14,0-2.28,0-3.41.05-.04.16-.09.15-.13-.02-.12-.08-.23-.12-.34-.77-2.95-2.21-3.79-6.19-3.82-21.98-.16-43.97-.07-65.96-.08-.8,0-1.53-.03-2.18.66-5.3,5.63-11.09,10.79-16.23,16.59-2.37,2.67-5.69,3.07-8.27.31-4.53-4.83-9.34-9.4-14.01-14.1-.87-.88-1.56-1.55-2.75-.34-4.63,4.74-9.4,9.34-13.97,14.13-2.57,2.69-5.33,2.96-7.93.37-3.84-3.82-8.01-7.37-11.4-11.56-4.03-4.99-8.72-6.36-15.02-6.22-19.39.43-38.8.17-58.19.14-4.55,0-6.79,1.63-6.55,6.56.05.99.4,1.86.53,2.8,1.51,10.51,11.65,19.7,22.73,19.72,60.54.08,121.08.04,181.63.04.94,0,1.91.13,2.79-.37.31.41.62.42.95.02Zm-76.97-57.72h-73.53c11.98,11.98,23.74,23.7,35.46,35.47,1.13,1.14,1.8.77,2.75-.19,4.88-4.94,9.81-9.83,14.72-14.74,6.78-6.77,13.57-13.54,20.59-20.55Zm32.88,19.27c18.18,0,35.61-.01,53.04.03,1.32,0,1.79-.27,1.77-1.69-.09-5.33-.07-10.65,0-15.98.02-1.28-.2-1.8-1.67-1.79-10.73.07-21.47.04-32.2.03-.72,0-1.37,0-1.97.6-6.15,6.13-12.33,12.24-18.96,18.81Zm-100.64,0c-6.57-6.55-12.77-12.72-18.96-18.92-.54-.54-1.14-.48-1.76-.48-10.57,0-21.15.02-31.72-.03-1.35,0-1.77.33-1.74,1.72.08,5.16.11,10.33-.01,15.5-.04,1.74.31,2.28,2.19,2.27,16.63-.09,33.26-.05,49.88-.05.53,0,1.06,0,2.12,0Zm106.56-18.85c-.13-.18-.25-.37-.38-.55-7.97,0-15.94.02-23.91-.02-.86,0-1.29.48-1.8.99-7.37,7.37-14.72,14.77-22.15,22.09-1.04,1.02-.87,1.54.07,2.45,3.25,3.15,6.51,6.3,9.58,9.62,1.44,1.55,2.27,1.34,3.65-.05,11.04-11.14,22.15-22.21,33.25-33.29.48-.48,1.11-.83,1.67-1.23Z"/><path class="cls-5" d="m248.7,208.27c-.5-.32-.5-.65,0-.97v.97Z"/><path class="cls-5" d="m248.7,203.91c-.5-.32-.5-.65,0-.97v.97Z"/><path class="cls-5" d="m34.28,117.42c.04-2.9,1.94-4.78,4.78-4.72,2.49.05,4.93,2.46,4.93,4.86,0,2.55-2.5,4.88-5.2,4.84-2.78-.04-4.54-1.99-4.51-4.98Z"/><path class="cls-5" d="m123.04,138.94c.81-.79.88-.13.97.5-.35-.12-.84.05-.97-.5Z"/><path class="cls-5" d="m57.58,114.55l1.01-.37c-.18.54-.59.47-1.01.37Z"/><path class="cls-5" d="m101.24,104.83c.32-.41.64-.41.94.01-.31,0-.63,0-.94-.01Z"/><path class="cls-5" d="m150.72,105.32c.31-.41.62-.43.94-.02-.31,0-.63.01-.94.02Z"/><path class="cls-5" d="m93.47,105.82c.31-.41.62-.44.95-.02-.32,0-.63.01-.95.02Z"/><path class="cls-5" d="m11.48,133.57c0,.41-.1.77-.51.96.16-.33-.02-.83.51-.96Z"/><path class="cls-5" d="m215.18,126.79c.42,0,.81.05,1.01.5-.35-.13-.88.09-1.01-.5Z"/><path class="cls-5" d="m213.72,125.83c.42,0,.81.05,1.01.5-.35-.14-.89.1-1.01-.5Z"/><path class="cls-5" d="m158.09,114.17c.12.17.25.34.37.51-.27-.06-.48-.16-.37-.51Z"/><path class="cls-5" d="m62.51,118.05c.13.17.26.34.38.51-.28-.06-.49-.17-.38-.51Z"/><path class="cls-5" d="m63.01,119.51c.12.17.25.34.37.5-.27-.06-.48-.16-.37-.5Z"/><path class="cls-5" d="m160.03,119.51c.12.17.25.34.37.5-.27-.06-.48-.16-.37-.5Z"/><path class="cls-5" d="m107.13,107.38c.13.18.25.36.38.54-.26-.08-.49-.19-.38-.54Z"/><path class="cls-5" d="m64.45,123.38c.13.17.26.34.38.51-.28-.06-.49-.16-.38-.51Z"/><path class="cls-5" d="m161.47,123.39c.13.17.25.35.38.52-.27-.07-.49-.18-.38-.52Z"/><path class="cls-5" d="m19.72,124.94c-.17.12-.34.24-.51.37.07-.26.17-.49.51-.37Z"/><path class="cls-5" d="m64.95,124.84c.12.17.25.34.37.5-.27-.06-.48-.16-.37-.5Z"/><path class="cls-5" d="m161.97,124.84c.12.17.25.34.37.5-.27-.06-.48-.16-.37-.5Z"/><path class="cls-5" d="m53.67,113.69c.17.13.33.26.5.38-.33.09-.44-.11-.5-.38Z"/><path class="cls-5" d="m53.2,106.39c-.11.16-.23.32-.34.48-.13-.33.09-.41.34-.48Z"/><path class="cls-5" d="m66.39,128.72c.13.17.26.34.38.51-.28-.06-.49-.16-.38-.51Z"/><path class="cls-5" d="m163.41,128.72c.13.17.25.35.38.52-.27-.07-.49-.18-.38-.52Z"/><path class="cls-5" d="m66.89,129.69c.12.19.23.38.35.57-.27-.09-.46-.24-.35-.57Z"/><path class="cls-5" d="m52.87,112.72c.11.16.22.32.33.48-.24-.07-.47-.15-.33-.48Z"/><path class="cls-5" d="m10.02,135.49c-.13.17-.26.33-.38.5-.09-.34.11-.44.38-.5Z"/><path class="cls-5" d="m53.68,106.02c-.16.13-.33.25-.49.38.04-.28.14-.49.49-.38Z"/><path class="cls-5" d="m3.25,148.2c-.13.13-.25.26-.38.39-.08-.33.08-.42.38-.39Z"/><path class="cls-5" d="m2.76,149.63c-.13.14-.25.28-.38.42-.09-.34.09-.43.38-.42Z"/><path class="cls-5" d="m236.17,151.52c.13.17.26.35.38.52-.27-.07-.49-.17-.38-.52Z"/><path class="cls-5" d="m236.68,152.98c.12.17.24.34.37.51-.26-.07-.48-.17-.37-.51Z"/><path class="cls-5" d="m1.4,160.74c.13.15.25.3.38.45-.28-.02-.46-.12-.38-.45Z"/><path class="cls-5" d="m1.92,161.71c.12.16.23.32.35.47-.26-.05-.47-.14-.35-.47Z"/><path class="cls-5" d="m51.86,111.26c.13.15.25.3.38.45-.28-.02-.46-.12-.38-.45Z"/><path class="cls-5" d="m97.82,95.36c-.17.12-.35.24-.52.35.09-.24.19-.48.52-.35Z"/><path class="cls-5" d="m3.72,195.66c-.13.16-.26.32-.38.48-.09-.33.11-.44.38-.48Z"/><path class="cls-5" d="m102.67,94.88c-.17.22-.32.21-.47-.02.16,0,.31.01.47.02Z"/><path class="cls-5" d="m.42,202.94c.06.11.13.21.16.33,0,.03-.09.09-.14.14,0-.16-.01-.31-.02-.47Z"/><path class="cls-5" d="m156.15,108.83c.12.17.25.34.37.51-.27-.06-.48-.16-.37-.51Z"/><path class="cls-5" d="m108.5,94.37l-.53.37c.09-.25.19-.48.53-.37Z"/><path class="cls-5" d="m2.35,217.49c.13.17.26.35.39.52-.28-.07-.49-.18-.39-.52Z"/><path class="cls-5" d="m2.86,218.95c.12.17.24.34.36.51-.26-.08-.48-.17-.36-.51Z"/><path class="cls-5" d="m3.33,219.92c.13.18.25.36.38.53-.26-.08-.49-.19-.38-.53Z"/><path class="cls-5" d="m4.29,221.86c.13.17.26.35.39.52-.28-.06-.49-.17-.39-.52Z"/><path class="cls-5" d="m7.72,226.71c.12.17.24.34.36.51-.25-.08-.48-.18-.36-.51Z"/><path class="cls-5" d="m130.87,94.26c-.17-.12-.35-.24-.52-.36.34-.11.44.11.52.36Z"/><path class="cls-5" d="m55.63,114.54c.15-.22.31-.24.47,0,0,0-.23.06-.23.06l-.23-.06Z"/><path class="cls-5" d="m118.69,109.89c.86.25.28.89.37,1.36-.45-.36-.36-.87-.37-1.36Z"/><path class="cls-5" d="m116.77,104.42c.78.34.31.98.35,1.49-.47-.41-.35-.96-.35-1.49Z"/><path class="cls-5" d="m127.41,105.94c-.77-.32-.39-.95-.38-1.47.49.4.38.95.38,1.47Z"/><path class="cls-5" d="m133.21,129.68c.25-.46-.21-1.17.51-1.46,0,.54.11,1.13-.51,1.46Z"/><path class="cls-5" d="m120.63,115.22c.86.25.29.89.37,1.36-.45-.36-.36-.87-.37-1.36Z"/><path class="cls-5" d="m217.66,229.25c.32,0,.63.01.95.02-.32.4-.64.39-.95-.02Z"/><path class="cls-5" d="m238.64,209.23c0-.32-.01-.63-.02-.95.41.31.42.62.02.95Z"/><path class="cls-5" d="m128.87,109.82c-.28-.06-.49-.16-.38-.51.13.17.26.34.38.51Z"/><path class="cls-5" d="m181.26,120.51c-.27-.07-.49-.17-.38-.52.13.17.25.34.38.52Z"/><path class="cls-5" d="m129.85,114.07c-.13-.02-.25-.05-.38-.07.12-.11.25-.22.37-.33,0,.13,0,.27,0,.4Z"/><path class="cls-5" d="m130.81,115.16c-.28-.06-.49-.16-.38-.51.13.17.26.34.38.51Z"/><path class="cls-5" d="m179.31,115.17c-.27-.07-.49-.17-.38-.52l.38.52Z"/><path class="cls-5" d="m127.92,107.79c-.29.02-.47-.07-.38-.41.13.14.25.27.38.41Z"/><path class="cls-5" d="m82.76,116.18c-.27-.09-.46-.23-.35-.56.12.19.23.37.35.56Z"/><path class="cls-5" d="m131.3,116.61c-.27-.06-.48-.16-.37-.5.12.17.25.33.37.5Z"/><path class="cls-5" d="m131.8,118.45c-.3.03-.47-.06-.38-.4.13.13.25.27.38.4Z"/><path class="cls-5" d="m131.79,119.4c-.12-.02-.25-.05-.37-.07.12-.11.25-.22.37-.33,0,.13,0,.27,0,.4Z"/><path class="cls-5" d="m132.75,120.49c-.28-.05-.49-.16-.38-.5.13.17.25.34.38.5Z"/><path class="cls-5" d="m84.7,121.52c-.27-.09-.46-.23-.35-.56.12.19.23.37.35.56Z"/><path class="cls-5" d="m133.24,121.94c-.27-.06-.48-.16-.37-.5.12.17.25.33.37.5Z"/><path class="cls-5" d="m133.74,123.79c-.3.03-.47-.06-.38-.4.13.13.25.27.38.4Z"/><path class="cls-5" d="m129.86,113.12c-.29.02-.47-.07-.38-.4.13.13.25.27.38.4Z"/><path class="cls-5" d="m127.91,108.73c-.13-.02-.25-.05-.38-.07.12-.11.25-.22.37-.33,0,.13,0,.27,0,.4Z"/><path class="cls-5" d="m129.36,111.27c-.27-.06-.48-.16-.37-.5.12.17.25.33.37.5Z"/><path class="cls-5" d="m70.67,110.77c-.04.16-.07.32-.11.48-.03-.12-.08-.25-.08-.37,0-.03.12-.07.19-.1Z"/><path class="cls-5" d="m238.62,204.87c.01-.16.02-.31.03-.47.04.11.1.22.12.34,0,.03-.1.08-.15.13Z"/><path class="cls-5" d="m80.82,110.85c-.27-.09-.46-.23-.35-.56.12.19.23.37.35.56Z"/><path class="cls-5" d="m235.69,217c-.1-.34.12-.45.38-.52-.13.17-.26.35-.38.52Z"/><path class="cls-3" d="m274.08,91.97c6.47,0,12.94.02,19.41,0,5.18-.02,8.95-2.66,12-6.58,2.91-3.74,3.32-7.95,2.93-12.57-.16-1.93-1.51-2.86-1.9-4.37-.48-1.84-1.62-3.13-2.94-4.31-2.86-2.57-6.12-4-10.08-4.19-13.31-.64-26.63-.1-39.95-.25-1.42-.02-1.8-.35-1.8-1.79.09-13.28.15-26.57.08-39.85-.02-3.45-1.46-6.59-3.62-9.26-3.25-4.02-7.69-5.95-12.73-5.77-7.81.27-13.6,4.75-15.58,12.59-.47,1.85-.43,3.72-.44,5.59-.04,12.2-.05,24.39.02,36.59,0,1.48-.31,1.92-1.86,1.91-12.42-.07-24.85-.11-37.27,0-4.83.04-9.38,1.15-12.94,4.86-4.64,4.84-5.64,10.58-3.71,16.69.97,3.06,2.8,5.92,5.74,7.79,2.87,1.82,5.85,3.03,9.36,3.01,12.94-.08,25.88,0,38.82-.07,1.57,0,1.87.46,1.86,1.92-.06,12.65-.04,25.31-.03,37.96,0,8.18,4.61,14.39,12.33,16.62,5.21,1.5,10.24.1,14.46-3.6,3.96-3.47,5.6-7.83,5.57-13.03-.07-12.65,0-25.31-.06-37.96,0-1.5.35-1.93,1.88-1.91,6.81.09,13.63.04,20.44.04,0-.01,0-.02,0-.03Z"/></svg>