<?xml version="1.0" encoding="UTF-8"?><svg id="Laag_1" xmlns="http://www.w3.org/2000/svg" viewBox="0 0 227.75 173.94"><defs><style>.cls-1{fill:#e86667;}.cls-1,.cls-2,.cls-3,.cls-4,.cls-5,.cls-6,.cls-7,.cls-8,.cls-9,.cls-10,.cls-11{stroke:#a56e18;stroke-miterlimit:10;}.cls-1,.cls-4,.cls-5,.cls-6,.cls-7,.cls-8,.cls-9,.cls-10,.cls-11{stroke-width:.75px;}.cls-2{stroke-width:6px;}.cls-2,.cls-3{fill:none;}.cls-3{stroke-width:13px;}.cls-4{fill:#eb6869;}.cls-5,.cls-12{fill:#f2b21f;}.cls-6{fill:#16171b;}.cls-7{fill:#e16463;}.cls-8{fill:#ec696a;}.cls-9{fill:#190604;}.cls-13{font-family:SuperCorn, 'Super Corn';font-size:57.72px;}.cls-13,.cls-14{fill:#a56e18;}.cls-10{fill:#19191e;}.cls-11{fill:#ea6769;}</style></defs><path class="cls-2" d="m115.2,18.75c3.89-3.9,7.7-7.76,11.54-11.56,1.21-1.2,2.57-2.26,3.81-3.43,1.39-1.31,2.69-.73,3.73.31,1.04,1.03.99,2.32-.09,3.42-1.67,1.69-3.36,3.37-5.05,5.05-3.88,3.88-7.74,7.77-11.64,11.64-2,1.98-2.72,1.96-4.74-.06-5.11-5.1-10.21-10.21-15.31-15.31-.15-.15-.31-.3-.46-.46-1.24-1.24-1.69-2.67-.65-4.2.72-1.05,3.17-.91,4.43.22,1.29,1.15,2.47,2.42,3.69,3.65,3.52,3.52,7.04,7.05,10.72,10.73Z"/><path class="cls-10" d="m4.95,74.69c.11.44.22.89.33,1.33-.11-.44-.22-.89-.33-1.33Z"/><path class="cls-10" d="m5.28,93.3c-.1.3-.21.6-.31.89.1-.3.21-.6.31-.89Z"/><path class="cls-10" d="m5.68,76.44c.3.15.6.3.9.45-.3-.15-.6-.3-.9-.45Z"/><path class="cls-9" d="m7.02,92.13c-.14,0-.28,0-.42,0,.14-.07.28-.07.42,0Z"/><path class="cls-6" d="m222.47,56.04c-.11-.16-.22-.32-.32-.48.11.16.22.32.32.48Z"/><path class="cls-6" d="m203.08,35.64c-.16-.1-.31-.2-.47-.3.16.1.31.2.47.3Z"/><path class="cls-5" d="m22.51,65.44c-1.94-4.71-3.87-9.43-5.83-14.13-.28-.67-.72-1.27-1.08-1.9,2.47-3.59,5.94-5.69,10.37-6.07,3.36-.29,6.74-.39,10.11-.39,53.86-.02,107.72-.03,161.57,0,7.21,0,12.98,2.75,15.95,9.39.99,2.21,1.44,4.82,1.46,7.25.12,16.53.18,33.05-.03,49.58-.04,3.6.34,7.48-1.98,10.77-.82,1.15-1.71,2.26-2.56,3.39-.11.11-.23.22-.34.33-3.11,2.82-6.77,4.49-11.05,4.5-34.12.02-68.24,0-102.37-.02-10.74,0-21.47-.06-32.21-.1-.82-1.22-1.53-2.53-2.48-3.65-4.95-5.8-9.97-11.55-14.92-17.35-.41-.48-.57-1.17-.85-1.77,8.84,5.69,17.75,3.65,24.34-3.69,1.37-1.53,1.55-3.28.49-4.19-1.34-1.15-2.96-.68-4.49,1.03-6.1,6.81-14.49,7.21-20.29-.17-6.28-8-5.92-18.7.85-26.44,3.87-4.43,10.58-5.76,15.92-2.2,1.53,1.02,2.93,2.24,4.38,3.36,0,.08,0,.15,0,.23.96,1.43,2.12,1.42,3.41.44.28-.29.55-.57.83-.86-.11-.58-.07-1.24-.34-1.74-2.16-3.97-5.6-6.52-10.02-7.59-2.26-.54-4.71-.46-7.08-.45-1.48,0-3.19.02-4.41.69-3.16,1.75-5.92,3.91-8.11,6.95-2.36,3.28-3.66,6.84-4.3,10.57-.54,3.13-.12,6.41-.13,9.63-.41,0-.83,0-1.24,0,0,0,0,0,0,0-.28-.41-.57-.82-.85-1.23-1.98-3.42-3.96-6.83-5.94-10.25-.14-.27-.28-.55-.42-.82-.14-.27-.28-.55-.42-.82-.14-.27-.28-.55-.42-.82-.14-.27-.28-.55-.42-.82-.71-1.37-1.41-2.73-2.12-4.1-.43-.96-.85-1.91-1.28-2.87-.14-.27-.28-.55-.42-.82-.28-.68-.57-1.37-.85-2.05-.14-.27-.28-.55-.42-.82Zm99.3,29.93c0,.15,0,.29,0,.44,5.04,11.59,19.09,18.51,30.67,6.54.24-.41.48-.82.72-1.24.17-.36.24-.84.52-1.05,1.61-1.19.32-2.22-.38-2.95-.32-.33-1.56.18-2.38.31-.38.28-.76.55-1.15.83-.86.76-1.67,1.58-2.59,2.28-3.38,2.6-7.32,4.04-11.45,2.67-4.2-1.39-7.15-4.56-8.9-8.57-.68-1.56-1.7-2.97-1.15-4.98.31-1.15-.96-2.63-.89-3.93.13-2.38.44-4.82,1.22-7.06.78-2.25,1.91-4.53,3.45-6.36,3.08-3.65,7.16-5.44,12.17-4.4,3.41.71,6.1,2.52,8.08,5.29,1.02,1.42,3.72,2.1,4.18,1,.65-1.53.96-3.13-.42-4.53-.78-.79-1.56-1.58-2.39-2.31-4.89-4.32-10.5-5.95-16.94-3.99-7.77,2.36-14.5,11.48-14.49,19.7,0,2.39.8,4.79.71,7.16-.07,1.94.21,3.6,1.37,5.13Zm68.6,9.03c-.38-.38-.76-.76-1.13-1.15-5.57-5.87-11.13-11.74-16.72-17.63.44-.66.69-1.14,1.05-1.53,5.06-5.46,10.09-10.94,15.23-16.33,1.25-1.31,1.13-2.53.1-3.57-1.1-1.12-2.53-1.08-3.71.13-1.59,1.62-3.19,3.23-4.73,4.9-3.02,3.28-5.97,6.62-9.02,9.88-1.3,1.39-2.46,3.03-4.7,3.73,0-1.05,0-1.8,0-2.54,0-4.98.01-9.97,0-14.95,0-1.69-.94-2.7-2.68-2.72-1.74-.02-2.41,1.07-2.41,2.67,0,13.52,0,27.03,0,40.55,0,1.51.65,2.53,2.23,2.64,1.63.11,2.81-.78,2.82-2.34,0-4.95-.17-9.89-.28-14.84.53-.42,1.06-.84,1.59-1.26.76-1.45,1.41-.54,2,.11,1.85,2.03,3.63,4.11,5.51,6.11,3.19,3.42,6.49,6.74,9.61,10.22,1.07,1.19,2.16,2.08,3.72,1.51,1.66-.6,1.85-2.05,1.51-3.58Zm-111.02-20.18c0,6.22.11,12.43-.05,18.65-.07,2.59,2.99,5.89,5.79,5.7,4.01-.28,8.05-.06,12.08-.07,2.3,0,3.39-.81,3.4-2.44,0-1.64-1.09-2.46-3.36-2.47-3.53-.02-7.07-.09-10.6.03-1.71.06-2.19-.48-2.16-2.09.09-5.74.03-11.47.03-17.21,0-6.15.04-12.3-.04-18.44-.01-.92-.36-2.1-1.02-2.67-.58-.51-2.13-.76-2.66-.37-.75.56-1.33,1.8-1.35,2.76-.12,6.21-.06,12.43-.06,18.65Zm28.84,1.16c0,6.75.01,13.51,0,20.26,0,1.56.55,2.68,2.28,2.82,1.69.14,2.81-.94,2.82-2.78.02-13.3.02-26.61-.01-39.91,0-2-1.01-2.79-2.96-2.8-2.11-.02-2.12,1.33-2.12,2.77,0,6.55,0,13.1,0,19.65Z"/><path class="cls-8" d="m23.51,71.22c.72,1.45,1.44,2.89,2.16,4.34-.72-1.45-1.44-2.89-2.16-4.34Z"/><path class="cls-8" d="m35.61,91.16c.14.72.27,1.44.41,2.16-.56-.72-1.12-1.44-1.68-2.16.42,0,.84,0,1.26,0Z"/><path class="cls-8" d="m33.48,89.86c.29.43.58.87.87,1.3-.29-.43-.58-.87-.87-1.3Z"/><path class="cls-8" d="m20.47,64.28c.14.29.29.58.43.87-.14-.29-.29-.58-.43-.87Z"/><path class="cls-8" d="m26.11,76.42c.14.29.29.58.43.87-.14-.29-.29-.58-.43-.87Z"/><path class="cls-8" d="m26.97,78.15c.14.29.29.58.43.87-.14-.29-.29-.58-.43-.87Z"/><path class="cls-8" d="m21.77,67.31c.14.29.29.58.43.87-.14-.29-.29-.58-.43-.87Z"/><path class="cls-8" d="m36.1,93.71c.12.16.25.32.37.48-.12-.16-.25-.32-.37-.48Z"/><path class="cls-7" d="m167.58,91.61c.54-.44,1.09-.89,1.63-1.33-.54.44-1.09.89-1.63,1.33Z"/><path class="cls-9" d="m192.06,105.48c-.39-.4-.77-.81-1.16-1.21.39.4.77.81,1.16,1.21Z"/><path class="cls-1" d="m153.3,103.31c.24-.44.49-.87.73-1.31-.24.44-.49.87-.73,1.31Z"/><path class="cls-11" d="m151.74,98.1c-.39.29-.78.59-1.17.88.39-.29.78-.59,1.17-.88Z"/><path class="cls-1" d="m69.91,72.95c.28-.3.57-.61.85-.91-.28.3-.57.61-.85.91Z"/><path class="cls-4" d="m121.95,95.93c.1.05.2.1.3.15-.1.1-.19.21-.29.31,0-.15,0-.31,0-.46Z"/><path class="cls-4" d="m66.43,72.24c.1.03.2.05.3.08-.1.05-.21.11-.31.16,0-.08,0-.16,0-.24Z"/><rect class="cls-3" x="6.5" y="37.19" width="214.75" height="96.16" rx="43.36" ry="43.36"/><path class="cls-2" d="m115.22,154.26c3.61,4.13,7.15,8.21,10.72,12.24,1.13,1.27,2.39,2.39,3.54,3.63,1.29,1.39,2.5.77,3.46-.33.97-1.09.92-2.45-.09-3.62-1.55-1.79-3.12-3.57-4.69-5.35-3.6-4.11-7.19-8.23-10.81-12.32-1.85-2.1-2.52-2.08-4.4.06-4.75,5.4-9.48,10.81-14.22,16.21-.14.16-.28.32-.43.48-1.15,1.32-1.57,2.83-.6,4.44.67,1.11,2.95.97,4.12-.23,1.2-1.22,2.29-2.57,3.43-3.86,3.27-3.73,6.54-7.46,9.96-11.37Z"/><path class="cls-12" d="m20.47,61.66s22.06,65.32,51.98,64.02c29.92-1.3,124.1-12.83,124.1-12.83l2.83-57.68-126.31-9.12"/><text class="cls-13" transform="translate(52.45 102)"><tspan x="0" y="0">CLICK</tspan></text><path class="cls-14" d="m20.9,58.19s7.36,37.64,49.01,73.18c0,0-34.66,5.09-42.51-6.44-7.85-11.54-20.39-22.93-20.39-22.93l1.08-29.05,12.8-16.92"/></svg>