<?xml version="1.0" encoding="UTF-8"?><svg id="Laag_1" xmlns="http://www.w3.org/2000/svg" viewBox="0 0 167.59 267.07"><defs><style>.cls-1{fill:#7b7166;}.cls-2{fill:#4d6145;}.cls-3{fill:#474646;}.cls-4{fill:#010201;}.cls-5{fill:#75a85d;}.cls-6{fill:#41543a;}.cls-7{fill:#738f67;}.cls-8{fill:#554939;}.cls-9{fill:#75a85c;}.cls-10{fill:#811e2b;}.cls-11{fill:#020303;}.cls-12{fill:#949595;}.cls-13{fill:#384d2f;}.cls-14{fill:#97c880;}.cls-15{fill:#020202;}.cls-16{fill:#fee5c3;}.cls-17{fill:#a2a1a1;}.cls-18{fill:#a73c42;}.cls-19{fill:#060402;}.cls-20{fill:#030704;}.cls-21{fill:#334c29;}.cls-22{fill:#43583c;}.cls-23{fill:#6f1f26;}.cls-24{fill:#76a85d;}.cls-25{fill:#030303;}.cls-26{fill:#789670;}.cls-27{fill:#767676;}.cls-28{fill:#99c186;}.cls-29{fill:#7a7267;}.cls-30{fill:#fee5c2;}.cls-31{fill:#020403;}.cls-32{fill:#f2b21f;}.cls-33{fill:#4e6144;}.cls-34{fill:#616161;}.cls-35{fill:#97c881;}.cls-36{fill:#334328;}.cls-37{fill:#49603f;}.cls-38{fill:#c4b3a3;}.cls-39{fill:#040604;}.cls-40{fill:#474747;}.cls-41{fill:#75a85e;}.cls-42{fill:#2b4226;}.cls-43{fill:#56734b;}.cls-44{fill:#020302;}.cls-45{fill:#5c7a4b;}.cls-46{fill:#525252;}.cls-47{fill:#5b5b5b;}.cls-48{fill:#384d2e;}.cls-49{fill:#010101;}.cls-50{fill:#75a95d;}.cls-51{fill:#2e4226;}.cls-52{fill:#5d5142;}.cls-53{fill:#76a95d;}</style></defs><path class="cls-27" d="m76.15,260.45c-.27,1.35.27,2.77-.36,4.09-.2-.14-.35-.33-.44-.56-.21-.58-.21-1.19-.21-1.8-.02-10.44,0-20.87.02-31.31.04-.34.05-.69.1-1.03.15-.41.19-.93.84-.82.01.6.02,1.2.03,1.81,0,9.87,0,19.75,0,29.62Z"/><path class="cls-12" d="m39.16,3.35c.1-.14.2-.27.3-.41.64.54.62,1.3.62,2.02.03,6.88.03,13.75,0,20.63,0,.55-.04,1.1-.29,1.6-.12.24-.32.35-.59.32,0-6-.01-11.99-.02-17.99,0-2.06-.02-4.12-.03-6.18Z"/><path class="cls-47" d="m39.22,27.52c.08-.02.16-.05.25-.07.74.65.63,1.54.64,2.37.02,6.13.03,12.25,0,18.38,0,.85.22,1.87-.87,2.35-.05-.25-.09-.5-.14-.75.05-7.43.09-14.85.14-22.28Z"/><path class="cls-15" d="m75.67,229.72c0,.25,0,.5,0,.74-1.41-.14-2.05-1.07-1.85-2.71.16-1.35.8-1.78,2.26-1.5.35.07.7.15,1.04.29,1.21.63,2.5.86,3.87.86,26.59-.01,53.19-.01,79.78,0,1.42,0,2.82-.04,3.84-1.24.13-.19.26-.38.38-.57.13-.19.26-.38.38-.58.27-.77.17-1.57.17-2.36,0-71.66,0-143.31.02-214.97,0-1.8-.25-3.51-1.1-5.1-.16-.15-.31-.31-.45-.47-.44-.75-1.02-.71-1.69-.31-1.46.87-3.07.67-4.63.49-1.35-.16-1.59-.89-.84-2.02,2.74.05,5.47-.12,8.2.1,1.61.45,2.37,1.45,2.12,3.18-.08.52,0,1.07.01,1.61.29.71.14,1.45.14,2.17,0,71.51,0,143.02,0,214.53-.04,1.17.08,2.35-.07,3.51-1.25,2.26-2.84,3.54-5.75,3.52-27.39-.11-54.78-.06-82.18-.07-.84,0-1.68.11-2.51-.28-1.4-.65-1.46.12-1.15,1.19Z"/><path class="cls-4" d="m156.55.48c-.02.73.18,1.4,1.03,1.37,1.63-.06,3.33.47,4.85-.67.81-.61,1.6-.56,1.79.71-2.29,1.12-4.72,1.38-7.23,1.17-.91-.08-1.54-.66-2.13-1.28-.6-.58-1.36-.47-2.08-.47-32.89,0-65.79,0-98.68,0-.67,0-1.35-.05-1.95.34-1.11.92-2.37,1.46-3.83,1.46-1.22.04-2.43-.02-3.55-.62-.75-.4-1.43-.33-1.8.56-.79,1.96-1.44,3.81-1.16,6.13.3,2.45.86,5.06-.11,7.57-.29.75-.38,1.62,0,2.32.85,1.55.82,3.15.46,4.78-.69,3.11-.51,6.3-.27,9.38.36,4.58-1.07,9.19-.13,13.59.78,3.65.13,7.08.19,10.6.03,1.92,0,3.85.52,5.77.43,1.56-.56,3.08-.66,4.66-.04.61-.37,1.26-.18,1.8,1.38,4.08-1.66,7.89-.66,12.01.34,1.4-.77,1.99-2,1.48.07-2.47-.14-4.93.12-7.39.04-8.4.08-16.79.12-25.19.07-.16.21-.33.21-.49.02-7.53.03-15.07.04-22.6.03-7.69.07-15.37.09-23.06,0-.48-.06-.96-.09-1.44.47-2.93,2.73-2.53,4.77-2.56.65-.27,1.33-.14,1.99-.14,36.13,0,72.26,0,108.38,0,.65,0,1.34-.23,1.95.22Z"/><path class="cls-46" d="m167.2,222.05c-.02-.61-.04-1.22-.04-1.83,0-71.09,0-142.17,0-213.26,0-.61.02-1.22.03-1.83.64.45.32,1.12.32,1.68.02,71.32.02,142.64.01,213.96,0,.42-.04.85-.06,1.27-.09.14-.17.14-.26,0Z"/><path class="cls-34" d="m156.55.48c-.79-.02-1.58-.05-2.37-.05-35.74,0-71.47,0-107.21,0-.91,0-1.83-.02-2.74-.03.46-.62,1.13-.32,1.68-.32,39.08-.02,78.15-.02,117.23,0,.64,0,1.34-.26,1.91.28-2.83.04-5.67.09-8.5.13Z"/><path class="cls-19" d="m75.67,229.72c-.48-.23-.74-.66-.81-1.15-.08-.52.21-.95.63-1.23.42-.28.93-.17,1.13.22.71,1.32,1.91,1.07,3.04,1.07,27.35,0,54.69,0,82.04.03,1.43,0,2.56-.19,3.44-1.44.52-.73,1.31-1.26,1.97-1.88.36.48.28.98.06,1.49-.6,1.84-2.04,2.16-3.74,2.16-21.31-.01-42.62-.01-63.93,0-7.79,0-15.58.03-23.38.04-.43.05-.36.42-.45.7Z"/><path class="cls-46" d="m167.17,226.83c-.02-.5-.04-.99-.06-1.49.03-1.1.06-2.19.09-3.29.09,0,.17,0,.26,0-.07,1.59.45,3.22-.29,4.78Z"/><path class="cls-4" d="m76.82,226.81c-.06,0-.12-.01-.18,0-.78.12-1.77-.99-2.32.39-.47,1.17.11,2.56,1.34,3.27,0,11.22,0,22.43,0,33.65-1.65.98-3.43,1.72-5.07,2.74-22.01,0-44.02,0-66.02,0-2.38-1.27-4.12-3.02-4.36-5.88,0-33.66,0-67.31,0-100.96.07-1.42-.14-2.84.12-4.25.68-10.08,4.78-18.62,11.83-25.75,8.47-8.57,17.04-17.06,25.56-25.58.38-.38.73-.8,1.09-1.21.37-2.94.07-5.88.17-8.82,1.31-.87,1.61.32,1.93,1.07,1.11,2.6.97,5.23-.14,7.79-.39.9-.4,2.2-.96,2.68-1.69,1.47-2.43,3.88-4.72,4.73-.22.08-.47.13-.5.7,1.75-.42,3.47-2.51,5.2-.49,1,1.17,1.52,2.64,1.14,4.26-.5.86-.51,2.1-1.79,2.36-1.05-1.21.13-2.86-.82-4.08-2.55,1.92-4.48,4.45-6.76,6.63-4.74,4.54-9.4,9.17-13.93,13.91-3.19,3.34-6.21,6.86-7.82,11.32-1.65,3.75-2.48,7.69-2.91,11.75-.25.96-.14,1.94-.14,2.91,0,22.99,0,45.99,0,68.98-.01.53,0,1.06-.14,1.57-.28.79-.77,1.48-1.11,2.24-.5,1.11-1.02,2.05.71,2.61.75.24.34.71-.19.95-2.47.15-3.01-.66-2.96-3.07.07-3.47.85-6.85.83-10.34-.1-18.59-.04-37.17-.05-55.76,0-4.64.16-9.28-.88-13.99-.28,4.67-.97,9.16-.96,13.75.09,30.11.05,60.21.04,90.32,0,1.83.08,3.65.75,5.44-.23-2.14.28-4.24.27-6.34-.02-4.08.42-8.16.02-12.23-.19-1.94,1.05-3.71.44-5.67-.14-.44.45-.81.94-.98.65-.22,1.35-.29,1.98-.08,3.98,1.3,8.08.94,12.15.95,15.42.02,30.84.02,46.26,0,2.3,0,4.44.26,6.45,1.56,1.64,1.06,2.72.42,2.72-1.55,0-3.04-.17-6.08-.79-9.08-.48-2.32.03-3.23,2.01-3.6.56.03,1.07.21,1.5.59.16.17.19.37.09.58Z"/><path class="cls-3" d="m.35,159.88c.01,17.52.02,35.05.04,52.57.01,16.37.03,32.74.04,49.11.31,1.02.77,2.04-.11,3.02-.47-.37-.28-.9-.28-1.36-.01-34.27-.01-68.53,0-102.8,0-.18.04-.36.06-.54.09-.17.18-.16.27,0Z"/><path class="cls-34" d="m4.05,266.61c12.04.02,24.07.05,36.11.05,10.39,0,20.79-.04,31.18-.06.79-.49,1.56-.61,2.28.13-.51.5-1.16.28-1.74.28-22.55.01-45.09.01-67.64,0-.58,0-1.23.21-1.74-.29.48-.54,1-.49,1.55-.13Z"/><path class="cls-17" d="m39.22,94.06c-.04,2.54-.06,5.09-.12,7.63-.01.51.23,1.1-.29,1.53.03-8.93.05-17.86.09-26.79,0-.23.13-.46.2-.69.05,2.56.09,5.13.14,7.69.55.68.44,1.48.45,2.26.05,1.45,0,2.9.02,4.36-.09,1.34.33,2.75-.49,4.01Z"/><path class="cls-19" d="m4.05,266.61c-.52.04-1.03.08-1.55.13-1.2-.24-1.92-.97-2.18-2.16.04-1.01.07-2.01.11-3.02.57.26.6.79.74,1.32.27,1.08.84,2.06,2.01,2.28.98.19.85.81.87,1.45Z"/><path class="cls-40" d="m.35,159.88c-.09,0-.18,0-.27,0-.05-1.38-.21-2.77.25-4.12,0,1.37.02,2.75.02,4.12Z"/><path class="cls-49" d="m76.82,226.44c-.37-.12-.73-.24-1.1-.37-.09-.08-.19-.15-.3-.17-.56-.07-1.35.15-1.51-.58-.19-.89.63-1.13,1.27-1.42.43-.13.87-.15,1.32-.16,25.58-.02,51.16,0,76.73-.01.97,0,1.95.08,2.91-.12.41-.14.84-.18,1.27-.17.49.01.94.19,1.41.32,2.39.7,3.59-.27,3.17-2.72-.23-1.36-.17-2.64.14-3.96.17-.79.1-1.58.1-2.37,0-69.04,0-138.09,0-207.13-.12-1.23-.07-2.53-1.25-3.38-.91-.52-1.91-.32-2.87-.32-35.73,0-71.47,0-107.2-.01-.91,0-1.85.15-2.72-.16-1.09-.39-.58-.77.1-1.08,1.24.07,2.31-.39,3.29-1.1.71-.47,1.52-.36,2.31-.36,33.08,0,66.16,0,99.25,0,.78,0,1.59-.11,2.31.36,1.61,2.03,3.71,1.05,5.61.81,1.05-.13,2.07-.54,3.17-.44,1.15.68.77,1.96,1.14,2.95.19,1.03.11,2.07.11,3.1,0,70.28,0,140.57,0,210.85,0,1.16-.02,2.31.04,3.47.09,1.15-.06,2.3-.19,3.45v.37c-1.27,1.12-2.67,1.78-4.42,1.33-.79-.11-1.58-.08-2.37-.08-25,0-50.01,0-75.01,0-.79,0-1.58-.04-2.37.1-1.55.15-3.12.33-4.34-.99Z"/><path class="cls-49" d="m164.96,4.08c-.43-.67-.03-1.62-.73-2.19,1.81.7,1.24,2.53,1.8,3.83.18.41.03.96.03,1.45,0,72.09,0,144.18-.01,216.28,0,.75.31,1.59-.35,2.26-.7-1.82-.34-3.72-.34-5.57-.03-67.64-.03-135.28-.03-202.93,0-3.84.03-7.68-.02-11.51-.18-.52-.03-1.12-.34-1.62Z"/><path class="cls-49" d="m165.33,5.18c.68.73.35,1.63.35,2.44.02,72.69.02,145.39.02,218.08h-.37c-.68-.98-.42-1.95,0-2.93-.33-.63-.17-1.32-.17-1.97,0-71.22,0-142.43,0-213.65,0-.66-.17-1.34.17-1.97Z"/><path class="cls-49" d="m76.82,226.44c1.23.87,2.63.76,4.02.73.57-.32,1.19-.17,1.79-.17,25.63,0,51.25,0,76.88,0,.6,0,1.22-.15,1.79.17,1.54.36,2.72-.57,4.02-1.1-.91,1.6-2.42,1.84-4.07,1.83-21.91,0-43.82,0-65.73,0-5.05,0-10.1,0-15.15,0-1.3,0-2.53-.19-3.55-1.1v-.37Z"/><path class="cls-49" d="m48.3,2.62c.07.26-.85.46-.08.71.44.14.97.03,1.45.03,36.62,0,73.24,0,109.86.03.73,0,1.78-.57,2.15.7-1.91.38-3.83.67-5.78.37-1.03-.16-2.06-.15-3.1-.15-32.96,0-65.92,0-98.89,0-2.25,0-4.49.42-6.75.07-1.34-.2-2.03.55-2.19,1.85-.11.85-.1,1.7-.1,2.55,0,11.94.05,23.88-.07,35.82-.03,3.09-.11,6.19-.07,9.28-.47,2.03-.43,4.07-.08,6.11.15.76.15,1.52,0,2.29-.4,1.52-.21,3.05-.16,4.59.02,8.15.03,16.3,0,24.45-.04,2.48-.27,4.96.17,7.42.15.68.17,1.37.14,2.06-.01,4.28,0,8.56,0,12.84-.03,7.13-.09,14.26.03,21.39.06,3.61-1.22,7.13-.73,10.72.64,4.66-.14,9.2-.69,13.78-.27,2.24.29,4.48.84,6.66.22.86.96,1.35,1.68,1.85,1.66,1.16,1.58,2.26-.27,2.99-.99.39-1.71.72-1.51,2.03.11.76-2.2,2.82-2.9,2.68-1.52-.31-1.88-1.55-2.09-2.87-.68-4.34-.34-8.71-.07-13.03.43-6.88.09-13.76.28-20.63.02-1.58.22-3.18-.56-4.66-.26-1.42-.1-2.85-.16-4.27.06-1.21-.13-2.44.2-3.64.61-.92.59-1.96.54-3-.14-2.87,0-5.7,1.24-8.37.19-1.26-.23-2.39-.74-3.51-.65-1.43-2.24-1.74-3.39-.68-.31.28-.6.65-.97.79-.5.19-1.09.23-1.58-.09-.35-.23-.3-.66-.23-1.01.15-.78.8-.62,1.32-.62,1.21,0,1.88-.47,1.63-1.76-.18-.93.28-1.13,1.09-1.21,1.17-.12,1.76-.72,1.82-2.04.07-1.53,1.03-2.86,1.42-4.36.54-2.11-.1-5.29-1.77-6.72,0-1.35,0-2.7,0-4.04.98-1.45,1.37-2.91,0-4.37,0-.74,0-1.48,0-2.22,1.76-.59,1.56-2.04,1.28-3.32-.45-2.12-.05-4.07.76-5.99.32-.76.7-1.57.36-2.28-1.12-2.31-.27-4.48.25-6.7.14-.58.36-1.3.15-1.78-.78-1.84-.33-3.77-.63-5.64-.23-1.46-.04-2.91.39-4.32.45-1.51.46-2.96-.27-4.42-.52-1.05-.84-2.21-.19-3.32.76-1.31-.19-2.55-.25-3.79-.09-1.79.46-3.32.72-4.97.06-.35.31-.91.18-1.02-1.31-1.14-.79-2.66-.59-3.89.38-2.33-.5-4.59.11-6.99.43-1.7,1.19-3.76-.28-5.65-.59-.76-.4-2,.05-2.99.28-.62.63-1.27.43-1.92-.65-2.09.28-4.29-.61-6.39-.42-.99.14-2.17.51-3.16.29-.78.72-1.48.92-2.33.26-1.11,1.28-1.38,2.14-.75,1.15.85,2.37.82,3.65.8Z"/><path class="cls-49" d="m155.45,1.52H51.59c.44-.95,1.31-.73,2.08-.73,6.27,0,12.54,0,18.81,0,26.85,0,53.69,0,80.54.01.85,0,1.88-.37,2.44.72Z"/><path class="cls-49" d="m75,224.25c-2.22,1.6.45,1.23.73,1.83-1.91.06-2.61.81-2.11,2.57.94,3.31.91,6.71,1,10.09.05,2.02-1.7,3.16-3.21,1.92-2.21-1.82-4.66-1.79-7.22-1.78-16.94.02-33.88,0-50.81.01-2.25,0-4.48-.06-6.6-.97-.32-.14-.72-.14-1.08-.12-.74.04-1.75-.29-1.93.84-.17,1.04.98.8,1.65,1.33-1.8.56-1.87,1.91-1.73,3.35.22,2.28.13,4.57,0,6.85-.16,3.03.26,6.07-.35,9.1-.24,1.19.07,2.41.31,3.61.09.45.13,1.04-.53,1.19-.7.15-1.06-.35-1.15-.9-.22-1.31-.47-2.64-.47-3.96-.03-32.66-.04-65.31.01-97.97,0-2.47.78-4.89.87-7.38.02-.72.27-1.41-.02-2.13-.12-.3-.02-.64.35-.7.39-.06.5.28.56.57.67,3.27,1.14,6.56,1.13,9.91,0,21.63-.02,43.26.04,64.89,0,1.57-1.04,2.86-.79,4.44.17,1.05.43,2.05-.19,3.15-.48.87.39,1.87,1.48,1.97.54.05,1.1.01,1.64.01.12-.03.23-.05.35-.08,4.14-.16,8.28-.06,12.42-.06,15.28-.01,30.56,0,45.84-.01.91,0,1.83.09,2.72-.13.41-.1.82-.16,1.24-.2,1.21-.08,2.13-.61,2.66-1.75-.56-8.94-.08-17.88-.33-26.82-.04-1.52-.08-3.01.07-4.52.09-.9.05-2.05,1.31-2.01,1.11.04,1.09,1.11,1.16,1.97.02.24.01.49.01.73-.03,1.21-.04,2.42-.12,3.64-.12,1.93.33,2.38,2.24,2.42.61.01,1.22-.03,1.82.03.64.06,1.58,0,1.47.92-.1.81-1,.72-1.66.69-.66-.03-1.3-.25-1.98-.24-1.82,0-2.2.36-1.9,2.13.32,1.88-.12,3.73-.11,5.6,0,1.52.28,3.01.25,4.52-.01.72.65.98.96,1.48Z"/><path class="cls-30" d="m9.54,144.89c1.59-4.09,4.19-7.49,7.24-10.57,7.19-7.25,14.42-14.46,21.63-21.69,1.01.28.47,1.1.54,1.67.61,5.31.31,10.62.02,15.93.12,5.51.56,11.02.37,16.54-.03.79.04,1.58-.11,2.36-.59,2.57-.16,5.17-.29,7.76-.04.72.02,1.45-.1,2.17-.48,3.62-.33,7.25-.08,10.87.22.92.19,1.84.11,2.77-.15.9-.76,1.51-1.37,2.09-3.6,3.45-6.95,7.15-10.63,10.52-.57.52-.9,1.12-1.07,1.86-.14.57-.1,1.25-.84,1.5-1.8-.15-2.9-1.49-4-2.62-.85-.86-.19-1.81.88-2.01,1.37-.25,2.4-.78,2.91-2.14.11-.28.37-.5.65-.63,3.34-1.56,4.97-4.97,7.73-7.16.7-.56.4-1.03-.23-1.42-.68-.41-1-.99-.98-1.82.11-3.22.43-6.43.57-9.65.03-.58.03-1.39.83-1.4.81-.01.87.81.84,1.38-.12,2.7,1,5.26.85,7.97-.05.92.23,1.81,1.75,2.52-1.66-1.87-1.39-3.67-1.39-5.42,0-9.5.03-19-.03-28.5-.01-2.17.79-4.32.08-6.88-.66,1.24-.52,2.25-.39,3.2.76,5.96-.41,11.91-.15,17.87.04.97-.3,2.16-1.49,2.18-1.33.02-1.61-1.23-1.6-2.26.03-8.64-.45-17.29.37-25.92.08-.83.72-1.57.39-2.47-2.34,2.28-4.81,4.4-7.01,6.8-.05.06-.09.11-.14.12-3.01.88-3.97,3.67-5.51,5.92-.21.31-.46.65-.81.71-2.29.34-2.25,2.14-2.21,3.74.04,1.93-.68,3.74-.4,5.75.23,1.67-1.25,1.97-2.71,1.58-.76-.66-1.49-1.3-2.61-1.38-1.02-.07-1.57-.75-1.57-1.81Z"/><path class="cls-19" d="m37.79,239.61c9.63,0,19.25,0,28.88,0,3.89,0,5.38,1.77,4.74,5.53-.51,2.95.07,5.91-.04,8.86-.07,1.87-.46,3.69.85,5.53,1.03,1.46-.08,2.9-2,2.72-6.68-.62-13.37-.27-20.06-.31-10.72-.07-21.45.11-32.17-.09-3.83-.07-7.56.77-11.37.67-2.01-.05-3.29-1.15-2.39-2.91,1.14-2.23.96-4.49.89-6.77-.09-3.2.4-6.42-.44-9.62-.39-1.51,1.83-3.61,3.5-3.61,9.87,0,19.74,0,29.61,0Z"/><path class="cls-16" d="m9.54,144.89c.48,1.01,1.2,1.6,2.39,1.46,1.09-.13,1.51.5,1.63,1.46.37.85-.27,1.01-.84,1.16-.57.15-1.16.1-1.74,0-.95-.22-1.44.13-1.68,1.11-.58,2.37-1.05,4.72-1.05,7.19.03,22.75.02,45.51.02,68.26,0,1.28.05,2.55-.36,3.8-.26.79-.73,1.88.1,2.34.92.51.91-1.06,1.66-1.28.84.29.64,1.04.73,1.66-.03.85.31,1.69.11,2.55-.08.22-.23.38-.43.49-1.24.34-2.47.54-3.63-.27-.9-1.86.11-3.72-.02-5.58,0-23.51,0-47.02,0-70.52,0-.73-.11-1.46.11-2.18.24-4.08,1.11-8.01,3-11.67Z"/><path class="cls-19" d="m6.66,234.81c1.2-.01,2.4-.03,3.6-.04.87-.63,1.87-.43,2.83-.43,17.03-.02,34.07.01,51.1-.03,1.74.05,3.51-.32,5.2.37.41.39.42.81.11,1.26h-1.1c-.51.31-1.07.17-1.61.17-19.53,0-39.06,0-58.59,0-.54,0-1.1.14-1.61-.17-.2-.12-.38-.28-.6-.34-1.97-.55-1.99-.56-1.18-2.31.4-.85.41-1.91,1.35-2.46.63,1.27-.17,2.72.48,3.98Z"/><path class="cls-29" d="m6.54,156.56c.02,1.33.05,2.67.05,4,0,22.21,0,44.41,0,66.62,0,.73-.04,1.46-.06,2.19-.08,0-.16,0-.24,0-.02-3.35-.06-6.69-.06-10.04,0-19.84,0-39.69,0-59.53,0-1.08-.2-2.19.29-3.24Z"/><path class="cls-4" d="m40.62,115.26c-.8,3.36-.79,6.77-.74,10.19,0,.54-.25.92-.73,1.14-.25-3.05-.35-6.1.05-9.14.47-.73.95-1.46,1.42-2.19Z"/><path class="cls-52" d="m39.2,117.46c-.02,3.05-.03,6.1-.05,9.14,0,1.21,0,2.41,0,3.62-.07.17-.16.19-.29.06-.02-5.34-.02-10.69-.07-16.03,0-.54.37-1.23-.37-1.62.91-.46.73.28.75.71.03,1.37.03,2.75.04,4.12Z"/><path class="cls-4" d="m10.25,135.45c-.15-.76.3-1.43,1.03-1.95.31-.22.56-.04.71.26.39.84.32,1.62-.36,2.29-.31.3-.3,1.08-.94.86-.55-.18-.38-.8-.43-1.46Z"/><path class="cls-4" d="m32.92,113.69c-.03.8-.41,1.43-1.23,1.5-.79.06-.94-.59-.94-1.24,0-.8.39-1.21,1.21-1.23.67-.01,1.03.25.96.98Z"/><path class="cls-4" d="m25.91,121.06c-.77-.08-.92-.71-.98-1.3-.09-.84.42-1.22,1.23-1.2.48.01,1.1-.03,1.05.67-.06.81-.36,1.55-1.29,1.83Z"/><path class="cls-4" d="m29.18,115.63c.6.01,1.15.22,1.13.87-.02.91-.82,1.14-1.52,1.24-.66.09-.95-.41-.94-1.03.01-.86.58-1.1,1.33-1.08Z"/><path class="cls-4" d="m17.3,129.45c-.53.06-.77-.14-.79-.59-.04-.7.34-1.19.95-1.37.49-.14.74.28.81.75.12.81-.48,1-.97,1.21Z"/><path class="cls-4" d="m14.35,132.48c-.65-.07-1.13-.05-.99-.59.16-.65.46-1.27,1.31-1.24.44.02.68.21.52.69-.18.56-.27,1.23-.84,1.14Z"/><path class="cls-4" d="m23.77,122.61c0,.47-.19.89-.75.99-.47.09-.89-.12-.91-.61-.02-.61.45-.95,1-1.07.45-.1.63.21.66.68Z"/><path class="cls-4" d="m20.14,124.84c.6-.03.72.33.72.8,0,.43-.03.85-.59.93-.6.09-.94-.25-.99-.77-.05-.55.43-.78.86-.96Z"/><path class="cls-1" d="m6.3,229.37c.08,0,.16,0,.24,0,.04,1.82.08,3.63.13,5.45-.98-1.23-.11-2.68-.48-3.98.04-.49.08-.98.12-1.46Z"/><path class="cls-4" d="m39.23,85.65c2.01,1.22,2,2.62,0,4.37,0-1.46,0-2.91,0-4.37Z"/><path class="cls-4" d="m38.85,130.28c.1-.01.19-.03.29-.06,0,1.48.01,2.95.02,4.43.66,1.39.08,2.99.72,4.39,0,4.99.16,9.99-.05,14.98-.18,4.41-.1,8.85-.65,13.25-.11.89-.12,1.8.22,2.7.32.83.57,1.65.25,2.64-.26.79.19,1.64.81,2.3.55.59,1.05.9,1.47-.1.21-.49.6-.78,1.08-.92.73-.2,1.09-.54.66-1.3-.64-1.12.02-1.53.97-1.79.41-.11.81-.24,1.23-.33.45-.09.81-.28.9-.77.09-.5-.19-.84-.61-1-2.5-.95-2.6-3.16-3.02-5.35-.7-3.69.35-7.2.69-10.79.13-1.39.27-2.84,0-4.19-.62-3.05-.21-6.05.2-9.04.11-.84.25-1.67.25-2.52,0-7.67,0-15.35,0-23.02.31-4.39.31-8.78,0-13.17v-1.83c-.52-2.42.17-4.9-.37-7.31v-24.87c.52-1.43-.13-2.96.37-4.39v-2.19c-.29-1.95-.29-3.9,0-5.85V8.4c0-.3,0-.61,0-.91.01-3.72.78-4.35,4.48-3.54,1.42.31,2.74-.27,4.14-.27,29.92.05,59.83.04,89.75.04,3.66,0,7.31.01,10.97,0,2.16-.01,4.32.66,6.49.02.54-.16,1.08.08,1.57.35,1.08.71.82,1.92,1.1,2.93-.38.75-.18,1.56-.18,2.34-.01,68.66,0,137.32-.02,205.98,0,.78.19,1.58-.17,2.34-.63,1.64.53,3.24.06,4.91-.42,1.48-1.66,2.35-3.12,1.93-.57-.17-1.13-.41-1.69-.62-.43-.44-1.12.09-1.54-.41.03-.59.48-.79.93-.99,1.15-.47,2.51.26,3.57-.64.41-2.09.09-4.2.18-6.3,0-66.99,0-133.98,0-200.96.02-1.89.02-3.78,0-5.66,0-.65.14-1.36-.49-1.85-.94-.42-1.93-.25-2.89-.25-35.05,0-70.11,0-105.16,0-1.37-.01-2.75-.03-4.12,0-.64,0-1.35-.12-1.75.6-.22,8.65-.05,17.3-.1,25.95,0,1.09.08,2.19-.12,3.28-.14.59-.27,1.17-.27,1.79.02,13.9-.04,27.8.04,41.7-.03,6.95.22,13.89-.13,20.84-.29.88-.28,1.8-.28,2.71,0,9.69,0,19.37,0,29.06-.09,2.68.16,5.38-.15,8.06-.21.69-.61,1.32-.58,2.08.28,7.51-.6,15-.32,22.5.22.69.52,1.33,1.14,1.77.9.49,1.92.8,2.47,1.77.17.33.2.67.13,1.03-.05.17-.12.32-.21.47-.55.69-1.19,1.3-2,1.68-.5.24-.91.53-.96,1.14-.41,1.92-2.05,2.72-3.43,3.75-.9.25-1.54.79-1.86,1.69-.34.61-.71,1.2-1.26,1.63-.82.57-1.39.1-1.94-.47-.98-1.72-.88-2.42.47-3.16q2.08-1.15,1.68-3.49c-.04-.24-.09-.48-.09-.73-.48-7.06.09-14.12,0-21.18,0-.66-.11-1.34.11-1.99.04-6.33.08-12.66.12-18.98Z"/><path class="cls-49" d="m156.18,223.51c.51.05,1.08-.17,1.46.37h-1.1c-.69.35-1.44.17-2.16.17-25.38.01-50.77,0-76.15.02-.72,0-1.46-.19-2.15.18h-1.1c-.64,0-1.32-.05-1.4-.83-.16-1.6-.21-3.22-.33-4.82-.15-2.07.57-4.12.04-6.21-.4-1.55.37-2.26,2-2.44,1.3-.14,2.54.85,4.11.04-1.28-.62-2.41-.32-3.49-.36-1.97-.06-2.88-.89-2.58-2.79.18-1.16.1-2.29.18-3.44.26-.22.53-.21.82-.05.34.41.36.9.35,1.4,0,.19-.03.38-.06.56-.57,2.72-.27,3.07,2.67,3.06,12.58.76,25.18.13,37.76.39,3.6.07,7.15-.54,10.74-.4.78.03,1.41-.27,1.95-.83.51-.52,1.05-1,1.68-1.4,1.61-1,2.01-.86,2.72,1.04,0,3.46-1.7,4.83-5.89,4.78-15.25-.01-30.5.01-45.75,0-1.49-.06-2.96-.47-4.48-.36-.76.05-1.47.1-1.59,1.07-.06,2.87-.02,5.73-.02,8.6,0,1.1.21,1.83,1.63,1.81,15.42-.17,30.84-.05,46.26-.08,10.42-.02,20.84,0,31.26,0,.89,0,1.85-.21,2.61.51Z"/><path class="cls-49" d="m165.33,5.18v217.6c-.66-.67-.35-1.51-.35-2.26-.02-72.15-.01-144.29-.01-216.44.44.26.35.7.37,1.1Z"/><path class="cls-49" d="m162.4,217.66c0-69.46,0-138.93.01-208.39,0-.75-.31-1.59.35-2.26,0,69.46,0,138.93-.01,208.39,0,.75.31,1.59-.35,2.26Z"/><path class="cls-49" d="m76.09,224.25c.67-.66,1.51-.35,2.26-.35,26.07-.02,52.13-.01,78.2-.01-.67.66-1.51.35-2.26.35-26.07.02-52.13.01-78.2.01Z"/><path class="cls-49" d="m161.3,227.17h-80.46c.54-.6,1.25-.36,1.89-.36,25.56-.01,51.11-.01,76.67,0,.64,0,1.35-.24,1.89.36Z"/><path class="cls-4" d="m44.28,100.63c.39.3.37.73.37,1.15,0,3.62,0,7.24,0,10.86,0,.42.03.85-.37,1.15v-13.17Z"/><path class="cls-4" d="m43.91,91.49c.83,2.4.14,4.88.37,7.31-.83-2.4-.14-4.88-.37-7.31Z"/><path class="cls-4" d="m39.89,139.03c-1.05-1.33-.65-2.9-.72-4.39,1.27,1.29.52,2.92.72,4.39Z"/><path class="cls-4" d="m44.28,54.19v5.85c-.6-1.95-.6-3.9,0-5.85Z"/><path class="cls-4" d="m44.28,62.23c-.19,1.46.4,2.98-.37,4.39.19-1.46-.4-2.98.37-4.39Z"/><path class="cls-15" d="m69.51,235.95c0-.37,0-.74-.01-1.11.05-.06.11-.12.16-.18.13-.09.28-.17.42-.24.69-.41.75-.87.1-1.36-.39-.3-.67-.65-.76-1.14-.14-8.72-.04-17.43-.05-26.14,0-.55.02-1.1.35-1.58.41-.38.85-.39,1.32-.11.48,1.25.67,2.55.67,3.9-.02,7.11.06,14.22-.06,21.33-.03,1.77,1.03,3.41.41,5.19-.7.76-1.52,1.3-2.56,1.46Z"/><path class="cls-4" d="m72.07,234.49c-1.47-9.07-.42-18.2-.72-27.3-.03-1.03-.56-2-.37-3.06-.79-2.33.54-4.3,1.15-6.37.16-.55.88-.61,1.42-.35.79.37,1.26,1.07,1.09,1.89-.28,1.36-.06,2.76-.38,4.1h-.73c-.01-.67,0-1.34-.04-2.01-.02-.38-.22-.72-.64-.76-.45-.04-.75.32-.71.66.17,1.51-.6,2.97-.2,4.49.15.58.13,1.2.13,1.81,0,7.13,0,14.26,0,21.39,0,1.15-.05,2.29.28,3.44.18.64.34,1.45-.29,2.06Z"/><path class="cls-4" d="m6.61,235.95h61.81c-.54.6-1.25.35-1.89.36-19.34.01-38.68.01-58.02,0-.64,0-1.35.24-1.89-.36Z"/><path class="cls-30" d="m11,148.54c.85-.24,2.02.61,2.56-.73,2.76-.01,3.03-.4,2.07-2.91-.08-.22-.25-.55-.17-.67,1.46-1.97.58-4.3,1.03-6.42.19-.88.79-.97,1.5-.97,1.09,0,1.71-.52,1.77-1.64.02-.37,0-.84.35-.99,1.36-.6,2.01-1.53,1.97-3.08-.02-.7.86-.45,1.37-.5,1.09-.1,2.06-.3,2.21-1.67.07-.66.57-.87,1.18-.89,1.16-.03,1.68-.71,1.51-1.78-.16-1.05.45-1.14,1.16-1.14,1.15,0,1.88-.42,1.95-1.65.04-.67.2-1.3,1.01-1.2.91.12,1.04,1.04.77,1.56-.82,1.6-.5,3.32-.79,4.96-.16.91-.25,1.8-.25,2.71,0,6.58,0,13.16,0,19.74,0,1.03-.08,2.52,1.11,2.51,1.17,0,1.13-1.5,1.08-2.53-.2-4.62.33-9.23.35-13.84,0-1.69-.23-3.38-.34-5.07-.02-.36-.03-.74.03-1.09.09-.53.19-1.21.85-1.24.69-.04.86.66.89,1.17.06,1.15.16,2.34-.06,3.46-.19.97-.25,1.92-.25,2.89,0,10.17,0,20.35-.01,30.52,0,1.19-.07,2.34,1.28,2.93.42.18.67.6.4,1.06-.21.36-.63.27-1,.22-1.47-.2-2.21-1.22-2.09-2.52.29-3.02-1.17-5.85-.8-8.85.03-.27.06-.62-.34-.75-.42.07-.35.42-.37.7-.22,3.44-.43,6.89-.67,10.33-.05.69.25,1.06.88,1.14.68.09,1.17.31,1.21,1.09.04.76-.51,1.04-1.07,1.31-.89.45-1.32,1.47-1.97,1.97-1.63,1.25-2.27,3.4-4.24,4.26-1.09.47-2.18.87-2.46,2.36-.19,1.05-1.3,1.13-2.25,1.11-.62-.01-1.29-.01-1.44.78-.14.7.41,1.01.93,1.16,1.31.38,1.72,2.15,3.3,2.08.19.01.36.08.49.2,2.52,2.37,3.13,2.34,5.66-.1.71-.68,1.22-1.73,2.45-1.65.22.12.43.26.53.48.38.93-.67,5.1-1.47,5.69-.65.48-1.25.91-.3,1.66,1.45.35,2.92.16,4.37.14,2.1-.02,2.71-.66,2.83-2.72q.17-2.94,3.15-3.12c1.99-.12,2.58-.7,2.7-2.67q.19-3.02,3.08-3.18c2.08-.11,2.66-.7,2.77-2.79q.16-2.92,3.01-3.06c2.18-.1,2.74-.68,2.84-2.91.13-2.79.16-2.82,2.94-2.94,2.3-.1,2.82-.63,2.91-3.02.11-2.62.22-2.73,2.86-2.83,2.4-.09,2.9-.62,3-3.12.1-2.48.26-2.64,2.77-2.73,2.46-.09,2.98-.6,3.08-3.04.1-2.58.25-2.73,2.69-2.81,2.58-.09,3.07-.58,3.17-3.13.09-2.48.25-2.64,2.78-2.72,2.46-.08,2.98-.6,3.07-3.03.1-2.63.2-2.72,2.86-2.82,2.41-.09,2.91-.6,3-3.11.09-2.52.23-2.66,2.74-2.74,2.54-.08,3.04-.61,3.12-3.17.03-1.01-.24-2.09.44-3.01,1.02-.6,2.1-.46,3.18-.23,2.23,1.5,4.64.95,7.02.59.6-.03,1.2-.05,1.79.11,1.1.3,1.76,1.06,1.86,2.17.1,1.07-.65,1.6-1.57,1.9-.57.19-1.15.36-1.54.86-1.03,1.6-.85,3.36-.5,5.06.36,1.77,2.96,2.19,4.69.86.64-.85.58-2.6,2.13-2.3,1.67.32.54,1.82.73,2.77.49,2.42-1.3,4.3-1.77,6.53-.24,1.12-1.91,1.44-3.13,1.35-1.29-.09-1.11-1.38-1.42-2.25-1.86-1.44-3.94-.8-5.88-.42-1.64.32-1.38,1.96-1.36,3.2.03,1.73-.75,2.36-2.44,2.37-2.99.02-3.4.41-3.4,3.38,0,1.81-.7,2.49-2.5,2.48-2.93-.01-3.34.41-3.35,3.42,0,1.71-.65,2.4-2.38,2.42-3.12.04-3.44.36-3.48,3.5-.02,1.76-.81,2.32-2.46,2.35-2.96.04-3.35.42-3.39,3.42-.02,1.69-.67,2.4-2.39,2.43-3.08.05-3.46.5-3.48,3.54,0,1.04-.03,2.07.02,3.11.03.64.1,1.27,1.02,1.11.74-.32,1.2-1.02,1.89-1.39.74-.39,1.56-.58,2.15.15.53.66.27,1.46-.34,1.95-1.46,1.16-2.36,3.2-4.65,3.12-1.05-.07-2.28-.91-2.96.67-.04.52.08,1.01.51,1.3,1.27.88,1.12,1.91.33,2.96-1.88,2.5-2.21,5.59-3.21,8.42-.41,9.09-.2,18.17-.19,27.25-.05.26-.19.43-.43.52-1.4.22-2.79,0-4.19.01-16.5.02-33,.01-49.5.01-3.94,0-4.07-.13-4.07-4.12,0-22.59,0-45.18-.01-67.77,0-2.38.46-4.72.44-7.1,0-.48.12-.97.53-1.32Z"/><path class="cls-25" d="m33.65,186.91c-.82.8-1.65,1.6-2.47,2.4-2.4,2.37-4.4,2.07-6.01-.91.07-1.39.32-2.54,1.5-3.65,3.94-3.68,7.68-7.59,11.48-11.42.11-.11.13-.33.19-.5.15-.05.25,0,.31.14,1.51,1.89,1.2,3.1-1,3.91-1.74.64-1.83,1.01-.71,2.73.41.87-.21.96-.8,1.07-1.33-.59-2.43-.57-2.97,1.08-.09.28-.32.57-.59.67-1.94.74-1.59,2.09-.98,3.52-.14.62-.55.88-1.15.9-.3-.02-.57-.14-.84-.24-.5-.18-1.1-.46-1.27.34-.17.82.23,1.24,1.1,1.07,1.24-.47,2.07-1.4,2.75-2.48.34-.59.65-1.21,1.35-1.46.78-.11,1.38-.45,1.59-1.28.25-.55.66-.96,1.15-1.3.62-.63,1.6-.75,2.12-1.52.37-.49.73-.98,1.1-1.46.54-.68,1.15-1.28,1.83-1.83,1.15-1.17,3.03-1.69,3.29-3.66.28-.27.15-.85.72-.9,1.28-.12,1.88-1.13,2.57-2.02.49-1,1.95-1.1,2.16-2.35.1-.32.26-.62.53-.84.68-.42,1.5-.69,1.69-1.62.17-.45.43-.85.66-1.27.32-1.05-.8-1.34-1.08-2.07.2-1.07.77-1.74,1.91-1.81.41.38.61.9.9,1.36.84,1.33.99.36,1.23-.34.11-.33.27-.62.58-.8,1.09-.19,1.51-1.17,2.19-1.84,1.82-1.17,2.97-3,4.42-4.53,1.14-1.2,1.43-2.29.39-3.64.21-1.06.77-1.86,1.77-2.32.49.09.53.57.76.89.1.12.19.25.29.37.43.32.82,1.16,1.32.07.13-.31.3-.58.61-.73.85-.18,1.55-.57,1.91-1.41.49-.84-.17-1.5-.38-2.22-.11-.33-.19-.67-.15-1.02.31-.75.55-1.58,1.64-1.47,1.62,1.52,1.92,1.7,3.11.09,1.2-1.63,2.69-2.97,3.89-4.57.08-.15.18-.29.29-.42.72-.88,1.93-.93,2.77-1.67,1.41-1.24,1.46-1.51,0-2.73-.28-.23-.63-.39-.56-.84.77-.61.99-1.99,2.4-1.71.85,1.11,1.56,1.63,2.88.3,2.6-2.64,5.76-4.64,8.59-7.04.68-.58,1.54-.78,2.41-.49,2.09.69,4.2.51,6.32.23,3.37-.45,6.47.84,9.21,2.38,1.46.82,2.38,2.94,3.41,4.56.21.34.18.95.78.79.57-.15.62-.66.59-1.19-.05-.66-.67-1.43.34-1.9.06.03.12.04.16.08,1.47,1.6,2.02,3.75,3.31,5.52.92,1.26.87,3.38,1.01,5.11.25,3.26.31,6.55-.94,9.68-.18.45-.28.94-.6,1.32-3.77,4.61-7.34,9.39-11.83,13.36-3.78,3.35-7.17,7.08-10.68,10.69-3.05,3.14-6.33,6.06-9.37,9.22-.76.79-1.53,1.56-2.27,2.37-.84.93-1.65,1.99-3.09,2.04-1.41-1.34-1.49-1.35-2.4.35-.35.65-.79,1.06-1.53,1.09-.86.04-1.49.44-1.93,1.16-.3.41-.58.85-.96,1.2-.78.64-1.14,1.53-1.35,2.47-.11.47-.15,1.07.4,1.24.69.21.69-.49.82-.91.21-.69.29-1.41.33-2.13.1-.6.31-1.1,1.03-1.14.59.05,1.16.14,1.63.53.14,2.02-1.26,3.5-2.35,4.72-1.72,1.92-1.79,3.95-1.67,6.19.04.73.15,1.47-.23,2.13-.2.35-.53.49-.91.19v-1.46c-.55-1.16-.47-2.33-.1-3.53.25-.81.14-1.6-.65-2.09-.64-.39-1.16-.25-1.33.57-.4,1.92-.81,3.85-1.21,5.77-.35,0-.71,0-1.06,0-.6-.5-.46-1.22-.54-1.87.05-5.66,2.65-10.18,6.49-14.05,11.94-12.01,23.93-23.96,35.91-35.94,3.26-3.26,5.11-7.17,4.71-11.77-.7-8.03-6.56-13.98-14.44-14.23-5-.16-8.96,1.72-12.41,5.14-2.94,2.92-5.8,5.91-8.77,8.79-.68.63-1.34,1.28-1.98,1.95-1.35,1.31-2.67,2.66-4,3.99-.65.62-1.28,1.26-1.91,1.91-1.32,1.3-2.63,2.62-3.93,3.94-.66.63-1.3,1.27-1.93,1.94-3.23,3.26-6.48,6.5-9.74,9.74-.55.51-1.07,1.04-1.59,1.58-1.44,1.42-2.86,2.86-4.28,4.29-.54.51-1.07,1.04-1.59,1.59-3.36,3.38-6.72,6.74-10.1,10.1-.66.62-1.3,1.26-1.93,1.92-1.45,1.21-2.45,2.92-4.22,3.76Z"/><path class="cls-38" d="m38.66,172.99c-.13.02-.24-.03-.31-.14,0-.92.01-1.83.02-2.75-.17-3.65-.24-7.29.04-10.93.02-2.72.02-5.43.06-8.15,0-.59-.16-1.22.27-1.74.12,7.91.11,15.82-.07,23.72Z"/><path class="cls-30" d="m38.4,159.16c-.01,3.64-.02,7.29-.04,10.93-.69-2.93-.15-5.9-.29-8.85-.03-.69-.28-1.47.32-2.08Z"/><path class="cls-32" d="m69.5,241.81c.06,6.2.17,12.4-.05,18.59-.42.38-.93.22-1.4.22-19.99,0-39.98,0-59.97,0-.48,0-.98.13-1.42-.19l-.03-.06c-.45-1.98-.18-3.99-.18-5.98.01-4.32-.2-8.64.11-12.95h.05c.57-.33,1.19-.17,1.79-.17,19.64,0,39.29-.01,58.93,0,.74,0,1.62-.35,2.16.53Z"/><path class="cls-18" d="m69.5,241.81c-.76-.54-1.64-.37-2.48-.37-20.13,0-40.27,0-60.4,0,.44-.66,1.11-.35,1.67-.35,19.84-.02,39.68-.02,59.52,0,.57,0,1.57-.55,1.68.71Z"/><path class="cls-23" d="m6.65,260.43c20.93-.01,41.86-.02,62.79-.03-.4.71-1.09.41-1.64.41-19.83.02-39.65.02-59.48.01-.57,0-1.24.26-1.67-.39Z"/><path class="cls-10" d="m6.57,241.44c.02,6.31.04,12.62.06,18.94-.41-.21-.36-.59-.36-.95,0-5.66-.01-11.33-.02-16.99,0-.36-.02-.74.32-1Z"/><path class="cls-16" d="m33.65,186.91c1.2-1.47,2.53-2.82,4.02-4,1.13-.09,2.02-.43,1.83-1.84,3.28-3.54,6.7-6.94,10.24-10.23,1.13.15,1.59-.37,1.47-1.47,1.32-1.6,2.77-3.07,4.39-4.38,1.05.06,1.26-.7,1.46-1.48,3.15-3.43,6.46-6.69,9.86-9.87,1.43.21,2.02-.43,1.84-1.84,1.19-1.48,2.53-2.82,4.01-4.01,1.14-.09,2.02-.43,1.84-1.84,1.2-1.48,2.53-2.83,4.02-4.01,1.14-.09,2.05-.41,1.83-1.84,3.49-3.86,7.08-7.66,11.09-10.95,8.65-7.09,22.61-3.08,25.1,9.25,1.09,5.39-.53,10.18-4.5,14.14-12.25,12.21-24.49,24.42-36.68,36.69-3.34,3.36-4.97,7.64-5.84,12.23-.03.13.15.31.23.46-.35.63-.18,1.31-.18,1.97-.01,7.84-.01,15.68,0,23.52,0,2.18-.08,4.36.2,6.53-.17.64-.63.81-1.22.65-.51-.14-.54-.59-.49-1.01.09-.89-.39-1.14-1.16-1.14-18.1-.02-36.19,0-54.29,0-.61,0-1.22-.01-1.82.13-.37.04-.71-.05-1.01-.28v-1.83c.64-1.14,1.77-.92,2.76-.93,6.51-.03,13.02-.02,19.54-.02,10.89,0,21.79.01,32.68-.02,1.1,0,2.37.35,3.16-.86v-.37c-.33-.57-.17-1.19-.17-1.78-.01-6.37,0-12.74-.01-19.11,0-1.28-.06-2.61.43-3.76.51-1.18-.89-2.05-.25-3.14.21-.49.77-.83.72-1.43-.27-2.77,1.54-4.73,2.7-6.94.41-.79.98-1.5-.41-1.91-1.15-.34-.72-1.36-.81-2.15.91-1.09,2.18-.54,3.29-.73,1.15.18,2.04-.43,2.71-1.19.52-.6,1-1.18,1.68-1.62.59-.38,1.07-1.04.52-1.67-.49-.55-1.23-.35-1.8.13-.55.47-1.09.95-1.64,1.43-1.13.44-1.71-.07-1.61-1.16.15-1.7.1-3.4.18-5.1.07-1.5.98-2.08,2.41-2.16,3.23-.18,3.23-.2,3.43-3.39.11-1.78.69-2.35,2.48-2.45.36-.02.73,0,1.1,0,2.2-.02,2.25-.07,2.27-2.25.03-3.25.37-3.58,3.72-3.6q2.12-.02,2.13-2.12c0-.43-.02-.85,0-1.28.1-1.78.69-2.35,2.48-2.45q3.18-.18,3.37-3.35c.1-1.81.67-2.39,2.44-2.49.3-.02.61,0,.91,0q2.47-.02,2.49-2.57c.02-2.78.51-3.26,3.31-3.28.97,0,1.96.12,2.91-.11.86-.2,1.41.14,1.82.84.19.75-.52,2.03,1.01,2.01,1.81-.03,2.9-1.03,2.79-2.43-.03-.4,0-.77.23-1.02,1.59-1.67,1.02-3.83,1.36-5.78.06-.32.03-.62-.33-.74-.36-.12-.76-.13-.94.28-.31.72-.56,1.46-.84,2.19-4.36,1.22-5.56.31-5.49-4.1.01-.85.09-1.68.37-2.48.11-.85.78-1.02,1.44-1.07,1-.08,1.92-.36,1.74-1.52-.16-1.03-.81-1.88-2.1-1.8-.36.02-.72,0-1.08,0-.9-.46-1.76.07-2.64.13-1.52.1-3.03.2-4.31-.86h-3.29c-.68,1.13-.29,2.38-.36,3.57-.12,1.99-.67,2.54-2.68,2.65-1.87.1-3.67.11-4.73-1.87-.18-.34-.53-.68-1.1-.73.08.78.67,1.11,1.17,1.5,1.41,1.09,2.04,4.62,1.09,6.08-.29.45-.72.71-1.2.75-1.5.12-3.02.4-4.49-.19-.92-.83-1.43-2.08-2.85-2.75.35,1.78,2.01,1.98,2.84,2.96.46,1.3.23,2.63.19,3.95-.04,1.19-.76,1.92-1.96,1.96-1.31.04-2.65.26-3.94-.18-1.02-.77-1.49-2.14-2.89-2.77.32,1.69,1.88,1.91,2.73,2.84.51,1.35.26,2.75.2,4.12-.05,1.11-.79,1.78-1.89,1.82-1.32.05-2.65.25-3.95-.15-1.03-.84-1.63-2.09-2.91-3.01.12,1.92,1.89,2.1,2.73,3.09.48,1.35.25,2.74.18,4.11-.06,1.11-.8,1.77-1.9,1.81-1.31.05-2.64.24-3.94-.15-1.12-.8-1.57-2.28-3.07-3.09.25,1.95,2.01,2.17,2.89,3.19,1.11,5.31-.4,6.82-5.72,5.73-1.03-.76-1.46-2.16-2.87-2.82.27,1.75,1.87,1.96,2.71,2.9.51,1.36.26,2.76.2,4.14-.05,1.02-.7,1.72-1.74,1.79-1.38.09-2.78.28-4.14-.15-1.02-.78-1.5-2.12-2.89-2.9.28,1.83,1.88,2.03,2.72,2.97.51,1.36.26,2.76.2,4.14-.05,1.02-.7,1.72-1.74,1.79-1.38.09-2.78.28-4.14-.15-1.02-.78-1.51-2.12-2.89-2.9.28,1.83,1.88,2.03,2.72,2.97.51,1.35.26,2.75.2,4.12-.05,1.12-.79,1.78-1.89,1.83-1.32.05-2.65.25-3.96-.15-1.06-.82-1.58-2.15-2.9-3.05.07,1.97,1.88,2.14,2.72,3.14.47,1.36.25,2.75.18,4.13-.05,1.02-.71,1.7-1.75,1.77-1.37.09-2.77.28-4.13-.15-1.05-.84-1.61-2.17-2.96-3.18.2,2.06,1.95,2.29,2.83,3.3.43,1.37.25,2.78.15,4.16-.07.94-.67,1.65-1.63,1.68-2.11.06-4.22.39-6.33.11-.5-.98-.95-1.88.7-2.28.82-.2,1.42-.91.99-1.78-.46-.93.18-1.57.43-2.23.3-.77.05-1.24-.31-1.79Z"/><path class="cls-30" d="m68.05,228.63c.49.9.21,1.39-.79,1.45-.48.03-.97.01-1.46.01-17.8,0-35.61,0-53.41,0-.84,0-1.71-.12-2.48.36-.5.31-.28.9-.49,1.32-.27.53-.44,1.27-1.2,1.17-.83-.11-1.12-.75-1.24-1.56-.25-1.68.8-3.08.8-4.76-.08-23.25-.02-46.5-.1-69.75,0-2.79.86-5.36,1.27-8.04.26-1.65,1.32-.52,2.06-.29-.79,25.81-.15,51.63-.41,77.44-.02,1.85.45,2.33,2.32,2.33,17.36-.08,34.72-.04,52.09-.05,1.04,0,2.06.06,3.05.38Z"/><path class="cls-30" d="m9.9,232.29h.73c.63-.34,1.32-.17,1.97-.17,17.7-.01,35.41,0,53.11-.02.66,0,1.34.18,1.97-.18.77.23,1.85.18.94,1.54-.54.81.12,1.02.82,1.02.12.06.16.13.13.21-.03.08-.07.12-.1.12,0,0,.03.02.03.02-1.71-.02-3.42-.04-5.12-.06-.65-.21-1.33-.1-1.99-.11-16.71,0-33.43,0-50.14-.01-.66,0-1.34.17-1.97-.17-.14-.73-.5-1.42-.38-2.19Z"/><path class="cls-30" d="m10.27,234.49c17.33,0,34.66,0,51.99.01.71,0,1.47-.24,2.11.28-6.34.02-12.67.07-19.01.06-11.7,0-23.4-.04-35.1-.06,0-.1,0-.19,0-.29Z"/><path class="cls-24" d="m45.69,36.58c.04-9.95.07-19.9.11-29.85,2.07-.6,4.18-.11,6.27-.27,35.45,0,70.91,0,106.36,0,.72,0,1.46-.12,2.18.12.48.65.33,1.41.33,2.12,0,70.42,0,140.84,0,211.26,0,.43.02.85-.04,1.28-.05.37-.11.75-.54.86-.57.15-.73-.27-.91-.67-.47-1.83.18-3.63.18-5.45-.02-68.19-.02-136.38-.02-204.57,0-.76.06-1.55-.36-2.59-.53,1.59,0,3.09-.92,4.25-.24.29-.54.37-.9.31-1.2-.75-.98-1.99-1.01-3.1-.03-.98-.28-1.68-1.42-1.66-33.61-.03-67.22,0-100.83,0-.61,0-1.22-.06-1.78.26-1.21,1.34-.41,3.19-1.19,4.64-.45,3.76-.09,7.53-.19,11.3-.04,1.64,0,3.28,0,4.93.03.43-.03.85-.12,1.26-.43,1.49-.3,3.01-.16,4.53.03.28.13.58-.22.93.54-.27.76-.7,1.13-.96.3-.23.45-.53.55-.9.74-2.67,1.65-3.18,4.3-2.46,3.68.69,7.09.27,9.88-2.49.86-.85,1.74-1.68,2.45-2.67,1.21-1.32,3.11-2.19,2.86-4.45.34-1.48.66-2.95.8-4.46.29-.66.01-1.41.34-2.06,1.93-1.17,4.05-1.58,6.25-1.37,1.34.12,2.66.22,4,.22,13.63,0,27.27-.02,40.9.01,1.97,0,3.69-.09,4.75-2.19.62-1.24,2.01-1.24,3.26-.88.84.24,1.17.88.89,1.71-.3.86.08,1.39.7,1.88.49.47.73,1.05.79,1.72,0,1.99.58,3.87,1.05,5.77.08.55.06,1.11.28,1.63,1.2,1.95,1.98,4.08,4.83,4.65,1.57.31,2.68,2.23,4.4,2.97,2.24.97,4.32,1.58,6.41-.22,2.46-.14,3.02.28,3.56,2.67.09.41.29.78.44,1.17.8,1.53.73,3.18.73,4.83,0,47.7,0,95.4,0,143.1,0,1.52-.04,3.04.35,4.54.34,1.33-.31,2.22-1.51,2.77-.92.12-.88-.64-1.08-1.17-.47-1.6-.41-3.26-.41-4.9,0-47.96,0-95.93,0-143.89,0-.91.1-1.83-.37-2.73-.31,50.23-.24,100.46-.28,150.69.3,1.9-.33,3.67-.82,5.45-.2.73-.46,1.37-1.28,1.59-1.08-.05-2.11.08-3.12.52-.78.34-1.63.41-2.45.22-.64-.15-1.17-.08-1.58.47-.61.97.78,1.2.74,1.96-.76,1.57-1.83.24-2.76.31-1.25-.2-2.37.04-3.28.97-1.26,2.08-3.23,3.81-2.95,6.62.06.64.03,1.65-1.06,1.83-.72-.59-.73-1.49-.98-2.29-.03-2.39,1.12-4.36,2.48-6.14,2.92-3.81,6.81-6.05,11.66-6.32,1.75-.1,2.91-.72,3.39-2.44.36-1.23.11-2.48.17-3.73,0-49.34,0-98.67,0-148,0-.79.03-1.58-.07-2.37-.42-1.75-1.48-2.62-3.33-2.75-7.72-.52-13.04-5.2-14.66-12.8-.06-.18-.09-.37-.12-.55-.07-.54-.05-1.08-.07-1.63-.06-1.77-.99-2.78-2.69-3.14-.48-.14-.97-.11-1.46-.11-16.03,0-32.06,0-48.09,0-.43,0-.85,0-1.27.08-.28.1-.58.16-.89.19-3.51.35-3.8.63-4.22,4.13-.98,8.06-6.55,13.36-14.63,13.84-1.75.1-2.8.99-3.47,2.5-.31.9-.18,1.82-.18,2.72,0,37.45,0,74.91-.01,112.36,0,1.21.17,2.44-.3,3.61-.62,1.45-1.86,2.38-2.93,3.45-1.9,1.88-3.79,3.78-5.65,5.71-.46.48-1.04,1.05-1.73.79-.75-.29-.56-1.13-.59-1.77-.03-.67.02-1.34.23-1.99.16-2.37.12-4.74.06-7.11-.2-7.47.41-14.92.35-22.39,0-9.93,0-19.87,0-29.8,0-.66-.11-1.34.12-1.99.03-6.94.07-13.88.1-20.82.27-.65.14-1.32.14-1.99,0-13.21,0-26.41.01-39.62,0-.66-.11-1.34.12-1.99Z"/><path class="cls-20" d="m55.67,36.65c.83-1.55,2.1-2.15,3.87-2.22,7.29-.27,13.28-5.93,14.06-13.14.06-.54.12-1.09.19-1.63.3-2.42,1.09-3.12,3.55-3.14.43,0,.85-.03,1.28-.04.4-.2.84-.13,1.26-.13,16.5,0,32.99,0,49.49,0,.42,0,.85-.05,1.26.11,1.71.4,2.4,1.59,2.49,3.23.03.65.01,1.3.02,1.95-.18.01-.39.07-.52-.08-3.01-3.6-7.08-4.16-11.43-4.14-12.77.04-25.53.02-38.3.01-1.34,0-2.68.02-3.97.42-3.14.98-3.65,1.62-3.86,4.82-.04.24-.17.48-.16.7.17,3.38-2.13,5.52-3.94,7.9-1.39,1.3-2.62,2.81-4.56,3.35-1.65,1.46-3.78,1.36-5.75,1.71-.7.13-1.45-.1-2.13.24-.22.15-.41.33-.56.55-.64,1.64-.42,3.44-.96,5.11-.22.84-.14,1.7-.14,2.55,0,33.3,0,66.6-.02,99.9,0,2.3.74,4.58.15,6.89.06.21.1.42.13.64.11,1.22.11,2.44.03,3.67-.45,1.62-1.11,3.11-2.62,4.06-.22.16-.46.28-.74.3-.75.47-1.36,1.08-1.83,1.83-.04.07-.07.15-.1.23-.91,1.25-1.72,2.6-3.19,3.32-.17.17-.35.34-.53.51-.78.75-1.58,1.46-2.76,1.43-.66-.27-.79-.93-1.1-1.46-.4-3.11-.1-6.24-.15-9.36-.01-.56.08-1.25.93-1.27.21,2.45.19,4.9,0,7.35v3.58c3.47-3.5,6.63-6.68,9.79-9.87.77-.73.58-1.68.58-2.58,0-38.39,0-76.79.02-115.18,0-.71-.24-1.46.23-2.13Z"/><path class="cls-48" d="m161.27,14.32c.01.55.03,1.1.03,1.64,0,66.07,0,132.15,0,198.22,0,.55-.02,1.1-.03,1.64-.29.1-.45,0-.5-.3-.04-25.84-.01-51.67-.01-77.51,0-41.13-.02-82.26.01-123.39.04-.3.21-.4.5-.3Z"/><path class="cls-15" d="m156.18,223.51c-26.06,0-52.13,0-78.19,0-.67,0-1.34,0-2,.1-1.59.25-2.07-.1-2.09-1.76-.03-3.23,0-6.45,0-9.68,1.11.26.81,1.18.86,1.9.18,2.65-.12,5.31.16,7.94.41.75,1.05.44,1.64.34,1.28-.14,2.57-.06,3.85-.1,24.52,0,49.04,0,73.56.01,1,0,2.09-.31,2.95.55-.24.23-.49.46-.73.69Z"/><path class="cls-36" d="m160.57,6.72c-1.46-.02-2.92-.06-4.38-.06-34.02,0-68.03,0-102.05,0-.73,0-1.46-.04-2.19-.06-.12-.06-.16-.13-.12-.19.04-.06.08-.1.12-.1,35.82,0,71.64-.01,107.47-.02.53,0,1.11-.13,1.57.28-.02.06-.04.13-.06.19-.13.06-.25.05-.36-.04Z"/><path class="cls-2" d="m156.92,222.83c-9.12-.02-18.24-.04-27.36-.05-16.48-.02-32.96-.03-49.44-.04-.08-.27.01-.47.26-.59,1-.4,2.04-.24,3.07-.24,24.82-.03,49.63.03,74.45-.05.87,0,1.67.27,2.51.37.25-.02.47.05.67.21-1.32.77-2.78.11-4.16.39Z"/><path class="cls-43" d="m45.69,36.58c.03,4.2.08,8.4.08,12.6,0,9.68-.03,19.37-.07,29.05,0,.65.2,1.35-.28,1.94,0-9.68-.02-19.35-.02-29.03,0-4.26.02-8.52.05-12.78,0-.6-.14-1.22.24-1.78Z"/><path class="cls-31" d="m44.93,155.49c-.65.68-.67,1.52-.66,2.39.02,2.74,0,5.48,0,8.22-.6-.54-.34-1.25-.36-1.9-.13-7.12.63-14.22.35-21.34-.03-.76.12-1.45.69-2,.5,3.68.13,7.37.2,11.06.02,1.18.33,2.41-.23,3.57Z"/><path class="cls-21" d="m45.32,101c0,9.5.02,18.99.03,28.49,0,1.1-.02,2.19-.03,3.29-.04.17-.13.2-.26.08,0-10.34-.02-20.68-.01-31.02,0-.28.18-.56.27-.84Z"/><path class="cls-45" d="m45.06,132.86c.09-.02.17-.05.26-.08,0,9.74.02,19.47.02,29.21,0,.28-.18.56-.27.84-.04-2.44-.09-4.89-.13-7.33.01-4.88.02-9.75.03-14.63.03-2.67.06-5.34.1-8.01Z"/><path class="cls-25" d="m45.37,167.56c.88-.57,1.89-.97,2.56-1.83.6.63.87,1.41,1.03,2.24-.07.61-.21,1.17-1.03,1.05-.77-.63-1.59-1.19-2.56-1.46Z"/><path class="cls-13" d="m161.27,14.32c-.09,0-.18,0-.27,0-.44-2.54-.27-5.09-.1-7.64,0,0,.1-.12.1-.12.66,2.57.17,5.17.28,7.76Z"/><path class="cls-31" d="m47.93,169.02c.49-.2.73-.57.73-1.1.61-.04,1.22-.12,1.83,0-.2,1.49-1.61,1.57-2.56,2.19v-1.1Z"/><path class="cls-31" d="m47.93,170.12c-.41,1.12-.9,2.17-2.33,2.22-.49.02-.6.53-.96.71.03-.41-.08-.93.47-1.04,1.21-.25,1.86-1.29,2.82-1.88Z"/><path class="cls-48" d="m161,215.83h.27c-.07,2.2.3,4.41-.2,6.6,0,0-.16-.06-.16-.06-.19-2.18-.36-4.37.09-6.54Z"/><path class="cls-36" d="m51.96,6.3c0,.1,0,.19,0,.29-2.05.05-4.11.1-6.16.15.64-.89,1.56-.38,2.34-.43,1.27-.09,2.54-.01,3.82,0Z"/><path class="cls-31" d="m38.42,179.99c-.26.96-1.19,1.25-1.83,1.83-.38-.42-.89-.78-.73-1.46.53,0,1.06.01,1.1-.73.41.43.82.87,1.46.37Z"/><path class="cls-31" d="m41.35,176.7c-.31.91-.92,1.52-1.83,1.83.12-1.1.73-1.71,1.83-1.83Z"/><path class="cls-20" d="m65.49,148.18c-.82.56-1.21,1.47-1.83,2.19-.45.53-1.06.67-1.71.73-1.11-.06-1.59-.73-1.7-1.76-.24-1.72.4-3.38.32-5.09-.78-16.62-.16-33.25-.36-49.88,0-.61-.05-1.22-.25-1.8-.16-.84-.11-1.7-.12-2.55-.01-15.93.02-31.85-.03-47.78,0-1.4.28-2.65,1.36-3.62.99-.85,2.07-1.28,3.45-1.26,1.17.01,2.39-.29,3.45-.92.67-.44,1.33-.91,2.05-1.29,1.7-1.46,3.68-2.7,4.12-5.17,1.63-1.56,2.64-3.34,2.95-5.68.36-2.76,1.56-3.55,4.38-3.55,13.96,0,27.92.04,41.87-.03,4.24-.02,5.29,1.06,6.7,5.05.64,1.81,1.23,3.36,2.73,4.75,1.53,1.41,2.6,3.33,4.42,4.53,1.56,1.02,3.11,2.06,4.65,3.11,4.27,1.64,4.22,1.64,4.15,6.31-.07,4.75-.02,9.5-.02,14.25,0,40.69,0,81.38,0,122.06,0,1.64-.07,3.27.28,4.91.26,1.21.03,2.43-.64,3.52-.91,1.77-2.68,1.78-4.29,2.11-1.38,0-2.45.55-3.18,1.74-.43.69-1.07,1.15-1.81,1.48-2.45,1.1-3.84,3.05-4.42,5.63-.35.68-1.05,1-1.53,1.54-.62.72-.8,1.59-.91,2.49-.19,1.54-.92,2.7-2.38,3.34-.92.4-1.89.43-2.87.43-14.85-.04-29.71.03-44.56,0-.67,0-1.33-.01-2,.11-2.91.54-3.47.08-3.51-2.84v-.37c1.4-.69.76-1.91.53-2.81-.4-1.6.83-3.01.32-4.57-.02-.05.14-.2.23-.25,2.26-1.18,2.72-3.67,4.03-5.54-.13-.29.04-.47.23-.65.99-1.1,2.34-1.84,3.15-3.12.17-.2.35-.38.64-.25,2.45-1.15,3.8-3.53,5.67-5.3,1.86-1.76,3.61-3.73,5.53-5.42,2.37-2.09,4.43-4.48,6.62-6.71,4.28-4.35,8.86-8.41,13-12.9,1.69-1.83,2.84-4.19,4.6-5.93,1.73-1.71,2.26-3.7,2.74-5.9.51-2.37.21-4.72.07-7.06-.08-1.24-.65-2.45-.57-3.75.04-.57-.17-1.24-.6-1.47-1.99-1.03-1.71-3.25-2.67-4.81-.54-.61-.34-1.23-.02-1.85.69-1.8,2.29-3.14,2.61-5.13.24-.69.71-1.24,1.14-1.81.96-1.96,1.06-4.04.82-6.16-.06-.16-.11-.33-.15-.5-.36-2.1-.99-4.12-1.92-6.04-.08-.14-.15-.29-.21-.44-.42-.74-.32-1.73-1.09-2.31-.19-.17-.36-.35-.51-.54-2.75-4.13-7.21-5.75-11.42-7.73-1.84-1.25-4.04-.61-6.01-1.16-.18-.06-.33-.17-.46-.31.12-1,.95-.79,1.55-.83,10.24-.72,19.84,6.64,21.88,16.69,1.21,5.96-.06,11.37-3.41,16.34-.7,1.04-.83,1.8-.16,2.94,5.66,9.54,4.26,20.24-3.58,28.09-11.67,11.68-23.37,23.34-35.01,35.05-3.29,3.2-5.48,6.91-5.23,11.69.03.58-.15,1.24.51,1.64.66.2,1.34.13,2,.13,14.96,0,29.92,0,44.88,0,.66,0,1.34.11,1.97-.2.58-.34.73-.92.9-1.52,2.4-8.55,7.84-14,16.48-16.18.42-.11.81-.24,1.12-.56.59-1.22.17-2.51.28-3.77,0-46.56,0-93.13,0-139.69,0-.9.2-1.84-.34-2.67-.5-.62-1.25-.72-1.94-.93-7.97-2.42-13.16-7.62-15.47-15.62-.37-1.27-.94-1.81-2.27-1.8-14.14.02-28.27.02-42.41,0-1.39,0-2.09.5-2.41,1.88-.83,3.58-2.62,6.67-5.09,9.37-3.08,2.99-6.59,5.25-10.83,6.22-.6.14-1.17.31-1.47.93-.18.91-.1,1.83-.1,2.74,0,34.28,0,68.56,0,102.83.05.39-.07,1.02.66.47.88-.65,1.72-1.35,2.5-2.13,6.05-6.07,12.12-12.13,18.18-18.19q1.83-1.83.67-4.17c-.19-.38-.39-.75-.56-1.15-.32-1.23-1.17-2.38-.56-3.75,1.2-.52,1.27.71,1.83,1.18.31.54.58,1.1.81,1.68.29.88.01,1.9.66,2.69.09.15.17.31.24.47.69,1.45-.07,2.56-.83,3.68-.71,1.04-1.88,1.58-2.68,2.51-.07.04-.15.07-.22.11-1.01.27-.97,1.81-2.19,1.83-.23.6-.61,1.1-.95,1.63-.67,1.02-1.88,1.5-2.52,2.55-.55.73-.97,1.58-1.87,1.99-1.18.4-1.53,1.66-2.43,2.35-.43.41-1.04.63-1.32,1.21-.1.2-.23.39-.43.51-.86.11-1.02.93-1.46,1.46-1.6,1.2-2.45,3.2-4.39,4.02Z"/><path class="cls-11" d="m131.68,200.11c.46-3.01,2.11-5.06,4.96-6.15.66-.25,1.02-.8,1.39-1.37.74-1.11,1.69-1.9,3.16-1.63.11.23.07.43-.12.6-1.78,1.05-3,2.73-4.62,3.9.24.45.54.49.71.34,2.54-2.37,5.85-2.53,9-3.14,2.29-.44,2.99-1.09,3.21-3.43.07-.73.04-1.46.04-2.19,0-47.04,0-94.07.02-141.11,0-2.25-.44-4.47-.23-6.74.14-1.49-.88-2.24-2.32-1.93-1.06.23-2.05.09-3.06-.16-.99-.24-1.84-.15-2.09,1.08-.05.1-.1.19-.16.29-1.39-1.37-3.3-1.9-4.81-3.16-1.68-1.4-2.73-3.44-4.31-4.59-1.93-1.4-2.22-2.98-2.66-4.93-.73-3.25-2.57-4.52-5.95-4.52-14.13,0-28.27,0-42.4,0-2.41,0-3.75.95-3.79,3.29-.05,2.68-1.32,4.43-3.36,5.86-.17,1.43-.65,2.55-2.24,3.02-.92.27-.76,1.74-1.78,2.1-.61.37-1.22.73-1.83,1.1-.73.4-1.49.56-2.13-.09-.75-.77-.5-1.63-.06-2.47,2.05-.1,2.9-2,4.39-2.93,2.32-2.19,4.29-4.56,4.02-8.05-.03-.67-.06-1.33-.1-2-.06-1.26.43-1.96,1.62-2.68,2.79-1.68,5.76-1.55,8.77-1.54,12.97,0,25.95.01,38.92-.01,1.24,0,2.4.15,3.52.71,1.12.56,2.17,1.22,3.55,1.25.73.01,1.37.77,1.48,1.65.07.53.24.94.74,1.16.08.09.1.19.05.3-.26,2.49.61,4.76,1.36,7.06.15.47.45.88.86,1.15,2.39,1.54,4.63,3.29,7.01,4.85,1.16.76,2.47.37,3.72.21,2.26-.29,4.24.94,5.07,3.13-.42,1.89.05,3.77.05,5.65-.02,48.09-.01,96.18-.01,144.27-.06,1.29.13,2.59-.11,3.87-.45,1.95-1.83,2.46-3.65,2.53-6.94.27-13.14,5.65-13.96,12.04-.01.78.1,1.55.1,2.32-.01,2.24-.97,3.48-3.03,4.01-17.83.03-35.67.08-53.49-.02-.56.04-1.2-.49-1.66.22-.38.58-.14,1.13.08,1.72.72,2.01,1.01,4.04-.13,6.01-.33.58-.2,1.34-.76,1.82-.78-1.47-.19-3.06-.36-4.58-.22-2,.42-4.06-.37-6.02-.07-.9.41-1.11,1.21-1.11,1.68,0,3.36-.04,5,.38.5.33,1.07.18,1.6.18,14.41,0,28.83,0,43.24,0,.54,0,1.1.14,1.6-.18,1.74.13,3.32.01,4.48-1.66.55-.79.65-1.52.64-2.36.46-.62.05-1.14-.2-1.67-.67-1.43-.39-2.74.6-3.86.76-.86,1.16-1.99,2.15-2.68.45-.31.64-.81.1-1.2-.61-.43-.99-.03-1.29.5-.35.62-.21,1.66-1.36,1.59Z"/><path class="cls-25" d="m74.26,205.23c.95,2.6.95,2.59,3.96,2.22.54-.07,1.09-.03,1.64-.03,14.12,0,28.24,0,42.36,0,1.82,0,3.64.09,5.43-.37.11.2.11.4,0,.6-.57.97-1.48,1.09-2.49,1.05-1.26-.06-2.52.06-3.78-.06-2.39.11-4.79-.18-7.17.22-10.96.05-21.91,0-32.87.02-1.51-.09-3.02-.56-4.53,0-2.78-.01-3.47-.99-2.56-3.66Z"/><path class="cls-15" d="m121.44,208.52c.97,0,1.95-.08,2.92.02,1.3.13,2.38-.21,3.3-1.12,2.2-1.52,1.59-4.19,2.56-6.22.49-.37.98-.73,1.46-1.1.89-.32.62-1.23.93-1.84.28-.56.55-1.1,1.31-1.06.69.04,1.13.45,1.34,1.05.26.74-.41.96-.78,1.42-1.47,1.81-3.79,3.33-2.62,6.27.21.52.37,1.05-.17,1.48-.39-1.86-.69-2.09-1.87-.85-2.05,2.17-4.49,2.24-7.23,2.39-12.59.67-25.18.03-37.77.32-2.68.06-5.32-.5-7.99-.39,1.28-.84,2.67-.42,4.02-.37.63.36,1.31.18,1.97.18,9.75.01,19.5.02,29.26,0,2.68,0,5.35-.22,8.03-.24.45-.11.91-.22,1.34.06Z"/><path class="cls-15" d="m126.56,211.45c-.54.6-1.25.35-1.89.36-14.22.01-28.44.01-42.66,0-.64,0-1.35.24-1.89-.36h46.45Z"/><path class="cls-49" d="m123.03,211.08c-.19,0-.25,0-.31,0-.62-.09-1.68.28-1.7-.52-.03-.98,1.04-.91,1.84-.95,1.74-.09,3.48.19,5.23-.26.85-.22,1.49-.3,1.44-1.37-.02-.51.37-.88.84-1.09.27-.12.48.04.53.31.09.48.1.95-.24,1.38-1.12,1.4-2.29,2.6-4.36,2.17-1.14-.24-2.23.58-3.27.35Z"/><path class="cls-8" d="m69.47,234.81c.02-.11.01-.22-.02-.33.02-9.9.04-19.81.08-29.71,0-.95-.23-1.95.35-2.84.01.73.02,1.46.04,2.2,0,9.51,0,19.02,0,28.53.54.74.53,1.47-.06,2.19-.13,0-.26-.02-.38-.03Z"/><path class="cls-19" d="m69.85,234.84c.02-.73.04-1.46.06-2.19.7,0,1.41.09,1.35.99-.05.79-.51,1.31-1.41,1.2Z"/><path class="cls-16" d="m80.48,147.45c1.5.69,3.07.33,4.61.3.64-.01,1.17-.54,1.18-1.18.02-1.54.39-3.11-.3-4.61-.09-.33.03-.46.37-.37,1.46.69,3,.31,4.5.32.74,0,1.26-.55,1.31-1.29.07-1.15.04-2.31.02-3.47,0-.55-.33-.88-.86-1.03-.95-.26-1.43-1.09-2.07-1.73-.4-.39-.44-.88,0-1.29.45-.41.97-.35,1.26.13.36.6.92.94,1.4,1.4.45.43.31,1.41,1.2,1.43,1.28.03,2.58.13,3.82-.06,1-.15,1.05-1.11,1.15-2.02.14-1.25-.7-2.71.7-3.73,0,1.04,0,2.07,0,3.11-.02,2.74-.73,3.56-3.45,3.43-1.87-.09-2.57.39-2.45,2.38.16,2.84-.64,3.62-3.54,3.47-1.9-.1-2.39.51-2.31,2.34.14,2.89-.62,3.64-3.51,3.51-1.82-.08-2.46.38-2.35,2.3.16,2.95-.62,3.69-3.64,3.55-1.8-.08-2.27.52-2.2,2.26.12,2.97-.63,3.72-3.61,3.6-1.75-.07-2.32.43-2.24,2.22.13,3.01-.61,3.76-3.57,3.64-1.7-.07-2.37.33-2.29,2.17.14,3.11-.57,3.79-3.71,3.68-1.68-.06-2.2.44-2.14,2.13.12,3.14-.57,3.82-3.67,3.72-1.61-.05-2.26.31-2.18,2.09.13,3.21-.54,3.87-3.81,3.76-1.63-.05-2.09.44-2.04,2.05.11,3.26-.54,3.9-3.77,3.8-1.56-.05-2.14.33-2.08,2.01.12,3.34-.53,3.93-3.91,3.86-1.48-.03-3.02.42-4.46-.34,2.05-.18,4.09-.48,6.16-.39.83.04,1.46-.51,1.46-1.33.01-1.5.38-3.04-.31-4.5-.09-.33.03-.46.37-.37,1.5.69,3.07.33,4.61.3.64-.01,1.17-.54,1.18-1.18.02-1.54.39-3.11-.3-4.61-.09-.33.03-.46.37-.37,1.5.69,3.07.33,4.61.3.64-.01,1.17-.54,1.18-1.18.02-1.54.39-3.11-.3-4.61-.09-.33.03-.46.37-.37,1.5.69,3.07.33,4.61.3.64-.01,1.17-.54,1.18-1.18.02-1.54.39-3.11-.3-4.61-.09-.33.03-.46.37-.37,1.5.69,3.07.33,4.61.3.64-.01,1.17-.54,1.18-1.18.02-1.54.39-3.11-.3-4.61-.09-.33.03-.46.37-.37,1.5.69,3.07.33,4.61.3.64-.01,1.17-.54,1.18-1.18.02-1.54.39-3.11-.3-4.61-.09-.33.03-.46.37-.37,1.5.69,3.07.33,4.61.3.64-.01,1.17-.54,1.18-1.18.02-1.54.39-3.11-.3-4.61-.09-.33.03-.46.37-.37,1.5.69,3.07.33,4.61.3.64-.01,1.17-.54,1.18-1.18.02-1.54.39-3.11-.3-4.61-.09-.33.03-.46.37-.37Z"/><path class="cls-16" d="m110.84,147.45c-.65-.45-1.23-.88-2.15-.49-.57.25-1.32.12-1.98.12-3.49,0-3.55,0-3.52,3.53.02,1.75-.68,2.49-2.39,2.33-.36-.03-.73.02-1.09,0-1.69-.15-2.55.54-2.4,2.31.04.48-.01.97,0,1.46.07,1.46-.59,2.16-2.06,2.09-.55-.03-1.1.02-1.64,0-1.57-.09-2.18.64-2.17,2.19.04,4,.46,3.71-3.55,3.65-1.62-.02-2.41.58-2.29,2.25.04.61,0,1.22,0,1.83,0,1.19-.61,1.79-1.8,1.8-.43,0-.85,0-1.28,0-2.59,0-2.77.19-2.77,2.84,0,.49-.02.97,0,1.46.06,1.06-.39,1.51-1.49,1.57-4.24.26-4.22.29-4.38,4.51-.02.6-.21,1.19-.31,1.78-.17,1.1.14,1.81,1.42,1.74-1.1.71-1.76.34-1.81-.9-.07-1.76-.1-3.54,0-5.3.12-1.92.98-2.55,3.21-2.57,2.75-.03,2.59.34,2.61-2.5.02-2.64.72-3.33,3.38-3.35,2.67-.02,2.46.22,2.47-2.45.02-2.71.73-3.52,3.51-3.35,2,.12,2.47-.59,2.38-2.45-.13-2.72.7-3.54,3.43-3.4,1.91.1,2.53-.45,2.43-2.4-.15-2.81.66-3.61,3.56-3.44,1.94.11,2.37-.56,2.29-2.36-.13-2.87.63-3.52,3.52-3.54,1.16,0,2.31,0,3.47,0,.77,0,1.31.24,1.38,1.1Z"/><path class="cls-16" d="m68.05,200.47c1.41,2.39-.03,4.79-.02,7.18.05,6.87.02,13.74.02,20.62-.56-.48-.36-1.13-.36-1.71-.01-7.06-.03-14.13,0-21.19,0-1.63.23-3.26.35-4.9Z"/><path class="cls-16" d="m109.01,135.38c0,1.51.03,3.01,0,4.52-.04,1.44.6,2.12,2.06,2.07,1.02-.04,2.05,0,3.07,0-1.52,1.28-3.24.94-4.76.24-1.22-.56-1.1-2-1.09-3.21,0-1.25-.16-2.54.73-3.62Z"/><path class="cls-16" d="m114.1,145.42c.04.71-.31.91-.89.92-.67.01-1.08-.32-1.05-.95.02-.54.29-1.13.93-1.16.82-.04.83.71,1,1.18Z"/><path class="cls-16" d="m102.06,130.26c1.65.7,3.3,1,5.08.42.56-.18,1.33-.29,1.86.31-1.52.41-3.08.38-4.64.37-.94-.01-1.79-.21-2.31-1.1Z"/><path class="cls-16" d="m73.53,187.31c-.97.83-2.31-.05-3.29.73.83-1.43,2.03-1.23,3.29-.73Z"/><path class="cls-4" d="m62.2,150.74c.46-.25.93-.42,1.46-.37q1.57,1.6.24,3.26c-1.5,1.87-2.73,4.02-5,5.15-1.49-.17-1.37-1.59-1.93-2.49-.05-.18-.07-.35-.07-.54-.11-1.18.23-2.39-.19-3.56-.39-36.1-.08-72.19-.17-108.29,0-.72-.18-1.46.17-2.16.57-1.66-.26-3.63,1.1-5.12,1.3-.65,2.68-.3,4.03-.32.53,0,.9.28.9.88-.08.36-.3.62-.6.82-2.57,1.67-3,2.63-2.47,5.5.14.78.11,1.58.11,2.37,0,32.73,0,65.45,0,98.18,0,1.16-.1,2.29-.42,3.42-.46,1.64,1.29,3.57,2.83,3.25Z"/><path class="cls-15" d="m85.6,128.06c.24-1.22,1.77-2.18.73-3.66.11-1.2.76-1.69,1.94-1.46,1.14.22,2.29.25,3.45.21.74-.02,1.47-.14,2.03-.66,2.71-2.52,6.05-1.91,9.26-1.83,3.38.08,6,2.49,9.25,3.08,1.27.23,2.47.41,3.76.23,2.38-.34,2.78.2,2.13,2.63-.35.56-.41,1.19-.37,1.83-.71.57-.12,1.09.07,1.62.44,1.22-.21,1.94-1.23,2.19-1.13.28-1.02-.71-1.03-1.4,0-.57-.26-.92-.75-1.12-.55-.23-.84-.7-1.12-1.16-2.55-4.22-6.66-4.34-10.89-4.23-1.98.05-3.97.46-5.91-.43-.91-.42-2-.07-2.37.75-.7,1.54-2.1,1.9-3.39,2.45-.82.35-1.52.62-1.71,1.62-.13.69-.7,1.07-1.32,1.41-.74.4-1.4.94-2.12,1.39-.51.32-.26,1.62-1.26,1.17-.81-.37-1.89-.75-1.71-2.05.59-1.12,2.19-1.22,2.56-2.56Z"/><path class="cls-15" d="m71.34,142.69v-.73c.2-.19.43-.23.69-.14.38.18.42.83.93.77.39-.04.3-.45.32-.74.26-1.24,1.25-2.07,1.76-3.17.1-.13.21-.26.32-.37.92-.3.99-1.45,1.83-1.83.76-.94,2.03-1.38,2.56-2.56.03-.74.51-1.14,1.1-1.46,1,.53,2.27,1.11,2.07,2.37-.19,1.18-1.5,1.79-2.53,2.28-.57.27-1.18.51-1.89.64-.13-.08-.08.02.01.09.18.14.19.13.02-.03-.17-.17.03-.39-.08-.57-.07.1-.11.2.05.51.07.48.08.9-.11,1.03-2.09,1.4-2.85,4.06-4.94,5.36-1.09.68-1.79-.38-2.1-1.45Z"/><path class="cls-4" d="m35.86,180.36c.39.41.88.78.73,1.46-.49.24-.86.6-1.1,1.1-.43.72-1.16,1.05-1.83,1.46-.66.27-.79.93-1.1,1.46-.37.25-.73.33-1.1,0q-1.48-2.13.62-3.45c.54-.34.87-.85,1.07-1.41.59-1.65,1.52-1.61,2.7-.62Z"/><path class="cls-4" d="m50.49,167.93c-.61.41-1.22,1-1.83,0-.31-.71-.83-1.35-.73-2.19.12-.12.24-.24.37-.37,1.28-.32,2.31-.94,2.74-2.29.14-.43.43-.71.88-.8,1,.29,1.46.98,1.5,1.99-.24.37-.49.73-.73,1.1-.37.85-1.31,1.13-1.83,1.83-.3.16-.36.43-.37.73Z"/><path class="cls-15" d="m83.41,187.67c-.12.12-.24.24-.37.37-.98,1.21-2.54,1.85-3.29,3.29-.12.12-.24.24-.37.37-.51-.05-1.08.17-1.46-.37-.31-.32-1.02-.38-.73-1.1.11-.22.16-.52.34-.63,1.49-.9,3.19-1.39,4.11-3.24.32-.64,1.83-.1,1.77,1.31Z"/><path class="cls-4" d="m68.41,148.91c-.3.16-.36.43-.37.73-.98,1.36-1.48-.15-2.19-.37-.4-.78-.16-1.56.55-1.81,1.15-.39,1.64-1.24,2.16-2.19.36-.65.97-.86,1.67-.4.05.86,1.25,1.56.37,2.56-.71.52-1.35,1.14-2.19,1.46Z"/><path class="cls-15" d="m77.19,192.43c-.13.89-.26,1.79-.39,2.68-.08.55-.38.88-.94.94-.71.07-.96-.43-1.14-.96-.38-1.13.55-3.12,1.73-3.76.62.12.41.78.73,1.1Z"/><path class="cls-4" d="m56.71,160.61c-.3.16-.36.43-.37.73-.38.4-.59,1.19-1.39.58-.74-.57-1.21-1.2-.51-2.12.71-.45,1.27-1.11,2.1-1.39.62-.03,1.29-.02,1.45.72.2.97-.74,1.08-1.28,1.48Z"/><path class="cls-4" d="m29.65,188.41c-.61.3-1.28.64-1.67-.2-.3-.65-.39-1.49.05-2.05.46-.59,1.17-.37,1.76.03.2.13.4.26.59.39.68.98-.15,1.35-.73,1.83Z"/><path class="cls-31" d="m70.24,144.89c-.8.18-4.22,3.6-4.39,4.39-.43-.26-.35-.7-.37-1.1.53-1.02,3.63-3.86,4.39-4.02.12.24.24.49.37.73Z"/><path class="cls-31" d="m56.71,160.61c.09-.66,1.33-.65.94-1.52-.23-.52-.85-.25-1.31-.31-.39-1.04.8-1.62.73-2.56.95.61.83,1.98,1.83,2.56-.63.73-.81,2-2.19,1.83Z"/><path class="cls-30" d="m68.76,151.81c.55.66.71,1.29.04,2.01-.74.8-1.27,0-1.88-.17.61-.61,1.23-1.22,1.84-1.84Z"/><path class="cls-30" d="m80.47,140.11c.49.58.79,1.3.26,1.88-.59.64-1.39.12-2.09-.04.61-.61,1.22-1.23,1.83-1.84Z"/><path class="cls-30" d="m74.61,145.96c.33.54.84,1.05.25,1.71-.65.72-1.38.31-2.08.12.61-.61,1.23-1.23,1.84-1.84Z"/><path class="cls-30" d="m39.5,181.07c.33.54.84,1.05.25,1.71-.65.73-1.37.31-2.08.13.61-.61,1.22-1.23,1.83-1.84Z"/><path class="cls-31" d="m54.52,159.88c-.2.67-.19,1.22.44,1.75.68.58.94-.19,1.39-.29-.12.72-.6,1.82-1.09,1.47-.72-.51-1.56-1.39-1.47-2.57.12-.12.24-.24.37-.37.12-.15.24-.15.37,0Z"/><path class="cls-30" d="m51.21,169.37c.46.61.82,1.24.09,1.89-.71.64-1.03-.3-1.56-.42.49-.49.98-.98,1.47-1.47Z"/><path class="cls-31" d="m29.65,188.41c.33-.58.88-1.06.73-1.83.53,0,.89-.25,1.1-.73h1.1c-.85.99-1.54,2.17-2.93,2.56Z"/><path class="cls-30" d="m57.06,163.51c.33.72.2,1.51-.26,1.99-.36.38-.76-.41-1.21-.52.49-.49.98-.98,1.46-1.48Z"/><path class="cls-31" d="m65.85,149.27c.76-.07,1.31,1.16,2.19.37-.75,1.4-.79,1.39-2.19-.37Z"/><path class="cls-31" d="m68.41,148.91c.54-.77,1.29-1.23,2.19-1.46-.51.82-.97,1.71-2.19,1.46Z"/><path class="cls-31" d="m33.67,184.38c.36-.8,1.11-1.12,1.83-1.46-.1,1.13-.71,1.61-1.83,1.46Z"/><path class="cls-44" d="m77.19,192.43c-.24-.37-.49-.73-.73-1.1.24-.37.49-.73.73-1.1.24.37.49.73.73,1.1-.74.03-.74.57-.73,1.1Z"/><path class="cls-31" d="m53.42,164.27c-.35-.72-.66-1.47-1.46-1.83-.12-.08-.17-.16-.12-.24.04-.08.08-.12.12-.12,1.11.32,1.85.88,1.46,2.19Z"/><path class="cls-31" d="m50.86,167.19c.26-.96,1.19-1.25,1.83-1.83-.02,1.2-.96,1.48-1.83,1.83Z"/><path class="cls-30" d="m67.68,231.93c-.6.63-1.38.35-2.08.35-18.33.02-36.65.01-54.98.01.6-.63,1.38-.35,2.08-.35,18.33-.02,36.65-.01,54.98-.01Z"/><path class="cls-16" d="m90.32,171.7c-.05.59-.38.87-.69,1.15-.76.67-1.56,1.31-2.33,1.97-.28.24-.57.49-.96.31-.5-.23-.38-.71-.34-1.11.07-.71,2.38-3.05,3.06-3.13.7-.08,1.16.19,1.26.81Z"/><path class="cls-16" d="m94.05,165.01c.84-.09,1.39.39,1.28,1.13-.17,1.2-.93,2.14-2.14,2.42-.65.15-1.29-.22-1.37-1.08-.09-.96,1.2-2.42,2.22-2.47Z"/><path class="cls-30" d="m82.16,176.72c1.04-.03,1.57.24,1.59,1.1.01.81-1.73,2.47-2.61,2.48-.8,0-1.08-.53-1-1.19.16-1.34,1.17-1.94,2.02-2.39Z"/><path class="cls-16" d="m98.7,163.17c-1.11-.06-1.26-.74-.86-1.25.72-.95,1.61-1.79,2.51-2.58.42-.37,1.07-.31,1.45.21.41.56-.12.89-.45,1.2-.91.85-1.63,1.93-2.66,2.42Z"/><path class="cls-16" d="m104.57,156.95c-.35-.03-.75.07-.94-.36-.17-.4.06-.69.31-.96.61-.67,1.23-1.32,1.83-1.99.28-.31.61-.37.97-.25.44.14.42.54.42.89,0,.93-1.64,2.61-2.6,2.67Z"/><path class="cls-30" d="m39.52,188.41c-.12.12-.24.24-.37.37-1.46.06-2.04-1.13-2.77-2.03-.31-.39-.37-1.11.15-1.47.5-.34,1.01.08,1.19.49.44,1,1.65,1.46,1.79,2.64Z"/><path class="cls-30" d="m68.78,159.15c-.12.12-.24.24-.37.37-1.53.06-2.08-1.3-2.97-2.13-.37-.35,0-.81.27-1.12.39-.44.91-.15,1.1.14.62.94,1.72,1.54,1.96,2.75Z"/><path class="cls-30" d="m45.37,182.55c-.12.12-.24.24-.37.37-1.46.05-2.04-1.14-2.78-2.05-.3-.37-.26-.98.22-1.3.43-.28.94.02,1.1.34.49.97,1.67,1.45,1.83,2.64Z"/><path class="cls-30" d="m74.63,153.3c-.12.12-.24.24-.37.37-1.46.06-2.03-1.14-2.78-2.04-.31-.37-.26-.98.2-1.3.43-.29.86.02,1.06.39.51.95,1.76,1.35,1.89,2.58Z"/><path class="cls-30" d="m57.08,170.85c-.12.12-.24.24-.37.37-1.46.06-2.02-1.14-2.78-2.03-.27-.32-.25-.86.17-1.12.38-.23.94-.23,1.15.17.5.96,1.66,1.44,1.82,2.62Z"/><path class="cls-30" d="m86.33,141.59c-.12.12-.24.24-.37.37-1.52.06-2.05-1.29-2.95-2.11-.35-.31-.06-.7.19-.94.34-.33.89-.37,1.12,0,.59.96,1.84,1.42,2.01,2.68Z"/><path class="cls-30" d="m62.93,165c-.12.12-.24.24-.37.37-1.46.06-2.02-1.14-2.78-2.03-.27-.32-.25-.86.17-1.12.38-.23.94-.23,1.15.17.5.96,1.66,1.44,1.82,2.62Z"/><path class="cls-30" d="m51.22,176.7c-.12.12-.24.24-.37.37-1.46.06-2.02-1.14-2.78-2.03-.27-.32-.25-.86.17-1.12.38-.23.94-.23,1.15.17.5.96,1.66,1.44,1.82,2.62Z"/><path class="cls-30" d="m80.48,147.45c-.12.12-.24.24-.37.37-1.45.06-2.01-1.13-2.77-2.01-.27-.32-.25-.84.15-1.13.3-.22.8-.23.98.09.56.98,1.84,1.42,2,2.69Z"/><path class="cls-50" d="m151.06,32.24c-1.05,1.58-2.36,2.01-4.92.91-1.81-.78-3.98-1.2-5.04-3.23-.21-.41-.6-.55-1.05-.6-.7-.09-1.67.37-2.04-.35-.79-1.54-2.51-2.5-2.68-4.4.22-.88.31-.89,1.11-.48.91.46,1.23,1.71,2.42,1.76,1.53-.76.49-1.28-.17-1.84-.36-.34-.42-.76-.37-1.22.04-.3.13-.59.17-.89q.46-3.27-2.56-4.73c-.66-.73-1.64-.9-2.44-1.39-1.82-.74-1.83-.75-1.01-2.49.19-.4.19-.67-.15-.95-.9-.73-3.27-.13-3.53,1.02-.38,1.69-1.52,2.05-2.97,2.05-14.98,0-29.97.1-44.95-.1-2.37-.03-4.64.13-6.95.46-.53.07-.93.25-1.16.74.02.49-.21.98,0,1.46.18,1.65-.35,3.19-.73,4.75-1.1.89-1.3-.03-1.48-.79-.2-.83,0-1.7-.18-2.54-.07-.3-.2-.62-.56-.61-.37.01-.46.36-.49.66-.06.55.14,1.08.19,1.62.12,1.35.28,2.66-1.26,3.46-.79.41-.67,1.04.01,1.59.34.27,1.01.28.86.98-2.44,4.38-8.43,6.94-12.8,5.49-.5-.93.33-.97.83-1.2.75-.34,1.67-.34,2.27-1.27-1.31-.5-2.45-.74-3.3.65-.26.42-.5.8-1.06.89-1.72.27-2.69,1.26-2.77,3.03-.03.54-.29.91-.72,1.18-.23.38-.4.86-.95.78-.08-.01-.1-.51-.15-.78-.28-1.58-.28-3.17,0-4.75v-1.1c.41-1.67.12-3.36.18-5.05.14-3.92-.23-7.86.18-11.78.63-1.52-.02-3.25.73-4.75.7-.35,1.44-.17,2.16-.17,33.19-.01,66.37,0,99.56-.02.72,0,1.46.19,2.15-.18,1.05-.13,1.56.25,1.48,1.39-.08,1.25-.09,2.51.35,3.73.71.84.51,1.85.51,2.81.01,11.94,0,23.88,0,35.82,0,54.22,0,108.45-.01,162.67,0,1.19.3,2.46-.56,3.52-2.13,1.06-4.41.45-6.61.48-5.36.06-10.72-.02-16.08.04-1.51.02-3,.45-4.54.33-.73-.06-1.48-.03-1.97-.72-.35-1.03.29-1.6.98-2.15.46-.23.94-.25,1.43-.14.57.15,1.08.49,1.67.61.44.08.88.07,1.01-.45.14-.55-.28-.71-.71-.81-.67-.16-1.46.1-1.98-.59-.16-.66.24-1.13.72-1.27,1.4-.4,2.21-1.42,2.98-2.52.45-.13.86,0,1.18.3,1.19,1.17,1.8.44,2.54-.6,1.53-2.15,1.5-4.55,1.33-6.99-.04-.64-.34-1.19-.94-1.46-1.12-.52-.99-1.21-.36-2.01.99-1.14,2.3-1.19,3.66-1.1.46.27.74.81,1.28.96.82.23,1.45.14,1.28-.96-.6-.47-1.98-.47-1.1-1.83.2-.13.43-.33.65-.31,2.33.2,4.43-.84,6.67-1.16.38-.02.86-.13.9-.48.19-1.93,1.58-3.67.93-5.74.83-.25,1.42.15,1.93.73.4,1.11-.39,2.09-.34,3.16.02.51-.05,1.25.71,1.15.57-.08.44-.74.4-1.21-.08-.79-.84-1.53-.14-2.36.88-1.04,2.01-1.97.8-3.56-.3-.39-.06-1.18-.06-1.79,0-48.36,0-96.73,0-145.09,0-1.71.01-3.39-.74-4.98-.47-1,.33-2.51-.98-3.09-2.15-.94-3.35-3.91-6.38-2.97-.61.19-1.58.03-1.66.79-.09.9.93.72,1.51.88.82.23,1.68.2,2.52.29.53.06,1.3-.12,1.34.81Z"/><path class="cls-9" d="m158.01,13.23c.53-1.47.33-3,.37-4.52.01-.5.03-1.05.63-1.16.63-.12.75.48.98.9.31.57.21,1.19.21,1.79,0,68.92,0,137.83.01,206.75,0,1.46-.61,2.86-.38,4.34-1.21.76-2.57.66-3.91.63-1.03-.18-2.07-.11-3.1-.11-23.94,0-47.89,0-71.83,0-3.59.06-4.95-1.56-4.29-5.12.04-.24.1-.47.13-.71.31-2.7.98-3.13,4.04-2.63.79.17,1.58.11,2.37.11,13.65,0,27.3,0,40.94,0,.85,0,1.71.08,2.54-.17,2.26.07,2.8.63,2.33,2.38-.49.4-1.06.6-1.7.55-6.87-.52-13.76-.16-20.63-.22-8.35-.07-16.7-.03-25.04,0-1.79,0-2.2.57-1.78,2.22.16.62.47.96,1.09,1.03.61.07,1.22.04,1.83.04,23.34,0,46.67,0,70.01,0,.97,0,1.95-.16,2.9-.18,1.57-.04,1.77-.89,1.72-2.1-.02-.61,0-1.22,0-1.83,0-66.54,0-133.08.02-199.61,0-.8-.39-1.74.53-2.35Z"/><path class="cls-5" d="m50.13,65.89c.69-3.99.49-8,.18-11.99-.29-3.77-.1-7.54-.12-11.31,0-.44.29-.88.47-1.39,1.09.81.94,1.88.94,2.89,0,26.81,0,53.61,0,80.42,0,1.52,0,3.05,0,4.57,0,.75.02,1.55-1.13,1.36-.84-.13-.69.5-.69.94-.01,2.99-.02,5.97.01,8.96,0,.4.13.9.38,1.17.35.37,1.15.2,1.08,1.12-.11,1.45-.07,2.92-.09,4.38-2.45,1.05-1.04,3.21-1.37,4.86-.12.62.08,1.13.91.79.79-.32,1.12.58,1.99.75v-1.95c0-37.53,0-75.06.03-112.59,0-.94-.63-2.56,1.14-2.51,1.6.04.84,1.56,1.02,2.47-.36.69-.18,1.44-.18,2.15-.01,36.6,0,73.2-.02,109.79,0,.72.18,1.46-.17,2.16-.12.34-.32.68-.34,1.03-.13,2.76-.12,2.76-2.85,2-.97-.27-1.65.55-1.45,1.86.07.47.49,1.09.09,1.37-1.11.8-1.18,2.29-2.2,3.07-.48.36-1.04.24-1.38-.38-.41-.76,0-1.32.5-1.76.55-.48,1.75-.29,1.73-1.34-.04-1.67.4-3.37-.45-5.02-1.16-2.25-1.52-4.57.02-6.86.82-1.21.79-2.74.38-3.89-1.08-3.06-.66-6.16-.55-9.22.08-2.41-.72-4.61-.9-6.96-.54-7.06-.21-14.11-.24-21.17-.03-7.6.1-15.21.4-22.8.09-2.36.27-4.72.3-7.09,1.3.06,1.14,1.05,1.11,1.86-.07,1.57.01,3.11.5,4.79.95-.73.82-1.63.77-2.41-.25-3.82-.44-7.65-.35-11.48.02-.91-.05-1.84.53-2.63Z"/><path class="cls-9" d="m153.99,190.23c-.61-.24-1.22-.49-1.83-.73,0-49.54,0-99.08-.03-148.62,0-1.09.38-2.13.18-3.24-.08-.43.27-.95.88-.97.66-.02.79.42.79.97,0,.55,0,1.1,0,1.65,0,48.38,0,96.76,0,145.14,0,1.82-.11,3.65.36,5.43-.14.11-.14.34-.37.37Z"/><path class="cls-24" d="m158.01,13.23c-.41.66-.37,1.39-.37,2.13,0,66.99,0,133.97,0,200.96,0,.06.02.14,0,.18-.71,1.06,1.62,2.45-.03,3.01-.9.31-2.22.36-3.36.36-.3,0-.61,0-.91,0-23.95,0-47.91,0-71.86-.03-.8,0-2.19.66-2.28-.94-.17-3.27-.02-3.42,2.3-3.42,14.57,0,29.13,0,43.7-.02,1.31,0,2.61.73,3.92.01.19.24.22.49,0,.73-.37.49-.73.98-1.1,1.46-1.48.36-2.76-.58-4.24-.57-13.34.08-26.69.05-40.04.06-.75,0-1.56-.15-2.4.45.95.78,1.93.57,2.84.57,13.41.01,26.82-.25,40.22.09,10.4.27,20.8-.17,31.19.21.54.02.94-.12,1.32-.45.52-.84.36-1.77.36-2.67,0-67.38,0-134.75,0-202.13h.73Z"/><path class="cls-41" d="m129.12,216.2v-.73c.05-1.54-1.04-1.73-2.19-1.83-.45.29-.95.17-1.42.17-14.53,0-29.07,0-43.6,0-.48,0-.98.11-1.42-.17-.61,0-1.21,0-1.82,0-.53,0-1.23.39-1.16.68.4,1.54-1.23,3.01-.11,4.54.11.14.25.33.23.48-.34,2.54,1.35,2.11,2.85,1.97.69.37,1.44.18,2.15.18,23.8.01,47.6,0,71.4.02.72,0,1.46-.18,2.16.17,1.21-.19,2.41-.51,3.66-.37.11.31.29.92.59.31.27-.54.13-1.31.13-1.97,0-70.98,0-141.96,0-212.94.1-.06.21-.07.33-.03.03,2.55.07,5.09.1,7.64-.02.67-.06,1.34-.06,2.01,0,65.83,0,131.66,0,197.5,0,.67.04,1.34.06,2.01-.03,2.18-.06,4.36-.09,6.54-5.73.01-11.45.03-17.18.03-20.41,0-40.83,0-61.24,0-.79,0-1.58.03-2.37.05-1.39.19-2.77.29-4.15-.07-.82-1.69-.02-3.44-.05-5.15-.02-1.42-1.03-2.98.12-4.39.65-.24,1.33-.11,1.99-.11,16.98,0,33.97,0,50.95-.02.66,0,1.34.17,1.97-.18,1.69-.51,2.04-1.87,2.18-3.39.07-.82-.25-1.72.4-2.45.53.64.47,1.46.72,2.19.64.73.53,1.46,0,2.2-.34,1.31-.78,2.42-2.48,2.44-.42,0-1.14.46-1.17,1.22.36.49.44.98,0,1.46h-1.46Z"/><path class="cls-5" d="m47.57,71.38c-.17-2.24.34-4.48-.94-6.69-.63-1.09-.14-2.84-.16-4.28.31-1.22.31-2.44,0-3.66-.07-2.81.62-5.59.36-8.41-.29-3.17-.29-6.34,0-9.51,0-4.2.2-8.41-.05-12.59-.34-5.73.28-11.43.07-17.15-.02-.56-.43-1.56.62-1.58.92-.02.8.89.82,1.54.07,2.78-.18,5.58.35,8.35.33,1.76-.37,3.48-.36,5.24.02,3.03.05,6.05.35,9.08.36,3.58-.37,7.13-.39,10.72-.02,3.41.79,6.8.37,10.17-.53,4.19-.16,8.37-.32,12.55.75,1.6.65,3.29.49,4.97-.06.64-.03,1.61-1.22,1.25Z"/><path class="cls-6" d="m151.1,188.41c-.01-.79-.04-1.58-.04-2.37,0-47.27,0-94.55.01-141.82,0-2.16-.89-4.31-.06-6.48-.18-.3-.15-.57.11-.8.46.52.3,1.16.3,1.75,0,49.48,0,98.97,0,148.45,0,.43-.04.85-.06,1.28-.09.16-.18.17-.27,0Z"/><path class="cls-24" d="m134.24,211.08c0-.73,0-1.46,0-2.2.55-.55.74-1.43.64-1.99-.52-2.99,1.86-4.6,3.01-6.79-.05.62-.68,1.41.65,1.55.84.09,1.07.95,1.14,1.67.27,2.95.04,5.79-1.86,8.27-.88,1.14-1.56,1.23-2.54.09-.3-.34-.59-.6-1.05-.61Z"/><path class="cls-7" d="m55.67,36.65c-.02,1.1-.06,2.19-.06,3.29,0,38.13,0,76.26-.02,114.4,0,.78.38,1.77-.74,2.2.35-.93.4-1.88.4-2.87-.01-38.21-.01-76.41,0-114.62,0-.8-.38-1.72.41-2.4Z"/><path class="cls-53" d="m54.52,152.93c0-37.28,0-74.56.01-111.84,0-.75-.31-1.59.35-2.26,0,37.34,0,74.68-.01,112.02,0,.7.28,1.48-.35,2.08Z"/><path class="cls-20" d="m151.13,36.93c-.04.27-.08.53-.11.8-2.13-2.27-4.79-2.31-7.59-1.84-.33.06-.87.02-1.03-.19-1.19-1.53-3.26-1.81-4.51-3.25-.27-.32-.58-.68-.95-.83-3.89-1.52-3.73-5.06-4.14-8.3-.05-.44.24-.92.37-1.37.9,3.48,2.37,6.6,5.22,8.96,2.68,2.22,5.68,3.5,9.17,3.56,1.76.03,3.08.63,3.57,2.46Z"/><path class="cls-53" d="m155.45,8.11c-.67.66-1.51.35-2.26.35-33.87.02-67.74.01-101.6.01.67-.66,1.51-.35,2.26-.35,33.87-.02,67.74-.01,101.6-.01Z"/><path class="cls-53" d="m47.57,71.38c.88-.12.72-.81.73-1.38.01-1.61,0-3.23,0-4.84.52.47.82,1.49,1.83.73,0,2.85.03,5.7-.01,8.55-.03,2,.63,3.95.38,5.96-.04.3.01.61-.01.91-.06.86-.18,1.96-1.15,2-1.15.05-1.06-1.12-1.02-1.94.06-1.43-.61-2.83-.05-4.28.2-.54-.12-1.06-.7-1.32v-1.46c.6-.73.46-1.46,0-2.19v-.73Z"/><path class="cls-24" d="m139,26.39c-.93.09-1.4-.46-1.89-1.16-.39-.54-.83-1.38-1.76-.67-.54-.38-.31-.96-.37-1.46,1.1-3.13.88-4.29-1.1-5.85.06-.53-.12-1.01-.37-1.46,1.03-.06,2.05-.06,2.56,1.1.03.05.06.12.1.15,3.03,1.65,3.09,1.77,2.46,5.71.01.4-.07.83.37,1.1,1.26.85,1.26,1.71,0,2.56Z"/><path class="cls-24" d="m69.14,27.12c-.3-.5-.9-.26-1.3-.51-.95-.6-1.14-2.01-.21-2.33,2.12-.71,1.52-2.23,1.35-3.67-.06-.54-.18-1.07-.17-1.61.01-.64.41-.99,1.06-.99.65,0,1.04.34,1.07.98.04.97.01,1.94.04,2.9.02.71.21,1.24,1.09.84.14,1.57-.45,2.73-1.85,3.5-.4.22-.72.59-1.08.89Z"/><path class="cls-53" d="m151.06,32.24c-1.51-.76-3.2-.19-4.77-.69-.75-.24-1.39-.27-1.45-1.24-.06-1.02.72-.93,1.32-1.13,1.31-.44,2.96-.68,3.91-.1,1.75,1.06,3.48,2.43,4.55,4.29.32.56.08,1.43.1,2.16-.11-.14-.28-.28-.31-.43-.49-2.73-.57-2.8-3.35-2.86Z"/><path class="cls-37" d="m130.63,16.45c-8.76.02-17.52.06-26.28.06-8.58,0-17.16-.02-25.73-.04.49-.53,1.14-.32,1.72-.32,16.18-.01,32.36-.01,48.55,0,.59,0,1.23-.17,1.75.3Z"/><path class="cls-53" d="m51.59,35.9c.46-1.41.4-3.3,1.97-3.89,1.83-.67,2.55-3.28,5.01-2.72.59.13,1.4.06,1.56.67.21.8-.67.99-1.21,1.35-.81.54-2.11.1-2.58,1.29-2.38-.81-3.24-.32-3.65,2.15-.12.69-.39,1.1-1.1,1.15Z"/><path class="cls-50" d="m133.88,17.25c1.6,0,2.24.88,2.2,2.39-.03,1.26.15,2.59-1.1,3.46-.53-1.92-1.2-3.81-1.1-5.85Z"/><path class="cls-24" d="m153.99,190.23c.12-.12.24-.24.37-.37.01.4-.07.83.37,1.1-.15,1.02.77,1.76.73,2.75-.02.75,0,1.53-1.01,1.6-.98.06-1.08-.62-1.21-1.42-.23-1.35.78-2.39.76-3.66Z"/><path class="cls-53" d="m50.86,13.23c0,4.98,0,9.96-.01,14.93,0,.64.24,1.35-.35,1.89,0-4.98,0-9.96.01-14.93,0-.64-.24-1.35.35-1.89Z"/><path class="cls-24" d="m150.33,195.72c-2.36.87-4.72,1.73-7.31,1.46.46-.84,1.02-1.28,2.07-.85,1.03.41,2.08.02,2.99-.45.78-.4,1.48-.4,2.25-.16Z"/><path class="cls-53" d="m46.83,38.83c0,3.17,0,6.34,0,9.51-.75-1.16-.36-2.46-.33-3.67.06-1.94-.45-3.93.33-5.84Z"/><path class="cls-24" d="m144.12,199.01c.48.47.57,1.04-.04,1.35-.52.26-1.24.3-1.73-.14-.35-.31-.53-.8-.78-1.21.85-.21,1.71,1.51,2.56,0Z"/><path class="cls-53" d="m50.49,31.15v4.75c-.6-1.58-.6-3.17,0-4.75Z"/><path class="cls-5" d="m47.57,72.11c.88.73,1.3,1.46,0,2.19v-2.19Z"/><path class="cls-24" d="m72.8,17.98c-1.28-.49-.26-.98,0-1.46.52.49.52.98,0,1.46Z"/><path class="cls-53" d="m46.47,56.75c.57,1.22.57,2.44,0,3.66,0-1.22,0-2.44,0-3.66Z"/><path class="cls-6" d="m151.1,188.41h.27c-.03,1.24.36,2.51-.24,3.72,0-1.24-.02-2.48-.03-3.72Z"/><path class="cls-31" d="m56.71,41.75c0,33.74,0,67.48,0,101.23,0,1.76-.06,3.5.3,5.26.26,1.29.16,2.67-.31,3.96-.11-.14-.33-.33-.3-.43.66-2.11-.07-4.2-.07-6.3,0-33.82,0-67.64.02-101.46,0-.75-.31-1.59.35-2.26Z"/><path class="cls-31" d="m62.2,37.73c.12-.12.24-.24.37-.37.6-.66,1.5-.31,2.34-.68-2.32-.47-4.56.04-6.73-.41.59-.63,1.37-.41,2.03-.34,1.64.18,3.07-.82,4.71-.75.42.02.87-.72,1.31-1.11-.17,1.62.05,2.92,2.19,2.56-1,1.14-2.56,1.26-3.73,1.21-1.12-.05-1.91.42-2.85.62-.03-.07-.06-.14-.09-.22.07-.24.27-.37.45-.51Z"/><path class="cls-11" d="m58.17,36.27c1.81-.09,3.64.24,5.42-.34.22-.07.52-.07.72.03.56.29,1.67.12,1.6.88-.08.83-1.09.46-1.71.52-.54.05-1.09,0-1.64,0-.12-.88-.8-.72-1.37-.73-1.13-.01-2.26,0-3.39,0,.12-.12.24-.24.37-.37Z"/><path class="cls-31" d="m74.63,23.1c0,.9.02,1.81,0,2.71-.03,1.17-.17,2.31-1.49,2.8-.68.25-.59,1.01-.95,1.45-.41.51-.81,1.07-1.57,1.09,1.08-1.2,1.67-2.74,2.88-3.86.65-.61.76-1.58.79-2.5.02-.57-.2-1.22.36-1.68Z"/><path class="cls-25" d="m54.52,159.88h-.37c1.29-.92,1.93-2.28,2.56-3.66.12-.16.24-.16.37,0,.5,1.06-.55,1.69-.73,2.56-.61.37-1.22.73-1.83,1.1Z"/><path class="cls-25" d="m51.96,162.07v.37c-.49.2-.61.64-.8,1.09-.52,1.24-1.39,2.03-2.86,1.84,1.77-.48,2.04-2.64,3.66-3.29Z"/><path class="cls-31" d="m57.08,156.22h-.37v-4.02c.78,1.28.17,2.69.37,4.02Z"/><path class="cls-19" d="m76.11,212.92c-.16,3.16-.16,6.33-.02,9.49.13.08.18.17.13.25-.04.08-.09.12-.13.12-.49.52-.97.52-1.46,0,.02-1.01.39-1.87.74-2.81.5-1.36.71-3.2-.28-4.65-.56-.81-.62-1.59-.21-2.36.3-.57.82-1.16,1.59-.46-.01.22-.23.27-.35.41Z"/><path class="cls-33" d="m76.09,222.78c0-.12,0-.25,0-.37,1.34.02,2.68.03,4.02.05,0,.1,0,.19,0,.29-1.34.01-2.68.02-4.02.04Z"/><path class="cls-35" d="m144.84,188.38c-3.01.58-5.9,1.57-8.44,3.28-4.81,3.24-7.92,7.7-9.18,13.41-.09.41-.21.82-.31,1.23-.43.33-.94.2-1.41.2-16.04,0-32.08,0-48.13,0-.42,0-.85.08-1.25-.15-.62-5.6,1.13-10.26,5.46-13.92.94.17.7,1.03.94,1.61.07.44-.12.79-.39,1.11-.23.24-.49.44-.75.65-.93.88-1.27,1.82-.48,3.01.52.78.32,1.6-.16,2.36-.47.51-.95.92-1.57.2-.3-.62-.44-1.28-.5-1.96-.14-.46-.37-.41-.55-.05-.19.38-.13.82-.23,1.23-.52,1.23-.34,2.57-.54,3.85-.12.77.34,1.07,1.08.97.49-.04.98-.12,1.47-.02,13.92.05,27.84,0,41.76.03,1.05,0,2.04-.25,3.03-.53.38-.31.59-.71.65-1.19.05-.44.09-.87.24-1.29.47-.92,1.41-1.63,1.23-2.84-.04-.24-.09-.49-.1-.73,0-.12,0-.3.08-.34,1.7-.8,1.48-2.06.81-3.42.01-.78-.02-1.59.97-1.86.5-.07.94.06,1.3.41.5.47.27,1.23.68,1.76.58-.25.38-.78.45-1.2.02-.44.19-.83.4-1.2.68-.88-.04-2.89,2.09-2.6.56.19,1.15,1,1.71.22.64-.89-.73-1.03-.82-1.7.05-1.54.95-1.31,1.93-.94.42.26.67.74,1.16.92,1.33.01,2.4-.53,3.27-1.5.85-.67,2.41-.68,2.15-2.37,0-45.47,0-90.94,0-136.41.01-1.61.01-3.21,0-4.82-.52-2-2.79-2.52-4.73-1.06-.62.12-1.09-.04-1.25-.71.27-1.33-.2-2.18-1.51-2.67-2.15-.82-3.96-2.05-4.91-4.3-.33-.77-1.05-1.32-1.65-1.92-.74-.74-1.39-1.51-1.46-2.64-.08-1.22-1.3-1.7-1.83-2.64-.34-.58-.5-1.21-.44-1.88.16-.98-.38-1.26-1.24-1.27-1.07-.02-2.15.04-3.21-.2-.48-.14-.96-.14-1.45-.14-10.44,0-20.87,0-31.31,0-.48,0-.97-.01-1.44.14-1.14.25-2.3.16-3.45.21-.63.03-1.4-.16-1.64.75.26,1.93-.67,3.35-1.95,4.62-.12.21,0-.07-.08.16-1.45,4.17-4.64,6.83-8.06,9.28-.63.45-.9.95-.68,1.7-.21,1.8-.51,1.99-2.38,1.55-.34-.21-.43-.56-.5-.92-.06-.35-.19-.59-.57-.25-.23.4-.46.8-.85,1.06-1.57,1.04-2.08,2.47-2.07,4.35.04,30.12.04,60.25,0,90.37,0,1.72.51,2.94,2.08,3.66.86.19,1.3-.1,1.14-1.03-.1-.6-.21-1.19-.16-1.8.15-2.01,1.45-3.17,3.48-3.01.8.06,1.56-.05,2.32-.26.7-.45.51-1.6,1.45-1.87.66-.07,1.33-.14,1.98,0,.58.12,1.07.37.59,1.11-2.87,2.63-5.49,5.52-8.3,8.2-1.54,1.46-3.05,2.95-4.51,4.49-.41.43-.91.93-1.57.62-.6-.28-.46-.93-.46-1.46-.04-9.02-.02-18.03-.02-27.05,0-24.98.01-49.96-.03-74.94,0-1.89.4-2.98,2.4-3.61,3.06-.95,6.11-2.06,8.44-4.49.46-.49.99-.9,1.24-1.54,2.68-3.15,4.76-6.61,5.47-10.74.2-1.15.93-.91,1.62-.92,3.78-.01,7.55,0,11.33,0,10.9,0,21.81,0,32.71,0,.88,0,1.56-.05,1.84,1.14,2.15,9.06,7.85,14.59,16.9,16.7.24.06.47.12.71.18.4.68.19,1.43.19,2.15.01,47.11.01,94.22.01,141.33-.11,1.39.22,2.81-.18,4.19Z"/><path class="cls-14" d="m82.31,193.89c-.25-.49-.49-.97-.74-1.46,5.1-5.14,10.19-10.3,15.3-15.43,6.75-6.77,13.56-13.49,20.27-20.3,7.22-7.34,8.27-18.8,2.57-27.38-.63-.95-.61-1.49.08-2.47,5.01-7.05,5.72-14.61,1.52-22.16-4.18-7.52-10.92-11.01-19.58-10.58-.41.02-.81.17-1.22.27-1.27.89-2.87.8-4.25,1.42-3.58,1.62-6.78,3.71-9.08,6.98-.42.59-.85,1.18-1.48,1.58-.96.47-1.35,1.24-1.52,2.3-.27,1.73-1.06,3.34-1.2,5.11-.03.35-.26.69-.74.6-1.2-3.37-1.12-6.51,1.64-9.17.35-.34.68-.69.87-1.15.28-.62.61-1.21,1.07-1.71.12-.13.34-.27.33-.42-.13-3.09,2.38-3.59,4.43-4.21,1.79-.54,3.14-1.78,4.87-2.42,2.35-.86,4.72-1.31,7.14-1.15,3.38.23,6.81.3,10.05,1.52,1.23,1.3,2.66,2.27,4.39,2.84,1.2.4,2.06,1.24,2.53,2.47.54,1.43,1.96,2.32,2.43,3.81.32.4.76.65,1.13.98.88.96,1.41,2.3,2.87,2.63.78.8.58,1.67.16,2.54-.31.51-.63,1.01-.79,1.59-.25.66-.21,1.29.21,1.88,1.03,1.86.32,3.7-.03,5.55-.49,1.06-.23,2.23-.53,3.32-.16.44-.46.78-.75,1.13-.65.63-.59,1.4-.41,2.18.2.88.17,1.75-.57,2.31-1.48,1.1-1.25,2.28-.36,3.57.74.83,1.27,1.74,1.11,2.91-.04.73-.46,1.47.03,2.19.67,1.04,1.11,2.2,1.77,3.25.51,1.03.54,2.08.07,3.12-.4.9-.29,1.89-.49,2.82-.24,1.77-.44,3.56-1.31,5.18-.26.86-.96,1.47-1.28,2.3-.53,1.23-1.2,2.35-2.06,3.39-.81.98-1.87,1.8-1.82,3.36.03.82-1.05,1.05-1.72,1.44-.54.23-.88.7-1.31,1.05-1.85.96-3.3,2.32-4.2,4.23-.43.62-1.09,1.03-1.59,1.59-1.9.94-3.35,2.34-4.27,4.27-.43.62-1.09,1.02-1.58,1.58-1.94.97-3.44,2.36-4.32,4.37-2.85,2-5.3,4.41-7.3,7.26-1.92.98-3.44,2.36-4.36,4.34-.43.62-1.09,1.02-1.58,1.58-.97.13-1.47.87-2.1,1.52-.66.68-1.12,1.76-2.36,1.65Z"/><path class="cls-25" d="m118.15,126.6c-.04-1.19.47-2.74-1.8-2.21-3.32.78-6.26-.54-9.09-1.98-3.04-1.54-6.2-1.56-9.43-1.15-1.46.19-2.73.46-3.92,1.75-1.29,1.4-3.47.77-5.23.48-1.1-.18-1.87-.2-2.34.92v-.37c-.51-.91-.08-2.05-.73-2.93-.48-.37-.67-.88-.73-1.46-.52-1.38-2.07-2.54-.91-4.28,1.4.38,2.33,1.57,2.24,3.01-.06.97.04,1.83.87,2.44.31.22.7.31.97-.05.23-.3.02-.58-.21-.79-2.64-2.28-1.27-5-.79-7.6.11-.57.74-1.14.42-1.7-.68-1.19-.59-2.39-.33-3.65-.19,1.55-1.25,2.82-1.26,4.43,0,.74-.22,1.69-1.44,1.24,0-3.6.83-6.71,3.52-9.5,1.61-1.68,3.66-2.89,5-4.81.71,1.19.58,2.37-.62,2.97-1.52.76-2.05,1.97-2.29,3.66.69-.3.95-.84,1.06-1.36.51-2.34,2.27-3.48,4.3-3.59,2.63-.15,4.82-1.61,7.36-1.88,1.75-.19,3.38-.07,4.85,1.04.92.69,2.09.8,3.15.79,2.76-.02,4.02,1.93,5.41,3.76.25.33.27.96.6,1.1,2.41,1.05,2.02,3.28,2.36,5.25.52,3.02.87,6.02.25,9.07-.17.85-.42,1.64-.72,2.44-.15.39-.36.91.07,1.17.57.35.66-.31.88-.62.28-.39.48-.88,1.11-.73-.02,2.12-1.82,3.35-2.56,5.12Z"/><path class="cls-15" d="m120.71,121.48c-.42.19-.69.5-.72.97-.05.98-.76,1.63-1.51,1.34-.59-.23-.89-1.23-.45-2.07,1.12-2.17,1.3-4.52,1.19-6.88-.07-1.5-.39-2.98-.58-4.48-.1-.82-.49-1.57-.21-2.48.29-.9.03-1.71-1.16-1.79-.47-.03-.87-.31-.94-.75-.27-1.78-1.86-2.6-2.77-3.91-.23-.33-.66-.76-.98-.73-2.92.2-5.33-1.47-8.02-2.04-1.47-.31-3.1-.18-4.46.8-.87.63-1.86.86-2.92.8-1.71-.09-3.18.58-4.59,1.44-.45.27-.75.59-.78,1.13-.01.3.01.65-.13.89-.55.87-.83,2.55-1.98,2.18-1.17-.38.19-1.5.21-2.31.04-1.34.54-2.03,1.96-2.36,1.39-.32,1.01-1.73,1.05-2.79.62-1.19,1.68-1.24,2.78-.97.71.17,1.4.23,1.73-.48.71-1.54,2.07-2.07,3.52-2.52,2.11.17,4.33-.33,6.24,1.05.49.36,1.14.48,1.52.99.91,1.24,2.21,1.66,3.65,1.69,1.04.02,1.69.57,2.27,1.31,1.22,1.56,2.94,2.61,4.26,4.06.12.12.24.24.37.37.59.76.1,1.98,1.1,2.56,1.02,2.1,1.41,4.41,2.19,6.58.59,2.4-.22,4.66-.73,6.95-.37.49-.73.98-1.1,1.46Z"/><path class="cls-11" d="m145.21,189.5c.71-1.66,1-3.33.41-5.12-.18-.55-.04-1.21-.04-1.82,0-45.62,0-91.24,0-136.86,0-1.15,0-2.29.31-3.43.38-1.4-.02-2.44-1.64-2.85-.91-.23-1.95-.23-2.7-.95,1.98-1.47,3.56-.16,5.05.87,1.55,1.07.62,2.61.39,3.98-.25.84-.16,1.7-.16,2.55,0,45.32,0,90.64,0,135.96,0,.85-.08,1.71.17,2.54.13,1.83.81,3.8-1.15,5.17-.21.1-.42.09-.63-.02Z"/><path class="cls-31" d="m61.83,38.46c-1.29,1.23-1.49,2.76-1.49,4.48.04,16.55.03,33.1.03,49.64.34.63.17,1.31.17,1.97.01,14.66-.05,29.32.05,43.98.02,3.57.18,7.14-.13,10.7-1.33.05-1.82-.66-1.37-1.81.37-.95.37-1.89.37-2.86,0-33.11,0-66.21,0-99.32,0-1.04-.09-2.04-.36-3.06-.38-1.42,1.21-3.49,2.73-3.72Z"/><path class="cls-28" d="m74.24,34.38c.01.43.09.9-.28,1.2-2.05,1.67-3.87,3.65-6.72,4.11-1.4.23-2.53,1.37-4,1.66-.45.09-.68.66-.68,1.2,0,.49,0,.97,0,1.46,0,32.77,0,65.53-.02,98.3,0,1.38.44,2.75.05,4.14-.08.27-.07.67.26.8.46.18.83-.12,1.08-.47,1.85-2.55,4.32-4.51,6.55-6.67,2.25-2.17,4.24-4.61,6.71-6.56-.21-.61.26-.94.55-1.35,1.48-1.73,3.42-3,4.91-4.72.18-.18.37-.34.56-.49,1.08-.77.71-1.86.66-2.88-.04-.16-.06-.32-.08-.48-.04-.41-.04-.82.11-1.22.08-.16.2-.25.37-.29q1.72,3.43-1.01,6.17c-6.06,6.06-12.12,12.12-18.19,18.18-.77.77-1.59,1.49-2.42,2.19-.57.47-.89.35-.75-.45.25-.71.12-1.45.12-2.17,0-34.39,0-68.78.02-103.17,0-.71-.2-1.46.19-2.15,4.63-.92,8.62-3.06,12.03-6.32Z"/><path class="cls-42" d="m144.91,184.38c-.02-.79-.06-1.58-.06-2.37,0-45.82,0-91.64,0-137.45,0-1.28-.02-2.56-.02-3.84.6.38.38.98.38,1.5,0,47.39,0,94.78,0,142.17-.09.17-.19.16-.28,0Z"/><path class="cls-39" d="m100.94,94.47c-1.34,1-2.88,1.78-3.66,3.41-.17.35-.62.68-1.06.33-1.2-.99-2.24-.3-3.31.24-.48,1.36-.9,2.76-2.72,2.85-.21.01-.47.19-.6.38-2.17,3.12-5.05,5.92-4.77,10.19.02.27-.21.56-.32.84.3.91.24,1.78-.37,2.56-.7,1.62.83,2.87.73,4.39-.76-.22-.71-1.33-1.57-1.43-.76-.24-.69-.9-.73-1.48-.28-3.85.63-7.51,1.86-11.11.24-.69.71-1.25,1.34-1.64,3.13-4.66,7.24-7.99,12.79-9.32.64-.15,1.31-.19,1.97-.28.14.03.28.05.41.08Z"/><path class="cls-11" d="m61.83,38.46c-1.63.75-2.63,2.58-2.34,4.16.12.65.14,1.33.14,1.99,0,33.46,0,66.92,0,100.38,0,.61.14,1.32-.12,1.8-.69,1.24-.17,1.91.86,2.48.22.02.23.26.37.37.05.95.67,1.13,1.46,1.1-.04.53-.34.76-.85.71-1.17-.11-3.05-2.96-2.57-4.03.4-.87.5-1.73.5-2.65,0-33.2,0-66.41,0-99.61,0-.66.01-1.32-.19-1.99-.75-2.52.42-4.53,3.12-5.44-.12.24-.24.49-.37.73Z"/><path class="cls-26" d="m62.22,40.7c0,19.79-.02,39.57-.03,59.36,0,15.4,0,30.81-.01,46.21,0,.64.24,1.35-.29,1.92-.02-.79-.06-1.58-.06-2.37,0-34.37,0-68.74.02-103.11,0-.67-.37-1.46.37-2.01Z"/><path class="cls-39" d="m60.73,149.64c-.12-.12-.24-.24-.37-.37-.52-1.49.02-2.98.02-4.47-.02-17.4-.02-34.81-.02-52.21.63.6.35,1.38.35,2.07.02,12.77.08,25.53-.02,38.3-.04,5.56.81,11.12.03,16.68Z"/><path class="cls-22" d="m76.11,206.35c16.93-.02,33.86-.03,50.79-.05-.38.59-.98.38-1.49.38-15.99.01-31.97.01-47.96,0-.46,0-.99.17-1.33-.34Z"/><path class="cls-28" d="m85.77,103.99c-2.38,4.17-3.2,8.66-2.72,13.42.03.29-.03.61.25.82-.04,1.39.68,2.58.96,3.89-.05.04-.1.08-.15.12-1.08-.12-1.26-1-1.51-1.81-.76-2.48-.92-5.01-.62-7.58.06-.2.17-.37.33-.5.49-1.99,1.06-3.97,1.43-5.99.23-1.26.7-2.13,2.03-2.37Z"/><path class="cls-25" d="m118.88,103.56c-1.75-.5-2.67-2.11-3.87-3.23-1.17-1.09-2.06-2.15-3.8-1.89-1,.15-1.82-.18-2.23-1.17-.36-.84-1.43-.94-1.8-1.75.66-.07,1.12.25,1.61.65.55.45,1.16.98,1.82,1.13,3.76.8,6.05,3.47,8.28,6.27Z"/><path class="cls-11" d="m130.22,201.21c-.15,1.18-.38,2.33-.41,3.54-.03,1.34-1.25,1.93-2.15,2.68v-.37c1.01-1.07,1.51-2.31,1.62-3.81.05-.7.26-1.53.94-2.04Z"/><path class="cls-31" d="m70.24,35.54c.67-1.27,1.09-2.68,2.89-3,.93-.16.51-1.53,1.14-2.12.14,1.4-.21,2.48-1.66,3.06-1,.4-1.01,2.01-2.37,2.06Z"/><path class="cls-25" d="m122.54,113.07c-1.29-2.01-1.5-4.38-2.19-6.58,1.34,1.99,1.96,4.22,2.19,6.58Z"/><path class="cls-31" d="m72.07,141.96h-.73c.27-.66.93-.79,1.46-1.1,1.19-.34,1.14-2.13,2.56-2.19-.25,1.3-1.38,2.11-1.83,3.29-.49.25-.98.25-1.46,0Z"/><path class="cls-25" d="m121.81,120.02c-.08-2.35,1.17-4.56.73-6.95.76,2.42.37,4.72-.73,6.95Z"/><path class="cls-44" d="m145.21,189.5h.37c-.55,2.16-2.14,2.82-4.39,1.83v-.37c1.31-.56,2.94-.26,4.02-1.46Z"/><path class="cls-25" d="m79.75,191.33c.36-1.83,1.9-2.48,3.29-3.29-.58,1.61-2.18,2.21-3.29,3.29Z"/><path class="cls-39" d="m85.6,128.06c.16,1.87-1.7,1.71-2.56,2.56.25-1.46,1.74-1.67,2.56-2.56Z"/><path class="cls-39" d="m85.6,121.11c1.07.77.97,1.83.73,2.93-1.25-.72-.54-1.94-.73-2.93Z"/><path class="cls-39" d="m79.75,133.91c-.17,1.53-1.48,1.94-2.56,2.56.35-1.36,1.76-1.66,2.56-2.56Z"/><path class="cls-25" d="m120.34,106.49c-1.68-.29-.91-1.63-1.1-2.56,1.08.55.66,1.74,1.1,2.56Z"/><path class="cls-39" d="m75.36,138.67c-1.14.39-1.13,2.14-2.56,2.19.89-.82,1.1-2.31,2.56-2.56v.37Z"/><path class="cls-42" d="m144.91,184.38c.09,0,.19,0,.28,0-.16,1.33.44,2.73-.35,4,.02-1.33.05-2.67.07-4Z"/><path class="cls-15" d="m141.19,191.33c1.78.15,3.45.03,4.39-1.83,1.51-1.32,1.04-3.1,1.1-4.75-.33-.63-.17-1.32-.17-1.97,0-45.98,0-91.97,0-137.95,0-.66-.17-1.34.17-1.97.11-.52.23-1.04.33-1.57.16-.87-.12-1.46-.97-1.88-1.42-.69-2.83-1.36-4.47-.94-.13-.52-1.08-.89-.37-1.55.61-.57,1.4-.83,2.2-.57,1.39.45,2.65.98,4.15.03.81-.51,2.68,1.36,2.36,2.6-.49,1.86.08,3.61.08,5.4,0,48.11,0,96.22,0,144.33,0,3.3-.77,3.85-3.97,4.55-2.09.46-4.35.34-6.31,1.51-.69.41-1.32.74-1.77,1.44-.36.56-.96.77-1.6.5-.46-.19-.86-.53-.91-1.06-.08-.83.6-.92,1.18-1.12.77-.27,1.33-.77,1.77-1.49.63-1.02,1.53-1.73,2.83-1.7Z"/><path class="cls-51" d="m76.11,212.92c.12-.14.23-.27.35-.41,18.16.01,36.32.02,54.49.03-.73.66-1.63.36-2.45.36-17.46.02-34.92.01-52.39.01Z"/><path class="cls-44" d="m120.34,208.52c-.54.6-1.25.35-1.89.36-11.91.01-23.81.01-35.72,0-.64,0-1.35.24-1.89-.36h33.65c1.95-.29,3.9-.29,5.85,0Z"/><path class="cls-11" d="m120.34,208.52h-5.85c2.32-.59,4.63-.59,6.95,0h-1.1Z"/><path class="cls-4" d="m80.97,133.39c.56.13.85.51.93,1.01.1.59-.05,1.14-.73,1.26-.66.12-.86-.46-.91-.91-.07-.55.21-1.05.72-1.36Z"/><path class="cls-4" d="m72.07,141.96c.49-.33.98-.33,1.46,0,.7.69.24,1.11-.41,1.21-.84.14-1.1-.46-1.05-1.21Z"/><path class="cls-4" d="m75.2,140.56c.34-.71.45-1.59,1.33-1.78.11-.02.4.21.39.29-.17.94-1.21.92-1.72,1.49Z"/><path class="cls-4" d="m79.44,136.63c-.06.09-.11.23-.2.26-.63.24-.38,1.33-1.26,1.29-.13,0-.36-.22-.35-.32.12-.96,1.04-.96,1.53-1.49l.28.26Z"/><path class="cls-41" d="m156.92,218.03c-.07.7-.52.89-1.14.88-15.03-.33-30.06-.07-45.09-.14-9.25-.04-18.5,0-27.76,0-.55,0-1.1.03-1.64-.06-.62-.1-.93-.63-.95-1.19-.02-.64.42-.96,1.08-.94.43.01.85,0,1.28,0,13.21,0,26.42,0,39.62,0,1.96,0,4-.32,5.7,1.09,1.43,1.42,3.2.66,4.79.6.88-.04,1.79-.23,2.69-.23,6.84.05,13.68.11,20.52.15.3,0,.59-.1.89-.15Z"/><path class="cls-53" d="m103.47,11.4c7.25,0,14.49,0,21.74.01.78,0,1.93-.35,1.98.95.04,1.12-.88,1.15-1.81,1.26-6.25.74-12.52.23-18.77.31-7.86.1-15.71.02-23.57.02-.43,0-.85.02-1.28,0-1.14-.07-2.26-.56-2.17-1.74.08-.99,1.3-.81,2.13-.81,7.25,0,14.49,0,21.74,0Z"/><path class="cls-53" d="m75.34,13.96c-.36,0-.72,0-1.08,0-.5,0-.99-.03-1.06-.69-.06-.57-.03-1.13.58-1.38,1.38-.58,2.78-.72,4.21-.15.29.11.62.2.51.59-.18.66-.51,1.3-1.19,1.5-.62.18-1.31.13-1.96.18,0-.02,0-.03,0-.05Z"/><path class="cls-24" d="m130.58,216.2v-1.46c.66,0,1.32,0,1.97,0,.87,0,1.44.39,1.26,1.3-.17.84-.65,1.39-1.68.97-.55-.22-1.16-.3-1.55-.81Z"/><path class="cls-53" d="m138.63,22.74c0-.42-.02-.84,0-1.26.13-1.91.25-3.8-2.4-4.11-.07,0-.11-.32-.17-.49,3.33,1.17,3.85,2.36,2.56,5.85Z"/><path class="cls-53" d="m139,26.39c.83-.85.83-1.71,0-2.56.87.06,1.11.59,1.09,1.37-.02.73-.35,1.14-1.09,1.19Z"/><path class="cls-24" d="m150.19,199.5c-.14.38-.41.59-.82.55-.3-.03-.42-.23-.33-.5.1-.32.38-.47.7-.48.26,0,.46.12.45.43Z"/><path class="cls-24" d="m156.18,221.69c-24.48,0-48.96,0-73.44-.01-.75,0-1.59.31-2.26-.35,24.48,0,48.96,0,73.44.01.75,0,1.59-.31,2.26.35Z"/><path class="cls-24" d="m80.48,213.64c15.48,0,30.96,0,46.45,0-.54.6-1.25.35-1.89.35-14.22.01-28.44.01-42.66,0-.64,0-1.35.24-1.89-.35Z"/><path class="cls-14" d="m82.31,112.34c0,.12,0,.24,0,.36-.11.15-.28.31-.26.47.26,2.43-1.91,3.22-3.15,4.61-.65.73-1.7.55-2.6.52-1.41-.05-2.03.56-1.91,1.96.02.24-.04.49,0,.73.21,1.01-.64,2.48,1.1,2.85,1.68.35,3.23-.55,3.86-2.13.36-.9.95-1.69,1.16-2.66.1-.49.43-.93,1.01-.87.54.06.92.49.94.98.07,1.7,1.11,3.01,1.67,4.51,0,.12,0,.24,0,.37-.47,1.04.34,2.37-.73,3.28-.13.12-.25.25-.38.37-1.24.65-1.87-.59-2.95-1.12.15,1.15,2.12,1.36,1.13,2.59-.65.81-1.66.89-2.66.64-.41-.12-.83-.17-1.24-.25-2.88-.57-3.57.08-3.33,3.01.08.95-.27,1.88-.44,2.81-.99.15-1.93.52-3,.19-1.27-.4-2.64.77-2.83,2.32-.09.72,0,1.42.23,2.14.39,1.17-.13,1.72-1.36,1.57-.92-.57-1.24-1.45-1.29-2.48-.03-.67-.03-1.34-.03-2.01,0-30.1,0-60.2,0-90.3,0-1.09-.11-2.2.28-3.25.64-.74,1.53-1.35,1.4-2.53,2.4-1.04.53,1.13,1.1,1.46.73.51,1.56.73,2.28.14.53-.44.17-1.07-.08-1.6-.54-.55-.55-1.14.14-1.49,2.34-1.18,3.81-3.46,6.05-4.76.86-.5.73-1.62,1.23-2.38.5-.75.66-1.7,1.36-2.34.95-1.07,2.26-1.91,2.17-3.65-.02-.42.52-.59.96-.62,13.79.07,27.57.02,41.35.02.66,0,1.34-.12,1.96.22.12.61.24,1.22.37,1.83.06,1.12-.31,2.22.12,3.39.43,1.17.66,2.3,1.98,2.81.45.17.78.64.9,1.11.33,1.28.81,2.21,2.27,2.68,1.02.33.62,1.71.68,2.65.07,1.01.19,2.01,1.3,2.39,1.08.37,2.16.35,3.04-.56.28-.29.5-.73,1.03-.58.03.74.57.74,1.1.73,1.18.68,2.38,1.16,3.8.77.43-.12.96,0,1.13.59,0,1.56,0,3.12,0,4.68,0,45.12,0,90.24,0,135.35.34,1.86-1.49,2.3-2.25,3.44-1.81-.21-2.64,1.25-3.78,2.19-.24-.37-.49-.73-.73-1.1-.33-.6-.82-.86-1.5-.66-.82.24-.56.94-.62,1.5-.29.47-.75.71-1.23.92-1.79.38-.83,2.05-1.41,2.99-.12.37-.24.73-.37,1.1-.12.13-.27.19-.45.18-.78-.14-.84-1.94-2.11-.91-1.18.24-.57,1.18-.73,1.83-.26.38-.29.89-.81,1.13-1.45.67-1.28,1.56-.28,2.53l.37.37c-1.11.66-1.23,1.82-1.46,2.93v1.46c-.48.68-1.11.9-1.6.14-.64-1-1.57-1.04-2.55-1.04-12.65-.01-25.29.01-37.94-.03-1.5,0-2.37.66-3.02,1.87-.35.43-.76.78-1.34.89-.37.12-.73.24-1.1.36-1.55-1.47-1.03-3.69,1.1-4.74.62.66.82.03,1.1-.37.85-.59.62-1.45.62-2.3,0-1.06-.6-2.15.11-3.19.24-.12.49-.24.73-.37.6-.47,1.26-.22,1.91-.18,1.98.1,2.72-.64,2.67-2.65-.01-.53-.25-1.07.17-1.55,0-.97.84-1.11,1.46-1.46.48-.42,1.03-.18,1.55-.17,2.02.05,2.72-.65,2.67-2.67-.01-.52-.25-1.07.17-1.55,1.67-3.21,4.11-5.64,7.31-7.31.48-.42,1.03-.18,1.55-.17,2.02.05,2.72-.65,2.67-2.67-.01-.52-.25-1.07.17-1.55,0-.97.84-1.11,1.46-1.46.48-.42,1.03-.18,1.55-.17,2.02.05,2.72-.65,2.67-2.67-.01-.52-.25-1.07.17-1.55,0-.97.84-1.11,1.46-1.46.48-.42,1.03-.18,1.55-.17,2.02.05,2.72-.65,2.67-2.67-.01-.52-.25-1.07.17-1.55.03-.7.4-1.06,1.1-1.1,2.96-.27,4.84-2.36,4.73-5.3-.04-1.01.63-1.8.75-2.75-.09-.96.97-1.34,1.1-2.19q.9.44,1.65,2.37c.14-1.62.79-2.78,1.42-3.94.98-1.82.91-2.02-1-2.92-.29-.13-.51-.31-.6-.63.05-1.23-.16-2.45.61-3.62.5-.77-.05-1.73-.24-2.6.17-.35.5-.51.81-.68,1.2-.65,1.3-1.36.07-2.08-.71-.41-.94-1.05-.96-1.81-.02-.48-.08-.96-.16-1.43q-.42-2.49-2.68-2.04c-.95-1.41-1.56-2.75.4-3.91.69-.41.81-1.11.55-1.93-.29-.92-.59-1.91.52-2.58,1.02-.12.51,1.26,1.39,1.35.7-.97-.41-1.4-.66-2.08.1-1.22-.28-2.49.37-3.66.39-.26.89-.44.91-1.03.06-1.62.7-2.99,1.53-4.37,1.11-1.85-.74-2.44-1.71-3.38.18-.85.65-1.71,0-2.56-.83-1.02-1.91-1.75-2.93-2.56-.37-.24-.73-.49-1.1-.73-.11-2.26-2.31-3.53-2.72-5.67-.07-.37-.56-.62-.99-.71-2.07-.41-3.76-1.58-5.43-2.76-4.95-1.2-9.99-2.02-15.02-.97-1.4.29-3.18.56-4.3,1.95-.31.39-.94.73-1.43.73-2.04,0-3.27,1.82-5.13,2.2-.3.06-.51.4-.19.7,1.17,1.11.19,1.51-.63,1.97-.65-.29-1.25-.75-2.03-.6-.36.07-.77.11-.87.51-.12.47.28.62.62.72.58.17,1.17.3,1.54.84-.03.83-.74,1.18-1.21,1.7-1.44,1.61-2.5,3.33-1.91,5.68.23.91.14,1.91.19,2.86Z"/><path class="cls-14" d="m66.22,43.22c-.6.54-.36,1.26-.36,1.89-.01,31.18,0,62.35-.03,93.53,0,1.08.2,2.04.75,2.95-2.43-.75-2.93-1.34-2.93-3.45,0-30.68,0-61.36,0-92.03,0-2.36.56-3.13,2.93-3.99.4.54.01.82-.37,1.1Z"/><path class="cls-14" d="m80.12,204.86c.63-2.7,2.64-2.6,4.83-2.59,12.42.07,24.84.02,37.26.06.97,0,2.45-.58,2.45,1.47,0,.68.76.02,1.17-.04-.12.37-.24.73-.37,1.1-1.25.56-2.6.53-3.92.53-13.01.02-26.01.01-39.02,0-.84,0-1.72.15-2.41-.54Z"/><path class="cls-14" d="m125.46,26.03c-.66.41-1.39.37-2.12.37-13.21,0-26.43,0-39.64,0-.73,0-1.47.04-2.12-.37-.72.23-.4-.57-.73-.73-.44-1.07.31-1.08.99-1.09,1.38-.02,2.75,0,4.13,0,.38-.26.82-.17,1.24-.17,10.88,0,21.75,0,32.63,0,.42,0,.86-.09,1.24.17,1.08,0,2.17-.02,3.25,0,1.64.03,1.68.11,1.14,1.82Z"/><path class="cls-14" d="m137.17,41.75c-.73,1.2-1.59,2.03-3.2,1.86-1.81-.2-2.59-.88-2.65-2.76-.02-.61,0-1.22,0-1.82-.02-.66-.1-1.16-1.05-1.02-1.02.14-1.56-.43-1.52-1.52.03-.84-.29-1.87-.98-2.02-2.37-.5-1.86-2.68-2.57-4.1-.43-.87.03-1.77.64-2.51.94.84,2.31,1.38,1.99,3.09-.07.36.39.87.71,1.22,1.17,1.28,2.32,2.51,3.16,4.12.85,1.62,2.8,2.22,4.47,2.93,1.23.52,1.78,1.25,1.01,2.53Z"/><path class="cls-14" d="m143.02,184.75V48.34c.12-.16.24-.16.37,0v137.51c-.85-.12-.53-.64-.37-1.1Z"/><path class="cls-14" d="m80.12,204.86h45.35c-.96,1.34-2.47.98-3.73,1.05-2.91.15-5.83.05-8.75.05-10.51,0-21.02,0-31.53-.01-.69,0-1.47.28-2.07-.35.14-.35.38-.59.73-.73Z"/><path class="cls-14" d="m86.7,190.6c.12.52.3,1.04.35,1.56.23,2.24-.94,3.41-3.18,3.18-.65-.07-1.28-.23-1.92-.35.12-.37.24-.73.37-1.1,1.02-.96,2.28-1.66,2.79-3.14.27-.79,1.07.08,1.6-.15Z"/><path class="cls-14" d="m121.08,24.2h-35.11c.47-.56,1.12-.36,1.71-.36,10.57-.01,21.13-.01,31.7,0,.58,0,1.23-.2,1.71.36Z"/><path class="cls-14" d="m143.02,43.58c-.53.08-1.07.1-1.58.24-1.41.37-2.58.22-3.17-1.33.53-1.22,1.09-2,2.56-.88.78.6,2.45-.15,2.56,1.61-.14.11-.14.34-.37.37Z"/><path class="cls-14" d="m79.38,201.21c-1.13,1.4-2.39,2.78-1.1,4.74-.84.05-1.58-.23-1.42-1.16.24-1.43-.2-2.99.69-4.31.53-.45-.03-1.98,1.46-1.46.12.73.24,1.46.37,2.19Z"/><path class="cls-14" d="m77.92,132.45c-.25.36-.49.73-.74,1.09-.8-.46-1.77.27-2.55-.36-.03-.09-.06-.18-.08-.27-.15-.34-.21-.7-.13-1.06.25-1.13,1.38-2.08,2.33-1.86,1.36.31,1.28,1.4,1.18,2.46Z"/><path class="cls-14" d="m126.93,199.01c-.91.15-1.12-.49-1.29-1.15-.18-.7.17-1.18.75-1.47.58-.3,1.22-.49,1.64-1.04.5,1.14,1.98,2.49-.63,2.98-.35.07-.42.37-.47.68Z"/><path class="cls-14" d="m73.53,135.38c-.13-1.23.23-2.43-.25-3.71-.52-1.37,1.04-2.96,2.65-2.83.92.07,1.91.11,2.73.69-.4.46-.95.47-1.49.48-2.49.04-3.04.72-2.53,3.17-.85.49-.47,1.6-1.1,2.19Z"/><path class="cls-14" d="m81.21,195.35c.12,1.08.33,2.16.34,3.24,0,.86.06,1.87-1.07,2.25.31-.61.64-1.28.08-1.86-1.5-1.55-.36-2.56.65-3.63Z"/><path class="cls-14" d="m137.17,189.5c.23-.35.52-.68.66-1.06.58-1.54,1.61-1.76,2.99-1.13.11.08.15.16.11.24-.04.08-.07.12-.11.12-.71,1.63-2.33,1.43-3.66,1.83Z"/><path class="cls-14" d="m133.14,189.87c.37-.24.73-.49,1.1-.73.12-.18.24-.18.37,0,.63.15,1.43.17,1.37,1.1-.03.55-.39,1.01-.94,1.24-.89.37-1.15-.34-1.53-.87-.22-.2-.4-.41-.37-.73Z"/><path class="cls-14" d="m140.82,187.67v-.37c.24-.85.3-1.83,1.61-1.74.18.01.39-.53.59-.82.01.4-.07.83.37,1.1-.2,1.52-1.7,1.24-2.56,1.83Z"/><path class="cls-14" d="m125.83,202.3c-.54-1.78-.14-2.58,1.46-2.93.07,1.25-.32,2.28-1.46,2.93Z"/><path class="cls-14" d="m80.85,25.3c.24.24.49.49.73.73-.43,1.61-.63,3.37-2.56,4.02.1-.28.13-.7.32-.81,1.62-.91,1.59-2.41,1.51-3.95Z"/><path class="cls-14" d="m70.24,41.02c.54.59,1.18,1.33.28,1.92-.78.51-1.82.61-2.47-.46,1.15.14,2.44.48,2.19-1.46Z"/><path class="cls-14" d="m128.76,193.53c1.47-1.97,1.55.23,2.19.73.33.52.14.95-.38,1.08-.66.15-.49-.45-.53-.8-.02-.23-.03-.46-.19-.64-.37-.12-.73-.24-1.1-.37Z"/><path class="cls-14" d="m133.14,189.87c.3.16.36.43.37.73-.87-.08-1.37.37-1.34,1.19.02.57-.02,1.02-.49,1.37,0-.67-.04-1.34.04-2,.1-.79.47-1.39,1.42-1.29Z"/><path class="cls-14" d="m129.85,193.89c.63.14,0,1.15.76,1.12.12,0,.22-.49.33-.76h.37c.13.33.27.64.04,1-.24.39-.42.98-.95.89-.39-.07-.49-.61-.53-1.02-.04-.41-.02-.82-.02-1.23Z"/><path class="cls-14" d="m134.61,189.14h-.37c-.57-.92-.08-1.49.73-1.75.79-.25,1.38.09,1.46,1.01-.84-.33-1.79-.93-1.83.73Z"/><path class="cls-14" d="m143.02,43.58c.12-.12.24-.24.37-.37v5.12h-.37v-4.75Z"/><path class="cls-14" d="m79.02,199.01c-.96.02-.83,1.12-1.46,1.46-.04-.98-.13-2.02,1.25-2.12.52-.04.59.29.22.66Z"/><path class="cls-14" d="m66.22,43.22c.12-.37.24-.73.37-1.1.01-.4-.07-.83.37-1.1.08.84.98,1.95-.73,2.19Z"/><path class="cls-14" d="m122.54,130.62c.33-.26.64-.56,1-.78,1.02-.63,1.79-.3,1.9.88.07.72.22,1.43.3,2.14.15,1.31-.06,2.6,1.72,3.13.79.23.49,1.73-.43,2.2-.48.24-1.04.32-1.56.47-1.03-.71-.93-2.13-1.83-2.93.18-.73.53-1.46,0-2.19.25-1.21-.37-2.09-1.1-2.93Z"/><path class="cls-14" d="m125.1,144.89c.4.12.79.31,1.2.35,1.47.15,1.89.97,1.38,2.25-.68,1.71-2.03,3.15-1.97,5.16,0,.16-.29.42-.48.46-.39.08-.4-.32-.56-.56-.54-.78.11-2.03-1.04-2.55.85-1.6.99-3.41,1.46-5.12Z"/><path class="cls-14" d="m125.83,109.05c2.89.82,3.3,2.01,1.53,4.52-.58.82-.84,1.73-.79,2.72.05,1.05-.36,1.62-1.47,1.54.33-1.83,1.12-3.66,0-5.49,0-.61,0-1.22,0-1.83-.03-.63.06-1.19.73-1.46Z"/><path class="cls-14" d="m122.54,152.2c0,1.35-.31,2.65-.1,4.07.27,1.83-2.01,2.42-2.74,3.94-.39.81-1.61.5-2.48.12-.06-.02-.11-.05-.17-.07.91-.67,2.06-1.08,1.62-2.71-.25-.94,1.1-1.23,1.63-1.92.83-1.1,1.45-2.31,2.24-3.41Z"/><path class="cls-14" d="m92.55,184.75c.05.23.1.46.16.69.79,3.09-.77,4.65-3.86,3.86-.23-.06-.46-.11-.69-.16-.12-.85-.3-1.62.95-1.95.61-.16,1.33-.89,1.49-1.49.33-1.25,1.09-1.07,1.95-.95Z"/><path class="cls-14" d="m110.1,167.19c.11.4.26.8.32,1.2.43,2.51-1,3.93-3.51,3.51-.41-.07-.8-.21-1.2-.32-.12-.85-.3-1.62.95-1.95.61-.16,1.33-.89,1.49-1.49.33-1.25,1.09-1.07,1.95-.95Z"/><path class="cls-14" d="m104.25,173.05c.05.23.1.46.16.69.79,3.09-.77,4.65-3.86,3.86-.23-.06-.46-.11-.69-.16-.12-.85-.3-1.62.95-1.95.61-.16,1.33-.89,1.49-1.49.33-1.25,1.09-1.07,1.95-.95Z"/><path class="cls-14" d="m115.96,161.34c.11.4.26.8.32,1.2.43,2.51-1,3.93-3.51,3.51-.41-.07-.8-.21-1.2-.32-.12-.85-.3-1.62.95-1.95.61-.16,1.33-.89,1.49-1.49.33-1.25,1.09-1.07,1.95-.95Z"/><path class="cls-14" d="m112.66,94.05c1.1.2,2.04.79,2.95,1.37.74.47,1.44.82,2.34.85,1.18.04,1.93.76,1.99,1.93.05.87.24,1.47,1.09,1.89,1.41.7.53,2.06.77,3.1-.69-1.7-2.31-2.81-2.89-4.62-.39-1.22-1.62-1.55-2.69-1.93-1.46-.51-2.73-1.25-3.56-2.6Z"/><path class="cls-14" d="m85.24,102.1c-.7-.14-1.41-.22-2.09-.43-.89-.27-1.1-.93-.54-1.65.73-.93,2.74-.53,3.36.61-.24.49-.49.98-.73,1.46Z"/><path class="cls-14" d="m124.73,121.48c.54,0,.92.3,1.2.72.37.55.36,1.16.07,1.73-.18.35-.53.51-.93.4-.66-.19-.71-.75-.71-1.32,0-.32-.09-.6-.36-.79.14-.35.38-.59.73-.73Z"/><path class="cls-14" d="m122.9,103.93c1.09.72,2.86.67,2.93,2.56-2.02.34-2.01-1.64-2.93-2.56Z"/><path class="cls-14" d="m123.64,133.55c1.04.73,1.04,1.46,0,2.19-.6-.73-.12-1.46,0-2.19Z"/><path class="cls-14" d="m125.1,110.51c.54.61.54,1.22,0,1.83-.54-.61-.54-1.22,0-1.83Z"/><path class="cls-50" d="m117.49,114.77c.08,2.74-.8,5.28-2.29,7.65-.5.8-.94,1.07-1.87.49-6.72-4.2-13.77-4.71-21.07-1.66-.92.38-1.25.13-1.66-.68-4.2-8.3,1.79-19.02,11.05-20.01,9.39-1,16.15,6.55,15.84,14.21Z"/><path class="cls-15" d="m84.14,115.26c.03-.87-.14-1.76.37-2.56.51,0,.97-.42.88-.75-.5-1.72,1.11-2.93.97-4.54-.06-.73.32-1.57,1.02-1.42.81.17.54,1.19.29,1.69-.48.99-.58,1.76.31,2.56.31.28.31.87.04,1.2-.97,1.22-.85,2.71-1.13,4.11-.34,1.72-.4,3.28,1.54,4.14.67.3.62,1.01.33,1.39-.38.52-1.08.9-1.73.44-.87-.61-1.57-1.47-1.38-2.6.17-1.05.53-1.99-.91-2.44-.42-.13-.09-.96-.6-1.24Z"/><path class="cls-44" d="m146.68,42.85v141.9c-.56-.48-.36-1.13-.36-1.71,0-46.16,0-92.32,0-138.47,0-.58-.2-1.23.36-1.71Z"/><path class="cls-14" d="m84.14,123.67c-.98-1.22-2.05-2.39-1.87-4.16.05-.5-.31-1.04-.82-1.05-.68-.02-.55.64-.6,1.1-.16,1.44-1.23,2.5-1.62,3.87-.23.84-4.22,1.3-4.92.73-.37-.3-.41-.72-.41-1.16,0-1.28.01-2.55,0-3.83-.01-1.03.53-1.4,1.49-1.37.67.02,1.34-.03,2,0,.81.04,1.42-.17,1.75-.98.28-.7.67-1.3,1.59-1.23.66.05.61-.35.52-.83-.19-.96.19-1.66,1.06-2.09.29,2.37-.22,4.79.64,7.15.31.86.58,1.68,1.16,2.38,0,.48.02.96.02,1.44Z"/><path class="cls-35" d="m74.63,133.18c-1.21-2.46-.51-3.54,2.24-3.52.6,0,1.19-.09,1.79-.14.37,0,.73.02,1.09-.02.55-.05,1.19-.16,1.34-.75.2-.75-.54-.82-1.01-1.02-.37-.16-.96-.15-.77-.75.12-.38.42-.78.76-.99.43-.27.92.02,1.03.44.28,1.06,1.24.92,1.94,1.25-1.7,1.59-3.41,3.17-5.11,4.76-.08-.09-.19-.16-.24-.26-.33-.7.17-2.12-1.32-1.81-1.14.24-1.89,1.01-1.48,2.38.03.11-.16.28-.25.42Z"/><path class="cls-14" d="m83.41,127.32c.12-.78.58-1.51.15-2.36-.22-.44.2-.73.58-.92.27,1.21.85,2.48-.73,3.28Z"/><path class="cls-14" d="m79.41,37.37c-.97.02-1.68-.35-1.81-1.38-.08-.69,1.54-1.9,2.44-1.78.87.11,1.2.75,1.17,1.57-.05,1.13-.73,1.59-1.79,1.6Z"/><path class="cls-14" d="m98.39,182.03c0,1.06-.65,1.26-1.55,1.26-.8,0-1.08-.4-.99-1.12.13-.99.73-1.45,1.72-1.43.91.02.8.7.81,1.29Z"/><path class="cls-14" d="m79.01,112.04c.04-.85-.12-1.94.82-2.02.75-.07.96.96,1,1.69.04.83-.19,1.76-1.12,1.8-1.03.04-.52-.99-.69-1.47Z"/><path class="cls-14" d="m73.8,42.83c-.49-.08-.97-.25-.86-.89.12-.65.58-1.1,1.23-1.16.61-.06.8.44.8.97,0,.75-.43,1.07-1.17,1.08Z"/><path class="cls-14" d="m80.83,104.03c-.06.59-.4,1.13-.92,1.17-.74.07-.66-.75-.74-1.19-.1-.58.41-.78.94-.79.54,0,.73.31.72.8Z"/></svg>