<?xml version="1.0" encoding="UTF-8"?><svg id="Laag_1" xmlns="http://www.w3.org/2000/svg" viewBox="0 0 242.57 241.82"><defs><style>.cls-1{fill:#fccf3f;}.cls-2{fill:#060605;}</style></defs><path class="cls-2" d="m242.57,133.77c-1.89,1.49-1.24,3.92-1.46,5.67-.7,5.53-1.57,10.99-3.38,16.24-3.1,9.01-7.06,17.65-12.74,25.36-7.53,10.22-16.65,18.54-28.62,23.44-4.92,2.02-10.16,3.02-15.06,4.85-4,1.49-7.77,3.96-11.32,6.61-7.57,5.66-14.29,12.39-22.22,17.6-6.37,4.19-13.22,7.04-20.85,7.84-.16.02-.3.28-.45.43h-12.32c-2.36-.48-4.71-.99-7.07-1.43-7.5-1.41-14.36-4.43-20.88-8.3-5.96-3.54-11.18-8.07-16.09-12.88-4.29-4.2-8.1-8.9-12.06-13.43-1.24-1.42-.97-3.91.36-5.11,1.07-.97,3.64-.74,4.85.46,4.51,4.48,8.27,9.64,12.98,13.95,6.24,5.71,12.7,11.06,20.56,14.49,5.51,2.41,11.16,4.02,17.17,4.73,7.39.88,14.45.13,21.4-2.41,5.04-1.84,9.39-4.81,13.55-8.08,7.57-5.95,14.5-12.72,22.87-17.64,4.47-2.62,9.28-4.27,14.24-5.63,6.7-1.83,12.78-4.82,18.47-8.92,6.66-4.81,11.91-10.75,16.46-17.5,4.11-6.11,7.21-12.62,9.46-19.65,1.04-3.25,2.24-6.54,3.07-9.81.57-2.24.76-4.88,1.21-7.2.62-3.19.15-6.25.24-9.35.14-4.79-.11-9.6-.17-14.39-.04-2.9-1.24-5.55-.93-8.54.21-2-1.31-4.13-1.89-6.28-1.41-5.29-3.61-10.26-6.99-14.62-3.89-5.02-8.34-9.49-13.38-13.39-3.31-2.56-6.56-5.22-9.76-7.92-1.64-1.39-1.99-3.94-.92-5.21,1.1-1.3,3.32-1.46,5.13-.11,4.03,2.99,8.07,5.99,11.95,9.19,5.96,4.91,11.4,10.31,15.29,17.11,3.68,6.43,6.16,13.32,7.29,20.6.51,3.27,1.74,6.57.66,10-.33,1.06.98.69,1.33,1.21v18.01Z"/><path class="cls-2" d="m8.53,111.78c-1.02,1.88-.24,4.46-1.73,6.59-.34.49.23,1.56.24,2.37.04,3.16-.06,6.32.04,9.47.11,3.6-.27,7.39.71,10.75,2.47,8.44,5.89,16.39,13.84,21.55,5.54,3.59,11.39,6.67,16.72,10.58,3.38,2.48,6.4,5.3,8.93,8.68,1.41,1.89,3.13,3.56,4.78,5.26.73.75,1.13,1.59,1.46,2.56.68,1.99,0,3.2-1.83,4-1.84.81-3.58.44-4.54-1.13-5.26-8.57-13.19-14-21.61-18.93-5.6-3.28-10.98-6.82-15.38-11.74-4.71-5.26-7.27-11.46-8.69-18.19-.52-2.47-.38-5.29-.86-7.58-.91-4.33-.45-8.54-.59-12.78-.22-6.94,1.38-13.66,3.78-20.11,2.9-7.8,7.37-14.71,13.43-20.44,5.96-5.63,12.72-10.26,19.69-14.56,7.28-4.49,14.83-8.63,21.12-14.53,4.29-4.03,6.79-9.3,9.18-14.55,3.1-6.82,5.45-14.02,9.57-20.32,3.71-5.68,8.51-10.22,14.87-13.14,3.48-1.6,6.95-3.04,10.67-3.8,2.64-.54,5.34-.77,8.01-1.13,6-.81,12.09-.82,18.11-.47,11.04.65,21.71,3.02,31.44,8.56,4.05,2.3,7.76,5.06,11.2,8.24,7.22,6.69,13.14,14.46,19,22.3,1.39,1.86,2.92,3.63,4.41,5.41,1.67,1.99,1.62,4.4-.16,5.78-1.88,1.46-3.73.86-5.49-1.28-5.42-6.6-10.4-13.55-15.95-20.05-5.69-6.66-12.12-12.25-20.02-16.02-5.64-2.69-11.65-4.12-17.83-5.03-6.08-.9-12.16-.95-18.26-.86-8.94.13-17.56,1.61-25.26,6.58-6.29,4.05-9.93,10.14-12.85,16.75-3.51,7.93-6.34,16.22-11.45,23.33-4.22,5.87-9.91,10.19-16.03,13.91-7.12,4.33-14.35,8.53-21.06,13.45-7.24,5.3-13.47,11.62-17.73,19.77-1.64,3.14-2.15,6.69-4.12,9.65-.1.15.11.5.26,1.07Z"/><path class="cls-2" d="m143.57,175.86c-7.7.7-14.75-1.34-21.35-4.52-8.13-3.92-14.9-9.7-19.86-17.37-6.04-9.37-9.12-19.65-7.99-30.76.57-5.61,1.44-11.35,4.14-16.53,3.32-6.36,7.1-12.42,12.68-17.04,4.87-4.03,10.22-7.2,16.39-9.1,5.42-1.67,10.85-2.93,16.48-2.62,4.26.24,8.46,1.12,12.67,2.08,5.17,1.18,9.61,3.56,13.88,6.28,11.01,7.03,17.92,17.24,20.62,29.87,3.07,14.33.38,27.7-8.41,39.76-6.76,9.27-15.76,15.17-26.58,18.36-4.14,1.22-8.43,2.27-12.69,1.58Zm-.57-6.97c7.38.09,14.21-1.86,20.55-5.36,8.07-4.47,14.1-10.89,17.95-19.4,1.88-4.16,3.07-8.48,3.57-12.93.42-3.73.64-7.68-.12-11.3-.65-3.15-1.7-6.37-3.08-9.37-4.87-10.63-12.51-18.5-23.52-22.69-6.11-2.32-12.47-3.21-19.12-2.5-5.2.55-10.07,1.73-14.71,4.11-4.12,2.11-7.79,4.8-11.19,7.93-3.32,3.04-4.49,7.58-7.68,10.7-.1.09-.08.29-.14.43-2.47,5.87-4.47,11.78-4.23,18.36.28,7.74,1.99,14.91,6.17,21.5,8.3,13.07,20.14,19.86,35.54,20.52Z"/><path class="cls-1" d="m143,168.89c-15.4-.66-27.24-7.46-35.54-20.52-4.18-6.59-5.89-13.75-6.17-21.5-.24-6.58,1.76-12.49,4.23-18.36.06-.14.04-.34.14-.43,3.18-3.12,4.36-7.66,7.68-10.7,3.4-3.12,7.07-5.81,11.19-7.93,4.64-2.38,9.51-3.55,14.71-4.11,6.65-.71,13.01.18,19.12,2.5,11.01,4.18,18.64,12.06,23.52,22.69,1.38,3,2.43,6.23,3.08,9.37.76,3.63.54,7.57.12,11.3-.5,4.44-1.69,8.77-3.57,12.93-3.85,8.5-9.88,14.93-17.95,19.4-6.34,3.51-13.17,5.46-20.55,5.36Zm-17.53-68.79c-1.7.12-3.08,1.16-4.16,2.2-6.96,6.7-11.49,14.55-10.96,24.63.1,1.92,1.5,3.49,3.24,3.53,1.88.04,4.61-2.08,4.05-3.6-.85-2.34.23-4.44.56-6.39.49-2.98,1.99-5.95,3.84-8.57,1.65-2.33,3.71-4.26,5.79-6.16,1.18-1.08,1.43-2.45.82-3.59-.57-1.06-1.5-2.31-3.18-2.05Z"/><path class="cls-2" d="m125.47,100.1c1.68-.26,2.61,1,3.18,2.05.61,1.14.36,2.51-.82,3.59-2.08,1.9-4.14,3.84-5.79,6.16-1.85,2.62-3.35,5.59-3.84,8.57-.32,1.95-1.41,4.05-.56,6.39.55,1.52-2.17,3.64-4.05,3.6-1.75-.03-3.14-1.61-3.24-3.53-.54-10.08,4-17.93,10.96-24.63,1.08-1.04,2.46-2.08,4.16-2.2Z"/></svg>