<?xml version="1.0" encoding="UTF-8"?><svg id="Laag_1" xmlns="http://www.w3.org/2000/svg" viewBox="0 0 238.26 236.57"><defs><style>.cls-1{fill:none;stroke:#a56e18;stroke-miterlimit:10;stroke-width:10px;}.cls-2{fill:#f2b21f;}</style></defs><path class="cls-2" d="m143.35,7.6l22.54,45.68c1.99,4.02,5.82,6.81,10.26,7.46l50.41,7.33c11.18,1.62,15.65,15.37,7.56,23.25l-36.48,35.56c-3.21,3.13-4.68,7.64-3.92,12.07l8.61,50.21c1.91,11.14-9.78,19.63-19.78,14.37l-45.09-23.7c-3.97-2.09-8.72-2.09-12.69,0l-45.09,23.7c-10,5.26-21.69-3.23-19.78-14.37l8.61-50.21c.76-4.42-.71-8.93-3.92-12.07l-36.48-35.56c-8.09-7.89-3.63-21.63,7.56-23.25l50.41-7.33c4.44-.65,8.28-3.43,10.26-7.46L118.9,7.6c5-10.13,19.45-10.13,24.45,0Z"/><path class="cls-1" d="m124.36,34.06l22.54,45.68c1.99,4.02,5.82,6.81,10.26,7.46l50.41,7.33c11.18,1.62,15.65,15.37,7.56,23.25l-36.48,35.56c-3.21,3.13-4.68,7.64-3.92,12.07l8.61,50.21c1.91,11.14-9.78,19.63-19.78,14.37l-45.09-23.7c-3.97-2.09-8.72-2.09-12.69,0l-45.09,23.7c-10,5.26-21.69-3.23-19.78-14.37l8.61-50.21c.76-4.42-.71-8.93-3.92-12.07L9.13,117.78c-8.09-7.89-3.63-21.63,7.56-23.25l50.41-7.33c4.44-.65,8.28-3.43,10.26-7.46l22.54-45.68c5-10.13,19.45-10.13,24.45,0Z"/></svg>