<?xml version="1.0" encoding="UTF-8"?><svg id="Laag_1" xmlns="http://www.w3.org/2000/svg" viewBox="0 0 204.92 240.12"><defs><style>.cls-1{fill:#f2b21f;}.cls-2{fill:#a56e18;}</style></defs><rect class="cls-1" x="54.37" width="150.56" height="200.92" rx="29.25" ry="29.25"/><path class="cls-2" d="m49.76,207.39c.23,6.47,7.19,12.53,13.63,12.52,30.7-.07,61.4.04,92.1-.04,7.05-.02,13.33-5.18,14.02-12.74.33-3.55.31-7.07.31-10.61.03-44.9.04-89.8,0-134.7,0-4.64-.76-9.22-4.62-12.46-2.35-1.97-5.07-3.44-8.21-3.53-30.81-.87-61.63-.23-92.45-.33-7.17-.02-12.14,3.37-14.45,10.23-.26.77-.1,1.51-.33,2.23-.39.41-.49.84-.08,1.3,0,7.12-.02,14.23-.02,21.35-.07.16-.15.33-.22.49.43,1.55-.21,2.94-.92,4.18-2.08,3.65-4.96,6.14-9.53,5.86-5.36-.33-9.44-4.68-9.66-9.65.22-.13.4-.27.05-.46,0-7.4.01-14.79.02-22.19.31-.15.32-.31.01-.48.01-.26.03-.52.04-.78.36-.25.16-.37-.11-.47.52-5.17,1.92-10.07,4.55-14.58,4.59-7.89,11.37-13.11,19.97-15.89,1.92-.62,4.03-.88,6.03-1.4h99.46c2.97,1.24,6.24,1.37,9.23,2.67,9.83,4.25,16.45,11.33,19.73,21.53,1.07,3.34,1.65,6.79,1.65,10.27.04,48.61.12,97.22-.03,145.83-.05,15.02-8.71,27.32-22.93,32.55-3.78,1.39-7.75,2.05-11.85,2.04-31.4-.05-62.8.08-94.2-.11-5.48-.03-10.61-2.03-15.37-5.09-6.32-4.07-10.92-9.42-13.75-16.33-1.41-3.45-2.36-7.04-2.49-10.79.53-.41.48-.85.06-1.3,0-8.52-.01-17.03-.02-25.55.35-.2.16-.33-.05-.46-.01-5.3,5.18-9.34,9-9.26,5.99.13,9.29,2.21,10.88,7.18.27.84.08,1.65.23,2.47.07.16.15.33.22.49,0,8.24.02,16.47.03,24.71-.42.46-.31.89.08,1.3Z"/><path class="cls-2" d="m109.24,142.74c-1.16,0-1.85,0-2.53,0-32.44,0-64.88-.02-97.32.02-3.55,0-6.41-2.03-7.86-4.41-1.89-3.11-2.15-7.19-.1-10.77,1.88-3.28,4.9-4.94,8.6-4.96,17.34-.07,34.68-.03,52.02-.03,14.89,0,29.78,0,44.68,0,.68,0,1.36,0,2.58,0-1.68-1.64-3.06-2.96-4.4-4.31-4.9-4.89-9.93-9.66-14.63-14.73-2.76-2.98-3.61-6.96-1.75-11.25,1.35-3.11,5.68-5.94,9.04-5.76,2.77.15,5.24,1.04,7.31,3.12,11.23,11.32,22.51,22.57,33.8,33.83,1.4,1.4,2.97,2.63,3.91,4.42,2.05,3.94,1.19,8.87-1.82,11.86-12.16,12.06-24.31,24.14-36.31,36.36-3.57,3.63-10.7,3.68-14.54-.93-3.65-4.38-2.47-10.94.87-14.11,6.18-5.86,12.1-11.99,18.46-18.34Z"/><path class="cls-2" d="m49.69,59.25c-.42-.46-.32-.89.08-1.3-.03.43-.05.87-.08,1.3Z"/><path class="cls-2" d="m49.76,207.39c-.39-.41-.5-.84-.08-1.3.03.43.05.87.08,1.3Z"/><path class="cls-2" d="m29.41,206.5c.42.45.47.89-.06,1.3.02-.43.04-.87.06-1.3Z"/><path class="cls-2" d="m29.35,57.1c.27.1.47.22.11.47-.04-.16-.07-.31-.11-.47Z"/><path class="cls-2" d="m29.42,58.35c.3.17.3.33-.01.48,0-.16,0-.32.01-.48Z"/><path class="cls-2" d="m49.44,81.09c.07-.16.15-.33.22-.49.18.28-.02.39-.22.49Z"/><path class="cls-2" d="m29.39,81.02c.34.2.17.33-.05.46.02-.15.04-.31.05-.46Z"/><path class="cls-2" d="m29.33,180.49c.22.13.4.27.05.46-.02-.15-.04-.31-.05-.46Z"/><path class="cls-2" d="m49.66,181.38c-.07-.16-.15-.33-.22-.49.2.11.4.22.22.49Z"/></svg>