<?xml version="1.0" encoding="UTF-8"?><svg id="Laag_1" xmlns="http://www.w3.org/2000/svg" viewBox="0 0 347.28 293.14"><defs><style>.cls-1{fill:#f8d662;}.cls-2{fill:#040301;}</style></defs><path class="cls-2" d="m0,106.53c1.14-4.6,1.94-9.32,3.47-13.78,4.94-14.36,11.58-27.81,21.99-39.14,2.56-2.79,4.61-6.11,7.4-8.62,9.54-8.59,19.07-17.25,30.62-23.18,8.83-4.53,17.69-8.9,27.23-11.99,8.44-2.74,16.92-5.33,25.61-6.76,10.07-1.65,20.23-3.74,30.51-2.86,9.2.79,18.24,2.63,26.7,6.65,10.44,4.96,20.94,9.79,31.37,14.76,9.94,4.74,19.73,9.8,29.76,14.33,7.17,3.24,14.28,6.65,21.38,10.02,5.81,2.75,11.69,5.38,17.44,8.29,9.96,5.04,20.19,9.55,30.29,14.31,12.89,6.08,25.73,12.25,38.66,18.24,3.42,1.58,4.84,3.74,4.81,7.63-.15,27.35-.04,54.69-.11,82.04-.01,4.35-.66,8.54-4.47,11.61-1.64,1.32-3.46,1.93-5.33,2.43-8.11,2.18-12.04,9.36-11.89,16.17.16,7.17,4.54,13.45,11.92,15.62,5.23,1.54,8.9,4.18,9.57,9.86.25,2.09.23,4.22.23,6.33.02,14.24-.22,28.48.12,42.71.15,6.25-5.65,11.96-11.94,11.91-45.65-.31-91.31-.19-136.97-.17-4.07,0-7.19-1.77-8.71-5.37-2.79-6.64-7.16-12.04-13.56-14.89-3.22-1.43-7.36-1.82-11.34-1.17-8.72,1.44-14.21,6.61-17.57,14.39-2.18,5.05-6.1,7.05-11.32,7.05-36.95,0-73.91,0-110.86,0-10.58,0-21.93-9.5-24.31-20.31-.12-.54,0-1.14-.69-1.38C0,216.37,0,161.45,0,106.53Zm318.53-19.51c-2.95-1.87-5.71-2.09-7.53-3.27-7.34-4.76-15.54-7.71-23.27-11.59-12.47-6.26-25.29-11.82-37.81-17.98-4.61-2.27-9.5-3.87-13.9-6.78-3.16-2.09-7.49-2.56-10.77-4.72-4.52-2.98-9.73-4.4-14.44-7.02-4.7-2.62-9.93-4.6-14.91-6.89-9.55-4.4-19-9-28.54-13.42-3.06-1.42-6.19-2.9-9.44-3.66-5.16-1.2-10.48-1.17-15.78-.81-1.93.13-3.92-.47-5.84-.28-7.7.75-15.29,2.17-22.88,3.67-17.02,3.37-33.03,9.3-47.88,18.3-11.71,7.1-22.12,15.68-31.02,26.16-7.42,8.74-13.35,18.34-18.14,28.7-.2.44-1.13.96-.26,1.69.44.37.69.19,1.12-.03,4.79-2.47,10.11-1.92,15.12-1.94,77.74-.17,155.47-.1,233.21-.16,3.29,0,4.58,1.66,4.92,4.38.47,3.78-.72,5.23-4.31,5.7-1.34.18-2.7.18-4.05.18-76.95,0-153.89,0-230.84,0-1.24,0-2.49.02-3.73,0-10.72-.12-17.59,8.6-17.53,18.03.33,50.84.27,101.68.19,152.52,0,6.21,7.44,14.93,15.08,14.93,36.38.02,72.76,0,109.15.09,2.26,0,3.28-.68,4.2-2.68,5.75-12.57,16.03-18.66,29.45-18.86,5.25-.08,10.46,1.38,15.53,4.25,6.5,3.67,11.09,8.35,13.75,15.05.8,2.02,1.88,2.23,3.67,2.23,44.29-.03,88.58-.05,132.88.04,2.62,0,3.16-.76,3.14-3.23-.12-14.46-.15-28.92.03-43.38.03-2.6-1.03-3.69-3.11-4.18-8.89-2.08-13.3-9.07-17-16.28-2.17-4.24-2.25-9.43-1.41-14.2,1.9-10.73,8.83-17.34,18.72-20.97,2.05-.75,2.76-1.46,2.76-3.61-.07-25.53-.08-51.07.02-76.6,0-2.52-.58-3.22-3.15-3.2-14.46.13-28.92.07-43.39.05-1.35,0-2.71-.07-4.05-.23-2.92-.34-3.99-2.8-4.03-4.97-.03-1.83,1.08-4,3.63-4.56,1.33-.29,2.62-.48,3.97-.47,9.22.01,18.44,0,28.49,0Z"/><path class="cls-1" d="m318.53,87.02c-10.06,0-19.28,0-28.49,0-1.35,0-2.64.18-3.97.47-2.55.56-3.66,2.72-3.63,4.56.04,2.16,1.11,4.63,4.03,4.97,1.34.16,2.7.23,4.05.23,14.46.02,28.93.08,43.39-.05,2.58-.02,3.16.68,3.15,3.2-.1,25.53-.08,51.07-.02,76.6,0,2.15-.71,2.86-2.76,3.61-9.89,3.63-16.82,10.24-18.72,20.97-.84,4.77-.76,9.96,1.41,14.2,3.7,7.22,8.11,14.21,17,16.28,2.08.49,3.15,1.58,3.11,4.18-.18,14.46-.15,28.92-.03,43.38.02,2.47-.52,3.24-3.14,3.23-44.29-.09-88.58-.07-132.88-.04-1.79,0-2.87-.21-3.67-2.23-2.66-6.69-7.25-11.37-13.75-15.05-5.07-2.87-10.29-4.33-15.53-4.25-13.43.2-23.7,6.29-29.45,18.86-.92,2-1.95,2.69-4.2,2.68-36.38-.1-72.76-.07-109.15-.09-7.64,0-15.09-8.72-15.08-14.93.07-50.84.14-101.68-.19-152.52-.06-9.43,6.81-18.15,17.53-18.03,1.24.01,2.49,0,3.73,0,76.95,0,153.89,0,230.84,0,1.35,0,2.72,0,4.05-.18,3.59-.47,4.78-1.92,4.31-5.7-.34-2.73-1.63-4.39-4.92-4.38-77.74.07-155.47,0-233.21.16-5.01.01-10.33-.53-15.12,1.94-.43.22-.68.4-1.12.03-.87-.73.06-1.26.26-1.69,4.78-10.36,10.71-19.96,18.14-28.7,8.9-10.48,19.31-19.07,31.02-26.16,14.85-9,30.86-14.92,47.88-18.3,7.59-1.5,15.19-2.92,22.88-3.67,1.92-.19,3.9.41,5.84.28,5.3-.36,10.62-.38,15.78.81,3.26.76,6.38,2.24,9.44,3.66,9.54,4.41,18.99,9.02,28.54,13.42,4.98,2.29,10.21,4.27,14.91,6.89,4.71,2.63,9.92,4.04,14.44,7.02,3.28,2.17,7.61,2.64,10.77,4.72,4.4,2.91,9.29,4.51,13.9,6.78,12.52,6.16,25.34,11.72,37.81,17.98,7.73,3.88,15.93,6.83,23.27,11.59,1.82,1.18,4.58,1.4,7.53,3.27ZM59.64,155.67c-.07,13.03,4.96,22.07,13.7,28.22,8.18,5.75,17.53,7.47,27.91,4.35,15.08-4.52,25.73-21.53,22.16-36.68-.83-3.53-3.27-5.17-6.85-4.37-2.54.57-4.01,3.36-3.33,6.41,3.39,15.04-11.36,29-26.47,25.4-9.8-2.33-17.21-12-16.85-22.17.29-8.16,4.43-14.2,11.31-18.65,4.32-2.79,9.55-1.33,13.85-3.71,1.42,2.19,3.94,1.63,5.92,2.43,2.96,1.19,5.18.5,6.36-2.37,1.2-2.91.06-6.32-2.91-6.78-4.22-.65-8.19-2.22-12.6-2.33-17.42-.42-32.52,14.69-32.21,30.25Zm210.89,68.01c0-1.13.18-2.3-.04-3.38-.44-2.14-.05-4.57-1.38-6.36-1.39-1.88-3.84-2.2-5.8-1.42-1.82.72-2.96,2.38-3.07,4.78-.28,5.99,1.23,12.1-3.23,17.66-4.77,5.95-10.7,9.16-17.94,9.8-12.47,1.1-24.33-11.88-22.05-25.29,1.43-8.38,6.03-14.12,13.94-17.23,5.44-2.14,10.88-1.7,16.24.22,2.85,1.02,5.14.29,6.73-2.06,1.35-1.99.21-5.58-1.9-7.01-3.08-2.1-6.93-2.63-10.23-3-2.85-.32-6.31.2-9.51.77-16.01,2.82-26.17,17.49-25.95,32.22.11,7.57,2.66,14.87,8.19,20.72,6.64,7.04,14.96,10.24,24.37,10.87,5.54.37,10.55-1.43,15.35-4.26,10.35-6.12,15.85-15.01,16.31-27.03Zm-211.9,36.76c12.57-.55,22.05-8.87,21.97-21.45-.08-12.73-8.59-20.84-23.27-21.18-8.16-.19-20.83,9.58-19.41,22.96,1.07,10.12,9.96,19.5,20.72,19.67ZM199.3,114.68c-10.91-.68-21.69,11.6-19.76,24.26,1.9,12.43,15.49,21.3,27.79,17.04,6.53-2.26,15.39-10.74,14.42-20.28-.35-3.47-3.14-5.31-6.47-4.31-3.1.93-3.61,3.11-3.83,5.82-.5,6.08-7.84,11.37-13.37,9.75-4.93-1.45-9.27-7.23-8.89-11.82.47-5.6,4.32-9.18,10.38-10.3,2.54-.47,5.78-.72,5.95-4.59.16-3.58-.86-6.15-6.23-5.56Zm-74.53,108.81c-.16,8.31,8.29,15.04,15.48,15.23,7.92.2,15.94-7.23,16.48-14.44.8-10.59-7.71-17.02-15-17.47-10.17-.63-17.1,7.53-16.95,16.68Zm156.38-60.69c10.6-.8,16.78-6.66,16.89-15.96.1-8.68-6.21-15.89-14.72-15.84-12.42.06-16.31,6.41-17.31,15.61-.88,8.1,7.46,16.19,15.14,16.2Z"/><path class="cls-2" d="m59.64,155.67c-.31-15.56,14.79-30.67,32.21-30.25,4.4.11,8.38,1.67,12.6,2.33,2.97.46,4.11,3.87,2.91,6.78-1.18,2.87-3.4,3.56-6.36,2.37-1.98-.8-4.5-.24-5.92-2.43-4.3,2.38-9.53.92-13.85,3.71-6.88,4.45-11.02,10.5-11.31,18.65-.36,10.17,7.04,19.84,16.85,22.17,15.11,3.6,29.86-10.36,26.47-25.4-.69-3.05.79-5.84,3.33-6.41,3.58-.81,6.02.84,6.85,4.37,3.58,15.15-7.08,32.16-22.16,36.68-10.39,3.12-19.73,1.4-27.91-4.35-8.75-6.15-13.78-15.19-13.7-28.22Z"/><path class="cls-2" d="m270.54,223.68c-.46,12.01-5.95,20.91-16.31,27.03-4.8,2.84-9.8,4.63-15.35,4.26-9.41-.63-17.72-3.83-24.37-10.87-5.52-5.85-8.08-13.15-8.19-20.72-.21-14.73,9.95-29.4,25.95-32.22,3.2-.56,6.66-1.08,9.51-.77,3.31.37,7.16.89,10.23,3,2.1,1.44,3.25,5.02,1.9,7.01-1.59,2.35-3.88,3.08-6.73,2.06-5.37-1.93-10.8-2.36-16.24-.22-7.9,3.11-12.51,8.85-13.94,17.23-2.28,13.41,9.58,26.39,22.05,25.29,7.24-.64,13.17-3.85,17.94-9.8,4.46-5.56,2.96-11.67,3.23-17.66.11-2.4,1.25-4.06,3.07-4.78,1.96-.77,4.41-.46,5.8,1.42,1.33,1.79.94,4.23,1.38,6.36.22,1.08.04,2.25.04,3.38Z"/><path class="cls-2" d="m58.63,260.43c-10.76-.16-19.65-9.55-20.72-19.67-1.41-13.38,11.25-23.15,19.41-22.96,14.68.34,23.19,8.45,23.27,21.18.08,12.58-9.39,20.9-21.97,21.45Zm-10.48-21.82c-.04,6.1,5.08,11.85,10.78,11.59,6.67-.29,11.25-4.93,11.49-11.02.22-5.59-5.37-11.14-11-11.25-6.36-.12-11.28,5.54-11.27,10.68Z"/><path class="cls-2" d="m199.3,114.68c5.36-.59,6.39,1.98,6.23,5.56-.17,3.87-3.41,4.12-5.95,4.59-6.07,1.13-9.91,4.71-10.38,10.3-.38,4.59,3.96,10.37,8.89,11.82,5.53,1.63,12.87-3.67,13.37-9.75.22-2.71.73-4.89,3.83-5.82,3.33-1,6.12.84,6.47,4.31.97,9.54-7.89,18.01-14.42,20.28-12.3,4.26-25.89-4.61-27.79-17.04-1.93-12.66,8.85-24.93,19.76-24.26Z"/><path class="cls-2" d="m124.77,223.48c-.14-9.15,6.78-17.32,16.95-16.68,7.29.45,15.8,6.88,15,17.47-.54,7.21-8.56,14.64-16.48,14.44-7.19-.18-15.63-6.92-15.48-15.23Zm21.68-.9c.05-3.09-2.34-5.44-5.58-5.49-2.71-.04-5.8,2.76-5.85,5.31-.05,2.44,3.35,6.08,5.69,6.08,2.79,0,5.69-2.98,5.74-5.9Z"/><path class="cls-2" d="m281.16,162.8c-7.67,0-16.02-8.1-15.14-16.2,1-9.21,4.89-15.55,17.31-15.61,8.51-.04,14.82,7.16,14.72,15.84-.11,9.3-6.28,15.16-16.89,15.96Zm.66-21.61c-2.64-.02-5.82,2.96-5.7,5.35.1,2.19,3.97,6.01,6.02,5.96,2.39-.07,5.31-3.05,5.32-5.44.01-3.8-1.95-5.84-5.63-5.87Z"/><path class="cls-1" d="m48.15,238.61c-.01-5.14,4.9-10.8,11.27-10.68,5.64.11,11.22,5.66,11,11.25-.24,6.09-4.83,10.73-11.49,11.02-5.7.25-10.82-5.5-10.78-11.59Z"/><path class="cls-1" d="m146.45,222.59c-.04,2.92-2.94,5.9-5.74,5.9-2.34,0-5.75-3.64-5.69-6.08.05-2.54,3.14-5.34,5.85-5.31,3.24.05,5.63,2.39,5.58,5.49Z"/><path class="cls-1" d="m281.81,141.19c3.68.03,5.64,2.07,5.63,5.87,0,2.39-2.92,5.37-5.32,5.44-2.05.06-5.92-3.77-6.02-5.96-.11-2.39,3.07-5.37,5.7-5.35Z"/></svg>