<?xml version="1.0" encoding="UTF-8"?><svg id="Laag_1" xmlns="http://www.w3.org/2000/svg" viewBox="0 0 136.9 187.38"><defs><style>.cls-1{fill:#f2b21f;}.cls-2{fill:#a56e18;}</style></defs><path class="cls-1" d="m118.42,18.85c0-.18-.04-.34-.21-.42-.42-.13-.42-.56-.63-.84,0-.18-.04-.33-.22-.42-2.8-3.94-6.24-7.26-10.17-10.03-5.78-4.07-12.3-6.37-19.31-6.95-3.96-.33-7.99-.28-11.92.6-4.05.91-7.9,2.32-11.56,4.36-5.58,3.12-10.12,7.31-13.72,12.57-3.09,4.53-5.14,9.51-6.25,14.85-.68,3.26-.77,6.6-.68,9.93.05,1.66.43,3.26.61,4.89.18,1.68.83,3.23,1.09,4.87,0,.34.15.61.36.86.87,2.35,1.7,4.7,2.98,6.89,1.99,3.4,4.27,6.55,7.08,9.32,1.2,1.19,2.53,2.23,3.88,3.26,2.87,2.21,5.97,4.01,9.34,5.32,3.79,1.48,7.66,2.49,11.75,2.81,2.74.22,5.43.09,8.13-.22.06.1.13.11.2,0,2.27-.22,4.5-.71,6.67-1.39,7.18-2.25,13.34-6.12,18.4-11.7l.16-.22c1.79-2,3.4-4.13,4.67-6.51.06-.07.11-.15.17-.22,1.73-3.21,3.2-6.51,4.05-10.09.39-1.67.58-3.39,1.06-5.04.18-.14.17-.28,0-.41-.24-.73.21-1.4.19-2.13-.07-2.38.05-4.76-.19-7.13.02-.02.07-.04.07-.06-.01-.05-.04-.1-.06-.15-.37-1.96-.74-3.91-1.11-5.87-.05-.15-.1-.29-.15-.44-.34-.43-.28-.99-.48-1.47-.05-.07-.1-.14-.16-.22-.02-.14-.04-.28-.05-.41l-.16-.22c-.02-.14-.04-.27-.05-.41-.06-.07-.11-.15-.17-.22-.86-2.62-2.26-4.98-3.62-7.36Z"/><path class="cls-2" d="m126.48,187.38c-.04-1-.91-1.4-1.48-2.01-1.23-1.33-1.97-2.79-2.03-4.69-.29-9.69-2.6-18.83-8.01-26.97-4.84-7.28-11.06-13.07-18.95-17.08-5.3-2.69-10.88-4.48-16.71-5.09-6-.63-12.08-.69-18.13-.4-6.62.32-13.03,1.82-19.04,4.64-4.15,1.95-8,4.45-11.42,7.54-4.86,4.38-8.93,9.4-11.79,15.3-2.44,5.02-4.13,10.28-4.74,15.89-.21,1.9-.17,3.77-.28,5.65-.18,2.94-1.34,5.26-4.14,6.56-.38.18-.87.2-1.07.67h-3.82c-1.73-1.05-3.46-2.06-4.32-4.07-.32-.75-.54-1.44-.56-2.27-.22-14.75,4.33-27.87,13.36-39.5,5.29-6.82,11.68-12.32,19.24-16.51,4-2.22,8.18-3.92,12.56-5.23,4.05-1.21,8.18-1.85,12.38-2.29,6.17-.64,12.34-.39,18.5-.22,4.26.12,8.53.73,12.73,1.82,2.67.69,5.26,1.54,7.85,2.43.7.24,1.39.72,2.2.2.18-.12.75-.02.79.1.85,2.31,3.27,2.39,4.96,3.38,4.15,2.42,7.92,5.27,11.5,8.45,6.03,5.35,10.7,11.7,14.3,18.86,2.8,5.55,4.56,11.43,5.55,17.58.48,2.99.75,5.98.95,8.97.25,3.72-1.2,6.55-4.87,7.94-.13.05-.21.22-.31.34h-5.21Z"/><path class="cls-2" d="m72.11,103.34c-17.84.08-29.05-5.01-38.3-14.43-5.56-5.66-9.73-12.42-11.53-20.12-4.13-17.7-.21-33.51,13.01-46.34,9.01-8.74,20.04-13.11,32.69-12.94,25.94.35,46.67,20.85,46.65,47.13-.03,25.53-21.04,46.85-42.52,46.69Zm-37.34-46.89c-.24,17.77,14.96,33.58,33.95,32.97,15.53-.5,33.68-13.64,31.67-36.5-1.19-13.53-13.18-31.13-36.57-29.16-14.48,1.22-29.14,14.18-29.05,32.69Z"/></svg>