<?xml version="1.0" encoding="UTF-8"?><svg id="Laag_1" xmlns="http://www.w3.org/2000/svg" viewBox="0 0 171.03 114.53"><defs><style>.cls-1{fill:#f2b21f;}.cls-2{fill:#a56e18;}</style></defs><path class="cls-1" d="m125.63,64.64c-1.34,0-2.13,0-2.91,0-37.31,0-74.61-.03-111.92.02-4.08,0-7.37-2.33-9.03-5.07-2.18-3.58-2.48-8.27-.12-12.38,2.16-3.77,5.64-5.69,9.9-5.7,19.94-.08,39.88-.04,59.82-.04,17.13,0,34.25,0,51.38,0,.78,0,1.57,0,2.97,0-1.93-1.89-3.51-3.41-5.07-4.96-5.63-5.62-11.42-11.11-16.83-16.94-3.17-3.42-4.15-8-2.01-12.94C103.35,3.06,108.33-.2,112.19,0c3.19.18,6.03,1.19,8.4,3.59,12.91,13.01,25.89,25.96,38.87,38.9,1.61,1.61,3.42,3.02,4.5,5.09,2.36,4.53,1.37,10.2-2.09,13.63-13.98,13.87-27.96,27.76-41.76,41.82-4.1,4.18-12.3,4.23-16.72-1.07-4.2-5.04-2.84-12.58,1-16.23,7.1-6.74,13.91-13.79,21.23-21.1Z"/><path class="cls-2" d="m131.41,73.09c-1.34,0-2.13,0-2.91,0-37.31,0-74.61-.03-111.92.02-4.08,0-7.37-2.33-9.03-5.07-2.18-3.58-2.48-8.27-.12-12.38,2.16-3.77,5.64-5.69,9.9-5.7,19.94-.08,39.88-.04,59.82-.04,17.13,0,34.25,0,51.38,0,.78,0,1.57,0,2.97,0-1.93-1.89-3.51-3.41-5.07-4.96-5.63-5.62-11.42-11.11-16.83-16.94-3.17-3.42-4.15-8-2.01-12.94,1.55-3.57,6.53-6.84,10.39-6.62,3.19.18,6.03,1.19,8.4,3.59,12.91,13.01,25.89,25.96,38.87,38.9,1.61,1.61,3.42,3.02,4.5,5.09,2.36,4.53,1.37,10.2-2.09,13.63-13.98,13.87-27.96,27.76-41.76,41.82-4.1,4.18-12.3,4.23-16.72-1.07-4.2-5.04-2.84-12.58,1-16.23,7.1-6.74,13.91-13.79,21.23-21.1Z"/></svg>