<?xml version="1.0" encoding="UTF-8"?><svg id="Laag_1" xmlns="http://www.w3.org/2000/svg" viewBox="0 0 236.29 242.42"><defs><style>.cls-1{fill:#f2b21f;}.cls-2{fill:#a56e18;}</style></defs><path class="cls-2" d="m204.45,15.5c4.08.04,6.93-2.07,9.67-4.9,3.12-3.22,5.78-6.96,9.77-9.29,3.99-2.34,8.15-1.51,10.68,2.24,2.86,4.24,2.14,7.33-2,10.66-4.21,3.39-7.64,7.59-11.29,11.54-1.2,1.3-.7,2.78-.7,4.17-.04,22.97-.05,45.93-.01,68.9.01,6.32-1.72,11.49-6.63,16.09-10.12,9.47-19.72,19.5-29.38,29.45-9.94,10.22-19.43,20.88-29.6,30.86-10.59,10.39-20.45,21.47-30.92,31.97-10.28,10.32-20.29,20.91-30.48,31.34-5.06,5.17-8.75,5.19-13.74.07-12-12.28-23.92-24.63-35.91-36.92-13.54-13.88-27.12-27.71-40.65-41.59-4.38-4.49-4.3-9.04,0-13.55,3.84-4.03,7.63-8.12,11.44-12.18,4.65-5.78,10.28-10.56,15.59-15.68,6.89-6.64,13.09-13.97,19.69-20.92,2.37-2.5,5.09-4.67,7.53-7.1,5.34-5.31,10.24-11.05,15.49-16.41,5.74-5.85,11.63-11.57,17.3-17.5,3.67-3.84,7.22-7.8,10.82-11.71,7.82-8.48,16.89-15.73,24.13-24.79,2.46-3.08,5.22-4.95,9.99-4.87,23.07.43,46.15.15,69.23.13ZM26.41,146.13c-2.76,1.02-3.53,4.13-5.88,5.63-.81.52-.6,1.62.06,2.08,2,1.4,2.53,3.83,4.16,5.49,19.98,20.42,39.97,40.82,59.85,61.34,1.89,1.95,2.86,1.52,4.27-.21,2.13-2.61,4.26-5.24,6.58-7.68,3.99-4.21,8.55-7.84,12.3-12.33,4.74-5.67,10.03-10.99,15.46-15.85,10.91-9.77,20.31-21,31-30.99,5.81-5.43,11.24-11.78,16.74-17.78,9.44-10.29,19.59-19.93,29.18-30.09,1.75-1.86,4.62-3.26,4.5-6.64-.18-5.33-.15-10.67-.21-16v-38.64c-.37-.27-.74-.54-1.11-.81-2.18,2.46-4.26,5.01-6.56,7.36-1.45,1.47-2.11,2.71-1.27,4.89,1.36,3.53,1.28,7.33,1,11.06-.93,12.47-11.34,21.99-23.99,21.45-13.82-.59-21.98-10.57-23.17-23.2-1.13-12.01,10.97-28.72,27.41-24.19,2.42.67,6.32,3,8.5-.3,2.03-3.09,4.56-5.71,7.19-8.6-.83-.2-1.2-.36-1.57-.36-16.96-.02-33.92.01-50.87-.05-2.09,0-3.51.84-4.85,2.28-4.33,4.7-8.72,9.39-13.26,13.84-8.73,8.55-17.19,17.34-25.7,26.1-16.83,17.32-33.7,34.6-50.44,52.01-6.46,6.72-13.54,12.85-19.32,20.21Zm146.01-73.58c2.82-.49,6.03-1.29,7.6-4.74.82-1.8,1.28-3.46-1.58-4.19-2.61-.66-4.05-2.86-5-5.28-.4-1.03-.63-1.97-2.09-1.88-2.8.17-6.22,4.55-6.08,7.91.15,3.46,3.99,8.23,7.14,8.18Z"/><path class="cls-1" d="m204.45,15.5c-23.08.03-46.16.3-69.23-.13-4.77-.09-7.53,1.79-9.99,4.87-7.24,9.06-16.31,16.31-24.13,24.79-3.6,3.91-7.15,7.87-10.82,11.71-5.66,5.93-11.56,11.65-17.3,17.5-5.25,5.35-10.16,11.1-15.49,16.41-2.44,2.43-5.16,4.6-7.53,7.1-6.6,6.94-12.8,14.28-19.69,20.92-5.31,5.12-10.94,9.9-15.59,15.68q-7.37-6.66-.73-13.58c21.33-22.3,42.66-44.6,64-66.9,12.93-13.52,25.88-27.02,38.82-40.53,2.18-2.27,4.69-4.31,6.49-6.85,3.03-4.28,6.91-5.23,11.95-5.17,21.23.26,42.47.15,63.71.06,2.61-.01,3.64.4,4.35,3.38.86,3.61-.33,7.31,1.18,10.74Z"/><path class="cls-1" d="m26.41,146.13c5.78-7.36,12.86-13.49,19.32-20.21,16.75-17.4,33.61-34.68,50.44-52.01,8.51-8.76,16.97-17.55,25.7-26.1,4.54-4.44,8.93-9.14,13.26-13.84,1.33-1.45,2.76-2.29,4.85-2.28,16.96.07,33.92.04,50.87.05.37,0,.74.16,1.57.36-2.63,2.89-5.16,5.51-7.19,8.6-2.17,3.3-6.08.96-8.5.3-16.44-4.53-28.53,12.18-27.41,24.19,1.19,12.63,9.35,22.61,23.17,23.2,12.65.54,23.06-8.98,23.99-21.45.28-3.74.36-7.53-1-11.06-.84-2.18-.18-3.41,1.27-4.89,2.3-2.34,4.39-4.89,6.56-7.36.37.27.74.54,1.11.81,0,12.88,0,25.76,0,38.64-8.46,9.02-17.17,17.82-25.32,27.11-15.09,17.21-30.95,33.71-45.96,50.97-4.28,4.93-9.08,9.38-12.71,15.1-2.25,3.55-6.46,6.57-9.77,9.88-6.14,6.15-11.78,12.72-17.72,19.04-3.58,3.81-3.79,3.85-7.51.12-19.68-19.72-39.35-39.45-59.03-59.17Zm38.25,11.43c2.91.62,4.76-1.38,6.65-3.32,12.88-13.17,25.77-26.31,38.63-39.5,7.73-7.93,15.44-15.87,23.09-23.89,3.72-3.9,3.54-8.47-.24-11.99-3.63-3.38-7.52-2.95-11.82,1.48-18.89,19.41-37.75,38.85-56.63,58.28-1.86,1.91-3.83,3.74-5.57,5.75-2.23,2.58-2.41,5.64-1.1,8.63,1.25,2.83,3.3,4.87,6.99,4.56Zm84.56-32.41c0-5.1-2.82-7.8-7.47-7.81-2.83,0-4.75,1.58-6.52,3.39-4.19,4.27-8.26,8.67-12.44,12.96-5.67,5.82-11.45,11.54-17.08,17.38-3.55,3.68-4.18,8-1.88,11.15,3.51,4.8,8.6,5.18,12.91.71,9.41-9.76,18.77-19.56,28-29.48,2.24-2.41,5.16-4.71,4.48-8.3Z"/><path class="cls-1" d="m172.42,72.55c-3.14.05-6.99-4.72-7.14-8.18-.14-3.36,3.27-7.74,6.08-7.91,1.46-.09,1.69.85,2.09,1.88.94,2.42,2.39,4.62,5,5.28,2.86.73,2.4,2.39,1.58,4.19-1.58,3.45-4.78,4.26-7.6,4.74Z"/><path class="cls-2" d="m64.66,157.56c-3.69.32-5.75-1.72-6.99-4.56-1.32-2.99-1.13-6.05,1.1-8.63,1.74-2.02,3.71-3.84,5.57-5.75,18.87-19.43,37.74-38.87,56.63-58.28,4.3-4.42,8.19-4.85,11.82-1.48,3.78,3.52,3.96,8.09.24,11.99-7.64,8.01-15.36,15.96-23.09,23.89-12.86,13.18-25.75,26.33-38.63,39.5-1.89,1.93-3.73,3.94-6.65,3.32Z"/><path class="cls-2" d="m149.22,125.15c.69,3.59-2.23,5.9-4.48,8.3-9.24,9.92-18.6,19.72-28,29.48-4.3,4.46-9.4,4.09-12.91-.71-2.3-3.15-1.67-7.47,1.88-11.15,5.64-5.85,11.41-11.57,17.08-17.38,4.18-4.29,8.24-8.69,12.44-12.96,1.77-1.81,3.69-3.4,6.52-3.39,4.65.02,7.46,2.72,7.47,7.81Z"/></svg>