<?xml version="1.0" encoding="UTF-8"?><svg id="Laag_1" xmlns="http://www.w3.org/2000/svg" viewBox="0 0 176.48 194.8"><defs><style>.cls-1{fill:#fab94a;}.cls-2{fill:#e84038;}.cls-3{fill:#dc2319;}.cls-4{fill:#f4994a;}.cls-5{fill:#ef7842;}</style></defs><path class="cls-2" d="m139.23,0c1.75.69,2.17,2.08,2.32,3.83.29,3.28.8,6.54,1.24,9.81.45,3.33.99,6.65,1.41,9.98.43,3.4.72,6.81,1.15,10.2.12.99.63,1.56,1.88,1.54,2.75-.04,5.51-.24,8.27.35,3.42.73,5.84,2.61,7.51,5.62,1.45,2.59,1.66,5.42,1.68,8.29.02,3.1.05,6.2.07,9.3-2.79,0-5.58,0-8.38,0,5.2,2.2,8.26,5.98,8.28,11.51.1,37.62.07,75.24.02,112.86,0,2.9-1.16,5.47-3.17,7.71-1.74,1.93-4.03,2.73-6.28,3.7-5.76.02-11.53.05-17.29.06-10.9,0-21.8.01-32.7-.02-4.77-.02-9.72-4.12-10.9-8.77-.48-1.88-.24-3.73-.24-5.6.01-36.31.07-72.62-.06-108.92-.02-4.99,3.05-10.62,8.33-12.17,1.15-.34,2.1-1.33,3.43-.68,3.29,0,6.59-.08,9.88.03,1.53.05,1.93-.45,1.92-1.94-.07-7.09-.03-14.18-.02-21.28,2.02-.03,4.04-.08,6.06-.07.74,0,1.06-.14,1.18-1.02.83-6.4,1.85-12.78,2.58-19.19.45-3.94,1.08-7.86,1.51-11.8.17-1.56.87-2.49,1.97-3.34h8.37Zm-9.9,47.04c0,3.29.04,6.59-.02,9.88-.02,1.17.25,1.73,1.57,1.7,2.91-.08,5.83-.06,8.74,0,1.14.02,1.55-.34,1.55-1.52-.04-6.72-.05-13.43,0-20.15,0-1.28-.46-1.63-1.67-1.6-2.85.07-5.7.07-8.55,0-1.23-.03-1.67.35-1.65,1.62.07,3.36.02,6.72.02,10.07Z"/><path class="cls-1" d="m45.66,0c1.44.97,1.71,2.52,1.92,4.05.77,5.55,1.51,11.1,2.23,16.65.56,4.32,1.09,8.65,1.56,12.99.06.59.32,1.07.43,1.61-1.54.03-3.08.05-4.62.08-3.93,0-7.86,0-11.79,0-1.55-.03-3.1-.07-4.64-.1.79-6.07,1.58-12.14,2.37-18.2.62-4.77,1.35-9.52,1.83-14.3.15-1.47,1.2-1.93,1.97-2.77h8.75Z"/><path class="cls-1" d="m60.89,194.7c-12.8.02-25.6.04-38.39.06-3.8,0-7.6-.04-11.41,0C5.27,194.8,0,188.58,0,183.46c.03-36.88.03-73.75.06-110.63,0-2.05-.21-4.07.6-6.12,2.03-5.11,5.96-7.41,11.12-8.15.37.48.9.39,1.4.39,3.48-.01,6.97-.03,10.45-.05,3.9,0,7.81,0,11.71,0,3.96,0,7.92,0,11.87,0,2.82.01,5.65.07,8.47,0,1.09-.02,2.25.4,3.28-.33,1.27.13,2.53.26,3.8.38.03.43.29.61.68.79,4.87,2.34,7.29,6.28,7.3,11.64.02,37.01.01,74.02,0,111.03,0,.69-.06,1.39-.19,2.06-1.1,5.4-4.26,8.87-9.66,10.21Z"/><path class="cls-4" d="m60.89,194.7c5.4-1.34,8.56-4.8,9.66-10.21.14-.67.19-1.38.19-2.06,0-37.01.02-74.02,0-111.03,0-5.36-2.42-9.3-7.3-11.64-.39-.18-.65-.36-.68-.79,2.64-.02,5.28-.04,7.92-.06,6.36.28,10.74,4.13,11.54,10.22.18,1.4.2,2.82.2,4.23.01,35.41.03,70.83-.03,106.24,0,2.6,0,5.24-.97,7.79-1.52,4.01-5.63,7.23-9.9,7.33-3.54.09-7.09,0-10.64-.02Z"/><path class="cls-3" d="m155.23,194.7c2.25-.96,4.54-1.76,6.28-3.7,2.01-2.23,3.17-4.8,3.17-7.71.05-37.62.08-75.24-.02-112.86-.01-5.52-3.08-9.3-8.28-11.51,2.79,0,5.58,0,8.38,0,6.51.08,11.23,5.35,11.47,11.1.36,8.8.18,17.58.2,26.37.07,27.95.06,55.9-.01,83.85,0,3.51-.22,7.09-2.59,10.06-2.01,2.51-4.66,4.09-7.77,4.34-3.59.29-7.22.05-10.83.04Z"/><path class="cls-5" d="m35.34,58.9c-3.9,0-7.81,0-11.71,0-.01-7.84-.03-15.67-.04-23.51,2.38-.04,4.76-.07,7.14-.11,1.55.03,3.1.07,4.64.1-.01,7.84-.03,15.68-.04,23.52Z"/><path class="cls-5" d="m58.97,58.58c-1.03.73-2.19.31-3.28.33-2.82.06-5.65,0-8.47,0-.01-7.84-.03-15.68-.04-23.53,1.54-.03,3.08-.05,4.62-.08,2.4.04,4.8.08,7.19.13,0,7.72-.01,15.44-.02,23.16Z"/><path class="cls-4" d="m23.59,35.39c.01,7.84.03,15.67.04,23.51-3.48.02-6.97.04-10.45.05-.5,0-1.03.09-1.4-.39.02-4.18.03-8.36.07-12.54.05-4.62,4.41-9.6,8.98-10.26.92-.13,1.79-.65,2.76-.36Z"/><path class="cls-2" d="m58.97,58.58c0-7.72.01-15.44.02-23.16,6.19.04,10.84,4.59,11.42,10.24.45,4.42.06,8.84.29,13.25-2.64.02-5.28.04-7.92.06-1.27-.13-2.53-.26-3.8-.38Z"/><path class="cls-5" d="m117.57,35.41c0,7.09-.04,14.19.02,21.28.01,1.49-.39,1.99-1.92,1.94-3.29-.11-6.58-.03-9.88-.03.02-3.86.12-7.73.03-11.59-.15-6.23,5.48-11.85,11.74-11.59Z"/><path class="cls-5" d="m129.33,47.04c0-3.36.05-6.72-.02-10.07-.03-1.26.42-1.65,1.65-1.62,2.85.07,5.7.07,8.55,0,1.21-.03,1.68.31,1.67,1.6-.05,6.72-.05,13.43,0,20.15,0,1.18-.4,1.54-1.55,1.52-2.91-.06-5.83-.08-8.74,0-1.32.04-1.59-.52-1.57-1.7.06-3.29.02-6.59.02-9.88Z"/><path class="cls-4" d="m47.18,35.38c.01,7.84.03,15.69.04,23.53-3.96,0-7.91,0-11.87,0,.01-7.84.03-15.68.04-23.52,3.93,0,7.86,0,11.79,0Z"/></svg>