<?xml version="1.0" encoding="UTF-8"?><svg id="Laag_1" xmlns="http://www.w3.org/2000/svg" viewBox="0 0 222.33 248.9"><defs><style>.cls-1{fill:#f2b21f;}.cls-2{fill:#a56e18;}</style></defs><path class="cls-1" d="m88.48,156.98c.21-.46.23-.94.16-1.42-.03-.22.16-.44-.17-.66-.4-.27.55-.4.17-.76,0-.26.03-.53.03-.79,0-43.52,0-87.03,0-130.55,0-.26-.02-.53-.03-.79,0-1.82.19-3.63.51-5.42.25-1.41.49-2.89,1.18-4.1,1.49-2.62,3.01-5.22,5.46-7.2,1.99-1.61,4.09-2.89,6.46-3.73,2.1-.75,4.28-1.09,6.51-1.09.63.05,1.27.11,1.9.16,3.03.27,5.86,1.12,8.51,2.69,3.79,2.25,6.49,5.42,8.23,9.4.77,1.75,1.36,3.61,1.47,5.56,0,.14.12.28.18.42v.15c-.16.69.14,1.34.14,2.02-.02,21.61-.01,43.23-.01,64.84,0,.34.02.68.03,1.03,0,.07.01.15.02.22l.11-.06c1.49-.79,2.98-1.58,4.47-2.37,1.89-1.01,3.93-1.62,6.01-2.03,1.12-.22,2.2-.62,3.37-.7,1.34-.09,2.68-.31,4.02-.42l.46.02c1.2.2,2.39.5,3.64.32.39-.06.78.31,1.19.47,1.11.42,2.28.58,3.41.77,1.7.28,2.99,1.34,4.54,1.86,1.56.53,2.71,1.7,4.15,2.4.03.08.06.17.18.11,1.61,1.07,3.21,2.13,4.82,3.2,1.88,1.25,3.77,2.5,5.65,3.76,1.92,1.28,3.84,2.57,5.76,3.85,2.62,1.75,5.28,3.44,7.83,5.29.14.1.31.15.47.22.58.06.71.79,1.28.87.83.46,1.57,1.05,2.44,1.48.68.34,1.22,1.08,1.97,1.45.58.06.71.79,1.28.87.82.44,1.45,1.17,2.4,1.44.25.07.5.52.82.73,1.4.92,2.77,1.89,4.21,2.76.77.47,1.45,1.05,2.18,1.56.06.04.14.07.2.11,2.71,1.65,5.83,3.62,8.56,7.09,2.16,2.74,3.7,5.76,4.62,9.19.81,3,1.06,5.98,1.05,9.04-.02,17.8,0,35.6-.03,53.4,0,2.68-.2,5.38-.84,7.98-.51,2.09-.79,4.24-1.54,6.26-.55,1.49-1.18,2.96-1.59,4.5-.13.07-.14.18-.14.31-1.15,2.23-2.19,4.51-3.51,6.65-.07.11-.15.22-.22.33-1.38,2.15-2.94,4.16-4.53,6.15l-.32.34-1.4,1.52c-.54.54-1.07,1.08-1.61,1.61-.61.46-1.16.99-1.69,1.55l-.34.3c-1.23,1.1-2.66,1.94-3.93,2.97-.12-.06-.14.03-.17.1-.1.07-.21.15-.31.22-.12-.06-.14.03-.17.11l-.3.21c-.12-.06-.14.03-.18.11l-.29.2c-.12-.05-.15.02-.15.12-.1.2-.41.07-.48.31-.22,0-.41.07-.48.31-.34.04-.52.33-.79.48-.22,0-.4.07-.48.3-.25.04-.47.13-.63.33-.29.06-.56.16-.76.39-.54.29-1.08.58-1.62.87-.26.01-.52.02-.63.31-.21.08-.42.15-.63.23-.12-.07-.14.01-.15.1-.42.18-.85.35-1.27.53-.12-.07-.14.01-.15.1-.05.02-.11.03-.16.05-.16.08-.32.17-.48.25-.15.07-.31.13-.46.2-.49.18-.97.35-1.46.53-1.94.57-3.88,1.13-5.83,1.7-.37.09-.74.18-1.11.26-.79.07-1.58.14-2.37.2-.26.07-.53.14-.79.21-.42.04-.84.07-1.26.11-.25-.12-.4.2-.63.16-4.82.36-9.65.29-14.48.29-12.81,0-25.61.04-38.42-.03-2.41-.01-4.83-.11-7.22-.63-1.34-.29-2.73-.31-4.11-.45-.15-.25-.42-.15-.63-.2-.57-.2-1.14-.36-1.74-.39-.19-.13-.37-.26-.61-.25-.43-.09-.86-.17-1.29-.26-.2-.29-.57-.06-.79-.28-.73-.2-1.46-.39-2.19-.59-.75-.28-1.49-.55-2.24-.83-.09-.05-.17-.05-.2.08h0c-.81-.54-1.74-.75-2.64-1.07-1.02-.52-2.03-1.08-3.13-1.44-.23-.18-.48-.3-.77-.32-.6-.31-1.2-.62-1.8-.94-.16-.19-.38-.29-.62-.36-1.9-1.14-3.85-2.19-5.68-3.44-.63-.55-1.31-1.02-2.04-1.43-1-.79-2.01-1.58-3.01-2.37-.28-.33-.6-.61-.97-.83-1.85-1.68-3.7-3.36-5.55-5.04-.28-.35-.59-.67-.97-.91-.13-.23-.32-.4-.55-.51-.11-.1-.22-.2-.33-.3-.13-.21-.3-.37-.52-.48-.12-.2-.27-.35-.48-.45-2.12-2.07-4.24-4.12-6.48-6.06-.62-.68-1.3-1.3-2.03-1.87-.22-.32-.51-.57-.83-.78h0c-.59-.64-1.23-1.23-1.91-1.78-.37-.53-1.07-.71-1.4-1.3-1.38-1.43-2.87-2.75-4.35-4.08-.7-.66-1.41-1.31-2.11-1.97-.18-.16-.36-.33-.53-.49,0,0-.02-.02-.02-.02-.25-.23-.5-.46-.74-.69-.68-.72-1.39-1.42-2.17-2.04-.23-.32-.52-.58-.84-.8-.23-.3-.49-.56-.81-.76-.36-.44-.78-.81-1.24-1.15l-3.13-2.93c-2.08-2.03-4.2-4.02-6.39-5.94-.47-.51-.92-1.05-1.55-1.39-.33-.42-.7-.79-1.12-1.1-.05-.05-.11-.1-.16-.16-.79-.74-1.58-1.48-2.37-2.21-.23-.36-.59-.58-.94-.81-1.41-1.56-3.01-2.92-4.57-4.33-.48-.45-.97-.9-1.45-1.35-.18-.19-.35-.39-.53-.57-1.32-1.24-2.68-2.43-3.96-3.71-1.3-1.3-2.12-2.82-2.01-4.76.08-1.36,0-2.73,0-4.1.23-2.08.69-4.09,1.37-6.09.54-1.59,1.46-2.95,2.16-4.44.11-.17.23-.35.34-.52.59-.74,1.18-1.48,1.77-2.22.03-.04.06-.08.1-.13,2.21-2.26,4.74-4.07,7.66-5.31.85-.36,1.81-.43,2.6-.95.39.1.69-.16,1.02-.27,1.35-.18,2.69-.35,4.04-.53.42,0,.84,0,1.27,0,.64-.04,1.25.3,1.9.15l.47.17c.31.03.62.06.93.09.48.15.96.29,1.43.44,1.41.55,2.89.95,4.26,1.61.14.13.29.24.49.25.06.06.11.11.17.17,0,.09.02.17.14.1.16.07.33.14.49.21,0,.1.03.16.15.13.05.01.1.03.15.04.03.08.06.16.16.08.21.08.42.16.63.24.74.4,1.48.8,2.22,1.2l.8.37c0,.09.01.18.14.1.21.08.42.16.63.23.74.4,1.48.8,2.22,1.2.27.12.53.24.8.37,0,.09.01.18.14.1.21.08.42.16.63.23.74.4,1.48.8,2.22,1.2.27.12.53.24.8.37,0,.09.01.18.14.1.21.08.42.16.63.23.74.4,1.48.8,2.22,1.2.27.12.53.24.8.37,0,.09.01.18.14.1.21.08.42.16.63.23.74.4,1.48.8,2.22,1.2.27.12.53.24.8.37,0,.09.01.18.14.1.21.08.42.16.63.23.74.4,1.48.8,2.22,1.2.27.12.53.24.8.37,0,.09.01.18.14.1.15.04.3.09.45.13.74.37,1.48.75,2.21,1.12v.05s.04.03.04.03c0,.1.02.17.15.11.27.12.54.24.81.36,0,.09.01.18.14.1.66.29,1.32.58,1.99.88.03.24.2.28.4.28h0c0,.1.02.18.15.11.26.15.49.34.8.37,0,.1.04.16.15.13,1,.38,2.04.56,3.12.51"/><path class="cls-1" d="m17.78,162.51c0,1.37.08,2.74,0,4.1-.11,1.94.71,3.46,2.01,4.76,1.28,1.28,2.64,2.47,3.96,3.71.19.18.36.38.53.57-1.15.54-1.78-.42-2.42-.99-.84-.75-1.57-1.69-2.42-2.37-1.34-1.08-1.33-2.79-2.32-4-.4-.49,0-1.35-.09-2.05-.11-.88,0-1.79-.04-2.68-.03-.6.17-.96.79-1.04Z"/><path class="cls-1" d="m36.44,187c2.19,1.92,4.31,3.91,6.39,5.94-.48.6-.71.59-1.32.04-1.44-1.31-2.77-2.74-4.29-3.97-.14-.11-.31-.29-.46-.28-.89.06-.92-.79-1.32-1.23-.17-.19-.09-.4.2-.44.26-.03.52-.04.78-.06Z"/><path class="cls-1" d="m64.95,213.58c2.24,1.94,4.36,3.99,6.48,6.06-.77.48-1.29.06-1.82-.46-1.16-1.14-2.35-2.24-3.52-3.37-.29-.28-.65-.56-1.02-.55-.82,0-.73-.55-.82-1.06-.11-.63.46-.41.7-.62Z"/><path class="cls-1" d="m25.73,176.99c1.55,1.41,3.16,2.77,4.57,4.33,0,.18,0,.37,0,.55-.02.45-.25.51-.55.24-.56-.5-1-1.14-1.85-1.21-.28-.02-.27-.34-.29-.58-.06-.69-.27-1.19-1.12-1.22-.53-.02-.92-.32-.6-.96.12-.24.08-.38-.14-.52-.28-.19-.08-.42-.01-.63Z"/><path class="cls-1" d="m74.28,222.29c1.85,1.68,3.7,3.36,5.55,5.04-.23.63-.51.68-.87.08-.11-.18-.25-.29-.49-.35-.88-.19-1.43-.92-2.04-1.48-.56-.5-1.1-1.06-1.62-1.62-.4-.43-.95-.93-.54-1.68Z"/><path class="cls-1" d="m54.44,203.77c1.48,1.33,2.97,2.65,4.35,4.08,0,.1,0,.21-.02.31-.05.23.14.59-.22.67-.3.06-.43-.23-.58-.44-.09-.13-.18-.27-.31-.35-.74-.47-1.53-.88-1.8-1.83-.11-.4-.46-.49-.87-.5-.7-.02-.94-.47-.56-1.02.19-.27.3-.4-.07-.59-.24-.12-.06-.24.08-.32Z"/><path class="cls-1" d="m85.86,231.96c1.83,1.25,3.78,2.31,5.68,3.44-.57.74-1.26.76-1.76.04-.22-.32-.4-.69-.89-.64-.05,0-.14-.03-.14-.05-.14-.93-.85-.6-1.42-.72-.62-.13-.91-.83-1.59-1.06-.86-.28-.06-.68.12-1.02Z"/><path class="cls-1" d="m94.72,237.02c1.1.36,2.1.92,3.13,1.44-.07.86-.14.9-.87.52-.69-.36-1.37-.75-2.09-1.03-.66-.26-.62-.53-.17-.93Z"/><path class="cls-1" d="m80.8,228.16c1,.79,2.01,1.58,3.01,2.37-.44.16-.82.41-1.24-.19-.22-.32-.84-.35-1.26-.55-.89-.43-1.01-.84-.52-1.64Z"/><path class="cls-1" d="m31.24,182.14c.79.74,1.58,1.48,2.37,2.21-1.59.25-2.34-.45-2.37-2.21Z"/><path class="cls-1" d="m100.69,239.45c.75.28,1.49.55,2.24.83-.05.29.07.67-.3.82-.36.15-.56-.08-.75-.37-.17-.26-.48-.3-.76-.32-.93-.06-.93-.05-.64-.89,0,0,0,0,0,0,.07-.03.13-.05.2-.08Z"/><path class="cls-1" d="m204.58,229.27c.54-.54,1.07-1.08,1.61-1.61,0,.05.02.1.03.15.02.32.57.46.37.79-.27.44-.66.79-1.12,1.06-.5.3-.57-.33-.89-.39Z"/><path class="cls-1" d="m147.66,81.38l-.46-.02c-.26-.48-.82-.42-1.22-.66-.13-.08-.31-.11-.27-.32.04-.17.2-.14.33-.14.66,0,1.31,0,1.97,0,.13,0,.28-.03.35.12.09.2-.09.28-.22.35-.26.16-.47.34-.48.67Z"/><path class="cls-1" d="m60.19,209.15c.68.55,1.32,1.14,1.91,1.78-1.26.2-2.08-.36-2.15-1.45-.01-.2.08-.28.24-.34Z"/><path class="cls-1" d="m92.15,235.77c.6.31,1.2.62,1.8.94-.43.43-1.7.4-2.03-.08-.23-.34.29-.53.23-.86Z"/><path class="cls-1" d="m109.55,242.05c.21.05.48-.04.63.2-.12.31.39.74-.04.9-.47.18-1.03.1-1.52-.13-.14-.07-.18-.19-.13-.32.05-.16.18-.24.35-.27.28-.05.67.11.71-.38Z"/><path class="cls-1" d="m186.41,240.44c.49-.18.97-.35,1.46-.53,0,.15-.02.32.13.42.19.14.42.27.2.55-.18.23-.42.35-.68.23-.39-.18-.85-.27-1.1-.67Z"/><path class="cls-1" d="m196.26,108.29c-.57-.07-.7-.8-1.28-.87.23-.8.74-.29,1.02-.13.31.18.8.51.26,1Z"/><path class="cls-1" d="m190.57,104.49c-.57-.07-.7-.8-1.28-.87.23-.8.74-.29,1.02-.13.31.18.8.51.26,1Z"/><path class="cls-1" d="m40.37,141.33c.66-.41,1.25-.54,1.88-.47.16.02.32.09.29.29-.02.17-.19.17-.31.15-.57-.06-1.12.34-1.86.03Z"/><path class="cls-1" d="m81.26,157.78c.19.34.13.6.11.85-.02.24-.18.37-.42.38-.17,0-.38.06-.47-.16-.08-.21.08-.34.21-.47.17-.19.35-.37.56-.61Z"/><path class="cls-1" d="m33.77,184.51c.43.31.8.69,1.12,1.1-.89.28-1.33-.15-1.12-1.1Z"/><path class="cls-1" d="m110.66.61c-.63-.05-1.27-.11-1.9-.16.69-.66,1.51-.6,1.9.16Z"/><path class="cls-1" d="m40.1,142.08c-.42,0-.84,0-1.27,0,.06-.25-.15-.7.23-.71.44-.01.94.12,1.04.71Z"/><path class="cls-1" d="m34.79,142.6c-.34.11-.63.36-1.02.27.11-.37-.48-.81-.16-.98.43-.24.63.42.97.61.07.04.14.07.21.11Z"/><path class="cls-1" d="m179.47,242.41c.37-.09.74-.18,1.11-.26,0,.34.03.71-.46.75-.36.03-.62-.08-.65-.49Z"/><path class="cls-1" d="m176.31,242.82c.26-.07.53-.14.79-.21,0,.08,0,.16,0,.24-.01.34,0,.8-.43.79-.49-.01-.32-.5-.36-.82Z"/><path class="cls-1" d="m222.33,195.8c-.03.25-.16.41-.4.39-.29-.02-.37-.25-.37-.5,0-.18,0-.4.26-.38.29.02.44.23.51.49Z"/><path class="cls-1" d="m45.96,195.87c.46.33.88.71,1.24,1.15-.67.13-1.11-.28-1.24-1.15Z"/><path class="cls-1" d="m207.59,226.13l.32-.34c.21.13.55.16.48.52-.05.22-.14.56-.39.52-.32-.04-.26-.46-.41-.69Z"/><path class="cls-1" d="m88.64,155.55c.07.49.05.97-.16,1.42"/><path class="cls-1" d="m105.12,240.87c.22.22.6-.01.79.28-.04.41-.29.56-.65.44-.45-.14-.15-.47-.14-.72Z"/><path class="cls-1" d="m62.09,210.93c.32.22.6.47.83.78-.24.06-.42.46-.68.26-.32-.26-.09-.69-.15-1.04Z"/><path class="cls-1" d="m51.03,200.6c.25.23.5.46.74.69-.2.03-.4.09-.61.09-.2,0-.33-.17-.4-.33-.11-.25.02-.39.26-.45Z"/><path class="cls-1" d="m107.2,241.4c.24,0,.42.13.61.25,0,.36-.12.69-.52.57-.56-.16-.01-.55-.09-.83Z"/><path class="cls-1" d="m47.93,141.95c.16,0,.36.02.35.21-.02.35-.37.29-.59.38-.17.06-.31-.05-.28-.24.04-.29.27-.34.52-.34Z"/><path class="cls-1" d="m191.18,238.45c.12-.3.38-.3.63-.31,0,.08.02.16,0,.23-.06.22.17.6-.2.63-.26.03-.41-.27-.43-.55Z"/><path class="cls-1" d="m72.76,220.87c.24.11.42.28.55.51-.1.02-.21.04-.3.08-.2.07-.45.17-.57-.06-.14-.28.09-.42.32-.53Z"/><path class="cls-1" d="m171.56,243.96c.42-.15.71-.16,1.1,0-.36.41-.66.43-1.1,0Z"/><path class="cls-1" d="m48.02,197.77c.33.22.61.48.84.8-.72.24-.81.15-.84-.8Z"/><path class="cls-1" d="m74.74,86.69c0-.26.06-.47.38-.43"/><path class="cls-1" d="m112.41,243.43c-.37.1-.64.21-.87-.04-.03-.03.01-.16.06-.2.3-.24.52-.07.81.24Z"/><path class="cls-1" d="m202.55,231.11l.34-.3c.31.12.42.34.15.56-.27.22-.39-.06-.49-.26Z"/><path class="cls-1" d="m21.64,151.47c-.11.17-.23.35-.34.52-.07-.27-.38-.57-.01-.8.18-.11.3.1.35.28Z"/><path class="cls-1" d="m23.51,149.12s-.06.08-.1.13c-.22-.04-.48-.06-.49-.36,0-.07.11-.21.17-.21.31-.03.3.28.42.45Z"/><path class="cls-1" d="m193.43,237.28c.2-.23.47-.33.76-.39-.25.25.19.46.03.76-.23-.22-.45-.46-.79-.37Z"/><path class="cls-1" d="m194.82,236.56c.08-.23.26-.3.48-.3-.06.2.3.44-.02.59-.22.1-.36-.1-.46-.28Z"/><path class="cls-1" d="m49.59,144.78c-.2-.02-.35-.12-.49-.25"/><path class="cls-1" d="m51.79,201.31c.18.16.36.33.53.49-.07.15-.19.3-.35.21-.29-.15-.12-.47-.18-.7Z"/><path class="cls-1" d="m86.92,43.93c.06.26.22.52.03.83-.28-.3-.19-.57-.03-.83Z"/><path class="cls-1" d="m115.08,243.5c0,.13-.02.27-.18.3-.16.03-.25-.06-.25-.2,0-.17.08-.3.27-.31.14,0,.14.12.17.22Z"/><path class="cls-1" d="m174.42,243.09c.23.04.38-.28.63-.16,0,.18.01.39-.24.43-.21.04-.36-.04-.39-.27Z"/><path class="cls-1" d="m188.33,239.72c.16-.08.32-.17.48-.25-.03.2.1.49-.23.55-.19.03-.23-.14-.25-.3Z"/><path class="cls-1" d="m216.18,212.66c0-.12.01-.24.14-.31.2.03.4.11.29.33-.11.22-.29.15-.43-.03Z"/><path class="cls-1" d="m52.07,143.88c.12.02.18.1.17.21-.01.15-.11.22-.26.18-.12-.03-.15-.12-.13-.24.02-.12.11-.16.22-.16Z"/><path class="cls-1" d="m71.91,220.08c.22.11.39.27.52.48-.5.19-.76.13-.52-.48Z"/><path class="cls-1" d="m104.11,241.56c-.05.04-.12.14-.21.16-.11.03-.18-.07-.18-.18,0-.11.08-.19.19-.19.11,0,.19.06.19.22Z"/><path class="cls-1" d="m196.09,235.77c.07-.24.25-.31.48-.31-.02.32-.02.67-.48.31Z"/><path class="cls-1" d="m42.47,142.39l-.47-.17c.03-.13.08-.27.24-.25.27.03.22.25.23.42Z"/><path class="cls-1" d="m179.26,243.47c-.14.01-.21-.04-.18-.12.03-.08.09-.18.17-.21.11-.05.2.03.17.15-.02.08-.12.14-.16.19Z"/><path class="cls-1" d="m63.36,149.54c.1.09.19.14.23.22.05.1.02.22-.12.19-.08-.02-.16-.11-.21-.19-.02-.03.05-.11.1-.21Z"/><path class="cls-1" d="m67.15,151.44c.1.09.19.14.23.22.05.1.02.22-.12.19-.08-.02-.16-.11-.21-.19-.02-.03.05-.11.1-.21Z"/><path class="cls-1" d="m70.95,153.34c.1.09.19.14.23.22.05.1.02.22-.12.19-.08-.02-.16-.11-.21-.19-.02-.03.05-.11.1-.21Z"/><path class="cls-1" d="m59.87,147.95c-.11.05-.19.11-.22.1-.08-.05-.17-.13-.19-.21-.03-.14.09-.17.19-.12.08.04.13.13.22.23Z"/><path class="cls-1" d="m212.44,219.64c.07-.11.15-.22.22-.33.12.03.32.03.26.2-.08.21-.31.11-.48.13Z"/><path class="cls-1" d="m74.82,155.25c.07.1.16.17.17.25.03.14-.09.17-.19.12-.07-.04-.12-.14-.15-.23,0-.02.09-.08.16-.15Z"/><path class="cls-1" d="m56.08,146.05c-.1.05-.19.12-.22.1-.08-.05-.17-.12-.19-.2-.03-.14.09-.17.19-.12.08.04.13.13.22.23Z"/><path class="cls-1" d="m37.62,141.12s-.08-.07-.13-.11c.05-.05.1-.13.15-.13.05,0,.15.06.16.11.02.08-.04.14-.18.14Z"/><path class="cls-1" d="m99.55,239.58c-.09.06-.14.12-.19.12-.1,0-.2-.04-.17-.16.01-.04.11-.09.17-.08.05,0,.1.07.19.13Z"/><path class="cls-1" d="m79.81,159.97c-.2,0-.37-.05-.4-.28.22-.03.37.04.4.28Z"/><path class="cls-1" d="m50.86,145.52c-.11.08-.14,0-.16-.08.15-.17.14,0,.16.08Z"/><path class="cls-1" d="m129.33,86.88l-.11.06c0-.07-.01-.15-.02-.22.04.05.09.1.13.15Z"/><path class="cls-1" d="m54.65,147.42c-.13.08-.14,0-.14-.1.05.03.09.07.14.1Z"/><path class="cls-1" d="m197.05,235.15c0-.1.03-.17.15-.12-.05.04-.1.08-.15.12Z"/><path class="cls-1" d="m190.4,238.78c.01-.09.03-.18.15-.1-.05.03-.1.07-.15.1Z"/><path class="cls-1" d="m188.97,239.42c.01-.09.03-.18.15-.1-.05.03-.1.07-.15.1Z"/><path class="cls-1" d="m197.49,234.83c.03-.08.06-.17.18-.11l-.18.11Z"/><path class="cls-1" d="m197.97,234.51c.03-.08.05-.17.17-.11l-.17.11Z"/><path class="cls-1" d="m69.83,155.02c-.13.08-.14,0-.14-.1.05.03.09.07.14.1Z"/><path class="cls-1" d="m50.54,145.4c-.11.03-.15-.03-.15-.13.05.04.1.09.15.13Z"/><path class="cls-1" d="m49.9,145.05c-.12.07-.14,0-.14-.1.05.03.09.07.14.1Z"/><path class="cls-1" d="m129.05,18.83v-.15s.03.07.04.11c0,.01-.03.03-.04.05Z"/><path class="cls-1" d="m73.63,156.92c-.13.08-.14,0-.14-.1.05.03.09.07.14.1Z"/><path class="cls-1" d="m76.48,158.35c-.12.07-.14-.01-.15-.11.05.04.1.07.15.11Z"/><path class="cls-1" d="m77.43,158.82c-.13.08-.14,0-.14-.1.05.03.09.07.14.1Z"/><path class="cls-1" d="m198.45,234.19c.03-.08.05-.17.17-.1l-.17.1Z"/><path class="cls-1" d="m164.76,87.3c-.12.06-.14-.03-.18-.11.06.04.12.07.18.11Z"/><path class="cls-1" d="m66.04,153.12c-.13.08-.14,0-.14-.1.05.03.09.07.14.1Z"/><path class="cls-1" d="m79.96,160.09c-.12.07-.14-.01-.15-.11.05.04.1.07.15.11Z"/><path class="cls-1" d="m80.91,160.59c-.11.03-.15-.03-.15-.13.05.04.1.09.15.13Z"/><path class="cls-1" d="m76.06,95.89c-.04-.11,0-.15.11-.11-.02.05-.06.09-.11.11Z"/><path class="cls-1" d="m58.44,149.32c-.13.08-.14,0-.14-.1.05.03.09.07.14.1Z"/><path class="cls-1" d="m100.69,239.45c-.07.03-.13.05-.2.08.03-.13.11-.12.2-.08Z"/><path class="cls-2" d="m111.73,26.81c.03,20.07.05,40.15.08,60.22,0,1.27.06,2.53.09,3.8.12.22.18.57.36.64.46.18.72-.14.86-.55,7.6-4.85,16.15-4.27,24.46-3.58,3.15.26,6.26,2.75,9.12,4.64,14.96,9.91,29.82,19.98,44.75,29.94,7.77,5.18,11.56,12.55,11.64,21.68.17,18.07.26,36.14-.01,54.21-.24,15.85-6.41,29.35-18.68,39.4-8.98,7.35-19.48,11.66-31.44,11.61-17.75-.07-35.51.33-53.25-.14-11.13-.3-21.31-4.44-30.65-10.52-4.81-3.13-8.89-7.06-13.04-11-8.26-7.86-17.06-15.16-25.21-23.12-6.4-6.25-13.09-12.17-19.46-18.44-2.82-2.78-5.9-5.3-8.89-7.91-1.14-.99-2.07-2.31-2.22-3.64-1.21-10.64,2.12-21.36,14.12-25.33,5.21-1.73,10.94-1.75,16.15.8,10.84,5.31,21.61,10.77,32.41,16.16,3.45,1.72,7.22.87,8.23-5.4.12-.72.02-1.48.02-2.22,0-45.12.01-90.24.02-135.36,0-6.7,8.35-15.85,15.09-16.88,5.26-.8,10.35-.5,14.93,2.16,5.75,3.34,9.55,8.22,9.89,15.19.04.87.32,1.6.63,2.35-.86.44-.89.87.01,1.29Zm-8.87,211.72c.64-.01,1.29-.02,1.93-.04,16.06,0,32.11,0,48.17,0,.22.02.45.03.67.05,1.89.3,3.68-.09,5.54-.48,10.59-2.21,18.96-7.66,25.7-16.18,6.57-8.3,7.66-18.05,7.94-27.84.46-16.26.19-32.54.1-48.81-.04-6.65-2.35-11.91-8.39-15.79-14.44-9.25-28.49-19.11-42.82-28.53-7.45-4.9-15.37-5.44-23.29-1.02-3.21,1.79-6.17,4.03-9.3,5.98-2.05,1.28-4.11,1.26-5.99-.46-1.58-1.44-1.49-3.34-1.52-5.24-.38-25.2.75-50.4-.57-75.6-.21-4.1-2.3-6.46-5.66-8.06-2.85-1.36-8.48-.42-10.57,1.39-2.96,2.57-4,5.72-3.39,9.52.01.22.03.44.04.67-.03,1.16-.09,2.32-.09,3.48,0,31.07-.01,62.15,0,93.22,0,11.31.06,22.61.08,33.92-.02.22-.03.44-.05.67-.04,1.45-.58,2.87-.65,4.26-.48,9.21-12.31,16.01-21.27,11.59-10.74-5.29-21.31-10.93-32.13-16.03-5.6-2.64-10.4-2.56-14.97,2.82-3,3.54-2.85,7.77.45,10.99,1.79,1.74,3.77,3.29,5.55,5.04,6.3,6.18,12.84,12.09,19.33,18.05,8.45,7.77,16.63,15.84,25.06,23.63,6,5.54,11.94,11.19,19.79,14.21,6.55,2.52,13.12,4.87,20.29,4.6Z"/><path class="cls-2" d="m19.86,108.66c1.13-.91.52-2.16.52-3.22.04-24.9.04-49.79,0-74.69,0-2.55.8-4.33,3.47-4.62,4.02-.43,5.47.55,6.19,3.82-.12.53-.31,1.08.44,1.32.03,21.24.07,42.47.11,63.71,0,4.12.05,8.24.08,12.36-.08.62-.52,1.29.22,1.78.04.02.35-.37.53-.57,3.41-3.35,6.79-6.73,10.23-10.05,1.78-1.72,5.7-1.85,7.36-.33,2.39,2.19,2.6,3.78.23,6.73-4.4,5.48-9.88,9.95-14.64,15.1-1.55,1.68-3.1,3.38-4.84,4.84-3.27,2.76-5.64,3.05-8.36.29-6.5-6.6-13.13-13.07-19.67-19.63-2.08-2.09-2.19-5.37-.37-7.35,1.11-1.21,5.61-1.54,7.01-.25,3.71,3.44,7.59,6.74,10.74,10.75.16.16.32.33.49.49.09-.16.18-.32.27-.48Z"/><path class="cls-2" d="m111.73,26.81c-.9-.42-.87-.85-.01-1.29.7.42.76.85.01,1.29Z"/><path class="cls-2" d="m30.48,31.26c-.75-.24-.55-.79-.44-1.32.83.21,1.49.48.44,1.32Z"/><path class="cls-2" d="m31.42,108.54c-.18.2-.49.59-.53.57-.74-.49-.31-1.16-.22-1.78.25.4.5.81.75,1.21Z"/><path class="cls-2" d="m113.11,90.91c-.14.41-.4.73-.86.55-.17-.07-.24-.42-.36-.64.4.03.81.06,1.21.08Z"/><path class="cls-2" d="m19.86,108.66c-.09.16-.18.32-.27.48-.16-.16-.32-.33-.49-.49.25,0,.5,0,.75.01Z"/><path class="cls-2" d="m102.86,238.53c.63-.75,1.27-.71,1.93-.04-.64.01-1.29.02-1.93.04Z"/><path class="cls-2" d="m81.42,27.41c.09.16.19.31.25.48.01.03-.14.12-.21.19-.01-.22-.03-.44-.04-.67Z"/><path class="cls-2" d="m81.45,158.7c.07.16.15.32.19.48,0,.04-.15.12-.23.18.02-.22.03-.44.05-.67Z"/><path class="cls-2" d="m152.96,238.48c.26-.46.47-.33.67.05-.22-.02-.45-.03-.67-.05Z"/></svg>