<?xml version="1.0" encoding="UTF-8"?><svg id="Laag_1" xmlns="http://www.w3.org/2000/svg" viewBox="0 0 227.53 306.08"><defs><style>.cls-1{fill:#54af32;}</style></defs><path class="cls-1" d="m198.26,175.5c3.24.35,4.3,1.33,4.16,4.44-.43,9.08-1.36,18.1-2.87,27.1-1.93,11.5-4.36,22.83-8.25,33.84-4.07,11.52-9.2,22.55-16.52,32.33-9.94,13.29-22.44,23.35-38.47,28.64-11.35,3.74-23.07,5-34.78,3.8-13.56-1.39-25.74-6.79-36.4-15.59-17.3-14.27-27.49-32.99-34.69-53.74-3.04-8.75-4.65-17.77-5.95-26.88-.9-6.29-1.4-12.58-1.01-19,.2-3.31-1.06-6.8-2.07-10.08-1.95-6.36-3.74-12.87-7.16-18.59-2.93-4.91-4.03-10.27-5.27-15.63-.91-3.92,3.18-11.15,7.25-13.49,3.48-2,3.41-1.96,1.18-5.61-4.58-7.49-9.44-14.85-13.49-22.62-3.15-6.05-5.43-12.65-2.72-19.67,1.43-3.71,3.77-6.63,6.92-9.28,4.53-3.81,9.62-5.43,15.24-6.18,2.95-.39,4.54-2.53,6.24-4.72,1.78-2.29,2.14-5.8,5.56-6.72.89.38,1.77.78,2.66,1.14,1.76.71,2.65,2.3,2.25,3.85-.75,2.89-1.75,5.72-3.39,8.36-2.54,4.07-7.13,4.59-10.7,6.83-1.25.78-3,.73-4.59.86-6.23.51-12.58,6.66-11.81,13.11.47,3.97,2.05,7.54,4.04,10.93,3.79,6.44,7.7,12.81,11.53,19.22,2.09,3.5,3.93,7.32,8.83,7.39,2.07.03,3.84.82,5.58,1.72,7.91,4.06,15.43,2.63,22.47-1.97,6.31-4.12,12.78-5.86,20.01-3.02,1.2.47,2.09.47,2.83-.65,2.59-3.95,6.43-6.31,10.6-8.25.74-.34,1.08-.5.85-1.67-1.21-6.15-2.22-12.35-3.14-18.55-.8-5.45-.93-11.01-1.06-16.48-.12-5.5.64-11.11.25-16.59-.29-3.99,1.97-7.54.93-11.62-.53-2.08,3.61-5.01,5.75-4.65,2.59.44,3.74,2.93,3.22,6.16-.46,2.81-.73,5.68-.75,8.53-.07,10.9-.48,21.83.64,32.69.63,6.11,1.94,12.15,2.99,18.21.13.73.35,1.85,1.24,1.77,2.35-.24,4.58,1.1,7.08.49-2.26-6.86-4.38-13.63-3.57-20.84.52-4.59,2.64-8.47,5.95-11.68,3.75-3.62,8.51-4.82,13.49-5.47,5.93-.77,10.99-2.77,14.73-8,5.46-7.65,13.09-11.24,22.65-10.57,3.14.22,6.27.13,9.34,1.12.73.24,2.4.95,2.46-1.01.1-3.35.09-6.67-1.04-9.93-3.29-9.45-15.26-14.48-23.83-12.41-6.95,1.68-12.96-.45-17.99-5.44-2.71-2.69-3.85-6.32-5.6-9.58-6.33-11.78-15.72-13.92-27.38-11.64-8.03,1.57-12.62,7.68-15.28,14.71-3.2,8.47-13.38,14.39-22.4,11.99-7.42-1.98-18.52,2.19-22.51,10.24-1.52,3.07-3.62,3.87-6.62,3.62-4.92-4.59-2.21-8.33,1.51-12.54,7.9-8.95,17.8-11.99,29.66-10.29,5.7.82,9.26-.35,11.96-6.79,2.03-4.84,4.61-9.4,8.65-12.97,3.34-2.96,6.79-5.62,11.37-6.42.93-.16,2.13-.48,2.49-1.73h15.53c2.41,2.21,5.81,2.28,8.49,3.98,6.54,4.17,11.1,9.91,14.26,16.94,2.82,6.28,5.31,7.28,12.74,6.58,10.07-.95,19.33,1.24,26.83,8.3,5.36,5.05,8,11.56,8.17,18.99.06,2.44-.04,4.85.51,7.3.42,1.86,1.43,2.08,2.74,1.72,3.92-1.07,7.93-1.41,11.92-1.06,8.48.76,16.01,3.7,20.6,11.34,5.58,9.29,6.22,15.77-1.6,27.02-4.46,6.42-8.81,13-11.72,20.23-2.75,6.86-4.21,14.21-5.93,21.44-.71,2.98-.11,5.97-1.2,9.05-.74,2.09-.09,5.53.19,8.35.32,3.22-1.1,5.22-4.25,5.99-3.07-.82-4.66-2.83-4.72-5.79-.21-10.18,1.81-19.99,3.96-29.9,1.44-6.64,3.72-12.8,6.57-18.81,3.32-7.02,8.32-13.07,12.04-19.87,1.04-1.9,2.27-3.9,1.85-6.09-.99-5.16-3.67-9.15-8.47-11.75-4.97-2.69-10.16-1.73-15.32-1.39-4.03.26-8.15.99-11.98-.45-4.58-1.73-9.15-3.33-14.02-3.91-6.76-.8-12.86.53-17.01,6.36-5.37,7.54-12.63,11.3-21.72,12.04-4,.33-7.4,2.13-9.72,5.47-2.2,3.17-1.28,7-1.65,10.52-.13,1.22,1.59,2.33.76,4.34-.56,1.34,2.2,2.4,2.42,4.22.04.29.17.57.21.87.65,4.39,3.02,8.24,3.94,12.51,1.43,6.58,4.77,12.58,5.27,19.53.17,2.35,2.2,5.02,3.02,7.75,2.15,7.2,3.89,14.5,5.5,21.83,1.93,8.76,3.99,17.53,3.64,26.61,2.61,3.76,1.82,8.23,2.14,12.31.92,11.75-.04,23.48-1.85,35.13-.96,6.2-2.94,12.12-4.87,18.04-2.8,8.6-7.1,16.47-12.42,23.77-1.43,1.97-2.97,3.85-4.69,6.07,1.29,0,2.2.19,3-.03,7.87-2.12,15.59-4.6,22.59-8.96,8.15-5.07,14.95-11.62,20.47-19.38,3.42-4.8,6.83-9.57,8.02-15.78,1.36-7.1,2.8-14.14,3.47-21.36.53-5.73,1.16-11.46.78-17.18-.28-4.13-.38-8.27-.73-12.4-.53-6.27-1.02-12.56-2.06-18.73-1.82-10.74-3.6-21.49-6.42-32.04-2.63-9.86-4.99-19.79-7.48-29.68-.49-1.94,1.06-4.67,3.06-5.27,2.49-.75,5.14.51,5.64,2.84,1.8,8.38,4.36,16.57,6.26,24.93,3.75,16.45,7.87,32.78,9.32,49.66.47,5.5,1.21,10.96,1.11,16.5-.02.88-.37,1.92.77,2.96,1.1-4.67,1.67-9.08,2.23-13.5.39-3.08.09-6.26.44-9.21.33-2.78,1.12-5.65,1.31-8.54.21-3.12,1.68-4.73,4.78-4.95Zm-133.72,101.87c.78-1.1.25-1.69.01-2.32-3.48-9.19-6.12-18.61-7.2-28.38-.89-8.11-1.7-16.28-1.73-24.42-.03-9.33-.96-18.63-.7-27.96.19-6.98-1.02-13.8-2.4-20.59-.58-2.84.25-5.24,2.21-5.81,3.14-.92,5.27.04,6.47,3.07,1.27,3.22,1.5,6.68,2.08,10.05,1.26,7.34.67,14.79,1.02,22.18.58,12.43.53,24.89,1.93,37.29.9,7.96,1.94,15.86,4.26,23.56,2.24,7.43,4.83,14.68,9.39,21.08,2.27,3.2,4.29,6.63,8.41,7.83,3.45,1.01,6.75,2.7,10.68,2.65-3.66-6.6-6.21-13.16-7.08-20.45-1.22-10.28.84-20.14,3.28-29.93,1.47-5.87,3.81-11.53,5.84-17.26,2.86-8.09,5.93-16.09,8.1-24.41,1.7-6.51,1.94-13.04.77-19.6-1.01-5.61-3.66-9.8-9.1-12.77-7.87-4.29-12.45-11.39-12.95-20.61-.24-4.37-1.52-8.31-4.39-11.54-4.92-5.54-7.98-6.39-12.68-4.41-2.19.92-4.14,2.47-6.21,3.72-9.68,5.85-19.43,5.38-29.46,1.09-3.84-1.64-7.88-3.77-11.68.28-.18.2-.53.24-.8.36-3.71,1.63-5,4.1-3.73,8.04,1.02,3.16,2.35,6.24,3.78,9.25,5.08,10.68,8.34,21.8,9.78,33.61.8,6.6-.6,13.17.9,19.73.68,3,.82,6.3,1.62,9.21,2.02,7.37,4.8,14.55,7.43,21.74,3.57,9.76,8.73,18.68,14.94,26.98,2.24,3,4.78,5.78,7.24,8.74Zm42-152.33c-5.39-1.27-9.32,1.44-13.06,4.59-2.65,2.23-2.95,3.73-.87,6.56,2.54,3.46,3.85,7.39,4.07,11.51.42,8.04,4.22,13.58,11.29,17.13,2.51,1.26,4.71,3.04,6.08,5.47,5.54,9.81,7.1,20.21,4.73,31.31-1.54,7.24-4.13,14.14-6.31,21.16-2.67,8.59-6.13,16.93-8.57,25.62-2.5,8.89-4.23,17.88-2.84,27.1.8,5.33,2.56,10.44,5.69,14.97.94,1.36,1.56,3.34,3.08,3.73,1.45.37,1.75-1.83,2.74-2.74,6.2-5.66,10.45-12.72,14.11-20.15,7.12-14.46,9.35-30.03,10.05-45.91.16-3.74-.38-7.5-.45-11.23-.24-11.74-2.38-23.19-4.51-34.65-2.01-10.83-5.17-21.38-8.37-31.91-1.92-6.32-3.86-12.63-5.74-18.96-.19-.64-.46-1.17-1.03-1.34-3.33-1-6.29-3.58-10.06-2.27Z"/></svg>