<?xml version="1.0" encoding="UTF-8"?><svg id="Laag_1" xmlns="http://www.w3.org/2000/svg" viewBox="0 0 296.96 328.12"><defs><style>.cls-1{fill:#f2b21f;}.cls-2{fill:#a56e18;}</style></defs><path class="cls-2" d="m220.56,321.76c-1.57,4.09-4.37,6.25-8.9,5.66-4.52-.59-9.06.9-13.63-1.53-5.72-3.04-7.19-7.95-7.37-13.48-.19-5.96-.37-11.75-2.88-17.36-2.21-4.94-5.28-7.45-10.7-7.48-32.8-.13-65.59-.25-98.39-.37-8.23-.03-15.85-5.17-17.08-11.92-.58-3.15-.57-6.42-.58-9.64-.08-26.42-.12-52.85-.09-79.27,0-2.59.01-4.92-2.83-6.11-.38-.16-.61-.68-.91-1.04-3.34-3.92-5.63-8.74-12.4-8.47-3.59.14-4.43-4.39-5.34-7.65-2.06-7.36-2.04-15.05-3.61-22.5-2.18-10.39-4.71-20.73-6.26-31.21-1.46-9.91-3.95-19.64-4.99-29.59-.25-2.38-1.11-2.79-3.13-2.75-4.97.11-9.95.15-14.92.08-2.25-.03-4.68.67-6.55-1.5,1.65-1.24,1.14-3.42,1.2-5.47.11-4.48,2.28-6.84,6.76-6.92,6.68-.12,13.37.1,20.05-.07,7.91-.21,8.66,2.95,9.38,8.59,1.36,10.7,1.17,10.72,12.01,10.72q11.6,0,11.6-11.5c0-10.1-.01-20.21-.07-30.31-.05-8.8,7.13-17.72,16.42-16.66,2.88.33,6.1,1.06,8.92-.8,1.86,1.1,3.92.76,5.92.76,36.67.01,73.33.01,110,0,2.02,0,4.1.24,6.04-.18,2.36-.51,4.05.37,6.04,1.37,8.44,4.24,11.01,11.08,10.94,20.24-.29,34.95,0,69.91-.19,104.86-.02,3.89,1.92,5.39,4.68,5.12,6.34-.6,10.33,2.95,14.45,6.7,1.56,1.42,2.56,3.59,4.95,3.99,1.11,1.31,2.64.88,3.91.68,8.98-1.41,17.08,3.53,18.55,12.18.64,3.75,1.88,5.27,5.51,4.68,8.82-1.44,14.02,3.37,17.88,10.38,1.74,3.16,1.77,6.79,1.8,10.23.14,18.94.47,37.89-.13,56.81-.25,7.93-1.18,16.11-7.27,22.71-1.76,1.92-1.53,5.97-1.63,9.06-.21,6.67,0,13.35-.04,20.02-.07,9.97-4.78,14.6-14.78,14.59-4.19,0-8.38,0-12.57-.13-1.28-.04-4.33.65-1.37-2.33.33-.33-1.36-2.67-2.12-4.07,1.42-4.34,3.76-7.37,8.97-6.7,1.53.2,3.11-.07,4.66.05,2.82.22,3.93-1.04,3.9-3.81-.07-5.28.36-10.6-.08-15.85-.51-6.14.88-11.8,3.68-17.01,3.67-6.83,4.88-14.09,4.91-21.64.07-17.56,0-35.13.03-52.69,0-3.32-.99-5.95-4.66-6.37-2.99-.34-5.43,2.74-5.46,6.59-.06,6.84-.01,13.68-.13,20.52-.08,4.88-2.76,8.15-6.46,8.2-4.35.05-6.7-2.72-6.73-8.06-.05-11.5-.03-23-.11-34.51-.01-1.68-.3-3.39-.65-5.04-.77-3.62-3.52-3.89-6.5-3.64-3.23.26-2.89,2.72-2.91,4.85-.05,9.64-.07,19.27-.05,28.91,0,2.53-.4,4.95-1.34,7.27-.96,2.35-2.61,3.67-5.33,3.75-4.97.14-7.26-1.92-7.3-7.36-.08-13.06-.03-26.11-.03-39.17,0-1.4.05-2.81-.09-4.19-.35-3.37-2.72-5.12-5.67-5.08-3.04.05-4.39,2.43-4.38,5.5.01,10.57-.02,21.14-.03,31.71,0,1.4.05,2.8-.02,4.2-.22,4.85-3.46,8.5-7.53,8.51-4.48.01-6.45-2.33-6.47-8.16-.05-20.52-.02-41.04-.03-61.56,0-2.02.11-4.06-.15-6.05-.38-2.95-2.09-5-5.21-4.88-2.86.12-4.37,2.12-4.73,4.89-.14,1.07-.05,2.17-.05,3.26-.01,31.87-.02,63.73-.03,95.6,0,1.09.1,2.19-.05,3.26-.56,4.1-3.77,6.89-7.65,6.55-4.33-.38-5.18-3.25-5.55-7.13-.62-6.49-.47-12.99-.9-19.46-.28-4.19-2.35-8.04-6.46-10.13-3.74-1.9-5.46-.86-5.47,3.31-.03,12.75.02,25.49-.04,38.24-.01,2.81.74,5.33,2.66,7.23,3.17,3.14,6.35,6.36,9.97,8.91,11.73,8.26,17.03,19.6,17.2,33.7.1,8.16-.67,6.69,7.09,6.81,6.33.1,8.04,1.53,8.89,7.56Zm-127.5-63.91c-3.57-.08-7.14-.22-10.71-.24-8.39-.04-8.39-.01-8.38,8.39,0,6.27.67,6.98,6.82,7,16.79.05,33.58.08,50.37.11,11.09.02,22.19,0,33.28,0-2.86-2.16-.74-5.71-2.84-7.51-.29-1.02-.97-2.11-.81-3.06.78-4.65-1.59-5.24-5.51-5.19-13.16.2-26.33,0-39.49.11-7.57.07-15.16-.53-22.72.38Zm-6.16-75.23c-2.96,1.22-5.83,2.91-8.92,3.51-2.92.57-3.24,1.94-3.23,4.4.08,13.8.04,27.6.04,41.4q0,11.87,12.08,11.22c23.46.07,46.93.09,70.39.26,2.97.02,3.67-1.14,3.63-3.85-.12-8.39-.06-16.78-.02-25.17,0-1.65,0-3.17,1.06-4.82,5.72-8.91,8.61-10.34,19.81-7.74,4.38,1.02,5.35-.15,5.31-4.37-.19-16.93-.07-33.87-.09-50.81-.01-13.38,7.55-21.14,20.57-20.9,2.59.05,3.59-.71,3.54-3.42-.14-7.92-.05-15.85-.05-23.77,0-18.18-.06-36.36.06-54.54.03-4.36-1.57-6.32-6.04-6.05-3.72.22-7.46.04-11.19.05-6.09,0-6.46.03-5.98,5.97.82,9.93-9.45,18.24-17.96,18.24-18.03,0-36.05.08-54.08-.03-10.53-.06-16.26-7.74-18.29-17.28-1.43-6.71-.75-6.86-7.84-6.78-.93,0-1.86.09-2.79.13-2.8-.05-5.6.04-8.38-.18-2.97-.23-3.85,1.28-3.84,3.88.05,12.74.08,25.49.14,38.23,0,.99-.37,2.61,1.19,2.55,3.63-.13,7.4,1.2,10.86-.89,1.86.08,3.72.24,5.57.24,24.25.02,48.5,0,72.75.01,9.34,0,11.87,3.38,10.21,12.46-1.98,10.79-3.88,21.58-6.3,32.28-2.87,12.67-3.63,25.73-7.29,38.28-1.38,4.74-3.61,7-8.51,6.3-2.35-.33-3.57.68-4.66,2.78-4.12,7.9-10.72,12.65-19.68,12.65-8.79,0-15.31-4.7-19.34-12.43-1.32-2.52-2.85-3.3-5.46-3.1-2.32.18-4.66.08-6.99.06-1.32-.01-2.46.2-3.06,1.58-1.62,3.79-4.6,6.57-7.21,9.62Zm62.42-28.97l1.5-.29c-3.2-6.29,4.53-11.36,1.11-17.67,4.65-3.7,2.64-9.5,3.73-14.12,1.39-5.91,2.46-12.08,3.67-18.13,1.02-5.12.09-6.57-5-6.58-22.84-.03-45.69-.04-68.53-.05-13.21,0-26.42.02-39.63-.02-2.42,0-4.44.03-3.79,3.41,3.49,18.17,6.93,36.34,10.55,55.38,2.64-4.93,4.81-8.73,9.53-11.2,13.01-6.78,25.73-.19,29.92,7.87,1.19,2.29,1.9,5.1,5.56,4.4,4.32-.83,9.66,2.29,12.4-4.19,5.48-12.99,24.47-13.56,33.11-5.75,2.23,2.01,3.93,4.62,5.87,6.95Zm-6.81-115.64c-8.86,0-17.72,0-26.58,0-5.59,0-6.72,1.84-4.3,6.93,1.24,2.61,3.59,2.63,5.97,2.63,16.48-.02,32.95-.02,49.43-.08,1.37,0,2.78-.24,4.09-.64,3.55-1.1,2.63-4.12,2.6-6.64-.04-3.11-2.53-2.15-4.16-2.16-9.01-.08-18.03-.04-27.05-.04Zm-21.09,126.14c-.1,4.71,2.72,8.06,6.9,8.18,4.95.14,8.88-3.43,8.97-8.14.08-4.52-3.63-8.4-8.13-8.5-4.7-.1-7.62,3.09-7.74,8.46Zm-39.92-.19c-.04-4.4-3.95-8.36-8.18-8.29-4.38.07-7.89,3.97-7.78,8.66.1,4.45,3.61,7.96,7.96,7.95,4.66,0,8.05-3.54,8.01-8.31Z"/><path class="cls-1" d="m220.56,321.76c-.85-6.04-2.56-7.46-8.89-7.56-7.76-.12-6.99,1.35-7.09-6.81-.17-14.09-5.47-25.44-17.2-33.7-3.62-2.55-6.81-5.77-9.97-8.91-1.92-1.9-2.68-4.42-2.66-7.23.06-12.75,0-25.49.04-38.24.01-4.17,1.73-5.21,5.47-3.31,4.11,2.09,6.18,5.94,6.46,10.13.43,6.47.29,12.97.9,19.46.37,3.88,1.22,6.75,5.55,7.13,3.88.34,7.09-2.46,7.65-6.55.15-1.07.05-2.17.05-3.26.01-31.87.02-63.73.03-95.6,0-1.09-.09-2.19.05-3.26.36-2.77,1.86-4.78,4.73-4.89,3.12-.13,4.83,1.92,5.21,4.88.26,1.99.15,4.03.15,6.05,0,20.52-.02,41.04.03,61.56.02,5.83,1.99,8.17,6.47,8.16,4.06-.01,7.31-3.66,7.53-8.51.06-1.4.01-2.8.02-4.2.02-10.57.05-21.14.03-31.71,0-3.07,1.34-5.46,4.38-5.5,2.94-.04,5.32,1.71,5.67,5.08.14,1.39.09,2.79.09,4.19,0,13.06-.05,26.11.03,39.17.03,5.44,2.32,7.5,7.3,7.36,2.72-.08,4.37-1.4,5.33-3.75.95-2.32,1.35-4.75,1.34-7.27-.02-9.64,0-19.27.05-28.91.01-2.14-.32-4.59,2.91-4.85,2.99-.24,5.74.02,6.5,3.64.35,1.66.64,3.36.65,5.04.08,11.5.06,23,.11,34.51.02,5.34,2.38,8.11,6.73,8.06,3.7-.05,6.37-3.31,6.46-8.2.12-6.84.07-13.68.13-20.52.03-3.84,2.47-6.92,5.46-6.59,3.67.41,4.66,3.05,4.66,6.37-.02,17.56.04,35.13-.03,52.69-.03,7.55-1.24,14.8-4.91,21.64-2.8,5.21-4.19,10.87-3.68,17.01.44,5.25,0,10.56.08,15.85.04,2.77-1.07,4.03-3.9,3.81-1.55-.12-3.13.15-4.66-.05-5.21-.67-7.55,2.37-8.97,6.7,0,0,.03-.13.03-.13-.27.26-.53.52-.8.78-3.43.07-6.86.14-10.29.2-.47-5.98-2.3-8.32-6.43-8.23-4.03.1-7.45,3.68-7.63,8-3.72.08-7.45.16-11.17.25Z"/><path class="cls-1" d="m249.1,166.08c-2.4-.4-3.39-2.56-4.95-3.99-4.12-3.75-8.12-7.3-14.45-6.7-2.76.26-4.7-1.24-4.68-5.12.19-34.95-.1-69.91.19-104.86.08-9.16-2.5-16-10.94-20.24-1.99-1-3.68-1.89-6.04-1.37-1.94.42-4.02.18-6.04.18-36.67,0-73.33,0-110,0-2,0-4.06.34-5.92-.76C86.47,9.8,96.91.06,111.33.04c37.58-.05,75.16-.05,112.74.01,7.19.01,13.49,2.08,18.7,7.62,4.96,5.28,6.29,11.78,6.32,18.22.23,46.73.06,93.46.01,140.2Z"/><path class="cls-2" d="m231.73,321.52c.18-4.33,3.6-7.91,7.63-8,4.13-.1,5.96,2.24,6.43,8.23-.45,3.43-2.5,5.95-5.71,6.33-4.51.54-6.57-3.07-8.36-6.55Z"/><path class="cls-2" d="m256.09,321.53c.27-.26.53-.52.8-.78.14.67-.3.76-.8.78Z"/><path class="cls-1" d="m86.9,38.27c.93-.05,1.86-.12,2.79-.13,7.09-.07,6.41.08,7.84,6.78,2.03,9.55,7.76,17.22,18.29,17.28,18.03.1,36.05.03,54.08.03,8.51,0,18.78-8.31,17.96-18.24-.49-5.93-.12-5.96,5.98-5.97,3.73,0,7.47.18,11.19-.05,4.48-.27,6.07,1.69,6.04,6.05-.12,18.18-.06,36.36-.06,54.54,0,7.92-.09,15.85.05,23.77.05,2.7-.95,3.47-3.54,3.42-13.02-.24-20.58,7.51-20.57,20.9.02,16.94-.1,33.87.09,50.81.05,4.22-.92,5.39-5.31,4.37-11.2-2.6-14.09-1.18-19.81,7.74-1.06,1.65-1.05,3.16-1.06,4.82-.04,8.39-.1,16.78.02,25.17.04,2.71-.65,3.87-3.63,3.85-23.46-.16-46.92-.19-70.39-.26,0-20.17.02-40.35.03-60.52,2.61-3.05,5.58-5.84,7.21-9.62.59-1.39,1.73-1.6,3.06-1.58,2.33.02,4.67.11,6.99-.06,2.6-.2,4.14.58,5.46,3.1,4.03,7.72,10.55,12.42,19.34,12.43,8.96,0,15.56-4.74,19.68-12.65,1.1-2.11,2.32-3.12,4.66-2.78,4.9.7,7.13-1.57,8.51-6.3,3.66-12.55,4.42-25.61,7.29-38.28,2.42-10.7,4.32-21.5,6.3-32.28,1.66-9.08-.87-12.46-10.21-12.46-24.25-.01-48.5,0-72.75-.01-1.86,0-3.72-.16-5.57-.24.01-14.53.02-29.07.03-43.6Z"/><path class="cls-1" d="m149.32,153.66c-1.94-2.33-3.64-4.93-5.87-6.95-8.64-7.81-27.64-7.24-33.11,5.75-2.73,6.48-8.08,3.36-12.4,4.19-3.66.7-4.37-2.11-5.56-4.4-4.19-8.06-16.91-14.65-29.92-7.87-4.72,2.46-6.89,6.26-9.53,11.2-3.62-19.04-7.07-37.21-10.55-55.38-.65-3.38,1.36-3.42,3.79-3.41,13.21.05,26.42.02,39.63.02,22.84.01,45.69.02,68.53.05,5.09,0,6.02,1.46,5,6.58-1.21,6.05-2.28,12.23-3.67,18.13-1.09,4.62.92,10.42-3.73,14.12,3.42,6.32-4.31,11.38-1.11,17.67l-1.5.29Zm-54.79-28.45c0,3.57-.04,7.14,0,10.7.06,4.69,2.63,7.55,6.76,7.61,3.9.06,7.01-2.94,7.12-7.42.18-7.28.18-14.58,0-21.86-.11-4.35-3.47-7.22-7.62-7.04-3.58.16-6.1,3.02-6.24,7.31-.11,3.56-.02,7.13-.02,10.7Zm27.03-6.66c0,1.55-.16,3.11.03,4.63.5,4.07,3.99,8.07,7.2,8.02,4.32-.07,6.03-3.01,6.97-6.78,1-3.98.9-7.95.12-11.91-.6-3.08-2.67-4.86-5.72-5.27-3.19-.43-5.61.71-7.3,3.68-1.4,2.46-1.37,4.99-1.3,7.61Zm-41.08.77c0-1.92.08-3.47-.02-5.01-.27-4.39-2.92-7.09-6.88-7.12-4.03-.04-6.74,2.51-7,6.97-.2,3.38-.32,6.82.07,10.17.44,3.75,3,6.42,6.66,6.67,2.9.2,5.53-1.39,6.62-4.73.8-2.46.33-4.9.55-6.96Z"/><path class="cls-1" d="m142.51,38.02c9.02,0,18.03-.04,27.05.04,1.63.01,4.12-.95,4.16,2.16.03,2.52.95,5.55-2.6,6.64-1.31.4-2.72.64-4.09.64-16.48.06-32.95.06-49.43.08-2.37,0-4.73-.01-5.97-2.63-2.41-5.1-1.28-6.93,4.3-6.93,8.86,0,17.72,0,26.58,0Z"/><path class="cls-1" d="m161.59,265.62c-30.89-.66-51.48-.88-49.84,0-7.34.02-13.71-2.19-18.69-7.77,7.56-.9,15.15-.31,22.72-.38,13.16-.11,26.33.09,39.49-.11,3.92-.06,6.29.54,5.51,5.19-.16.95.52,2.03.81,3.06Z"/><path class="cls-1" d="m121.42,164.17c.12-5.37,3.04-8.57,7.74-8.46,4.5.1,8.21,3.97,8.13,8.5-.08,4.71-4.01,8.28-8.97,8.14-4.18-.12-7.01-3.46-6.9-8.18Z"/><path class="cls-1" d="m81.5,163.98c.05,4.78-3.35,8.31-8.01,8.31-4.35,0-7.86-3.5-7.96-7.95-.1-4.68,3.41-8.59,7.78-8.66,4.23-.07,8.14,3.89,8.18,8.29Z"/><path class="cls-2" d="m94.53,125.22c0-3.57-.09-7.14.02-10.7.13-4.29,2.66-7.16,6.24-7.31,4.15-.18,7.51,2.69,7.62,7.04.19,7.28.18,14.58,0,21.86-.11,4.48-3.22,7.48-7.12,7.42-4.14-.06-6.71-2.92-6.76-7.61-.04-3.57,0-7.13,0-10.7Z"/><path class="cls-2" d="m121.56,118.56c-.07-2.62-.11-5.15,1.3-7.62,1.7-2.98,4.12-4.11,7.3-3.68,3.04.41,5.11,2.19,5.72,5.27.78,3.96.88,7.92-.12,11.91-.94,3.77-2.65,6.71-6.97,6.78-3.2.05-6.7-3.96-7.2-8.02-.19-1.52-.03-3.09-.03-4.63Z"/><path class="cls-2" d="m80.48,119.33c-.21,2.06.26,4.5-.55,6.96-1.09,3.34-3.72,4.93-6.62,4.73-3.65-.25-6.22-2.92-6.66-6.67-.39-3.35-.27-6.79-.07-10.17.26-4.46,2.98-7.01,7-6.97,3.96.04,6.6,2.74,6.88,7.12.1,1.54.02,3.09.02,5.01Z"/></svg>