<?xml version="1.0" encoding="UTF-8"?><svg id="Laag_1" xmlns="http://www.w3.org/2000/svg" viewBox="0 0 253.6 266.6"><defs><style>.cls-1{fill:#f2b21f;}.cls-2{fill:#a56e18;}</style></defs><path class="cls-2" d="m205.25,137.84c-2.75,9.69-5.43,19.41-10.57,28.19-.82,1.39-.51,2.2.6,3.22,15.43,14.33,30.23,29.29,45.03,44.26,3.21,3.25,6.92,5.96,9.23,10.08,5.77,10.3,5.27,20.56-.7,30.37-5.03,8.27-12.84,12.24-22.63,12.63-8.05.32-14.27-3-19.79-8.45-11.23-11.06-22.7-21.88-33.8-33.06-5.49-5.52-12.05-9.99-16.48-16.55-1-1.49-1.99-.93-3.19-.31-7.04,3.63-14.2,7.13-21.97,8.82-5.74,1.25-11.45,2.64-17.37,3.29-9.07.99-18.05-.69-27.03-.04-3.3.24-5.28-2.03-8.04-2.69-9.84-2.34-19.37-6.06-27.8-11.33-12.51-7.83-23.63-17.48-32.08-30.04-8.72-12.96-14.84-27.01-17.24-42.19-1.99-12.62-2.15-25.62,1.39-38.29,2.16-7.72,4.07-15.55,7.78-22.69,9.98-19.17,24.03-34.51,43.15-44.96,1.84-1,3.52-2.29,5.27-3.45,1.64.2,2.98-.63,4.39-1.24,9.71-4.25,19.95-7.02,30.41-7.81,28.28-2.11,53.92,5.18,75.92,23.56,23.85,19.92,36.08,45.55,37.1,76.55.24,7.42-1.03,14.75-1.58,22.12Zm-52.45,44.54c.57-.95,1.21-1.86,1.7-2.84,3.12-6.28,7.7-11.64,14.36-13.38,6.24-1.63,8.86-5.67,11.22-10.66,1.73-3.67,3.35-7.38,4.58-11.27,10.08-31.91,3.1-60.23-19.23-84.45-16.68-18.08-38.04-26.32-62.81-26.16-26.78.17-48.13,11.31-65.24,31.25-4.04,4.71-8.17,9.66-9.36,16.16-1.67.71-2.46,2.23-3.05,3.74-3.73,9.44-6.03,19.13-6.45,29.37-.74,18.31,3.61,35.1,13.98,50.2,15.69,22.85,37.49,35.65,65.05,38.04,15.25,1.32,29.96-1.77,43.66-8.62,4.88-2.44,11.46-3.81,11.6-11.37Zm85.32,55.58c.6-4.06-1.9-7.38-4.99-10.41-9.82-9.61-19.67-19.19-29.49-28.82-5.21-5.11-10.32-10.32-15.55-15.41-5.67-5.52-12.87-5.23-18.1.61-4.47,4.99-3.93,12.82,1.46,18.14,15.37,15.18,30.83,30.26,46.21,45.43,3.8,3.75,8.05,4.76,13,2.76,4.56-1.84,7.41-6.28,7.46-12.31Z"/><path class="cls-1" d="m205.25,137.84c.55-7.37,1.83-14.7,1.58-22.12-1.02-31-13.26-56.63-37.1-76.55-22-18.38-47.64-25.67-75.92-23.56-10.46.78-20.7,3.56-30.41,7.81-1.41.62-2.75,1.44-4.39,1.24,11.48-11.24,25.44-17.94,40.81-21.89,15.71-4.04,31.48-3.55,46.99.81,28.77,8.1,49.74,25.4,61.83,53.12,5.3,12.16,8.37,24.82,7.68,37.93-.56,10.51-1.06,21.2-5.81,31.17-1.86,3.91-2.77,8.32-5.24,12.04Z"/><path class="cls-1" d="m28.01,81.02c1.2-6.49,5.32-11.44,9.36-16.16,17.1-19.93,38.45-31.08,65.24-31.25,24.77-.16,46.13,8.08,62.81,26.16,22.33,24.21,29.31,52.53,19.23,84.45-1.23,3.89-2.84,7.6-4.58,11.27-2.36,4.99-4.98,9.03-11.22,10.66-6.67,1.74-11.24,7.1-14.36,13.38-.49.99-1.13,1.9-1.7,2.84-15.61,5.3-31.59,7.44-47.8,3.93-22.91-4.97-42.4-16.04-57-34.74-13.17-16.86-20.38-35.9-20.1-57.51.06-4.34.07-8.69.1-13.03Z"/><path class="cls-1" d="m238.12,237.96c-.05,6.03-2.89,10.47-7.46,12.31-4.95,1.99-9.2.99-13-2.76-15.37-15.17-30.84-30.26-46.21-45.43-5.39-5.33-5.93-13.15-1.46-18.14,5.23-5.84,12.43-6.12,18.1-.61,5.23,5.09,10.34,10.3,15.55,15.41,9.81,9.62,19.66,19.21,29.49,28.82,3.1,3.03,5.59,6.35,4.99,10.41Z"/></svg>