<?xml version="1.0" encoding="UTF-8"?><svg id="Laag_1" xmlns="http://www.w3.org/2000/svg" viewBox="0 0 296.53 259.93"><defs><style>.cls-1{fill:#fbc57d;}.cls-2{fill:#e2142b;}</style></defs><path class="cls-1" d="m0,129.29c.68-.73.44-1.64.44-2.49.06-11,.2-22.01.11-33.01-.05-6.01,1-11.79,2.81-17.45,4.79-15,13.88-27.14,25.59-37.38C49.11,21.33,73,11.29,98.8,5.45c8.83-2,17.78-3.44,26.85-4.29,10.67-1,21.32-1.4,31.99-1.01,12.51.46,24.9,2.08,37.19,4.6,14.24,2.93,27.99,7.28,41.12,13.52,10.55,5.01,20.69,10.77,29.4,18.64,8.73,7.9,16.35,16.67,21.52,27.51,2.83,5.94,5.17,11.98,6.83,18.26,1.91,7.22,2.81,14.65,2.82,22.14.02,17.08-.01,34.17.02,51.25.01,6.28-.77,12.47-1.94,18.6-4.26,22.38-15.06,41.21-31.64,56.68-14.37,13.41-31.27,22.16-50.49,26.43-10.43,2.32-21.05,2.55-31.55,1.64-10.27-.89-20.27-3.66-29.83-7.78-11.87-5.11-22.38-12.23-31.61-21.19-7.32-7.1-15.25-13.32-24.82-16.95-8.03-3.05-16.24-5.73-25.03-5.52-7.23.17-14.55.28-21.56-1.29-9.45-2.12-17.98-6.55-25.51-12.81-10.51-8.73-17.04-19.93-20.59-32.98-.52-1.92-.48-3.99-1.97-5.56v-26.06Zm278.7-29.27c-.39-7.34-1.74-13.08-3.62-18.72-3.63-10.91-9.64-20.41-17.84-28.36-7.27-7.04-15.77-12.4-24.86-17-9.85-4.99-20.15-8.68-30.66-11.72-7.58-2.2-15.37-3.78-23.32-4.5-7.22-.66-14.38-2.05-21.64-2.18-7.98-.14-15.95-.23-23.95.39-6.21.48-12.41,1.15-18.5,2.12-12.28,1.95-24.36,4.92-35.96,9.57-18.77,7.53-35.89,17.42-48.62,33.66-6.3,8.05-10.44,17.15-11.65,27.24-1.14,9.4.97,18.39,5.96,26.56,8.2,13.43,20.08,20.81,35.89,21.39,7.74.28,15.44.26,23.16,1.67,12.64,2.32,24.04,7.21,34.65,14.29,6.42,4.28,11.65,9.94,17.43,14.96,11.2,9.72,24.21,15.93,38.52,19.39,3.19.77,6.55,1.24,9.92,1.38,3.27.14,6.55.24,9.81.49,3.24.25,6.25-.79,9.38-1.05,8.69-.71,16.95-3.51,24.91-7.12,12.57-5.7,22.92-14.32,31.77-24.73,8.33-9.79,14.02-21.06,16.95-33.59,1.96-8.36,3.53-16.83,2.27-24.14Zm-.64,62.09c-.23.29-.47.57-.69.87-6.87,9.42-14.93,17.67-24.37,24.51-10.84,7.86-22.65,13.73-35.69,17.03-6.23,1.58-12.58,2.31-18.92,3.29-6.33.98-12.43-1.06-18.65-.38-.26.03-.55-.13-.83-.22-1.5-.5-3.16-.9-4.59-.99-5.5-.35-10.65-2.11-15.82-3.6-5.69-1.64-10.99-4.45-16.18-7.33-6.84-3.79-13.21-8.26-19.13-13.39-5-4.33-9.52-9.2-14.98-13.03-7.49-5.25-15.72-9.02-24.55-10.97-7.73-1.71-15.69-2.2-23.69-2.13-10.96.1-21.14-2.94-30.46-8.85-4.21-2.67-7.92-5.96-11.89-9.27-.6,5.89-.58,11.57.67,16.9,2.92,12.46,9.24,22.84,20.55,29.69,5.56,3.37,11.47,6.16,17.91,6.25,13.37.19,26.56.43,39.39,5.21,8.02,2.99,15.55,6.61,22.56,11.44,5.55,3.83,10.02,8.89,15.11,13.22,12.49,10.6,26.55,18.11,42.96,20.88,9.69,1.64,19.4,1.7,28.96.16,10.19-1.64,19.86-5.25,28.87-10.5,11.25-6.55,20.8-14.99,28.33-25.59,6.54-9.21,11.33-19.28,13.97-30.32,1-4.2,1.47-8.45,1.16-12.88Z"/><path class="cls-2" d="m148.62,34.9c4.87.36,9.74.05,14.65.41,12.17.91,24.12,3.04,35.79,6.27,5.9,1.63,11.83,3.6,17.54,6.07,7.97,3.44,15.41,7.78,22.47,12.76,8.51,6.01,14.19,14.24,18.14,23.81,2.48,6.01,3.6,12.32,3.89,18.7.3,6.73-1.28,13.32-3.01,19.8-1.89,7.08-5.36,13.49-9.31,19.57-4.27,6.58-10.01,11.87-16.05,16.81-6.54,5.35-14,8.88-22.02,11.35-10.25,3.16-20.54,3.69-31.16,1.82-9.96-1.76-18.84-5.8-27.28-11.05-2.07-1.28-3.93-2.92-5.76-4.54-2.94-2.61-6.04-5.18-8.54-8.11-3.97-4.64-9.18-7.38-14-10.71-8.27-5.71-17.52-9.52-27.16-12.17-7.82-2.15-15.78-3.49-23.95-4.12-6.71-.52-13.62.88-20.13-1.58-8.61-3.24-14.31-9.46-16.66-18.23-2.57-9.58.29-18.3,5.87-26.2,6.13-8.68,14.29-15.07,23.27-20.6,4.04-2.49,8.24-5.15,12.4-6.85,5.52-2.26,11.41-4.12,17.21-5.96,9.54-3.02,19.34-4.65,29.17-5.98,8.14-1.1,16.39-1.78,24.66-1.26Zm42.59,121.05c2.7-.02,5.32-.13,7.99-.63,15.27-2.85,26.96-11.05,35.59-23.73,4.89-7.19,7.44-15.22,8.56-23.9,1.01-7.84-.71-14.93-4.28-21.6-5.93-11.1-16.61-16.64-27.39-21.54-10.31-4.69-21.21-7.75-32.47-9.64-7.11-1.19-14.27-2.09-21.4-2.53-12.97-.82-25.97.13-38.82,2.23-6.02.99-12.12,1.86-17.94,3.62-3.75,1.14-7.5,2.6-11.2,4.04-12.32,4.81-23.82,10.9-32.3,21.41-2.85,3.53-5.22,7.39-4.9,12.37.26,4.05,3.72,7.61,7.87,7.75,4.79.16,9.57.16,14.37.43,10.45.6,20.47,2.81,30.39,5.93,11.79,3.71,22.62,9.31,32.83,16.18,7.08,4.76,12.94,10.96,19.35,16.52,9.69,8.41,20.82,13.09,33.75,13.09Z"/></svg>