<?xml version="1.0" encoding="UTF-8"?><svg id="Laag_1" xmlns="http://www.w3.org/2000/svg" viewBox="0 0 205.55 173.15"><defs><style>.cls-1{fill:#f2b21f;}.cls-2{fill:#a56e18;}</style></defs><polyline class="cls-1" points="63.46 6.72 81.4 85.99 180.64 88.7 205.55 8.51"/><path class="cls-2" d="m47.33,114.69l.07-1.15c1.34.02,1.41-.94,1.48-1.9.42-.52.84-1.05,1.26-1.57.09-.13.18-.26.27-.39,1.55-1.23,3-2.63,4.69-3.62,1.08-.64,1.26-1.35,1.04-2.3-1.63-7.11-3.33-14.19-4.93-21.31-1.72-7.67-3.32-15.36-5.03-23.03-2.15-9.65-4.36-19.29-6.52-28.94-1.3-5.79-2.58-11.59-3.84-17.39-.09-.43-.01-.89-.01-1.52-.75,0-1.44,0-2.13,0-9.04,0-18.08-.06-27.12.04-2.5.03-4.41-.72-5.84-2.73C.47,8.49.23,8.1,0,7.72c0-1.28,0-2.57,0-3.85C1.29,1.72,2.86.01,5.65.02c11.28.02,22.56-.08,33.84.06,3.54.04,5.34,1,6.55,4.73.46,1.41.59,2.93.92,4.39,1.03,4.64,2.08,9.27,3.13,13.93h2.3c45.76,0,91.53,0,137.29,0,.45,0,.9-.03,1.35,0,2.89.19,5.18,2.07,5.6,4.58.1.14.19.28.29.41.05.13.1.26.14.39-.04.26-.09.52-.13.78-.1.14-.2.28-.3.42-.58,2.41-1.09,4.85-1.76,7.23-4.02,14.26-8.06,28.51-12.13,42.75-2.98,10.43-6.03,20.84-9.06,31.26-.31.72-.63,1.45-.94,2.17-.51.51-1.03,1.03-1.54,1.54-.64.26-1.28.51-1.92.77-8.01.02-16.03.04-24.04.04-26.8,0-53.61-.04-80.41.04-4.24.01-5.79,1.04-6.75,3.8-1.39,3.97,1.28,7.7,5.53,7.7,29.88,0,59.76,0,89.64,0,4.87,0,9.75-.08,14.62.03,3.5.07,5.46,2.16,6.01,5.26.43,2.38-1.48,4.96-4.17,5.88-.14.09-.27.19-.41.28-2.95.05-5.9.11-8.86.16h-1.05v.26h1.05c2.27,1.19,4.62,2.26,6.78,3.62,2.9,1.82,4.58,4.64,5.63,7.86.15.46.44.88.67,1.32.1.11.2.22.3.34-.09.89-.19,1.78-.28,2.67v2.37c.82,3.29-1.09,5.88-2.57,8.37-2.03,3.4-5.32,5.61-9.07,6.93-1.31.46-2.77.52-4.15.76-.51-.23-1.03-1.29-1.53,0-.26,0-.52-.02-.78-.02-.12,0-.25.01-.37.02-.77,0-1.54,0-2.31-.01-.26-.1-.53-.19-.79-.29-2.43-1.44-4.86-2.87-7.3-4.31-.14-.1-.27-.2-.41-.3v.02c-.08-.14-.18-.27-.28-.41-1.18-1.92-2.36-3.84-3.54-5.76-.09-.13-.18-.26-.28-.39-.03-.26-.07-.52-.1-.78-.09-.13-.17-.25-.26-.38-1.03-.91-.39-2.05-.43-3.1.04-.03.12-.08.12-.1-.02-.09-.07-.18-.1-.27,0-.26-.02-.52-.02-.78.18-.13.37-.26.55-.38l-.55-.39c0-.26.02-.52.02-.78.04-.04.12-.09.11-.11-.03-.09-.08-.17-.13-.26-.03-.77-.05-1.55-.08-2.32,0-.09,0-.17,0-.26.62-1.24,1.16-2.52,1.87-3.7.86-1.42,1.87-2.75,2.82-4.12.1-.14.2-.27.29-.41v.02c.12-.1.26-.2.4-.3,2.65-1.62,5.3-3.24,7.96-4.87.11.08.21.17.32.25-.24-.02-.48-.06-.72-.06-24.19,0-48.38,0-72.58,0-.25,0-.51.04-.76.06h-1.05c0,.09,0,.17,0,.26h1.05c2.27,1.19,4.62,2.26,6.78,3.62,2.9,1.82,4.58,4.64,5.63,7.86.15.46.44.88.67,1.32.1.11.2.22.3.34-.09.89-.19,1.78-.28,2.67,0,.79,0,1.58,0,2.37.82,3.29-1.09,5.88-2.57,8.37-2.03,3.4-5.32,5.61-9.07,6.93-1.31.46-2.77.52-4.15.76-.51-.23-1.03-1.29-1.53,0-.26,0-.52-.02-.78-.02-.12,0-.25.01-.37.02-.77,0-1.54,0-2.31-.01-.26-.1-.53-.19-.79-.29-2.43-1.44-4.86-2.87-7.3-4.31-.14-.1-.27-.2-.41-.3v.02c-.08-.14-.18-.27-.28-.41-1.18-1.92-2.36-3.84-3.54-5.76-.09-.13-.18-.26-.28-.39-.03-.26-.07-.52-.1-.78-.09-.13-.17-.25-.26-.38-1.03-.91-.39-2.05-.43-3.1.04-.03.13-.08.12-.1-.02-.09-.07-.18-.1-.27,0-.26-.02-.52-.02-.78.18-.13.37-.26.55-.38-.18-.13-.37-.26-.55-.39,0-.26.02-.52.02-.78.04-.04.12-.09.11-.11-.03-.09-.08-.17-.13-.26-.12-.77-.25-1.55-.37-2.32.09-.09.19-.17.28-.26.62-1.24,1.16-2.52,1.88-3.7.86-1.42,1.88-2.75,2.82-4.13.1-.14.2-.27.29-.41,0,0-.01.01-.01.01.14-.1.27-.2.41-.3,2.68-1.64,5.35-3.28,7.79-4.78-2.54,0-5.55,0-8.57,0-.12,0-.25.01-.37.02-.77,0-1.54,0-2.31-.01-.27-.1-.53-.19-.8-.29-1.14-.64-2.28-1.28-3.42-1.93-.14,0-.28,0-.41,0-2.53-.95-4.14-2.99-5.77-4.98-.09-.13-.18-.27-.26-.4-.3-.51-.59-1.02-.89-1.52-.23-.39-.45-.79-.68-1.18-.03-.25-.06-.5-.09-.75-.09-.13-.19-.27-.28-.4-.03-.26-.07-.51-.1-.77-.09-.13-.18-.25-.26-.38-.04-.14-.07-.29-.11-.43-.1-.11-.2-.23-.3-.34v-2.32s.12-.08.11-.1c-.02-.09-.07-.18-.11-.27.19-2.04.39-4.08.58-6.12.16-.53.32-1.06.48-1.59Zm121.3-28.47c.87-3.06,1.75-6.12,2.62-9.18,2.56-8.98,5.13-17.96,7.7-26.93,1.47-5.13,2.96-10.26,4.43-15.38H52.78c-.03.2-.08.34-.06.46,2.3,10.37,4.59,20.73,6.92,31.09,2.66,11.87,5.44,23.72,7.94,35.62.38,1.82.97,2.05,2.52,2.05,30.58-.03,61.16-.03,91.74-.03.51,0,1.05.08,1.53-.04.26-.06.43-.48.64-.74,0-.25,0-.5,0-.75.26-.65.52-1.29.78-1.94,0-.25,0-.5,0-.75.1-.34.2-.69.31-1.03,1.18-3.9,2.36-7.79,3.55-11.69,0-.25,0-.5,0-.75Zm-17.78,69.46c-.24,3.17,2.51,5.89,5.4,5.94,3.17.05,5.94-2.52,6.09-5.66.15-3-2.74-5.77-6.1-5.86-2.76-.07-5.36,2.62-5.39,5.58Zm-77.07-17.02s0,.1,0,.15h.58s0-.1,0-.15h-.58Zm82.14.15c0-.05,0-.1,0-.16h-.57c0,.05,0,.1,0,.16h.57Zm-79.97-.05c-.11-.04-.19-.06-.26-.08.01.05.03.1.04.15.06-.02.11-.03.22-.06Zm81.53-.07c-.05-.02-.11-.05-.16-.05-.02,0-.03.09-.05.14.05.02.11.05.16.05.02,0,.03-.09.05-.14Z"/><path class="cls-2" d="m0,7.72c.23.38.47.77.7,1.15-.23,0-.47,0-.7,0C0,8.49,0,8.1,0,7.72Z"/><path class="cls-2" d="m172.75,113.11c.31-.72.63-1.45.94-2.17.12.8.25,1.61.37,2.41-.44-.08-.87-.16-1.31-.24Z"/><path class="cls-2" d="m48.87,111.64c-.07.97-.14,1.93-1.48,1.9-.17-1.15.11-1.95,1.48-1.9Z"/><path class="cls-2" d="m169.29,115.42c.64-.26,1.28-.51,1.92-.77-.25.5-.49,1.01-.74,1.51-.39-.25-.79-.49-1.18-.74Z"/><path class="cls-2" d="m47.33,114.69c-.16.53-.32,1.06-.48,1.59-.2-.27-.41-.55-.61-.82.1-.11.21-.21.31-.32.26-.15.52-.3.77-.45Z"/><path class="cls-2" d="m91.97,157.06c0-.79,0-1.58,0-2.37,0,.79,0,1.58,0,2.37Z"/><path class="cls-2" d="m156.22,173.11c.5-1.3,1.02-.24,1.53,0-.51,0-1.02,0-1.53,0Z"/><path class="cls-2" d="m74.65,173.11c.5-1.3,1.02-.24,1.53,0-.51,0-1.02,0-1.53,0Z"/><path class="cls-2" d="m47.41,128.16c.23.39.45.79.68,1.18-.23-.39-.45-.79-.68-1.18Z"/><path class="cls-2" d="m139.36,155.48l.55.39c-.18.13-.37.26-.55.38v-.77Z"/><path class="cls-2" d="m57.79,155.48c.18.13.37.26.55.39-.18.13-.37.26-.55.38,0-.26,0-.51,0-.77Z"/><path class="cls-2" d="m160.45,138.88h-1.05v-.26h1.05c0,.09,0,.17,0,.26Z"/><path class="cls-2" d="m70.39,172.81c.26.1.53.19.79.29-.26-.1-.53-.19-.79-.29Z"/><path class="cls-2" d="m151.96,172.81c.26.1.53.19.79.29-.26-.1-.53-.19-.79-.29Z"/><path class="cls-2" d="m58.85,138.18c.27.1.53.19.8.29-.27-.1-.53-.19-.8-.29Z"/><path class="cls-2" d="m78.88,138.88h-1.05c0-.09,0-.17,0-.26h1.05c0,.09,0,.17,0,.26Z"/><path class="cls-2" d="m46.68,125.86c.09.13.18.25.26.38-.09-.13-.18-.25-.26-.38Z"/><path class="cls-2" d="m139.38,157.03c.04.09.09.17.1.27,0,.02-.08.07-.12.1-.07-.13-.06-.25.02-.37Z"/><path class="cls-2" d="m63.1,143.24c-.14.1-.27.2-.41.3.14-.1.27-.2.41-.3Z"/><path class="cls-2" d="m144.67,143.24c-.14.1-.27.2-.41.3.14-.1.27-.2.41-.3Z"/><path class="cls-2" d="m62.7,143.52c-.1.14-.2.27-.29.41.1-.14.2-.27.29-.41Z"/><path class="cls-2" d="m144.27,143.52c-.1.14-.2.27-.29.41.1-.14.2-.27.29-.41Z"/><path class="cls-2" d="m61.95,138.47c.12,0,.25-.01.37-.02-.12,0-.25.01-.37.02Z"/><path class="cls-2" d="m55.02,136.25c.14,0,.28,0,.41,0-.09.09-.19.19-.28.28-.05-.09-.09-.19-.14-.28Z"/><path class="cls-2" d="m57.71,151.76c-.09.09-.19.17-.28.26.09-.09.19-.17.28-.26Z"/><path class="cls-2" d="m92.26,152.01c-.1-.11-.2-.22-.3-.34.1.11.2.22.3.34Z"/><path class="cls-2" d="m139.29,151.76c0,.09,0,.17,0,.26-.11-.06-.21-.12-.32-.18l.32-.08Z"/><path class="cls-2" d="m173.83,152.01c-.1-.11-.2-.22-.3-.34.1.11.2.22.3.34Z"/><path class="cls-2" d="m57.8,154.33c.04.09.1.17.13.26,0,.02-.07.07-.11.11-.08-.12-.08-.24-.02-.37Z"/><path class="cls-2" d="m139.37,154.33c.04.09.1.17.13.26,0,.02-.07.07-.11.11-.08-.12-.08-.24-.02-.37Z"/><path class="cls-2" d="m48.98,130.86c.09.13.18.27.26.4-.09-.13-.18-.27-.26-.4Z"/><path class="cls-2" d="m47.04,127.01c.09.13.19.27.28.4-.09-.13-.19-.27-.28-.4Z"/><path class="cls-2" d="m46.26,125.09c.1.11.2.23.3.34-.1-.11-.2-.23-.3-.34Z"/><path class="cls-2" d="m57.81,157.03c.04.09.09.17.1.27,0,.02-.08.07-.12.1-.07-.13-.06-.25.02-.37Z"/><path class="cls-2" d="m155.07,173.11c.12,0,.25-.01.37-.02,0,0-.18.06-.18.06l-.19-.05Z"/><path class="cls-2" d="m58.22,160.5c.09.13.17.25.26.38-.09-.13-.17-.25-.26-.38Z"/><path class="cls-2" d="m139.79,160.5c.09.13.17.25.26.38-.09-.13-.17-.25-.26-.38Z"/><path class="cls-2" d="m58.59,161.65c.09.13.18.26.28.39-.09-.13-.18-.26-.28-.39Z"/><path class="cls-2" d="m140.16,161.65c.09.13.18.26.28.39-.09-.13-.18-.26-.28-.39Z"/><path class="cls-2" d="m62.41,167.8c.1.14.2.27.29.41-.1-.14-.2-.27-.29-.41Z"/><path class="cls-2" d="m143.98,167.8c.1.14.2.27.29.41-.1-.14-.2-.27-.29-.41Z"/><path class="cls-2" d="m62.69,168.2l.41.3-.41-.3Z"/><path class="cls-2" d="m144.26,168.2c.14.1.27.2.41.3-.14-.1-.27-.2-.41-.3Z"/><path class="cls-2" d="m46.27,122.4c.04.09.09.18.11.27,0,.02-.08.07-.12.1,0-.12.01-.25.02-.37Z"/><path class="cls-2" d="m46.55,115.14c-.1.11-.21.21-.31.32.1-.11.21-.21.31-.32Z"/><path class="cls-2" d="m50.4,109.68c-.09.13-.18.26-.27.39.09-.13.18-.26.27-.39Z"/><path class="cls-2" d="m196.64,29.69c.1-.14.2-.28.3-.42-.1.14-.2.28-.3.42Z"/><path class="cls-2" d="m73.5,173.11c.12,0,.25-.01.37-.02,0,0-.18.06-.18.06l-.19-.05Z"/><path class="cls-2" d="m169.31,138.46c.14-.09.27-.19.41-.28-.14.09-.27.19-.41.28Z"/><path class="cls-2" d="m73.78,138.67h.58s0,.1,0,.15h-.58s0-.1,0-.15Z"/><path class="cls-2" d="m155.92,138.82h-.57c0-.05,0-.1,0-.16h.57c0,.05,0,.1,0,.16Z"/><path class="cls-2" d="m164.02,103.14c0-.25,0-.5,0-.75,0,.25,0,.5,0,.75Z"/><path class="cls-2" d="m164.79,100.45c0-.25,0-.5,0-.75,0,.25,0,.5,0,.75Z"/><path class="cls-2" d="m168.63,86.98c0-.25,0-.5,0-.75,0,.25,0,.5,0,.75Z"/><path class="cls-2" d="m75.95,138.78c-.11.03-.16.05-.22.06-.01-.05-.03-.1-.04-.15.07.02.14.05.26.08Z"/><path class="cls-2" d="m157.48,138.7s-.03.13-.05.14c-.05,0-.11-.03-.16-.05.02-.05.03-.14.05-.14.05,0,.11.03.16.05Z"/><path class="cls-2" d="m196.63,27.69c.1.14.19.28.29.41-.1-.14-.19-.28-.29-.41Z"/><ellipse class="cls-2" cx="156.24" cy="159.3" rx="6.41" ry="9.2"/></svg>