<?xml version="1.0" encoding="UTF-8"?><svg id="Laag_1" xmlns="http://www.w3.org/2000/svg" viewBox="0 0 277.1 331.51"><defs><style>.cls-1{fill:#f2b21f;}.cls-2{fill:#a56e18;}</style></defs><path class="cls-1" d="m240.5,29.24c0-.27-.06-.52-.33-.66-.65-.2-.65-.87-.97-1.31,0-.27-.06-.52-.34-.65-4.34-6.11-9.67-11.26-15.77-15.55-8.97-6.31-19.07-9.87-29.95-10.78-6.14-.51-12.39-.44-18.48.92-6.28,1.4-12.26,3.59-17.92,6.76-8.66,4.84-15.69,11.33-21.27,19.49-4.8,7.02-7.97,14.74-9.7,23.02-1.05,5.05-1.2,10.23-1.05,15.4.07,2.57.67,5.06.94,7.59.28,2.6,1.28,5.01,1.7,7.56,0,.52.23.95.56,1.33,1.35,3.64,2.63,7.29,4.62,10.68,3.09,5.27,6.63,10.16,10.98,14.45,1.87,1.84,3.93,3.46,6.01,5.06,4.45,3.43,9.26,6.22,14.49,8.26,5.87,2.29,11.89,3.86,18.23,4.36,4.25.34,8.42.15,12.61-.34.1.15.2.16.32.01,3.53-.34,6.98-1.1,10.34-2.15,11.13-3.49,20.68-9.5,28.54-18.15l.25-.34c2.78-3.1,5.28-6.4,7.24-10.09.09-.12.17-.23.26-.35,2.68-4.98,4.97-10.09,6.28-15.65.61-2.6.9-5.25,1.64-7.82.27-.22.27-.43,0-.64-.37-1.13.32-2.17.29-3.3-.11-3.69.07-7.38-.3-11.06.04-.03.11-.07.1-.09-.02-.08-.06-.15-.09-.23-.57-3.03-1.15-6.07-1.72-9.1-.08-.23-.15-.46-.23-.68-.53-.67-.44-1.53-.74-2.27-.08-.11-.16-.22-.24-.34-.03-.21-.06-.43-.08-.64l-.24-.34c-.03-.21-.06-.42-.08-.63-.09-.12-.17-.23-.26-.35-1.34-4.06-3.51-7.72-5.61-11.41Z"/><path class="cls-2" d="m176.87,22.65c2.9,1.74,6.31,1.51,9.45,2.28,9.01,2.21,17.06,6.25,24.25,11.93,12.82,10.12,21,23.1,24.38,39.29,1.09,5.22.81,10.29,1,15.43.47,12.6-3.65,23.96-10.33,34.34-8.83,13.72-21.3,23.16-36.85,27.89-15.42,4.7-30.84,3.86-45.8-2.51-8.13-3.46-15.09-8.5-21.45-14.7-9.02-8.79-14.54-19.43-17.76-31.31-2.13-7.87-2.04-15.97-1.17-24.13.78-7.3,3.12-13.98,6.1-20.55,2.32-5.1,5.4-9.72,8.97-14,5.81-6.96,12.79-12.49,20.88-16.62,4.65-2.37,9.45-4.41,14.58-5.42,1.43-.28,1.56-.84,1.44-1.93h1.81c.69.9,2.59.9,4.82,0h15.68Zm-8.15,115.18c27.37.49,49.09-21.82,49.09-48.04,0-26.48-21.03-49.21-50.45-48.39-24.57.68-46.12,20.52-46.74,48.02-.59,26.05,23.18,49.43,48.1,48.4Z"/><path class="cls-2" d="m161.19,22.65c-2.24.9-4.13.9-4.82,0h4.82Z"/><path class="cls-2" d="m253.95,249.64c-4.72.02-9.43.07-14.15.07-48.07,0-96.14,0-144.22,0-.42-.49-.61-.16-.79.22-3.16-.44-5.06,1.8-7.21,3.46-7.31,5.63-14.54,11.39-21.95,16.89-1.47,1.09-2.49,2.04-2.06,3.8.49,2.03,2.23,1.88,3.87,1.88,60.49-.01,120.99-.01,181.48-.01,6.13,0,12.27.2,18.39-.06,5-.21,10.08,4.39,9.76,8.91-.41,5.72-4.1,9.77-9.91,9.8-6.33.03-12.66.06-18.99-.03-1.75-.02-2.41.46-1.85,2.18,2.74,8.44.7,16.52-4.02,23.21-3.79,5.38-9.58,9.44-16.57,10.86-8.94,1.82-17.1.17-24.26-5.51-4.99-3.96-7.96-9.36-9.49-15.46-1.14-4.54-1.05-9.16.44-13.68.65-1.98-.85-1.56-1.84-1.56-6.93-.02-13.87-.01-20.8-.01-8.04,0-16.08,0-24.12,0-1.6,0-2.9-.58-2.16,2.41,2.4,9.62.07,18.47-6.67,25.69-5.17,5.55-11.84,8.37-19.62,8.78-13.35.7-24.15-8.87-27.48-19.33-1.83-5.74-1.99-11.54.06-17.57-8.11,0-16.19.02-24.28,0-8.51-.03-15.73-5.27-18.8-12.93-3.27-8.15-2.38-15.79,3.24-22.54,2.87-3.44,6.87-5.73,10.41-8.48,5.57-4.33,11.24-8.54,16.82-12.85,1.11-.86,1.53-1.77,1.1-3.54-3.07-12.49-5.84-25.06-8.76-37.59-2.37-10.18-4.43-20.45-7.39-30.46-1.76-5.95-2.34-12.09-4.06-18-1.73-5.94-2.94-12.01-4.28-18.06-1.59-7.18-3.65-14.25-5.35-21.4-2.29-9.62-4.42-19.28-6.65-28.91-.96-4.16-2.15-8.27-2.96-12.45-.44-2.24-1.16-3.21-3.68-3.17-8.84.17-17.68.08-26.53.04-3.98-.02-7.16-2.73-8.37-6.97-.96-3.35.9-8.1,3.98-9.83,2.04-1.15,4.14-1.91,6.65-1.88,10.95.15,21.91.06,32.86.06,6.22,0,9.88,2.95,11.28,8.87,1.43,6.06,2.96,12.09,4.48,18.12.69,2.73,1.39,5.45,2.19,8.14,1.6,5.38,1.65,5.19,7.26,5.88,5.91.72,11.84,1.42,17.63,2.95,3.54.94,6.16,4.12,6.46,8.05.27,3.43-2.56,7.35-5.63,8.95-3.42,1.78-6.67.62-9.98.19-2.8-.36-5.66-.35-8.37-1.45-1.2-.49-1.47.45-1.2,1.56,2.11,8.8,4.25,17.59,6.29,26.4,3.32,14.32,6.53,28.67,9.86,42.99.94,4.06,2.25,8.08,3.03,12.12,2.29,11.82,5.41,23.43,7.82,35.21.49,2.37,1.23,4.69,1.86,7.03-.03.56.13.78.65.36,50.94,0,101.88,0,152.83,0,5.62,0,5.66-.05,5.66-5.8,0-3.92-.2-7.85.04-11.75.74-12.31.04-24.66.72-36.94.55-9.92-.05-19.82.53-29.71.2-3.37.48-6.74.55-10.12.04-2.08-.83-3.24-2.92-3.71-4.48-.99-6.91-4.34-7.46-8.58-.46-3.55,1.25-5.66,3.5-7.69,2.54-2.28,5.77-2.24,8.72-1.64,5.96,1.23,10.23,4.95,13.85,9.82,2.17,2.93,2.36,5.94,2.37,9.2.01,9.65.39,19.31-.09,28.93-.59,11.82.06,23.65-.66,35.43-.58,9.52-.05,19.02-.48,28.51-.51,11.22-5.15,18.46-16.26,22.13-1.19.39-2.39.16-3.56.38-.26.06-.51.11-.77.17Zm-128.33,54.01c.41-5.96-5.34-9.71-10.92-9.01-4.03.5-8.42,5.81-7.75,9.79.82,4.85,5.07,9.08,10.74,8.32,4.7-.62,8.39-4.83,7.93-9.1Zm93.65-9.01c-5.35-.3-9.22,4.41-9.23,8.96,0,5.01,4.25,9.16,9.42,9.17,4.86,0,9.26-4.28,9.28-9.03.02-5.04-4.22-9.12-9.46-9.1Z"/><path class="cls-2" d="m97.38,231c-.52.42-.68.2-.65-.36.22.12.43.24.65.36Z"/><path class="cls-2" d="m94.8,249.93c.18-.38.37-.71.79-.22-.26.07-.52.15-.79.22Z"/><path class="cls-2" d="m253.95,249.64c.26-.06.51-.11.77-.17-.2.3-.43.5-.77.17Z"/><path class="cls-2" d="m125.62,303.64c.46,4.27-3.23,8.48-7.93,9.1-5.67.75-9.92-3.47-10.74-8.32-.67-3.98,3.71-9.28,7.75-9.79,5.57-.7,11.33,3.05,10.92,9.01Z"/><path class="cls-2" d="m219.27,294.63c5.25-.01,9.49,4.07,9.46,9.1-.02,4.75-4.43,9.03-9.28,9.03-5.17,0-9.42-4.16-9.42-9.17,0-4.55,3.89-9.26,9.23-8.96Z"/><path class="cls-2" d="m145.45,80.54c4.87-.59,7.26,3.5,9.92,6.76,1.31,1.61,3,2.89,4.03,4.75.59,1.06,1.47.69,2.15-.11,4.97-5.84,10.32-11.33,15.63-16.86,2.76-2.87,5.53-5.74,8.12-8.77,2.96-3.45,9.73-3.48,12.99-.88,4.13,3.31,4.59,9.68.82,13.64-8.69,9.13-17.46,18.18-26.05,27.4-1.96,2.1-3.83,4.3-5.85,6.35-4.74,4.78-10.82,4.44-15.18-.74-4.65-5.52-9.42-10.94-14.04-16.49-2.38-2.85-2.94-6.21-1.48-9.64,1.66-3.91,4.25-5.42,8.96-5.42Z"/></svg>