<?xml version="1.0" encoding="UTF-8"?><svg id="Laag_1" xmlns="http://www.w3.org/2000/svg" viewBox="0 0 204.96 370.56"><defs><style>.cls-1{fill:#050505;font-family:SuperCorn, 'Super Corn';font-size:17.82px;}.cls-1,.cls-2{isolation:isolate;}.cls-2,.cls-3{fill:none;}.cls-4{fill:#f6a10e;}</style></defs><g id="Ellipse_2"><circle class="cls-4" cx="85.4" cy="265.11" r="39.36"/><circle class="cls-3" cx="85.4" cy="265.11" r="38.99"/></g><g id="Ellipse_3"><circle class="cls-4" cx="160.4" cy="326" r="44.56"/><circle class="cls-3" cx="160.4" cy="326" r="44.18"/></g><g id="Ellipse_4"><circle class="cls-4" cx="172.65" cy="226.86" r="32.3"/><circle class="cls-3" cx="172.65" cy="226.86" r="31.93"/></g><g id="Ellipse_5"><circle class="cls-4" cx="102.85" cy="174.88" r="27.85"/><circle class="cls-3" cx="102.85" cy="174.88" r="27.48"/></g><g id="Ellipse_6"><circle class="cls-4" cx="102.85" cy="174.88" r="27.85"/><circle class="cls-3" cx="102.85" cy="174.88" r="27.48"/></g><g id="Ellipse_7"><circle class="cls-4" cx="167.09" cy="138.87" r="26.73"/><circle class="cls-3" cx="167.09" cy="138.87" r="26.36"/></g><g id="Ellipse_8"><circle class="cls-4" cx="114.36" cy="115.85" r="23.02"/><circle class="cls-3" cx="114.36" cy="115.85" r="22.65"/></g><g id="Ellipse_9"><circle class="cls-4" cx="150.01" cy="40.1" r="23.02"/><circle class="cls-3" cx="150.01" cy="40.1" r="22.65"/></g><g id="Ellipse_10"><circle class="cls-4" cx="23.02" cy="282.19" r="23.02"/><circle class="cls-3" cx="23.02" cy="282.19" r="22.65"/></g><g id="Ellipse_11"><circle class="cls-4" cx="171.54" cy="86.88" r="13.37"/><circle class="cls-3" cx="171.54" cy="86.88" r="13"/></g><g id="Ellipse_12"><circle class="cls-4" cx="65.35" cy="138.87" r="13.37"/><circle class="cls-3" cx="65.35" cy="138.87" r="13"/></g><g id="Ellipse_13"><circle class="cls-4" cx="44.56" cy="199.02" r="20.79"/><circle class="cls-3" cx="44.56" cy="199.02" r="20.42"/></g><g id="Ellipse_14"><circle cx="150.01" cy="40.1" r="15.59"/><circle class="cls-3" cx="150.01" cy="40.1" r="15.22"/></g><g id="Ellipse_15"><circle cx="173.4" cy="226.86" r="23.39"/><circle class="cls-3" cx="173.4" cy="226.86" r="23.02"/></g><g id="Ellipse_16"><circle cx="64.98" cy="139.24" r="7.8"/><circle class="cls-3" cx="64.98" cy="139.24" r="7.43"/></g><g id="Ellipse_17"><circle class="cls-4" cx="65.35" cy="118.82" r="2.23"/><circle class="cls-3" cx="65.35" cy="118.82" r="1.86"/></g><g id="Ellipse_18"><circle class="cls-4" cx="65.35" cy="158.92" r="2.23"/><circle class="cls-3" cx="65.35" cy="158.92" r="1.86"/></g><g id="Ellipse_19"><circle class="cls-4" cx="86.14" cy="138.87" r="2.23"/><circle class="cls-3" cx="86.14" cy="138.87" r="1.86"/></g><g id="Ellipse_20"><circle class="cls-4" cx="44.56" cy="138.87" r="2.23"/><circle class="cls-3" cx="44.56" cy="138.87" r="1.86"/></g><g id="Ellipse_21"><circle class="cls-4" cx="79.53" cy="153.04" r="2.23"/><circle class="cls-3" cx="79.53" cy="153.04" r="1.86"/></g><g id="Ellipse_22"><circle class="cls-4" cx="51.17" cy="124.69" r="2.23"/><circle class="cls-3" cx="51.17" cy="124.69" r="1.86"/></g><g id="Ellipse_23"><circle class="cls-4" cx="50.65" cy="153.57" r="2.23"/><circle class="cls-3" cx="50.65" cy="153.57" r="1.86"/></g><g id="Ellipse_24"><circle class="cls-4" cx="80.05" cy="124.16" r="2.23"/><circle class="cls-3" cx="80.05" cy="124.16" r="1.86"/></g><g id="Ellipse_25"><circle class="cls-4" cx="173.77" cy="177.48" r="5.94"/><circle class="cls-3" cx="173.77" cy="177.48" r="5.57"/></g><g id="Ellipse_26"><circle class="cls-4" cx="173.03" cy="274.76" r="5.94"/><circle class="cls-3" cx="173.03" cy="274.76" r="5.57"/></g><g id="Ellipse_27"><circle class="cls-4" cx="124.76" cy="227.24" r="5.94"/><circle class="cls-3" cx="124.76" cy="227.24" r="5.57"/></g><g id="Ellipse_29"><circle class="cls-4" cx="138.15" cy="259.64" r="5.94"/><circle class="cls-3" cx="138.15" cy="259.64" r="5.57"/></g><g id="Ellipse_30"><circle class="cls-4" cx="138.08" cy="192.68" r="5.94"/><circle class="cls-3" cx="138.08" cy="192.68" r="5.57"/></g><g id="Ellipse_32"><circle class="cls-4" cx="150.38" cy="4.83" r="4.83"/><circle class="cls-3" cx="150.38" cy="4.83" r="4.46"/></g><g id="Ellipse_33"><circle class="cls-4" cx="150.38" cy="74.63" r="4.83"/><circle class="cls-3" cx="150.38" cy="74.63" r="4.46"/></g><g id="Ellipse_34"><circle class="cls-4" cx="106.56" cy="40.47" r="4.83"/><circle class="cls-3" cx="106.56" cy="40.47" r="4.46"/></g><g id="Ellipse_35"><circle class="cls-4" cx="186.02" cy="40.47" r="4.83"/><circle class="cls-3" cx="186.02" cy="40.47" r="4.46"/></g><g id="Ellipse_36"><circle class="cls-4" cx="174.62" cy="14.62" r="4.83"/><circle class="cls-3" cx="174.62" cy="14.62" r="4.46"/></g><g id="Ellipse_37"><circle class="cls-4" cx="126.13" cy="64.84" r="4.83"/><circle class="cls-3" cx="126.13" cy="64.84" r="4.46"/></g><g id="Ellipse_38"><circle class="cls-4" cx="124.22" cy="15.5" r="4.83"/><circle class="cls-3" cx="124.22" cy="15.5" r="4.46"/></g><g id="Ellipse_39"><circle class="cls-4" cx="175.5" cy="65.02" r="4.83"/><circle class="cls-3" cx="175.5" cy="65.02" r="4.46"/></g><g id="_5.0" class="cls-2"><text class="cls-1" transform="translate(93.57 164.86)"><tspan x="0" y="0">5.0</tspan></text></g><g id="Ellipse_49"><circle class="cls-4" cx="85.4" cy="265.11" r="39.36"/><circle class="cls-3" cx="85.4" cy="265.11" r="38.99"/></g><g id="Ellipse_50"><circle class="cls-4" cx="160.4" cy="326" r="44.56"/><circle class="cls-3" cx="160.4" cy="326" r="44.18"/></g><g id="Ellipse_51"><circle class="cls-4" cx="172.65" cy="226.86" r="32.3"/><circle class="cls-3" cx="172.65" cy="226.86" r="31.93"/></g><g id="Ellipse_52"><circle class="cls-4" cx="102.85" cy="174.88" r="27.85"/><circle class="cls-3" cx="102.85" cy="174.88" r="27.48"/></g><g id="Ellipse_53"><circle class="cls-4" cx="102.85" cy="174.88" r="27.85"/><circle class="cls-3" cx="102.85" cy="174.88" r="27.48"/></g><g id="Ellipse_54"><circle class="cls-4" cx="167.09" cy="138.87" r="26.73"/><circle class="cls-3" cx="167.09" cy="138.87" r="26.36"/></g><g id="Ellipse_55"><circle class="cls-4" cx="114.36" cy="115.85" r="23.02"/><circle class="cls-3" cx="114.36" cy="115.85" r="22.65"/></g><g id="Ellipse_56"><circle class="cls-4" cx="150.01" cy="40.1" r="23.02"/><circle class="cls-3" cx="150.01" cy="40.1" r="22.65"/></g><g id="Ellipse_57"><circle class="cls-4" cx="69.06" cy="345.31" r="23.02"/><circle class="cls-3" cx="69.06" cy="345.31" r="22.65"/></g><g id="Ellipse_58"><circle class="cls-4" cx="171.54" cy="86.88" r="13.37"/><circle class="cls-3" cx="171.54" cy="86.88" r="13"/></g><g id="Ellipse_59"><circle class="cls-4" cx="65.35" cy="138.87" r="13.37"/><circle class="cls-3" cx="65.35" cy="138.87" r="13"/></g><g id="Ellipse_60"><circle class="cls-4" cx="44.56" cy="199.02" r="20.79"/><circle class="cls-3" cx="44.56" cy="199.02" r="20.42"/></g><g id="Ellipse_61"><circle cx="150.01" cy="40.1" r="15.59"/><circle class="cls-3" cx="150.01" cy="40.1" r="15.22"/></g><g id="Ellipse_62"><circle cx="173.4" cy="226.86" r="23.39"/><circle class="cls-3" cx="173.4" cy="226.86" r="23.02"/></g><g id="Ellipse_63"><circle cx="64.98" cy="139.24" r="7.8"/><circle class="cls-3" cx="64.98" cy="139.24" r="7.43"/></g><g id="Ellipse_64"><circle class="cls-4" cx="65.35" cy="118.82" r="2.23"/><circle class="cls-3" cx="65.35" cy="118.82" r="1.86"/></g><g id="Ellipse_65"><circle class="cls-4" cx="65.35" cy="158.92" r="2.23"/><circle class="cls-3" cx="65.35" cy="158.92" r="1.86"/></g><g id="Ellipse_66"><circle class="cls-4" cx="86.14" cy="138.87" r="2.23"/><circle class="cls-3" cx="86.14" cy="138.87" r="1.86"/></g><g id="Ellipse_67"><circle class="cls-4" cx="44.56" cy="138.87" r="2.23"/><circle class="cls-3" cx="44.56" cy="138.87" r="1.86"/></g><g id="Ellipse_69"><circle class="cls-4" cx="51.17" cy="124.69" r="2.23"/><circle class="cls-3" cx="51.17" cy="124.69" r="1.86"/></g><g id="Ellipse_70"><circle class="cls-4" cx="50.65" cy="153.57" r="2.23"/><circle class="cls-3" cx="50.65" cy="153.57" r="1.86"/></g><g id="Ellipse_71"><circle class="cls-4" cx="80.05" cy="124.16" r="2.23"/><circle class="cls-3" cx="80.05" cy="124.16" r="1.86"/></g><g id="Ellipse_72"><circle class="cls-4" cx="173.77" cy="177.48" r="5.94"/><circle class="cls-3" cx="173.77" cy="177.48" r="5.57"/></g><g id="Ellipse_73"><circle class="cls-4" cx="173.03" cy="274.76" r="5.94"/><circle class="cls-3" cx="173.03" cy="274.76" r="5.57"/></g><g id="Ellipse_74"><circle class="cls-4" cx="124.76" cy="227.24" r="5.94"/><circle class="cls-3" cx="124.76" cy="227.24" r="5.57"/></g><g id="Ellipse_75"><circle class="cls-4" cx="138.15" cy="259.64" r="5.94"/><circle class="cls-3" cx="138.15" cy="259.64" r="5.57"/></g><g id="Ellipse_76"><circle class="cls-4" cx="138.08" cy="192.68" r="5.94"/><circle class="cls-3" cx="138.08" cy="192.68" r="5.57"/></g><g id="Ellipse_77"><circle class="cls-4" cx="150.38" cy="4.83" r="4.83"/><circle class="cls-3" cx="150.38" cy="4.83" r="4.46"/></g><g id="Ellipse_78"><circle class="cls-4" cx="150.38" cy="74.63" r="4.83"/><circle class="cls-3" cx="150.38" cy="74.63" r="4.46"/></g><g id="Ellipse_80"><circle class="cls-4" cx="186.02" cy="40.47" r="4.83"/><circle class="cls-3" cx="186.02" cy="40.47" r="4.46"/></g><g id="Ellipse_81"><circle class="cls-4" cx="174.62" cy="14.62" r="4.83"/><circle class="cls-3" cx="174.62" cy="14.62" r="4.46"/></g><g id="Ellipse_82"><circle class="cls-4" cx="126.13" cy="64.84" r="4.83"/><circle class="cls-3" cx="126.13" cy="64.84" r="4.46"/></g><g id="Ellipse_83"><circle class="cls-4" cx="124.22" cy="15.5" r="4.83"/><circle class="cls-3" cx="124.22" cy="15.5" r="4.46"/></g><g id="Ellipse_84"><circle class="cls-4" cx="175.5" cy="65.02" r="4.83"/><circle class="cls-3" cx="175.5" cy="65.02" r="4.46"/></g></svg>