<?xml version="1.0" encoding="utf-8"?>
<!-- Generator: Adobe Illustrator 27.1.1, SVG Export Plug-In . SVG Version: 6.00 Build 0)  -->
<svg version="1.1" id="Laag_1" xmlns="http://www.w3.org/2000/svg" xmlns:xlink="http://www.w3.org/1999/xlink" x="0px" y="0px"
	 viewBox="0 0 570.4 351.9" style="enable-background:new 0 0 570.4 351.9;" xml:space="preserve">
<style type="text/css">
	.st0{fill:#C6743C;stroke:#91572F;stroke-width:12;stroke-linecap:round;stroke-linejoin:round;stroke-miterlimit:10;}
	.st1{fill:#F4B220;}
	.st2{fill:#AB6535;}
	.st3{fill:#F4B220;stroke:#A36B1A;stroke-width:12;stroke-linecap:round;stroke-linejoin:round;stroke-miterlimit:10;}
	.st4{fill:#8ABE28;stroke:#6B8D2C;stroke-width:12;stroke-miterlimit:10;}
	.st5{fill:#BB8820;}
</style>
<g>
	<path class="st0" d="M186.6,232.9c7,2,14.1,3.9,21.1,6c12.6,3.9,25.6,6.9,38.7,7.2c13.3,0.3,26.5-2.3,39.5-5.5
		c13.5-3.3,26.8-7.7,40.8-8.3c5-0.2,10.1,0.2,15,1.4c10.1,2.5,20.1,5,30.2,7.2c4.8,1.1,5,4.9,6,8.4c1,3.3-2,4.2-3.8,5.5
		c-12.7,8.8-27.3,12.3-42.2,14.7c-19.1,3.1-38.4,2.5-57.6,1.1c-22.9-1.7-45.4-5.8-66-16.8c-9.1-4.8-16.8-11.2-22.7-19.6
		C185.9,233.8,186.3,233.4,186.6,232.9z"/>
	<path class="st0" d="M398.6,247.5c3.6-1.2,6.6,0.1,9.4,0.5c17.6,2.7,34.5-1.4,51.3-5.8c29.8-7.7,58.1-18.8,83.5-36.6
		c3-2.1,4.8-1.6,7.1,1c10,11.7,7,30.8-6.5,40.8c-8.1,6-17.3,9.2-26.9,11.5c-24.9,5.9-50.2,5.4-75.5,4.5c-11.2-0.4-22.3-3.5-32.7-8.3
		C404.8,253.4,401.1,251.5,398.6,247.5z"/>
	<path class="st0" d="M35.8,223.1c24.4,9.1,48.9,4,73.3,3.5c15.1-0.3,30.2-0.1,45.3-0.1c5,0,8.3,1.9,10,7.2c1.3,4,3.9,7.7,6.3,11.3
		c1.9,2.8,1.4,4.1-1.6,5.5c-12.2,5.9-25.3,9.5-38.6,10.5c-18,1.4-36.2,1.7-54-3c-15.7-4.2-30-10.6-38.1-26
		C37.1,229.6,35.6,227.1,35.8,223.1z"/>
	<path class="st1" d="M470.4,295.4c0.4,0,0.7,0,1-0.2C471.1,295.4,470.8,295.4,470.4,295.4z"/>
	<path class="st2" d="M163.3,302.5c0.2-0.2,0.4-0.2,0.6,0c0,0-0.3,0.2-0.3,0.2L163.3,302.5z"/>
</g>
<path class="st3" d="M495.4,96.5c0,0-7.4,9.1-44,0c-36.7-9.1-21.1-38.5-21.1-38.5c-36.2,2.8-49.2-12.6-53.1-28.4
	c-6.6,1.9-13,4.2-19.4,7c-3.5,1.5-3.4,2.3-1,4.8c20.9,22.6,27.9,49.9,26.3,79.9c-0.3,5.5-3.3,8.3-8.5,8.4c-7.3,0.2-9.7-2-9.5-9.6
	c0.3-13.8-0.2-27.5-5.4-40.3c-10.6-25.9-29.9-43.2-55.7-53.3c-18.3-7.1-37.4-8.1-56.5-4.4c-12.5,2.4-24.4,6.7-35.5,14.2
	c5.6,4.6,10.8,9.3,15.1,14.7c17.1,21.2,24.5,45.5,23.3,72.5c-0.1,1.7-0.7,2.9-1.8,4c-2.5,2.5-5.6,4.4-9.1,2.9c-5-2-7.3-6.1-7.2-11.6
	c0.3-20.7-5.3-39.6-18.7-55.6c-16.9-20.2-38.1-34.3-64.5-37.7c-25.7-3.3-49.1,4.3-68.7,21.6c-15.3,13.5-23,30.6-22.8,51.1
	c0.1,9,2,17.8,4.6,26.4c4.9,15.9,14.7,28.3,28.9,36.7c12.6,7.4,26.8,11,41.2,11.2c39.7,0.6,79.4,0.1,119.1,0
	c1.7,0.1,3.4,0.2,5.1,0.2c57.5,0,115,0,172.4,0c6.6,0,13.2,0.2,19.7-1.1c23-4.6,41.5-15,52.1-34.9
	C481.9,123.4,495.4,96.5,495.4,96.5z"/>
<path class="st4" d="M551.4,148.2c-19.2,4.2-34.6-1.9-34.6-1.9c-4.2,7.5-9.8,14.2-16.5,20.2c-16.8,15.1-36.3,24.4-58.8,24.5
	c-102.5,0.4-204.9,0.1-307.4,0.2c-8.2,0-16.2-1-24-2.9c-34.1-8.3-57.8-28-67-63c-1-3.9-2.6-3.9-5.6-2.4
	C25.1,129,16.8,138.8,13.2,152c-6.1,22.5,6.4,45,29.2,53.8c12.8,4.9,25.8,4.6,39.3,3.9c21.3-1.2,42.6-2,63.9-1.8
	c19.8,0.2,38.4,5.5,57,11c12.5,3.7,25,7.4,38.1,8.5c20.2,1.6,39.4-4.2,58.6-8.7c11.2-2.6,22.3-5.8,33.8-4.5
	c10.2,1.2,20.2,3.7,30.2,6c18.2,4.3,36.1,10.3,57.1,9.4c3-0.3,7.8,0.3,12.7-0.5c12-2,23.8-4.9,35.4-8.6c25.2-8,49.6-17.9,70.1-35.2
	c8-6.8,14.9-15,14.4-26.2C553.1,155.2,552.4,151.5,551.4,148.2z"/>
<path class="st3" d="M525.2,282.2c-96.7,18.1-140.4-12.4-140.4-12.4c-82.1,55.7-203.9,0-203.9,0c-43.8,27.6-123.6,7.8-123.6,7.8
	s50.6,58.2,221.8,57.2C450.4,333.8,525.2,282.2,525.2,282.2z"/>
<path class="st3" d="M492.7,52.3c-8.9,5.8-17.9,11.5-26.7,17.4c-3.9,2.6-7.2,2.6-10.2-1.4c-0.5-6.7-2-13.6-1.3-20.1
	c1-9.1,7.5-12.5,15.7-11.3c6.5,0.9,12.9,3.8,19.2,6.1C493.4,44.5,495.9,47.2,492.7,52.3z"/>
<path class="st3" d="M554.2,61c-0.8,1.9-4.5,5.9-5.5,5.5c-11.3-4.6-22.9-8.8-33.1-15.3c-4.3-2.7,1.2-8.4,4.9-9.8l33.7-15.8
	C554.2,25.6,563.4,39.7,554.2,61z"/>
<path class="st3" d="M555.8,107.5c-1.3,0.9-4.3,4.7-6.9,4.5c-10-0.7-20-2.3-29.6-4.7c-2.1-0.5-4.9-6.4-4.1-8.6
	c3.5-9.3,10.6-16,21-17.4C548.3,79.6,556.2,89.4,555.8,107.5z"/>
<path class="st5" d="M110.1,36.7c0,0-97,130.4,125.8,131.8H127c0,0-60.1-2.6-64.4-68.8C62.7,99.7,57.3,55,110.1,36.7z"/>
</svg>
