<?xml version="1.0" encoding="utf-8"?>
<!-- Generator: Adobe Illustrator 27.1.1, SVG Export Plug-In . SVG Version: 6.00 Build 0)  -->
<svg version="1.1" id="Laag_1" xmlns="http://www.w3.org/2000/svg" xmlns:xlink="http://www.w3.org/1999/xlink" x="0px" y="0px"
	 viewBox="0 0 879.6 587" style="enable-background:new 0 0 879.6 587;" xml:space="preserve">
<style type="text/css">
	.st0{fill:#F4B220;stroke:#A36B1A;stroke-width:12;stroke-linecap:round;stroke-linejoin:round;stroke-miterlimit:10;}
	.st1{fill:#C6743C;stroke:#91572F;stroke-width:12;stroke-linecap:round;stroke-linejoin:round;stroke-miterlimit:10;}
	.st2{fill:#F4B220;}
	.st3{fill:#AB6535;}
	.st4{fill:#8ABE28;stroke:#6B8D2C;stroke-width:12;stroke-miterlimit:10;}
	.st5{fill:#BB8820;}
</style>
<g>
	<path class="st0" d="M90.3,277.2c-2.6,0.9-5.9,1.4-9.9,1.2c-8.3-0.1-15.7-3.2-22.1-9.2c-4.5-4-7.9-9.1-10.4-15.4
		c-2.8-7.3-4-15.2-3.3-24.1c0.8-11.5,4.6-23.7,11.4-36.3c-11-0.1-20.1-3.6-27.1-10.3c-3.9-3.9-6.8-8.4-8.9-13.6
		c-3.3-8.5-4.5-18-3.4-28.5c1.1-10.7,4.1-20.7,8.9-29.9c5.3-10.1,11.9-17.1,19.5-20.9c3.3-1.6,6.6-2.5,10.1-2.7
		c11.5-0.2,19.5,5.7,24.2,17.6c3.4,8.8,4.9,19.8,4.3,33.1c-0.2,4.9-0.5,7.4-0.6,7.4l-22.3-3.4c1.1-12.6,0.8-21.1-0.9-25.6
		c-0.3-0.8-0.7-1.6-1.3-2.5c-1.2-1.5-2.8-1.7-5.2-0.5c-3.4,1.7-6.5,5.9-9.5,12.4c-2.4,5.5-4,11.4-4.7,17.4
		c-0.7,6.1-0.2,11.1,1.4,15.4c4.3,10.9,17.5,12.1,39.6,3.4l11.7,21.1c-14.5,16.7-22.7,31.8-24.5,45.3c-0.8,5.7-0.4,10.5,1.3,14.7
		c1.7,4.2,4.4,7.1,7.9,8.6c3.3,1.5,6.8,1.3,10.3-0.5c6.7-3.4,11.6-10.8,14.6-22.3c2.6-9.8,3.3-22.5,2.3-38l22.4-2.1
		c1.2,16.4,0.5,30.7-2.2,43c-2.5,11.5-6.4,20.9-11.6,28.2c-4.7,6.6-10.1,11.6-16.3,14.6C94.8,275.5,92.9,276.2,90.3,277.2z"/>
	<path class="st0" d="M210.3,183.3c-3.6,13.9-8.8,24.5-15.3,31.9c-3.9,4.4-8.2,7.4-12.9,9c-4.4,1.5-8.8,1.8-13.4,0.9
		c-7.4-1.6-14.2-5.4-20.3-11.8c-5.5-5.5-9.4-12.4-11.5-20.2c-2.1-7.9-2.2-15.9-0.1-23.7c1.9-7.2,5.3-13.2,10.3-18.1
		c3.9-4.2,8.8-7.2,14.6-9.2c7.6-2.6,16.1-3.2,25.5-1.5l-3.5,25.2c-5.9-1.1-10.9-1-14.9,0.4c-5.5,1.9-8.9,5.4-10.3,10.5
		c-0.8,2.9-0.7,5.9,0.2,9.2c1.5,5.7,5.1,10,10.7,12.9c2.5,1.2,4.6,1.6,6.4,1c4.3-1.5,8.1-7.7,11.7-18.7c2.6-8.3,4.5-17.9,5.8-28.7
		c1.2-10.3,1.3-17.4,0.3-21.1c-0.5-1.4-1.1-2.7-1.6-4c-2.2-4.7-5.1-7.7-8.8-8.9c-3.6-1.4-8.5-0.9-14.2,1c-4.5,1.5-9.9,4.1-16.2,7.9
		l-10.4-22.7c8.1-4.8,15.4-8.2,21.8-10.4c10-3.4,18.5-4.1,25.5-2c10.7,3.4,19.3,14,25.7,31.8c1.6,4.7,3.5,10.9,5.6,18.9
		c3.7,14,7.4,24.6,11.2,31.7c3.4,6.6,7.8,11.6,13,14.9l-10.9,22.3C224.1,205.4,216.1,196,210.3,183.3z"/>
	<path class="st0" d="M275.1,195.3c-2.4,0.1-5.3-0.8-8.6-2.6c-3.3-1.8-6.4-4.3-9.5-7.7c-10.3-11.5-19-35.9-26-73l-3,0.8L222.7,88
		l4.2-1.1c-2.1-13.9-4.1-30.6-6.2-50.2l22.3-3.3l0.7,5.8c1.1,11.2,2.8,25.1,5,41.7l22.9-6.4l5.3,24.8l-24.2,6.7
		c5.8,32.1,12.5,52.3,20.1,60.8c1.1,1.3,2.5,1.8,4.1,1.6c1.9-0.5,4.2-2.2,6.7-5l16.1,17.9c-6.6,7.6-13,12.1-19.2,13.5
		C279.3,194.9,277.4,195.1,275.1,195.3z"/>
	<path class="st0" d="M371.9,71.3c-1.5-3.3-2.6-7.3-3.7-12c-0.8-3.6-1.4-7-1.6-10.2c-1-16.1,4.1-28.5,15-37.3l9.7,15.7
		c-2.2,1.7-3.9,3.6-5,5.7c-1.2,2.1-2,4.4-2.4,6.7s-0.6,4.7-0.4,6.9c0.3,4.3,1,8.2,2.2,12.1l2,5.2l-15,8.9L371.9,71.3z"/>
	<path class="st0" d="M410,164.8l-0.7-14.8c-2.3-41.7-3.5-68.8-3.6-81.4l0-2.3l22.5,1.1l0,2.4c0.1,5.2,0.4,15,1.1,29.5
		c5.7-14.3,11.1-24.7,16.6-31.2c5.4-6.4,11-9.6,16.8-9.7c13.7-0.2,22.7,13.7,26.8,41.7c1.6,11.2,2.6,23.4,2.7,36.5
		c0.1,9-0.2,18.4-0.7,28.1l-22.5-1.7c0.5-9.6,0.7-18.7,0.6-27.3c-0.1-5.1-0.3-12.1-0.9-20.7c-0.6-8.6-2.1-16.7-4.4-24.4
		c-0.1-0.1-0.1-0.5-0.2-0.8c-0.1-0.4-0.3-0.7-0.4-1.3c-0.1-0.5-0.3-0.9-0.5-1.4c-0.2-0.5-0.4-0.8-0.5-0.9c-0.2-0.2-0.3-0.4-0.4-0.4
		l-0.3,0.2c-8.8,10.7-18.7,37.8-29.8,81.5L410,164.8z"/>
	<path class="st0" d="M589.5,190.1c-4.4-4.8-7.6-10.9-9.2-18c-1.5-5.6-1.7-11.7-0.6-18c1.5-9.1,5.4-16.6,11.7-22.7
		c5.5-5.5,12.5-9,20.8-10.6c6.8-1.2,14.3-1,22.7,0.8c2.8,0.6,5.2,1.2,7.3,1.9l-5.8,24.6l-0.9-0.2c-1.7-0.5-3.3-0.9-4.9-1.3
		c-5.3-1.1-10-1.4-13.9-0.8c-5.4,0.9-9.2,3-11.8,6.3c-1.6,1.9-2.5,4.2-2.9,6.6c-0.6,3.8-0.3,7.3,1.3,10.2c2.1,4.1,5.2,6.5,9.4,7.4
		c3.3,0.7,6.6,0.2,9.9-1.6c4.7-2.5,9.7-8.4,15.1-17.6c5.4-9.6,10.1-20.9,14.1-34c2.6-8.4,4.7-17,6.1-25.8
		c6.1-36.3,0.2-56.3-17.5-60.1c-8.7-1.4-16.1,0.5-22.1,5.6c-4.1,3.5-6.9,7.9-8.2,13.2l-21.7-6.6c2.7-10.9,8-19.8,16-26.6
		c7-6,14.8-9.7,23.7-11.1c5.6-0.9,11.1-0.8,16.5,0.4c11.5,2.5,20.8,8.8,27.7,19c10.6,15.7,13.2,39,7.9,70.3
		c-3.1,18.3-8,35.4-14.8,51.5c-6.2,14.6-13,26-20.2,34.4c-5.5,6.3-11.7,10.6-18.5,12.9c-5.9,2.1-11.9,2.5-18.2,1.2
		C601.1,199.7,594.8,196.1,589.5,190.1z"/>
	<path class="st0" d="M678.8,179.3c-2-9.2-1.3-20.1,1.9-32.7c0.7-2.7,1.5-5.3,2.3-7.6l20.9,9.3c-0.6,2-1.2,3.9-1.7,5.6
		c-3,11.6-2.9,19.5,0.5,23.9c1.4,1.8,3.5,3.2,6.4,4.1c2.9,1,5.8,0.2,8.6-2.2c2.7-2.4,5.1-5.9,7.2-10.3c-8-6.1-14.2-12.5-18.5-19.1
		c-7-10.4-9.1-20.7-6.5-30.8c1-3.9,2.6-7.2,4.7-10.1c3.2-4.3,7.2-7.4,12-9.2c5.2-1.9,10.4-2,15.9-0.2c4.6,1.5,8.4,4.3,11.6,8.2
		c4.6,5.9,7.6,13.4,8.7,22.7c1.5,11.2,0.6,22.9-2.5,35l-1,3.4c-2.2,8.2-5.6,15.6-10,22c-4.7,6.7-10,11.5-15.8,14.1
		c-6.5,3-13.3,3.4-20.6,1.1C690,202,681.9,193,678.8,179.3z M729.4,128c-0.9-2-1.9-3.2-3.3-3.7c-1.2-0.4-2.4-0.2-3.4,0.6
		c-0.5,0.4-0.9,0.8-1,1.4c-0.1,0.6-0.2,1.2-0.1,2.1c0.7,4.4,3.8,9.2,9.5,14.4C731.1,136,730.5,131.1,729.4,128z"/>
	<path class="st0" d="M743.8,297.9c-4.8-4.9-8-10.8-9.6-17.5c-2-8.1-1.7-15.7,0.8-22.7c2.4-6.7,6.5-11.8,12.2-15.3
		c10-6.1,22.5-5.6,37.4,1.4c2.8,1.3,5.9,2.9,8.9,4.8L782.7,271c-2.6-1.6-5.1-2.9-7.4-4c-4.5-2.1-8.7-3.3-12.3-3.3
		c-3.9-0.1-6.3,1.1-7.2,3.6c-0.3,0.9-0.5,1.7-0.5,2.7c-0.1,5.7,2.6,9.8,8.1,12.4c7.4,3.4,15.1,0.4,23.4-9.1
		c8.3-9.6,17.2-25.1,26.9-47.1c-12.5,9.3-24.4,11.3-35.9,5.9c-13.4-6.3-19.7-19.9-18.7-40.8c0.7-14.4,5-32.2,12.8-53.5
		c2.2-6,4.8-12.8,7.9-19.9l20.3,11.1c-2.8,6.5-5.2,12.6-7.2,18.1c-4.8,13-8.1,24.6-9.9,34.6c-2.9,15.7-1.6,24.8,3.9,27.4
		c1.7,0.7,3.3,0.8,5.1,0.5c7.7-1.4,16.4-9.2,26.3-23.5c10.2-14.7,18.3-30.4,24.4-47.2l21.2,8.3c-5.4,21.6-11.9,43-19.8,64.5
		c-17.4,47.5-35.3,77.7-53.4,90.8c-6.7,4.7-13.9,7-21.5,6.8c-5.1-0.1-9.9-1.2-14.4-3.3C750.5,303.9,746.8,301.3,743.8,297.9z"/>
</g>
<g>
	<path class="st1" d="M323.6,468.1c7,2,14.1,3.9,21.1,6c12.6,3.9,25.6,6.9,38.7,7.2c13.3,0.3,26.5-2.3,39.5-5.5
		c13.5-3.3,26.8-7.7,40.8-8.3c5-0.2,10.1,0.2,15,1.4c10.1,2.5,20.1,5,30.2,7.2c4.8,1.1,5,4.9,6,8.4c1,3.3-2,4.2-3.8,5.5
		c-12.7,8.8-27.3,12.3-42.2,14.7c-19.1,3.1-38.4,2.5-57.6,1.1c-22.9-1.7-45.4-5.8-66-16.8c-9.1-4.8-16.8-11.2-22.7-19.6
		C323,469,323.3,468.5,323.6,468.1z"/>
	<path class="st1" d="M535.7,482.7c3.6-1.2,6.6,0.1,9.4,0.5c17.6,2.7,34.5-1.4,51.3-5.8c29.8-7.7,58.1-18.8,83.5-36.6
		c3-2.1,4.8-1.6,7.1,1c10,11.7,7,30.8-6.5,40.8c-8.1,6-17.3,9.2-26.9,11.5c-24.9,5.9-50.2,5.4-75.5,4.5c-11.2-0.4-22.3-3.5-32.7-8.3
		C541.8,488.6,538.1,486.7,535.7,482.7z"/>
	<path class="st1" d="M172.8,458.3c24.4,9.1,48.9,4,73.3,3.5c15.1-0.3,30.2-0.1,45.3-0.1c5,0,8.3,1.9,10,7.2c1.3,4,3.9,7.7,6.3,11.3
		c1.9,2.8,1.4,4.1-1.6,5.5c-12.2,5.9-25.3,9.5-38.6,10.5c-18,1.4-36.2,1.7-54-3c-15.7-4.2-30-10.6-38.1-26
		C174.1,464.7,172.7,462.3,172.8,458.3z"/>
	<path class="st2" d="M607.5,530.6c0.4,0,0.7,0,1-0.2C608.2,530.6,607.8,530.6,607.5,530.6z"/>
	<path class="st3" d="M300.3,537.7c0.2-0.2,0.4-0.2,0.6,0c0,0-0.3,0.2-0.3,0.2L300.3,537.7z"/>
</g>
<path class="st0" d="M632.4,331.7c0,0-7.4,9.1-44,0c-36.7-9.1-21.1-38.5-21.1-38.5c-36.2,2.8-49.2-12.6-53.1-28.4
	c-6.6,1.9-13,4.2-19.4,7c-3.5,1.5-3.4,2.3-1,4.8c20.9,22.6,27.9,49.9,26.3,79.9c-0.3,5.5-3.3,8.3-8.5,8.4c-7.3,0.2-9.7-2-9.5-9.6
	c0.3-13.8-0.2-27.5-5.4-40.3c-10.6-25.9-29.9-43.2-55.7-53.3c-18.3-7.1-37.4-8.1-56.5-4.4c-12.5,2.4-24.4,6.7-35.5,14.2
	c5.6,4.6,10.8,9.3,15.1,14.7c17.1,21.2,24.5,45.5,23.3,72.5c-0.1,1.7-0.7,2.9-1.8,4c-2.5,2.5-5.6,4.4-9.1,2.9c-5-2-7.3-6.1-7.2-11.6
	c0.3-20.7-5.3-39.6-18.7-55.6c-16.9-20.2-38.1-34.3-64.5-37.7c-25.7-3.3-49.1,4.3-68.7,21.6c-15.3,13.5-23,30.6-22.8,51.1
	c0.1,9,2,17.8,4.6,26.4c4.9,15.9,14.7,28.3,28.9,36.7c12.6,7.4,26.8,11,41.2,11.2c39.7,0.6,79.4,0.1,119.1,0
	c1.7,0.1,3.4,0.2,5.1,0.2c57.5,0,115,0,172.4,0c6.6,0,13.2,0.2,19.7-1.1c23-4.6,41.5-15,52.1-34.9
	C618.9,358.5,632.4,331.7,632.4,331.7z"/>
<path class="st4" d="M688.4,383.3c-19.2,4.2-34.6-1.9-34.6-1.9c-4.2,7.5-9.8,14.2-16.5,20.2c-16.8,15.1-36.3,24.4-58.8,24.5
	c-102.5,0.4-204.9,0.1-307.4,0.2c-8.2,0-16.2-1-24-2.9c-34.1-8.3-57.8-28-67-63c-1-3.9-2.6-3.9-5.6-2.4
	c-12.4,6.1-20.7,15.9-24.3,29.1c-6.1,22.5,6.4,45,29.2,53.8c12.8,4.9,25.8,4.6,39.3,3.9c21.3-1.2,42.6-2,63.9-1.8
	c19.8,0.2,38.4,5.5,57,11c12.5,3.7,25,7.4,38.1,8.5c20.2,1.6,39.4-4.2,58.6-8.7c11.2-2.6,22.3-5.8,33.8-4.5
	c10.2,1.2,20.2,3.7,30.2,6c18.2,4.3,36.1,10.3,57.1,9.4c3-0.3,7.8,0.3,12.7-0.5c12-2,23.8-4.9,35.4-8.6c25.2-8,49.6-17.9,70.1-35.2
	c8-6.8,14.9-15,14.4-26.2C690.1,390.4,689.5,386.7,688.4,383.3z"/>
<path class="st0" d="M662.3,517.4c-96.7,18.1-140.4-12.4-140.4-12.4c-82.1,55.7-203.9,0-203.9,0c-43.8,27.6-123.6,7.8-123.6,7.8
	S244.9,571,416.2,570C587.4,569,662.3,517.4,662.3,517.4z"/>
<path class="st0" d="M629.7,287.5c-8.9,5.8-17.9,11.5-26.7,17.4c-3.9,2.6-7.2,2.6-10.2-1.4c-0.5-6.7-2-13.6-1.3-20.1
	c1-9.1,7.5-12.5,15.7-11.3c6.5,0.9,12.9,3.8,19.2,6.1C630.4,279.7,632.9,282.4,629.7,287.5z"/>
<path class="st0" d="M691.2,296.2c-0.8,1.9-4.5,5.9-5.5,5.5c-11.3-4.6-22.9-8.8-33.1-15.3c-4.3-2.7,1.2-8.4,4.9-9.8l33.7-15.8
	C691.2,260.8,700.5,274.8,691.2,296.2z"/>
<path class="st0" d="M692.9,342.7c-1.3,0.9-4.3,4.7-6.9,4.5c-10-0.7-20-2.3-29.6-4.7c-2.1-0.5-4.9-6.4-4.1-8.6
	c3.5-9.3,10.6-16,21-17.4C685.3,314.8,693.3,324.6,692.9,342.7z"/>
<path class="st5" d="M247.1,271.9c0,0-97,130.4,125.8,131.8H264.1c0,0-60.1-2.6-64.4-68.8C199.7,334.9,194.4,290.2,247.1,271.9z"/>
</svg>
