<?xml version="1.0" encoding="UTF-8"?><svg style="display: block; transform: scale(-1,1)" id="Laag_1" xmlns="http://www.w3.org/2000/svg" viewBox="0 0 924.9 833.07"><defs><style>.cls-1{fill:#fff;}.cls-2{fill:#bd6a19;}.cls-3{fill:#be6b19;}.cls-4{fill:#d59038;}.cls-5{fill:#d374ac;}.cls-6{fill:#c11717;}.cls-7{fill:none;}.cls-7,.cls-8{stroke:#b96818;stroke-linecap:round;stroke-linejoin:round;stroke-width:22px;}.cls-9{fill:#4eae33;}.cls-10{fill:#d0741c;}.cls-8{fill:#b96818;}.cls-11{fill:#1d1d1b;}</style></defs><path class="cls-10" d="m495.84,604.49h300.11c37.55,0,60.85-40.84,41.74-73.17l-149.29-252.46L537.58,23.81c-18.77-31.74-64.7-31.74-83.47,0l-150.82,255.05-149.29,252.46c-19.11,32.32,4.19,73.17,41.74,73.17h300.11Z"/><path class="cls-7" d="m334.25,822.07c1.5-34.1-25.38-73.45-23.88-107.55,1.66-37.6,31.7-69.95,33.35-107.55"/><path class="cls-7" d="m523.83,822.07c1.5-34.1-25.38-73.45-23.88-107.55,1.66-37.6,31.7-69.95,33.35-107.55"/><path class="cls-4" d="m533.82,539.78h246.04c30.78,0,49.88-33.49,34.22-59.98l-122.39-206.98-123.65-209.1c-15.39-26.02-53.04-26.02-68.43,0l-123.65,209.1-122.39,206.98c-15.67,26.5,3.43,59.98,34.22,59.98h246.04Z"/><path class="cls-9" d="m557.94,285h0c-30.99-28.85-60.05-97.68-43.67-103.45h0c10.31-3.63,2.59-35.21-16.61-67.9h0c-30.49-51.91-27.35-89.05,4.72-55.8h0c20.19,20.93,31.11,14.73,23.48-13.33h0c-12.12-44.57,21.37-28.25,50.34,24.53h0c18.24,33.24,41.41,56.04,49.81,49.04h0c13.34-11.11,57.58,49.1,66.48,90.5h0c5.61,26.07,27.45,64.52,46.96,82.69h0c30.99,28.85,60.05,97.68,43.67,103.45h0c-10.31,3.63-2.59,35.21,16.61,67.9h0c30.49,51.91,27.35,89.05-4.72,55.8h0c-20.19-20.93-31.11-14.73-23.48,13.33h0c12.12,44.57-21.37,28.25-50.34-24.53h0c-18.24-33.24-41.41-56.04-49.81-49.04h0c-13.34,11.11-57.58-49.1-66.48-90.5h0c-5.61-26.07-27.45-64.52-46.96-82.69Z"/><path class="cls-9" d="m267.05,238.13h0c-19.03-7.78-26.1-37.9-10.63-45.27h0c9.74-4.64,11.28-19.9,3.31-32.82h0c-12.65-20.51-.41-41.61,18.4-31.71h0c11.85,6.23,22.76.03,23.48-13.33h0c1.13-21.23,25.52-20.94,36.66.43h0c7.01,13.46,20.91,19.95,29.89,13.96h0c14.25-9.51,36.5,11.99,33.44,32.32h0c-1.93,12.8,6.81,28.18,18.79,33.08h0c19.03,7.78,26.1,37.9,10.63,45.27h0c-9.74,4.64-11.28,19.9-3.31,32.82h0c12.65,20.51.41,41.61-18.4,31.71h0c-11.85-6.23-22.76-.03-23.48,13.33h0c-1.13,21.23-25.52,20.94-36.66-.43h0c-7.01-13.46-20.91-19.95-29.89-13.96h0c-14.25,9.51-36.5-11.99-33.44-32.32h0c1.93-12.8-6.81-28.18-18.79-33.08Z"/><circle class="cls-6" cx="666.82" cy="429.58" r="108.64"/><circle class="cls-6" cx="558.18" cy="198.44" r="108.64"/><path class="cls-2" d="m440.79,623.18h300.11c37.55,0,60.85-40.84,41.74-73.17l-149.29-252.46L482.53,42.5c-18.77-31.74-64.7-31.74-83.47,0l-150.82,255.05-149.29,252.46c-19.11,32.32,4.19,73.17,41.74,73.17h300.11Z"/><path class="cls-4" d="m440.79,581.48h246.04c30.78,0,49.88-33.49,34.22-59.98l-122.39-206.98-123.65-209.1c-15.39-26.02-53.04-26.02-68.43,0l-123.65,209.1-122.39,206.98c-15.67,26.5,3.43,59.98,34.22,59.98h246.04Z"/><circle class="cls-1" cx="440.86" cy="250.2" r="77.12"/><circle class="cls-11" cx="442.19" cy="248.59" r="53.65"/><circle class="cls-1" cx="464.53" cy="226.77" r="14.77"/><circle class="cls-10" cx="310.31" cy="345.64" r="13.48"/><circle class="cls-10" cx="279.64" cy="384.2" r="13.48"/><ellipse class="cls-10" cx="318.11" cy="395.53" rx="11.21" ry="11.33"/><circle class="cls-10" cx="558.18" cy="397.69" r="13.48"/><circle class="cls-10" cx="598.5" cy="370.72" r="13.48"/><circle class="cls-10" cx="544.69" cy="345.64" r="13.48"/><line class="cls-8" x1="727.95" y1="502.65" x2="913.9" y2="428.99"/><path class="cls-10" d="m520.72,172.14c0,5.51-.94,10.84-2.67,15.91-9-26.1-39.55-45.3-75.87-45.3s-66.85,19.2-75.85,45.3c-6.08-17.85-2.41-38.88,17.66-59.66,1.11-1.15,2.46-2.17,3.96-3,63.92-35.33,132.77-.56,132.77,46.75Z"/><line class="cls-8" x1="11" y1="411.17" x2="125.6" y2="520.47"/><ellipse class="cls-1" cx="422.23" cy="267.79" rx="19.96" ry="19.19"/><circle class="cls-3" cx="437.01" cy="472.43" r="85.15"/><circle class="cls-5" cx="475.39" cy="482.25" r="47.59"/></svg>