<?xml version="1.0" encoding="UTF-8"?><svg id="Laag_1" xmlns="http://www.w3.org/2000/svg" viewBox="0 0 841.04 735.72"><defs><style>.cls-1{fill:#fff;}.cls-2{fill:#bd6a19;}.cls-3{fill:#be6b19;}.cls-4{fill:#d59038;}.cls-5{fill:#d374ac;}.cls-6{fill:#c11717;}.cls-7,.cls-8{stroke:#b96818;stroke-width:20px;}.cls-7,.cls-8,.cls-9{stroke-linecap:round;stroke-linejoin:round;}.cls-7,.cls-9{fill:none;}.cls-8{fill:#b96818;}.cls-9{stroke:#be6b19;stroke-width:13px;}.cls-10{fill:#4eae33;}.cls-11{fill:#d0741c;}.cls-12{fill:#1d1d1b;}</style></defs><path class="cls-11" d="m438.02,533.64h264.93c33.15,0,53.72-36.06,36.84-64.59l-131.79-222.87L474.86,21.02c-16.57-28.02-57.12-28.02-73.69,0l-133.14,225.16-131.79,222.87c-16.87,28.53,3.7,64.59,36.84,64.59h264.93Z"/><path class="cls-7" d="m295.36,725.72c1.33-30.1-22.41-64.84-21.08-94.94,1.46-33.19,27.98-61.75,29.44-94.94"/><path class="cls-7" d="m462.72,725.72c1.33-30.1-22.41-64.84-21.08-94.94,1.46-33.19,27.98-61.75,29.44-94.94"/><path class="cls-4" d="m471.54,476.51h217.2c27.18,0,44.04-29.56,30.21-52.95l-108.05-182.72-109.15-184.59c-13.58-22.97-46.83-22.97-60.41,0l-109.15,184.59-108.05,182.72c-13.83,23.39,3.03,52.95,30.21,52.95h217.2Z"/><path class="cls-10" d="m492.83,251.6h0c-27.36-25.47-53.01-86.23-38.55-91.33h0c9.11-3.21,2.29-31.08-14.66-59.94h0c-26.92-45.83-24.15-78.61,4.16-49.26h0c17.83,18.48,27.46,13.01,20.72-11.77h0c-10.7-39.34,18.87-24.93,44.44,21.66h0c16.11,29.34,36.55,49.47,43.97,43.29h0c11.78-9.81,50.83,43.35,58.69,79.89h0c4.95,23.01,24.23,56.96,41.46,73h0c27.36,25.47,53.01,86.23,38.55,91.33h0c-9.11,3.21-2.29,31.08,14.66,59.94h0c26.92,45.83,24.15,78.61-4.16,49.26h0c-17.83-18.48-27.46-13.01-20.72,11.77h0c10.7,39.34-18.87,24.93-44.44-21.66h0c-16.11-29.34-36.55-49.47-43.97-43.29h0c-11.78,9.81-50.83-43.35-58.69-79.89h0c-4.95-23.01-24.23-56.96-41.46-73Z"/><path class="cls-10" d="m236.04,210.22h0c-16.8-6.87-23.04-33.46-9.38-39.97h0c8.6-4.1,9.96-17.57,2.93-28.97h0c-11.17-18.11-.36-36.73,16.25-27.99h0c10.46,5.5,20.09.03,20.72-11.77h0c1-18.74,22.53-18.49,32.36.38h0c6.19,11.88,18.46,17.61,26.38,12.33h0c12.58-8.4,32.22,10.59,29.52,28.53h0c-1.7,11.3,6.01,24.88,16.59,29.2h0c16.8,6.87,23.04,33.46,9.38,39.97h0c-8.6,4.1-9.96,17.57-2.93,28.97h0c11.17,18.11.36,36.73-16.25,27.99h0c-10.46-5.5-20.09-.03-20.72,11.77h0c-1,18.74-22.53,18.49-32.36-.38h0c-6.19-11.88-18.46-17.61-26.38-12.33h0c-12.58,8.4-32.22-10.59-29.52-28.53h0c1.7-11.3-6.01-24.88-16.59-29.2Z"/><circle class="cls-6" cx="588.95" cy="379.23" r="95.91"/><circle class="cls-6" cx="493.04" cy="175.18" r="95.91"/><path class="cls-2" d="m389.42,550.14h264.93c33.15,0,53.72-36.06,36.84-64.59l-131.79-222.87L426.26,37.52c-16.57-28.02-57.12-28.02-73.69,0l-133.14,225.16-131.79,222.87c-16.87,28.53,3.7,64.59,36.84,64.59h264.93Z"/><path class="cls-4" d="m389.42,513.32h217.2c27.18,0,44.04-29.56,30.21-52.95l-108.05-182.72-109.15-184.59c-13.58-22.97-46.83-22.97-60.41,0l-109.15,184.59-108.05,182.72c-13.83,23.39,3.03,52.95,30.21,52.95h217.2Z"/><circle class="cls-1" cx="389.48" cy="220.87" r="68.09"/><circle class="cls-12" cx="390.65" cy="219.45" r="47.36"/><circle class="cls-1" cx="410.38" cy="200.19" r="13.04"/><circle class="cls-11" cx="274.23" cy="305.13" r="11.9"/><circle class="cls-11" cx="247.15" cy="339.17" r="11.9"/><ellipse class="cls-11" cx="281.11" cy="349.17" rx="9.9" ry="10"/><circle class="cls-11" cx="493.04" cy="351.07" r="11.9"/><circle class="cls-11" cx="528.64" cy="327.27" r="11.9"/><circle class="cls-11" cx="481.14" cy="305.13" r="11.9"/><line class="cls-8" x1="666.88" y1="490.35" x2="831.04" y2="425.33"/><line class="cls-8" x1="10" y1="362.98" x2="111.17" y2="459.46"/><path class="cls-3" d="m461.35,157.6c0,5.02-.83,9.87-2.36,14.49-7.94-23.76-34.91-41.24-66.98-41.24s-59.01,17.48-66.96,41.24c-5.37-16.25-2.13-35.4,15.59-54.32.98-1.04,2.17-1.98,3.5-2.73,56.43-32.17,117.21-.51,117.21,42.56Z"/><ellipse class="cls-1" cx="373.03" cy="236.4" rx="17.62" ry="16.94"/><path class="cls-9" d="m356.18,348.92s-40.45,11.18,0,31.68c40.45,20.5,92.45,7.45,89.56,55.91-2.89,48.45-78,35.41-78,35.41l24.29-70.44"/><path class="cls-4" d="m405.19,428.62c3.22,0,3.22-5,0-5s-3.22,5,0,5h0Z"/><path class="cls-2" d="m401.12,403.66c-1.12,7.7-.02,15.3.36,23.01.31,6.19-.01,12.29-3,17.85-2.24,4.17-5.94,8.16-10.74,8.78-.85.11-2.45.35-3.18-.19-.79-.58-.55-2.39-.5-3.26.18-3.83.56-7.67,1.06-11.47,1.12-8.5,3-16.91,5.51-25.11h-4.82c3.46,9.5,4.3,19.8,2.25,29.72-.25,1.21.25,2.47,1.45,2.95,1.04.42,2.62.13,3.12-1.02,2-4.59,4-9.19,6-13.78l-4.66-1.26c.81,10.08.37,20.24-1.44,30.2l4.91.66c1.6-15.28,2.23-30.65,1.87-46-.07-2.93-3.95-3.25-4.91-.66-5.73,15.33-9.48,31.3-11.3,47.56-.22,1.95,2.26,3.03,3.76,2.16,6.89-4,13.79-8,20.68-12l-3.67-1.49c.71,2.72-1.51,6.12-4.47,6.29l1.26,4.66c6.3-3.5,12.6-6.99,18.9-10.49,2.41-1.34.77-5.6-1.93-4.57-6.58,2.51-11.69,8.19-13.08,15.17-.35,1.76,1.14,3.7,3.08,3.08,12.6-4.09,22.77-13.64,27.83-25.84.88-2.11-1.95-3.82-3.67-2.82-2.53,1.46-5.05,2.93-7.58,4.39l3.67,1.49c-.81-5.55-.02-11.21,2-16.42h-4.82c1.05,2.81,1.57,5.67,1.52,8.67s4.06,3.3,4.91.66c1.32-4.09,1.84-8.43,1.49-12.72l-4.91.66c2.25,6.62,4.49,13.25,6.74,19.87.68,2.01,3.42,2.51,4.57.6,4.22-7.06,5.16-15.9,2.41-23.66-.59-1.67-2.83-2.59-4.18-1.1-2.89,3.17-4.52,7.12-4.7,11.4h5c-.82-7.51-1.64-15.03-2.45-22.54-.26-2.34-3.29-3.56-4.66-1.26-3.12,5.24-6.24,10.48-9.36,15.72h4.32c-1.53-3.12-2.54-6.43-3.11-9.86-.47-2.85-4.87-2.07-4.91.66-.19,11.71-.92,23.41-2.19,35.05h5c-.36-4.58-1.29-9.07-2.88-13.38-.66-1.8-2.7-2.41-4.18-1.1-4.57,4.06-7.91,9.33-9.75,15.16l4.91.66c.26-6.15.52-12.29.77-18.44.06-1.35-1.19-2.5-2.5-2.5-1.45,0-2.38,1.15-2.5,2.5-.44,5.16-.89,10.33-1.33,15.49-.25,2.87,4.15,3.3,4.91.66,4.28-14.87,8.57-29.74,12.85-44.61h-4.82c2.34,6.57,2.73,13.61,1.01,20.38l4.91.66c.68-8.51-2.22-16.96-7.73-23.44-1.04-1.22-3.2-.82-3.93.51-4.8,8.73-7.76,18.27-8.86,28.17h5c.5-6.59.99-13.18,1.49-19.77l-4.91.66c4.54,16.39,9.08,32.78,13.62,49.17.62,2.23,4.39,2.53,4.82,0,1.42-8.38,1.89-16.86,1.29-25.34-.1-1.35-1.08-2.5-2.5-2.5-1.28,0-2.6,1.15-2.5,2.5.57,8.02.24,16.09-1.11,24.01h4.82c-4.54-16.39-9.08-32.78-13.62-49.17-.78-2.82-4.7-2.07-4.91.66-.5,6.59-.99,13.18-1.49,19.77-.1,1.35,1.22,2.5,2.5,2.5,1.47,0,2.35-1.15,2.5-2.5.99-8.99,3.82-17.74,8.18-25.65l-3.93.51c4.67,5.5,6.84,12.75,6.26,19.91-.23,2.83,4.23,3.36,4.91.66,1.93-7.59,1.62-15.66-1.01-23.04-.81-2.26-4.11-2.49-4.82,0-4.28,14.87-8.57,29.74-12.85,44.61l4.91.66c.44-5.16.89-10.33,1.33-15.49h-5c-.26,6.15-.52,12.29-.77,18.44-.12,2.9,4.08,3.28,4.91.66,1.59-5.04,4.52-9.45,8.46-12.95l-4.18-1.1c1.43,3.89,2.37,7.92,2.7,12.05.26,3.25,4.65,3.18,5,0,1.27-11.64,2-23.34,2.19-35.05l-4.91.66c.64,3.86,1.89,7.54,3.61,11.05.85,1.73,3.41,1.52,4.32,0,3.12-5.24,6.24-10.48,9.36-15.72l-4.66-1.26c.82,7.51,1.64,15.03,2.45,22.54.15,1.34,1.04,2.5,2.5,2.5s2.44-1.15,2.5-2.5c.12-2.93,1.26-5.7,3.24-7.87l-4.18-1.1c2.33,6.57,1.68,13.81-1.9,19.81l4.57.6c-2.25-6.62-4.49-13.25-6.74-19.87-.4-1.17-1.48-1.98-2.74-1.79-1.14.17-2.27,1.2-2.17,2.46.31,3.89-.11,7.68-1.31,11.39l4.91.66c.06-3.4-.5-6.81-1.7-10-.89-2.38-3.91-2.34-4.82,0-2.37,6.1-2.95,12.63-2,19.07.24,1.64,2.42,2.22,3.67,1.49,2.53-1.46,5.05-2.93,7.58-4.39l-3.67-2.82c-4.35,10.49-13.56,18.85-24.34,22.35l3.08,3.08c1.03-5.18,4.59-9.77,9.59-11.67l-1.93-4.57c-6.3,3.5-12.6,6.99-18.9,10.49-2.11,1.17-1.24,4.8,1.26,4.66,6.18-.36,10.87-6.56,9.29-12.62-.41-1.57-2.29-2.29-3.67-1.49-6.89,4-13.79,8-20.68,12l3.76,2.16c1.77-15.79,5.56-31.34,11.12-46.23l-4.91-.66c.36,15.36-.26,30.73-1.87,46-.29,2.78,4.41,3.43,4.91.66,1.89-10.4,2.47-20.99,1.62-31.53-.09-1.11-.71-2.1-1.84-2.41-.98-.27-2.39.15-2.82,1.15-2,4.59-4,9.19-6,13.78l4.57,1.93c2.23-10.77,1.52-22.03-2.25-32.38-.83-2.27-4.07-2.47-4.82,0-2.48,8.11-4.32,16.41-5.47,24.82-.58,4.26-1.03,8.55-1.26,12.85-.2,3.56.66,7.45,4.6,8.47,6.2,1.6,12.7-2.24,16.41-6.95,4.15-5.26,6.17-11.7,6.45-18.34.39-9.26-1.95-18.57-.6-27.8.19-1.33-.33-2.69-1.75-3.08-1.18-.32-2.88.4-3.08,1.75h0Z"/><path class="cls-2" d="m410.16,413.44c-.54,4.11-1.08,8.21-1.62,12.32-.14,1.03.87,2.19,1.84,2.41,1.09.25,2.23-.17,2.82-1.15.35-.58.68-1.18,1.04-1.76.16-.26.32-.52.49-.77.03-.05.39-.53.19-.28s.22-.25.22-.24l-4.18-1.1c-.04-.27-.01-.14,0,.05,0,.16.01.32.01.49,0,.37-.04.74-.07,1.11-.03.41.07-.33-.01.08-.03.16-.05.33-.08.49-.06.37-.13.73-.2,1.09-.23,1.28.35,2.76,1.75,3.08,1.22.28,2.83-.37,3.08-1.75.37-2.02.67-3.93.36-5.98-.28-1.85-3.01-2.41-4.18-1.1-1.1,1.23-1.87,2.66-2.72,4.07l4.66,1.26c.54-4.11,1.08-8.21,1.62-12.32.17-1.3-1.27-2.55-2.5-2.5-1.5.07-2.32,1.1-2.5,2.5h0Z"/><path class="cls-2" d="m415.05,429.93c3.22,0,3.22-5,0-5s-3.22,5,0,5h0Z"/><path class="cls-2" d="m420,415.94c3.22,0,3.22-5,0-5s-3.22,5,0,5h0Z"/><path class="cls-2" d="m421.8,410.65c-4.54,1.26-9.19,1.78-13.9,1.53-1-.05-2.02-.1-3-.26-.24-.04-.48-.09-.71-.16-.14-.09-.08-.03.19.18.2.41-.13-.77-.06-.36-.38-2.09-.69-3.64-2.89-4.51-1.56-.62-3.14.94-3.16,2.41-.24,14.74-8.45,27.83-10.5,42.26-.3,2.09-.3,4.28-.83,6.33-.25.97-1.14,3.09-2.49,2.87l1.49,1.15c-.59-.92-1.01-1.99-.84-3.11l-4.18,1.1c1.34,1.38,2.78,2.63,4.33,3.78,1.43,1.06,2.96,2.16,4.81,2.21,3.61.1,5.55-3.44,6.49-6.41h-4.82c.32,1.7.64,3.4.96,5.1.23,1.21,1.61,1.96,2.74,1.79,1.31-.2,2.03-1.18,2.17-2.46.15-1.36.3-2.72.45-4.07l-4.27,1.77s-.05-.4-.04-.44c-.63,2.8,2.99,4.3,4.57,1.93.91-1.36,1.04-2.83.81-4.41-.4-2.77-5.11-2.14-4.91.66.1,1.35.19,2.69.29,4.04s1.08,2.5,2.5,2.5c1.28,0,2.6-1.15,2.5-2.5s-.19-2.69-.29-4.04l-4.91.66c.02.13-.3.54-.31.56l4.57,1.93c.37-1.64-.01-3.24-1.24-4.42-1.69-1.62-4.03-.32-4.27,1.77-.15,1.36-.3,2.72-.45,4.07l4.91-.66c-.32-1.7-.64-3.4-.96-5.1-.48-2.56-4.13-2.19-4.82,0-.26.81-.55,1.64-1.08,2.32-.34.44-.37.5-.69.36-2.07-.92-3.95-2.86-5.5-4.46-1.19-1.23-3.9-.8-4.18,1.1-.35,2.41-.08,4.9,1.35,6.96,1.54,2.22,4.95,1.3,6.77-.04,4.21-3.1,3.66-8.59,4.46-13.19,1.58-9.07,5.31-17.56,7.85-26.37,1.45-5.05,2.48-10.26,2.57-15.53l-3.16,2.41c-.86-.34-.93-1.13-.76-.21-.03-.2-.02-.14.02.18.04.32.08.63.13.95.18.98.6,1.95,1.34,2.64,1.79,1.67,4.78,1.6,7.07,1.73,5.12.27,10.29-.35,15.23-1.71,3.1-.86,1.78-5.68-1.33-4.82h0Z"/><path class="cls-2" d="m376.99,463.85v2.88c-.01.34.06.67.22.96.1.31.27.58.52.8.23.24.49.42.8.52.3.16.62.23.96.22.65-.03,1.32-.24,1.77-.73s.73-1.09.73-1.77v-2.88c.01-.34-.06-.67-.22-.96-.1-.31-.27-.58-.52-.8-.23-.24-.49-.42-.8-.52-.3-.16-.62-.23-.96-.22-.65.03-1.32.24-1.77.73s-.73,1.09-.73,1.77h0Z"/><path class="cls-2" d="m377,463.42c.29-1.21.89-1.7,1.75-2.51.46-.43.33-.07.16-.24.48.51.78,1.37,1.09,1.99.68,1.38,1.3,2.79,1.85,4.24s.95,3.09,1.58,4.57c.68,1.61,2.06,2.8,3.86,2.86,1.67.06,3.3-.78,4.75-1.49,2.84-1.39,5.43-3.31,7.66-5.54s-1.26-5.82-3.54-3.54-4.8,4.06-7.69,5.25c-.13.05-.76.2-.8.28-.02.02-.04.04-.05.06-.14.19.04.34.53.43-.08.04-.53-1.45-.58-1.62-.56-1.75-1.22-3.46-1.94-5.14-1.19-2.79-2.68-7.23-6.34-7.34-3.45-.1-6.36,3.34-7.11,6.42s4.06,4.46,4.82,1.33h0Z"/><path class="cls-2" d="m393.54,399.89c.02,4.93.11,9.84.92,14.71.16.95,1.2,1.69,2.08,1.79,1.07.13,1.87-.35,2.49-1.19,2.61-3.51,4.03-7.65,4.42-11.98.25-2.79-4.36-3.42-4.91-.66-.72,3.6-1.44,7.21-2.16,10.81l4.82,1.33,2.35-13.62-4.57.6c2.61,5.54,6.07,10.62,10.19,15.14,1.17,1.29,3.9.76,4.18-1.1.5-3.34-1.2-5.68-3.37-8.02-.2-.22-.97-1.36-1.25-1.39-.22-.02-.34.51-.08.52.19.01.8-.73.99-.91.7-.64,1.4-1.28,2.11-1.91.11-.1.68-.46.71-.54-.15.31-1.19-.28-1.23-.53v-1.33l.09-.09,1.49-1.15c-1.72.31-3.45.43-5.2.42-1.35-.01-2.5,1.16-2.5,2.5,0,1.48,1.15,2.34,2.5,2.5,3.18.37,6.15,1.65,8.76,3.47v-4.32c-2.19,1.05-4.49,1.77-6.86,2.25l1.33,4.82c3.79-1.03,7.66-1.76,11.58-2.06,1.01-.08,2.03-.14,3.05-.17.14,0,1.65-.05.6-.35.11.03-.05.37-.2.54-.51.57-1.18.93-1.83,1.32l3.67,2.82c.8-2.23,1.6-4.46,2.4-6.69.96-2.68-3.22-4.39-4.57-1.93-1.69,3.1-3.12,6.33-4.28,9.67-.81,2.33,2.55,4.28,4.18,2.43s2.91-3.68,4-5.76l-4.66-1.26c.15,1.18.08,2.2-.29,3.34-.59,1.85,1.3,3.55,3.08,3.08l3.25-.87-3.08-1.75c.25.96.27,1.83.04,2.79-.39,1.58.75,3.15,2.41,3.16,2.39.02,4.53-1.21,5.73-3.28,1.13-1.95-.73-4.15-2.82-3.67-9.09,2.06-18.37,4.27-26.29,9.4l3.03,3.93c3.36-2.61,7.22-4.58,11.26-5.87l-2.82-3.67c-1.66,2.25-3.88,3.97-6.37,5.22l2.52,4.32,3.81-2.28-3.67-2.82c-.63,1.57-1.58,3.01-2.71,4.25-.74.82-.98,2.05-.39,3.03s1.38,1.79,2.41,2.29c1.21.59,2.7.33,3.42-.9.64-1.1.32-2.83-.9-3.42-.4-.19-.39-.11-.62-.49l-.39,3.03c1.75-1.93,3.03-4.05,4-6.46.84-2.09-1.94-3.86-3.67-2.82l-3.81,2.28c-2.78,1.67-.34,5.75,2.52,4.32,3.29-1.64,5.99-4.07,8.17-7.01,1.31-1.77-.86-4.3-2.82-3.67-4.92,1.58-9.39,3.99-13.47,7.16-2.24,1.74.67,5.46,3.03,3.93,7.57-4.9,16.41-6.92,25.09-8.9l-2.82-3.67c-.33.57-.74.8-1.42.8l2.41,3.16c.45-1.83.44-3.62-.04-5.45-.34-1.31-1.78-2.09-3.08-1.75l-3.25.87,3.08,3.08c.48-1.51.66-3.09.46-4.67-.14-1.11-.68-2.09-1.84-2.41-1.03-.28-2.32.17-2.82,1.15-.89,1.71-1.94,3.3-3.22,4.75l4.18,2.43c1.02-2.93,2.28-5.75,3.77-8.47l-4.57-1.93c-.8,2.23-1.6,4.46-2.4,6.69-.75,2.1,1.89,3.88,3.67,2.82,2.17-1.28,4.24-2.93,4.49-5.61.26-2.84-1.72-5.08-4.55-5.22s-5.71.29-8.48.67-5.71.99-8.5,1.75c-3.13.85-1.8,5.45,1.33,4.82,2.81-.57,5.48-1.51,8.06-2.75,1.83-.88,1.4-3.34,0-4.32-3.38-2.35-7.22-3.67-11.29-4.15v5c1.74.02,3.46-.12,5.18-.37,1.01-.15,1.96-.25,2.64-1.12.58-.75.82-1.76.61-2.69-.37-1.64-1.78-2.94-3.49-3.06s-3.1.81-4.35,1.92-2.79,2.23-3.76,3.62c-1.12,1.61-.96,3.47.17,5.03.8,1.1,1.79,2.04,2.68,3.06.49.56,1.33,1.53,1.23,2.21l4.18-1.1c-3.84-4.21-6.98-8.97-9.41-14.13-.88-1.87-4.21-1.48-4.57.6-.78,4.54-1.57,9.08-2.35,13.62-.23,1.33.35,2.69,1.75,3.08,1.23.34,2.81-.42,3.08-1.75.72-3.6,1.44-7.21,2.16-10.81l-4.91-.66c-.31,3.47-1.67,6.68-3.74,9.46l4.57.6c-.73-4.42-.72-8.92-.74-13.39-.01-3.22-5.01-3.22-5,0h0Z"/><path class="cls-2" d="m402.87,423.54c-2.15,5.31-4.89,10.38-8.07,15.15l4.57,1.93c2.88-6.82,4.66-13.98,5.48-21.33.31-2.78-4.43-3.44-4.91-.66-.63,3.67-.71,7.36-.71,11.08,0,3.4.06,6.87-.62,10.23s-1.99,6.15-4.31,8.52-5.35,4.12-8.41,5.54l3.67,1.49c-1.48-6.36-1.2-12.94.72-19.17h-4.82c1.06,6.45-.53,13.11-4.09,18.54l4.32,2.52c1.85-3.1,3.89-6.08,6.18-8.86,1.12-1.36,2.29-2.68,3.5-3.96.61-.64,1.22-1.27,1.85-1.89.37-.36.74-.72,1.11-1.07.16-.15.32-.3.48-.45.46-.34.43-.39-.06-.17l-1.26-.34c.69.32,1.26,1.96,1.5,2.7.2.6.38,1.23.46,1.86.03.2.04.4.06.6.01.21.02.42.02.64,0,.35.01.28.06-.19l1.49-1.15-.21.08h1.33l-.23-.04,1.1.64-.17-.13.64,1.1-.03-.2c-.21-1.34-1.88-2.07-3.08-1.75-1.43.39-1.95,1.74-1.75,3.08.39,2.54,3.92,2.81,5.21.89,1.07-1.59.61-3.99.2-5.73-.84-3.53-3.98-9.45-8.2-5.97-2.91,2.39-5.49,5.36-7.85,8.27s-4.69,6.2-6.69,9.53c-1.66,2.78,2.56,5.2,4.32,2.52,4.34-6.62,5.86-14.62,4.59-22.39-.42-2.58-4.15-2.17-4.82,0-2.18,7.08-2.39,14.62-.72,21.83.4,1.7,2.28,2.13,3.67,1.49,6.93-3.19,12.81-8.24,14.75-15.87s.31-15.04,1.59-22.48l-4.91-.66c-.77,6.88-2.61,13.63-5.3,20-.48,1.13.42,2.54,1.45,2.95,1.19.48,2.41.04,3.12-1.02,3.43-5.15,6.25-10.62,8.57-16.35.51-1.25-.55-2.75-1.75-3.08-1.43-.39-2.57.49-3.08,1.75h0Z"/><path class="cls-2" d="m421.7,425.98c3.22,0,3.22-5,0-5s-3.22,5,0,5h0Z"/><path class="cls-2" d="m397.84,465.04c3.22,0,3.22-5,0-5s-3.22,5,0,5h0Z"/><path class="cls-5" d="m451.87,416.5s15.86,58.43-51.52,65.13"/><path class="cls-5" d="m399.59,481.64s-15.97-58.04,51.52-65.13c0,0,.07,53.47-51.52,65.13Z"/></svg>